<?xml version="1.0" encoding="utf-8"?>
<!-- Generator: Adobe Illustrator 25.4.6, SVG Export Plug-In . SVG Version: 6.00 Build 0)  -->
<svg version="1.1" id="レイヤー_1" xmlns="http://www.w3.org/2000/svg" xmlns:xlink="http://www.w3.org/1999/xlink" x="0px"
	 y="0px" viewBox="0 0 32 32" style="enable-background:new 0 0 32 32;" xml:space="preserve">
<style type="text/css">
	.st0{fill:#3E3A39;}
	.st1{fill:#C9B54F;}
</style>
<g>
	<g>
		<g>
			<g>
				<g>
					<polygon class="st0" points="30.58,9.62 30.11,10.04 30.03,10.83 29.99,11.63 29.49,12.05 29.32,12.05 28.92,11.64 
						29.05,10.89 29.06,10.12 29.17,9.37 29.24,8.61 29.36,7.86 29.42,7.1 29.54,6.34 29.58,5.58 29.28,5.18 28.47,5.13 27.7,5.12 
						26.93,5.15 26.16,5.2 25.39,5.14 24.52,5.16 23.94,5.2 23.07,5.19 22.3,5.17 21.54,5.21 20.78,5.18 20.01,5.23 19.24,5.19 
						18.75,5.65 18.65,6.41 18.55,7.16 18.53,7.92 18.39,8.67 18.36,9.43 18.26,10.19 18.18,10.96 18.1,11.72 17.6,12.17 
						17.32,12.13 16.9,12.59 16.94,13.24 16.98,13.88 17.39,14.34 18.23,14.34 18.99,14.3 19.76,14.3 20.52,14.27 21.29,14.28 
						22.06,14.25 22.57,13.85 22.6,13.08 22.7,12.33 22.83,11.58 22.89,10.82 22.96,10.06 23.02,9.3 23.1,8.54 23.18,7.78 
						23.7,7.33 24.28,7.36 24.66,7.77 24.6,8.53 24.47,9.28 24.44,10.04 24.37,10.8 24.26,11.55 24.17,12.31 24.09,13.07 
						24.01,13.84 24.38,14.23 24.9,14.29 25.77,14.28 26.58,14.21 27.39,14.25 28.2,14.22 29.08,14.22 29.29,14.21 30.16,14.23 
						31.15,14.19 31.59,13.78 31.68,13.03 31.77,12.29 31.82,11.53 31.87,10.78 31.95,10.02 31.57,9.62 					"/>
				</g>
				<g>
					<path class="st0" d="M30.82,27.16l-0.42-0.47l-0.8,0.04l-0.71-0.33l-0.5-0.56l-0.47-0.59l-0.47-0.59l-0.5-0.57l-0.46-0.61
						l-0.04-0.69l0.34-0.65l0.39-0.62l0.35-0.64l0.34-0.65l0.35-0.64l0.41-0.61l0.36-0.63l0.34-0.65l0.38-0.63l0.33-0.66l0.37-0.64
						l-0.2-0.39l-0.83,0.04l-0.84-0.02l-0.84,0.03l-0.87-0.02l-0.54,0.01l-0.87,0.02l-0.75,0.03l-0.75,0l-0.75-0.04l-0.75,0.05
						l-0.75-0.04l-0.75,0l-0.75,0.02l-0.75-0.01l-0.75,0l-0.75,0.07l-0.75-0.02l-0.87-0.02l-0.21,0.05l-0.4-0.47l0.05-0.72
						l0.08-0.72l0.06-0.72l0.1-0.72L16,11.46l0.1-0.72l0.07-0.72l0.04-0.72l0.09-0.72l0.09-0.72l0.04-0.73l0.06-0.73l0.09-0.72
						l-0.42-0.4l-0.6-0.02l-0.6,0.02l-0.87,0l-0.88-0.02l-0.88,0l-0.87,0.01l-0.23-0.01l-0.7-0.33l-0.44-0.59L9.6,3.8L9.13,3.24
						L8.69,2.65l-0.43-0.6L7.77,1.49L7.29,0.93L6.83,0.36L6.51,0.43L6.46,1.17l0,0.74L6.37,2.65L6.29,3.39L6.24,4.13L6.16,4.87
						L5.71,5.35L5.17,5.3L4.62,5.33L4.08,5.34L3.9,5.75L3.87,6.47l-0.1,0.72L3.7,7.91L3.69,8.64L3.63,9.36L3.5,10.08L3.44,10.8
						l-0.02,0.73l-0.08,0.72l-0.09,0.72l-0.06,0.73l-0.02,0.73l-0.13,0.72L2.6,15.59l-0.72-0.02l-0.72,0L0.44,15.6L0,16.04
						l0.09,0.64l-0.01,0.65l0.47,0.47l0.62-0.05l0.62,0l0.62-0.01l0.41,0.46l-0.04,0.7l-0.1,0.69l-0.02,0.7l-0.13,0.69l-0.03,0.7
						l-0.08,0.7l-0.05,0.7l-0.07,0.7l-0.07,0.7l-0.04,0.7l-0.06,0.7l-0.05,0.7l-0.07,0.7l-0.07,0.7l-0.09,0.7l0.41,0.41l0.68,0.05
						l0.68-0.02l0.47-0.45l0.04-0.7l0.11-0.69l0.03-0.7l0.08-0.69l0.05-0.7l0.05-0.7l0.07-0.7l0.1-0.7l0.07-0.7l0.02-0.7l0.05-0.7
						l0.1-0.7l0.04-0.7l0.11-0.7l0.02-0.71l0.5-0.45l0.69-0.01l0.69,0.05l0.69-0.07l0.69,0.06l0.69,0l0.69-0.02l0.69-0.03l0.43,0.44
						l-0.09,0.7l-0.11,0.7l-0.06,0.7l0,0.71l-0.07,0.71l-0.05,0.71l-0.09,0.7l-0.04,0.71l-0.1,0.71l-0.04,0.71l-0.1,0.7l-0.06,0.71
						L9.88,27.3L9.8,28.01l-0.04,0.71L9.7,29.43l-0.05,0.71l-0.11,0.71l-0.02,0.72l0.26,0.14l0.58-0.37l0.52-0.45l0.56-0.41
						l0.52-0.45l0.55-0.42l0.57-0.4l0.55-0.43l0.56-0.42l0.4-0.72l0.04-0.73l0.08-0.73l0.01-0.74l0.07-0.73l0.09-0.73l0.03-0.74
						l0.09-0.73l0.05-0.73l0.08-0.73l0.12-0.73l0.04-0.74l0.07-0.74l0.07-0.74l0.46-0.46l0.51,0.02l0.41-0.01l0.46-0.03l0.69,0.02
						l0.69-0.04l0.69,0.04l0.69,0.01l0.69-0.05l0.69,0.03l0.69-0.03l0.69-0.03l0.69,0.03l0.69-0.01l0.19,0.36l-0.37,0.72l-0.4,0.7
						l-0.66,0.37l-0.77,0l-0.77,0.01l-0.77,0.02l-0.78-0.02l-0.78,0.04l-0.18,0.34l0.47,0.51l0.46,0.53l0.45,0.54l0.44,0.54
						l0.42,0.56l0.09,0.71l-0.36,0.56l-0.32,0.59l-0.33,0.58l-0.31,0.59l-0.34,0.58l-0.68,0.36l-0.73,0.04l-0.74,0.02l-0.74-0.05
						l-0.42,0.46l0.04,0.64l0.02,0.65l0.47,0.46l0.85-0.06l0.87,0.05l0.78,0l0.78-0.03l0.78,0.01l0.79-0.02l0.79-0.03l0.64-0.37
						l0.31-0.54l0.32-0.54l0.32-0.54l0.52-0.06l0.43,0.59l0.47,0.56l0.49,0.54l0.7,0.38l0.6-0.07l0.6,0.02l0.87-0.02l0.6,0.03
						l0.6-0.03l0.6,0.03l0.39-0.46l-0.04-0.64L30.82,27.16z M11.04,15.1l-0.51,0.4l-0.69,0.04l-0.69,0.01l-0.69,0.04l-0.69-0.01
						l-0.69-0.01l-0.69,0.03L5.7,15.56l-0.36-0.42l0.03-0.72l0.1-0.72l0.05-0.72l0.04-0.72l0.05-0.72l0.12-0.72l0.07-0.72l0.04-0.73
						l0.09-0.73L5.94,7.9l0.5-0.45l0.69,0.04l0.69-0.03L8.5,7.47l0.69-0.03l0.69,0.02l0.69-0.01l0.69-0.01l0.43,0.44l-0.07,0.72
						L11.51,9.3l-0.02,0.73l-0.11,0.72l-0.07,0.72l-0.05,0.72l-0.08,0.72l-0.07,0.72l0,0.73L11.04,15.1z"/>
				</g>
				<g>
					<polygon class="st0" points="9.87,22.66 9.71,23.4 9.44,24.11 8.92,24.66 8.25,25.03 7.5,25.19 6.75,25.07 6.11,24.65 
						5.6,24.11 5.28,23.43 5.13,22.68 5.29,21.94 5.57,21.24 6.09,20.67 6.75,20.29 7.5,20.21 8.26,20.29 8.92,20.66 9.42,21.23 
						9.78,21.9 					"/>
				</g>
			</g>
		</g>
	</g>
	<g>
		<polygon class="st1" points="14.86,11.38 14.16,11.47 13.44,11.56 12.74,11.72 12.02,11.84 11.34,12.12 10.67,12.38 10.13,12.86 
			9.68,13.42 9.38,14.07 9.18,14.76 9.01,15.46 8.88,16.16 8.75,16.88 8.66,17.56 8.54,16.88 8.44,16.17 8.36,15.45 8.19,14.74 
			7.91,14.07 7.61,13.42 7.21,12.82 6.61,12.41 5.97,12.09 5.29,11.84 4.59,11.69 3.88,11.56 3.16,11.49 2.44,11.38 3.16,11.26 
			3.87,11.14 4.59,11.07 5.29,10.86 5.97,10.62 6.65,10.37 7.2,9.91 7.67,9.35 7.93,8.68 8.15,8 8.31,7.3 8.42,6.59 8.59,5.88 
			8.66,5.13 8.78,5.88 8.86,6.6 9,7.3 9.19,8.01 9.37,8.71 9.71,9.34 10.11,9.94 10.71,10.35 11.35,10.66 12.04,10.89 12.74,11.03 
			13.44,11.18 14.16,11.29 		"/>
	</g>
</g>
</svg>
