<?xml version="1.0" encoding="utf-8"?>
<!-- Generator: Adobe Illustrator 25.4.6, SVG Export Plug-In . SVG Version: 6.00 Build 0)  -->
<svg version="1.1" id="レイヤー_1" xmlns="http://www.w3.org/2000/svg" xmlns:xlink="http://www.w3.org/1999/xlink" x="0px"
	 y="0px" viewBox="0 0 180 180" style="enable-background:new 0 0 180 180;" xml:space="preserve">
<style type="text/css">
	.st0{fill:#C9B54F;}
	.st1{fill:#FFFFFF;}
	.st2{fill:#3E3A39;}
</style>
<g>
	<polygon class="st0" points="179.95,148.3 179.87,149.11 179.78,149.92 179.9,150.74 179.66,151.54 179.58,152.34 179.58,153.16 
		179.35,153.95 179.15,154.75 179.11,155.57 178.85,156.34 178.66,157.13 178.41,157.91 178.19,158.69 177.91,159.46 177.58,160.2 
		177.33,160.99 176.96,161.71 176.54,162.41 176.2,163.15 175.75,163.83 175.32,164.53 174.97,165.26 174.45,165.89 173.98,166.55 
		173.5,167.21 173.05,167.9 172.54,168.52 172.08,169.21 171.39,169.68 170.95,170.38 170.3,170.89 169.78,171.51 169.11,171.99 
		168.52,172.56 167.94,173.13 167.21,173.51 166.61,174.07 165.88,174.45 165.28,175.01 164.51,175.31 163.81,175.74 163.09,176.11 
		162.42,176.59 161.72,176.99 160.92,177.22 160.16,177.5 159.46,177.92 158.66,178.1 157.89,178.37 157.13,178.67 156.35,178.91 
		155.56,179.07 154.75,179.21 153.96,179.39 153.16,179.53 152.35,179.62 151.55,179.75 150.73,179.86 149.92,179.89 149.11,179.8 
		148.3,179.95 147.48,179.85 146.67,179.87 145.86,179.94 145.04,179.95 144.24,179.87 143.43,179.86 142.61,179.95 141.8,179.93 
		140.99,179.99 140.18,179.94 139.37,179.88 138.56,179.97 137.75,179.95 136.93,179.91 136.12,179.86 135.32,179.98 134.5,179.86 
		133.69,179.9 132.88,179.93 132.06,179.87 131.25,179.96 130.44,179.84 129.63,179.84 128.81,179.89 127.99,179.87 127.18,179.91 
		126.36,179.86 125.55,179.99 124.73,179.97 123.92,179.86 123.1,179.83 122.29,179.98 121.47,179.94 120.66,179.86 119.84,179.86 
		119.03,179.95 118.22,180 117.4,179.95 116.59,179.83 115.78,179.84 114.97,179.97 114.15,179.86 113.34,179.89 112.53,179.98 
		111.71,179.92 110.9,179.95 110.09,179.92 109.28,179.92 108.46,179.91 107.64,179.89 106.83,179.86 106.01,179.99 105.2,179.93 
		104.38,179.82 103.57,179.84 102.75,179.88 101.93,179.88 101.12,179.94 100.31,179.86 99.49,179.86 98.67,179.89 97.86,179.95 
		97.05,179.92 96.23,179.9 95.42,179.9 94.61,179.85 93.79,179.86 92.97,179.98 92.16,179.88 91.35,180 90.53,179.83 89.71,179.95 
		88.9,179.9 88.08,179.95 87.26,179.93 86.45,179.97 85.63,179.96 84.82,179.86 84,179.93 83.19,179.86 82.37,179.82 81.55,179.96 
		80.74,179.94 79.92,179.82 79.11,179.82 78.29,179.88 77.47,179.85 76.66,179.82 75.84,179.92 75.02,179.88 74.21,179.96 
		73.4,179.91 72.59,179.89 71.78,179.96 70.97,179.88 70.16,179.88 69.34,179.93 68.53,179.86 67.72,179.95 66.9,179.83 
		66.08,179.93 65.27,179.86 64.45,179.84 63.63,179.92 62.81,179.83 62,179.83 61.19,179.93 60.37,179.92 59.55,179.83 58.74,180 
		57.93,179.91 57.1,179.95 56.29,179.95 55.47,179.98 54.66,179.84 53.83,179.94 53.02,179.89 52.2,179.95 51.39,179.89 
		50.56,179.83 49.74,179.93 48.93,179.88 48.11,179.9 47.29,179.9 46.47,179.83 45.65,179.85 44.84,179.99 44.02,179.88 
		43.19,179.99 42.38,179.98 41.56,179.92 40.75,179.95 39.92,179.85 39.1,179.89 38.29,179.86 37.47,179.97 36.64,179.97 
		35.82,179.93 35,179.96 34.18,179.88 33.36,179.86 32.53,179.87 31.7,179.99 30.89,179.97 30.08,179.82 29.27,179.73 28.46,179.67 
		27.65,179.61 26.84,179.49 26.05,179.35 25.24,179.26 24.46,178.99 23.68,178.77 22.87,178.64 22.08,178.46 21.29,178.24 
		20.53,177.94 19.83,177.51 19.07,177.21 18.33,176.87 17.62,176.48 16.86,176.17 16.13,175.8 15.45,175.35 14.73,174.98 
		14.02,174.58 13.37,174.08 12.74,173.58 12.09,173.08 11.45,172.57 10.81,172.07 10.2,171.53 9.68,170.89 9.11,170.3 8.57,169.7 
		8,169.12 7.51,168.47 6.88,167.93 6.49,167.21 5.89,166.64 5.51,165.91 4.99,165.28 4.7,164.5 4.19,163.86 3.89,163.1 3.42,162.42 
		3.09,161.68 2.74,160.95 2.39,160.21 2.12,159.44 1.8,158.69 1.58,157.91 1.41,157.11 1.11,156.35 0.87,155.57 0.8,154.75 
		0.65,153.95 0.51,153.16 0.28,152.36 0.18,151.56 0.25,150.73 0.05,149.93 0.12,149.11 0.1,148.3 0.18,147.48 0.05,146.67 
		0,145.86 0.06,145.05 0.08,144.24 0.16,143.43 0.05,142.61 0.01,141.8 0.17,141 0.16,140.18 0.11,139.37 0.18,138.56 0.04,137.75 
		0.18,136.94 0,136.13 0.18,135.32 0.08,134.5 0.18,133.69 0.07,132.88 0.02,132.06 0.08,131.25 0.13,130.44 0.11,129.63 
		0.01,128.81 0.18,128 0,127.18 0.18,126.36 0.09,125.55 0.03,124.74 0,123.92 0.18,123.1 0.13,122.29 0.04,121.48 0.01,120.67 
		0.06,119.85 0.14,119.03 0.08,118.22 0.07,117.4 0.15,116.59 0,115.78 0.08,114.97 0.15,114.15 0.18,113.34 0.05,112.53 
		0.16,111.71 0.01,110.9 0.17,110.09 0.09,109.28 0.05,108.46 0.05,107.65 0.13,106.84 0.07,106.01 0.17,105.2 0.12,104.39 
		0.14,103.57 0.13,102.75 0.07,101.94 0.05,101.12 0.13,100.31 0.14,99.49 0.02,98.68 0.04,97.87 0.11,97.05 0.08,96.23 0.04,95.42 
		0,94.61 0.18,93.79 0.08,92.98 0,92.16 0.11,91.35 0.14,90.53 0.14,89.71 0.07,88.9 0.04,88.09 0.04,87.26 0.03,86.45 0.06,85.64 
		0.03,84.82 0.12,84 0.05,83.19 0,82.38 0.09,81.55 0.02,80.74 0.18,79.93 0.1,79.11 0.02,78.29 0.11,77.48 0.04,76.66 0.04,75.85 
		0.07,75.03 0.13,74.22 0.05,73.41 0.12,72.59 0.13,71.78 0.14,70.97 0.11,70.16 0.15,69.34 0.06,68.53 0.1,67.72 0.03,66.9 
		0.12,66.09 0.05,65.27 0.1,64.46 0.13,63.63 0.16,62.82 0.07,62 0.18,61.19 0.07,60.37 0.05,59.56 0.14,58.75 0.07,57.93 
		0.06,57.11 0.16,56.29 0.18,55.48 0.17,54.66 0.1,53.84 0.16,53.02 0.14,52.21 0,51.39 0.17,50.57 0.05,49.75 0.1,48.93 
		0.14,48.12 0.05,47.29 0.17,46.47 0.03,45.66 0.13,44.84 0.06,44.02 0.08,43.19 0.14,42.38 0.03,41.57 0.12,40.75 0.16,39.92 
		0.02,39.11 0.1,38.29 0.17,37.47 0.1,36.64 0.06,35.82 0.06,35.01 0,34.19 0.06,33.36 0.17,32.54 0.08,31.7 0.06,30.89 0.15,30.08 
		0.22,29.27 0.17,28.45 0.26,27.64 0.48,26.84 0.55,26.03 0.82,25.25 0.96,24.45 1.09,23.65 1.29,22.86 1.57,22.09 1.85,21.33 
		2.11,20.55 2.41,19.79 2.78,19.07 3.09,18.32 3.4,17.56 3.78,16.84 4.2,16.14 4.69,15.48 5.08,14.77 5.51,14.08 5.92,13.38 
		6.38,12.7 7.01,12.16 7.42,11.44 8.05,10.92 8.46,10.2 9.12,9.69 9.72,9.14 10.32,8.6 10.82,7.94 11.51,7.49 12.12,6.96 
		12.78,6.49 13.4,5.93 14.1,5.53 14.8,5.1 15.49,4.69 16.18,4.25 16.85,3.8 17.56,3.4 18.3,3.05 19.05,2.74 19.82,2.47 20.59,2.19 
		21.35,1.93 22.1,1.63 22.85,1.27 23.64,1.07 24.44,0.91 25.25,0.82 26.05,0.69 26.83,0.38 27.65,0.4 28.45,0.23 29.26,0.13 
		30.08,0.14 30.89,0.15 31.7,0.1 32.52,0.1 33.33,0.08 34.13,0.05 34.95,0.15 35.76,0.09 36.57,0.07 37.39,0.15 38.19,0.09 39,0.05 
		39.82,0.18 40.63,0 41.44,0.07 42.25,0.15 43.06,0.16 43.87,0.13 44.68,0.13 45.5,0.14 46.31,0.15 47.12,0.12 47.94,0.14 
		48.75,0.11 49.56,0.02 50.37,0.08 51.19,0.11 52,0.01 52.81,0.12 53.64,0.09 54.45,0.09 55.26,0.05 56.08,0.04 56.9,0.05 
		57.71,0.16 58.52,0.05 59.33,0.08 60.15,0.08 60.96,0.11 61.78,0.16 62.6,0.14 63.41,0.1 64.22,0.13 65.03,0.16 65.85,0.11 
		66.66,0 67.47,0.01 68.29,0.05 69.1,0.12 69.91,0.07 70.72,0.03 71.54,0.09 72.35,0.1 73.16,0.15 73.99,0.07 74.8,0.01 75.61,0.01 
		76.43,0.13 77.25,0.05 78.06,0.11 78.88,0.07 79.69,0.13 80.51,0 81.32,0.14 82.13,0.07 82.95,0.09 83.77,0.05 84.58,0.13 
		85.39,0.09 86.21,0.11 87.02,0.05 87.84,0.1 88.65,0.19 89.47,0.1 90.28,0.02 91.1,0 91.91,0.14 92.74,0.11 93.55,0 94.36,0.04 
		95.18,0.09 96,0.11 96.81,0.13 97.62,0.05 98.45,0.01 99.26,0.14 100.07,0.17 100.89,0.1 101.71,0.09 102.52,0.11 103.34,0.05 
		104.15,0.02 104.97,0.04 105.78,0.11 106.59,0.17 107.41,0.18 108.22,0.14 109.03,0.16 109.84,0.04 110.66,0.11 111.47,0 
		112.28,0.15 113.1,0.11 113.91,0.16 114.73,0.11 115.54,0.02 116.37,0.01 117.18,0.1 117.99,0.04 118.81,0.08 119.63,0.01 
		120.44,0.15 121.25,0.11 122.07,0.17 122.89,0.05 123.71,0.13 124.52,0.05 125.34,0.07 126.16,0.01 126.98,0.14 127.79,0.19 
		128.61,0 129.43,0.17 130.25,0.13 131.07,0.14 131.88,0.07 132.71,0.14 133.53,0 134.34,0.02 135.16,0.06 135.98,0.04 136.8,0.03 
		137.62,0.06 138.43,0.04 139.25,0.11 140.08,0.18 140.89,0.06 141.71,0.15 142.53,0.19 143.36,0.09 144.18,0.12 144.99,0.05 
		145.81,0.11 146.64,0.01 147.46,0.11 148.3,0.12 149.1,0.17 149.92,0.1 150.73,0.24 151.54,0.33 152.35,0.32 153.16,0.43 
		153.95,0.63 154.76,0.73 155.55,0.96 156.34,1.12 157.12,1.38 157.92,1.55 158.66,1.91 159.42,2.17 160.18,2.47 160.97,2.7 
		161.65,3.15 162.4,3.49 163.14,3.84 163.83,4.25 164.51,4.7 165.22,5.09 165.92,5.52 166.56,6.02 167.26,6.44 167.93,6.89 
		168.54,7.44 169.11,8.03 169.73,8.54 170.33,9.1 170.93,9.66 171.51,10.22 171.97,10.9 172.58,11.45 173.09,12.09 173.61,12.71 
		174.01,13.43 174.54,14.05 174.89,14.8 175.38,15.45 175.71,16.2 176.15,16.88 176.59,17.57 176.95,18.3 177.21,19.08 
		177.58,19.81 177.9,20.55 178.17,21.32 178.34,22.12 178.58,22.9 178.82,23.67 179.05,24.45 179.15,25.26 179.37,26.05 
		179.47,26.85 179.6,27.66 179.66,28.46 179.72,29.27 179.78,30.08 179.9,30.89 179.88,31.7 179.86,32.52 179.96,33.33 
		179.85,34.14 179.96,34.96 179.89,35.76 179.97,36.57 179.97,37.39 179.86,38.2 179.9,39.01 179.93,39.82 179.86,40.63 
		179.88,41.44 179.99,42.25 179.85,43.07 179.88,43.88 179.81,44.68 179.9,45.5 179.87,46.31 179.97,47.12 179.99,47.94 
		179.95,48.75 179.88,49.56 179.92,50.37 179.88,51.19 179.99,52.01 179.82,52.82 179.9,53.64 179.95,54.45 179.86,55.27 
		179.94,56.08 180,56.9 179.83,57.71 179.89,58.53 179.86,59.34 180,60.16 179.92,60.97 179.87,61.78 179.89,62.6 179.81,63.41 
		179.87,64.22 179.84,65.03 179.95,65.85 179.84,66.66 179.94,67.47 179.92,68.29 179.93,69.1 179.94,69.91 179.89,70.72 
		179.83,71.54 179.97,72.35 179.95,73.17 179.95,73.99 179.99,74.8 179.82,75.62 179.91,76.43 179.93,77.25 179.83,78.07 
		179.96,78.88 179.84,79.69 179.98,80.51 179.95,81.33 179.88,82.14 179.82,82.95 179.95,83.77 179.83,84.58 179.84,85.39 
		179.86,86.21 179.81,87.03 179.96,87.84 179.86,88.65 179.91,89.47 179.95,90.29 179.91,91.1 179.83,91.92 179.97,92.74 
		179.83,93.55 179.85,94.37 179.82,95.18 179.91,96 179.81,96.81 179.96,97.63 179.93,98.45 179.98,99.26 179.89,100.08 
		179.93,100.89 179.96,101.71 179.91,102.53 179.94,103.34 179.83,104.16 179.96,104.98 179.87,105.79 179.91,106.6 179.85,107.41 
		179.86,108.22 179.85,109.03 179.83,109.84 179.95,110.66 179.81,111.47 179.88,112.28 179.94,113.1 179.82,113.92 179.92,114.73 
		179.89,115.54 179.99,116.37 179.9,117.18 179.98,118 179.93,118.81 179.94,119.63 179.92,120.45 179.95,121.26 180,122.07 
		179.91,122.89 179.86,123.71 179.94,124.53 179.95,125.34 180,126.17 179.88,126.98 179.86,127.8 179.92,128.61 179.96,129.44 
		179.9,130.26 179.83,131.07 179.93,131.89 179.95,132.71 179.86,133.53 179.95,134.35 179.98,135.16 179.83,135.98 179.83,136.81 
		179.87,137.62 179.9,138.44 179.96,139.25 179.81,140.08 179.88,140.9 179.98,141.71 179.84,142.53 179.85,143.36 179.83,144.18 
		179.87,145 179.89,145.82 179.86,146.64 179.83,147.47 	"/>
</g>
<g>
	<g>
		<g>
			<g>
				<g>
					<g>
						<polygon class="st1" points="61.77,29.59 60.95,29.63 60.11,29.49 59.28,29.61 58.46,29.74 57.65,29.69 56.86,29.71 
							56.06,29.7 55.25,29.76 54.46,29.74 53.65,29.69 52.85,29.64 52.05,29.76 51.25,29.71 50.45,29.71 49.64,29.61 48.85,29.6 
							48.04,29.74 47.24,29.72 46.44,29.59 45.63,29.6 44.85,29.76 44.04,29.75 43.86,30.95 43.97,31.59 43.86,32.16 44.61,32.22 
							45.39,32.26 46.17,32.26 46.95,32.16 47.73,32.13 48.51,32.11 49.29,32.09 50.07,32.16 50.85,32.17 51.63,32.12 52.41,32.15 
							53.19,32.06 53.97,32.19 54.76,32.25 55.53,32.14 56.32,32.24 57.1,32.09 57.84,32.16 57.66,32.89 57.56,33.69 57.42,34.48 
							57.09,35.22 57.09,36.03 56.83,36.8 56.57,37.56 56.47,38.35 56.24,39.15 56.11,39.89 56.81,39.89 57.57,39.95 58.31,39.95 
							59.05,39.77 59.8,39.82 60.54,40.01 61.29,39.93 61.99,39.83 62.3,39.18 62.42,38.43 62.48,37.67 62.6,36.93 62.8,36.2 
							63.03,35.48 63.29,34.78 63.32,34.01 63.48,33.28 63.75,32.56 63.82,31.8 64.11,31.1 64.14,30.35 64.37,29.64 63.72,29.64 
							63.08,29.6 62.43,29.56 						"/>
					</g>
					<g>
						<polygon class="st1" points="46.72,47.29 47.58,47.29 48.39,47.11 49.21,47.03 50.01,46.82 50.79,46.53 51.5,46.1 52.24,45.7 
							52.89,45.16 53.21,44.37 53.65,43.65 53.61,42.81 53.77,42 54.05,41.24 54.37,40.48 54.39,39.65 54.62,38.88 54.78,38.08 
							54.94,37.28 55.11,36.49 55.42,35.73 55.56,34.94 55.69,34.15 54.95,34.18 54.22,34.2 53.47,34.23 52.73,34.11 51.99,34.09 
							51.25,34.18 50.5,34.25 49.71,34.09 49.51,34.96 49.24,35.77 49.18,36.62 48.95,37.43 48.77,38.25 48.61,39.07 48.41,39.89 
							48.26,40.73 47.96,41.52 47.87,42.36 47.67,43.18 47.31,43.97 47.24,44.82 47.18,45.67 46.96,46.46 						"/>
					</g>
				</g>
			</g>
			<g>
				<g>
					<g>
						<polygon class="st1" points="141.4,29.34 140.56,29.27 139.73,29.22 138.9,29.23 138.07,29.18 137.27,29.15 136.47,29.28 
							135.67,29.17 134.86,29.28 134.07,29.27 133.27,29.18 132.47,29.28 131.67,29.37 130.86,29.31 130.06,29.36 129.26,29.26 
							128.46,29.17 127.65,29.22 126.85,29.36 126.05,29.27 125.24,29.3 124.44,29.22 123.7,29.36 123.54,30.56 123.43,31.19 
							123.46,31.78 124.21,31.8 125,31.71 125.79,31.8 126.56,31.77 127.35,31.88 128.13,31.81 128.9,31.78 129.68,31.87 
							130.47,31.69 131.24,31.72 132.02,31.74 132.81,31.8 133.59,31.7 134.37,31.81 135.15,31.76 135.93,31.7 136.7,31.69 
							137.4,31.79 137.26,32.51 137.11,33.28 136.92,34.04 136.73,34.82 136.61,35.62 136.34,36.36 136.15,37.15 136.07,37.95 
							135.96,38.75 135.62,39.56 136.44,39.55 137.19,39.61 137.93,39.45 138.67,39.45 139.41,39.52 140.16,39.55 140.9,39.52 
							141.6,39.44 141.91,38.78 142.04,38.03 142.17,37.29 142.47,36.58 142.58,35.84 142.66,35.09 142.85,34.36 142.95,33.61 
							143.15,32.89 143.28,32.15 143.45,31.41 143.67,30.68 143.91,29.96 144,29.22 143.36,29.22 142.7,29.27 142.05,29.21 						
							"/>
					</g>
					<g>
						<polygon class="st1" points="126.36,46.88 127.15,46.78 128,46.73 128.82,46.61 129.59,46.3 130.39,46.09 131.13,45.72 
							131.77,45.19 132.52,44.77 132.79,43.95 133.22,43.23 133.28,42.41 133.39,41.6 133.75,40.86 133.85,40.05 134.11,39.26 
							134.11,38.44 134.39,37.67 134.57,36.88 134.73,36.08 135.02,35.33 135.11,34.5 135.38,33.66 134.58,33.7 133.83,33.71 
							133.09,33.71 132.34,33.78 131.6,33.73 130.86,33.74 130.13,33.84 129.36,33.78 129.16,34.6 128.86,35.37 128.66,36.18 
							128.48,37.01 128.35,37.84 128.21,38.67 127.97,39.48 127.77,40.29 127.6,41.13 127.57,41.98 127.28,42.78 127.02,43.58 
							126.83,44.4 126.57,45.22 126.4,46.07 						"/>
					</g>
				</g>
			</g>
			<g>
				<polygon class="st1" points="103.13,36.43 102.31,36.53 101.54,36.58 100.78,36.47 100,36.39 99.23,36.43 98.45,36.48 
					97.68,36.41 96.91,36.63 96.13,36.5 95.37,36.43 94.59,36.42 93.78,36.53 93.98,35.8 94.18,35.1 94.24,34.38 94.51,33.7 
					94.67,33 94.71,32.26 94.95,31.58 94.99,30.84 95.25,30.15 95.51,29.4 94.71,29.55 93.96,29.57 93.22,29.5 92.47,29.42 
					91.73,29.51 90.98,29.38 90.22,29.46 89.49,29.48 89.21,30.25 89.15,31.1 88.86,31.87 88.74,32.69 88.61,33.49 88.28,34.26 
					88.26,35.09 87.98,35.87 87.9,36.7 87.66,37.48 87.52,38.29 87.37,39.1 87.03,39.86 86.88,40.67 86.62,41.46 86.48,42.26 
					86.31,43.07 86.15,43.88 86.03,44.69 85.78,45.48 85.63,46.27 85.51,47.04 86.2,47.12 86.92,47.05 87.66,47.17 88.41,47.2 
					89.15,47.13 89.89,47.05 90.63,47.07 91.41,47.1 91.57,46.26 91.76,45.45 91.89,44.63 92.19,43.85 92.4,43.04 92.55,42.23 
					92.73,41.41 92.88,40.6 92.94,39.76 93.31,39.06 94.06,38.98 94.85,38.94 95.65,38.99 96.46,38.91 97.26,38.87 98.07,38.94 
					98.87,38.88 99.67,38.91 100.49,38.94 101.29,38.91 102.09,38.84 102.9,38.92 102.97,37.68 				"/>
			</g>
			<g>
				<g>
					<g>
						<polygon class="st1" points="117.97,29.34 116.79,29.36 115.61,29.34 115.53,30.02 115.62,30.7 115.4,31.39 115.41,32.09 
							115.27,32.78 115.26,33.47 116.48,33.49 117.12,33.47 117.78,33.54 117.72,32.8 117.79,32.07 117.95,31.39 118.06,30.69 
							117.96,30.01 						"/>
					</g>
					<g>
						<polygon class="st1" points="119.58,29.29 119.52,29.96 119.52,30.67 119.52,31.37 119.49,32.07 119.37,32.75 119.25,33.5 
							120.48,33.57 121.11,33.47 121.78,33.51 121.79,32.76 121.83,32.06 121.89,31.36 121.97,30.67 121.88,29.96 122.06,29.21 
							120.8,29.27 120.16,29.18 						"/>
					</g>
					<g>
						<polygon class="st1" points="113.15,29.33 112.36,29.38 111.62,29.53 110.87,29.46 110.14,29.31 109.39,29.36 108.65,29.37 
							107.93,29.44 107.21,29.45 106.99,30.21 106.87,31.02 106.67,31.81 106.55,32.63 106.32,33.42 106.08,34.2 105.85,34.99 
							105.59,35.77 105.42,36.57 105.36,37.39 105.08,38.17 104.95,38.98 104.8,39.8 104.61,40.59 104.38,41.39 104.31,42.21 
							103.94,42.97 103.78,43.78 103.55,44.57 103.44,45.39 103.34,46.18 103.21,46.92 103.87,46.99 104.59,46.89 105.33,46.93 
							106.07,47.01 106.82,47.04 107.56,46.95 108.33,47.04 109.12,47.06 109.24,46.18 109.41,45.35 109.54,44.54 109.84,43.75 
							110.01,42.94 110.11,42.11 110.35,41.31 110.49,40.49 110.68,39.67 110.92,38.89 111.71,38.79 112.52,38.88 113.32,38.85 
							114.13,39 114.93,38.96 115.73,38.85 116.54,38.92 117.34,38.83 118.15,38.81 118.96,38.82 119.74,38.76 120.47,38.75 
							120.62,37.59 120.76,36.38 119.97,36.28 119.21,36.36 118.44,36.46 117.67,36.41 116.9,36.32 116.12,36.34 115.35,36.4 
							114.58,36.28 113.81,36.47 113.03,36.42 112.27,36.39 111.55,36.36 111.66,35.69 111.85,35.01 111.99,34.31 112.04,33.58 
							112.32,32.9 112.47,32.19 112.54,31.47 112.79,30.78 112.84,30.05 						"/>
					</g>
				</g>
			</g>
			<g>
				<polygon class="st1" points="84.31,29.46 83.48,29.59 82.65,29.49 81.82,29.6 80.99,29.6 80.07,29.54 80.23,28.54 80.58,27.53 
					79.78,27.54 79.06,27.62 78.32,27.55 77.58,27.59 76.84,27.57 76.09,27.46 75.33,27.48 74.62,27.6 74.49,28.23 74.36,28.91 
					74.19,29.59 73.6,29.52 72.86,29.53 72.12,29.56 71.37,29.55 70.63,29.53 69.89,29.64 69.14,29.65 68.41,29.57 67.64,29.57 
					67.47,30.38 67.27,31.12 67.17,31.89 67.02,32.66 66.85,33.43 66.52,34.15 66.45,34.95 66.17,35.68 66,36.46 65.87,37.24 
					66.62,37.31 67.38,37.35 68.12,37.22 68.86,37.13 69.6,37.15 70.35,37.27 71.08,37.21 71.75,37.11 71.93,36.3 72.2,35.48 
					72.44,34.63 72.74,33.79 72.85,32.91 72.99,32.02 73.75,32.01 74.5,31.88 75.24,31.98 75.97,32.01 76.71,31.97 77.45,31.95 
					78.19,32.04 78.94,32.16 79.68,32.12 80.43,31.98 80.18,32.82 80.08,33.69 79.9,34.53 79.68,35.35 79.46,36.18 79.4,37.05 
					79,37.84 78.82,38.68 78.62,39.51 78.54,40.37 78.31,41.15 78.04,41.94 77.42,42.48 76.93,43.15 76.18,43.49 75.43,43.79 
					74.64,43.98 73.89,44.3 73.06,44.32 72.25,44.39 71.46,44.58 70.64,44.68 69.82,44.7 69.01,44.54 68.2,44.62 67.42,44.75 
					67.28,45.95 67.29,46.58 67.21,47.16 68,47.22 68.81,47.06 69.62,47.17 70.44,47.13 71.25,47.26 72.05,47.21 72.87,47.07 
					73.68,47.15 74.49,47.09 75.3,47.06 76.12,47.1 76.92,47.1 77.67,46.91 78.45,46.85 79.21,46.65 79.96,46.43 80.59,45.94 
					81.24,45.53 81.9,45.1 82.55,44.65 82.97,43.98 83.39,43.32 83.83,42.67 84.03,41.91 84.27,41.16 84.46,40.38 84.64,39.61 
					84.7,38.8 84.88,38.03 85.07,37.26 85.16,36.46 85.48,35.71 85.67,34.94 85.74,34.13 86.01,33.38 86.08,32.57 86.37,31.82 
					86.68,31.08 86.69,30.27 86.87,29.54 86.27,29.53 85.61,29.48 84.96,29.54 				"/>
			</g>
		</g>
		<g>
			<g>
				<g>
					<path class="st2" d="M154.17,75.32l-1.02-0.01l-0.91-0.07l-0.91,0.04l-0.9,0.1l-0.91-0.05l-0.91,0.03l-0.9-0.19l-0.91,0.11
						l-0.91-0.01l-0.91,0.02l-0.91,0.11l-0.91-0.13l-0.91-0.07l-0.9,0.16l-0.91,0.13l-0.91-0.12l-0.91,0.07l-0.91-0.05l-0.91-0.03
						l-0.91-0.05l-0.91,0.05l-0.91-0.08l-0.91,0.04l-0.91,0.06l-0.9-0.01l-0.9,0.05l-0.91,0.08l-0.91-0.02l-0.91-0.08l-0.91-0.02
						l-0.91-0.02l-0.91-0.05L124,75.39l-0.92-0.12l-0.91,0.14l-0.91,0.08l-0.91-0.01l-0.6-0.98h0.08l0.7-0.55l0.69-0.58l0.91,0.07
						l0.91-0.05l0.91,0.05l0.91,0.13l0.91-0.07l0.9-0.21l0.91,0.08l0.9,0.05l0.91-0.04l0.91,0.02l0.9,0.02l0.91-0.02l0.9-0.01
						l0.91,0.01l0.91-0.05l0.91,0.05l0.91,0.09l0.91,0.02l0.9-0.18l0.91-0.11l0.91,0.04l0.9,0.11l0.9-0.11l0.92,0.06l0.9-0.13
						l0.91,0.08l0.91-0.01l0.91-0.05l0.91,0.07l0.91,0.04l0.91-0.11l0.91-0.07l0.91,0.07l0.9,0.18l0.91-0.07l0.91-0.14h0.91
						l0.91,0.07l0.91-0.02l0.93,0.03l0.51-0.58l0.51-0.53l-0.01-0.64l-0.12-0.61l-0.57-0.52l-0.61-0.47l-0.89,0.02l-0.91-0.02
						l-0.91-0.03l-0.91-0.07l-0.9-0.02l-0.91,0.09l-0.91-0.04l-0.9,0.12l-0.91-0.06l-0.91-0.12l-0.91,0.05l-0.9,0.21l-0.91-0.18
						l-0.91,0.05l-0.9-0.12l-0.91,0.02l-0.9,0.1l-0.91,0.05l-0.91-0.05l-0.9,0.13l-0.91-0.01l-0.91-0.05l-0.91-0.01l-0.91,0.12
						l-0.91-0.06h-0.91l-0.91,0.07l-0.91-0.02l-0.91-0.02l-0.9-0.2l-0.91,0.05l-0.91,0.12l-0.91,0.01l-0.91,0.1l-0.91-0.08
						l-0.91-0.15l-0.9,0.21l-0.92-0.01l-0.85-0.84l-0.54-0.79l-1.03,0.03l-1,0.1l-1-0.09l-1,0.06l-1,0.03h-1l-1,0.07l-0.98,0.06
						l-0.76,0.24l-0.77,0.28l-0.69,0.34l-0.61,0.48l-0.88,0.14h-0.88l-0.87-0.13l-0.88-0.01l-0.87,0.1l-0.88-0.08l-0.87,0.17
						l-0.87-0.06h-0.87l-0.87-0.03l-0.88,0.05l-0.87-0.05l-0.88,0.03l-0.84,0.13l-0.52,0.37l-0.47,0.51l0.12,0.67l-0.07,0.66
						l0.65,0.48l0.5,0.6l0.87,0.05l0.86-0.18l0.87-0.01l0.87,0.03l0.87,0.08l0.87-0.1l0.87,0.06l0.87-0.12l0.88,0.03l0.87,0.19
						l0.87-0.13l0.82,0.04l0.6,0.89l-0.29,0.93l-0.47,0.85l-0.29,0.93L107.94,78l-0.29,0.93l-0.46,0.85l-0.33,0.9l-0.33,0.9
						l-0.48,0.84l-0.3,0.92l-0.56,0.79L104.73,85l-0.42,0.88l-0.39,0.89l-0.33,0.91l-0.45,0.86l-0.33,0.91l-0.28,0.93l-0.56,0.8
						l-0.42,0.88l-0.42,0.88l-0.34,0.9l-0.38,0.89l-0.37,0.91l0.61,0.89l1.01,0.08l1,0.05l1-0.05l0.99-0.17l1,0.08l1,0.05h1
						l1.02,0.05l0.73-0.51l0.6-0.63l0.5-0.7l0.28-0.82l0.41-0.78l0.48-0.73l0.29-0.82l0.3-0.82l0.45-0.75l0.34-0.8l0.4-0.78
						l0.39-0.79l0.34-0.8l0.26-0.85l0.24,0.1l-0.02,0.94l-0.19,0.92l-0.05,0.95l-0.29,0.9l-0.05,0.95l0.12,0.96l-0.29,0.91
						l-0.14,0.93l-0.1,0.94l0.04,0.92l0.32,0.6l0.49,0.54l1.03-0.08l1,0.05l0.99-0.2l1,0.03l1,0.04l1,0.07l1-0.12l1,0.08h1.09
						l1.03,0.07l0.89-0.12l0.89,0.03l0.89-0.03l0.89-0.03l0.89,0.06l0.89,0.06l0.89-0.07l0.89,0.09l0.89-0.05l0.89-0.16l0.89-0.07
						l0.89,0.16l0.89,0.03l0.89,0.12l0.89-0.2l0.89-0.03l0.89,0.05l0.89,0.03l0.89,0.02l0.89-0.04l0.89,0.12l0.89-0.09l0.96-0.14
						l0.98,0.03l0.91-0.34l0.9-0.35l0.91-0.32l0.88-0.39l0.85-0.44l0.81-0.51l0.77-0.57l0.79-0.54l0.78-0.59l0.66-0.7l0.3-0.9
						l0.24-0.92l0.19-0.95l0.1-0.97l0.1-0.98l0.26-0.94l0.19-0.96l0.05-0.97l0.07-0.98l0.25-0.95l0.11-0.98l-0.13-0.98l0.16-0.96
						l0.17-0.96l0.15-0.96l0.18-0.98l-0.5-0.47l-0.47-0.43l-0.68-0.13L154.17,75.32z M137.38,93.09l-0.88-0.04l-0.88-0.07
						l-0.88,0.04l-0.88,0.04L133,93.01l-0.88,0.14l-0.88-0.19L130.37,93l-0.88-0.01l-0.88-0.04l-0.88,0.11l-0.88-0.01l-0.88-0.07
						h-0.89l-0.54-0.47l-0.44-0.54l0.05-0.87l0.2-0.85l0.14-0.87l0.09-0.87l0.07-0.88l0.27-0.84l0.08-0.88l-0.03-0.89l0.12-0.87
						l0.16-0.86l0.03-0.88l0.08-0.88l0.2-0.86l0.04-0.88l0.61-0.53l0.67-0.46l0.93-0.07l0.92,0.15l0.92-0.14l0.92-0.05l0.93,0.01
						l0.93-0.13l0.92,0.23l0.93,0.05l0.93-0.08l0.93,0.05l0.92-0.11l0.93-0.05l0.92,0.11l0.93-0.01l0.93-0.12l0.92,0.06l0.93-0.04
						l0.93-0.02l0.92,0.14h0.92l0.53,0.42l0.49,0.51l-0.22,0.88l-0.12,0.89l-0.13,0.89l-0.16,0.89l-0.14,0.89l-0.05,0.9l-0.12,0.89
						l-0.08,0.89l-0.04,0.89l0.01,0.91l-0.59,0.79l-0.35,0.91l-0.75,0.62l-0.69,0.67l-0.88,0.42l-0.92,0.32l-0.95,0.19l-0.93,0.32
						l-0.97,0.13L137.38,93.09z"/>
				</g>
				<g>
					<polygon class="st2" points="144.01,63.9 144.9,63.55 145.69,63 146.62,63.14 147.52,63.1 148.42,63.09 149.33,63.17 
						150.23,63.11 151.13,63.07 152.04,63.03 152.95,63.16 153.86,63.15 154.75,62.9 155.67,62.97 156.57,63.11 157.48,63.06 
						158.39,62.94 159.29,62.87 160.21,62.96 160.63,62.37 161.1,61.9 161.15,61.28 161.22,60.6 160.5,60.13 159.96,59.52 
						158.99,59.43 158.01,59.58 157.04,59.45 156.06,59.48 155.09,59.58 154.11,59.65 153.14,59.7 152.15,59.6 151.18,59.61 
						150.2,59.68 149.23,59.71 148.24,59.66 147.79,58.81 148.31,58.26 148.72,57.66 149.14,57.08 149.44,56.41 149.84,55.8 
						150.27,55.22 150.81,54.71 151.25,54.13 151.8,53.61 151.27,52.8 150.27,52.68 149.26,52.62 148.27,52.77 147.27,52.88 
						146.26,52.76 145.26,52.67 144.26,52.67 143.28,52.79 142.65,53.26 141.97,53.78 141.94,54.62 141.9,55.42 141.72,56.21 
						141.73,57.04 141.41,57.8 141.35,58.63 140.72,59.05 140.25,59.67 139.28,59.57 138.35,59.68 137.42,59.78 136.48,59.72 
						135.55,59.81 134.61,59.81 133.68,59.73 132.74,59.85 131.81,59.79 130.88,59.74 129.94,59.74 129,59.68 128.07,59.74 
						127.13,59.71 126.19,59.66 125.26,59.72 124.32,59.66 123.39,59.8 122.45,59.8 121.51,59.8 120.58,59.67 119.64,59.71 
						118.71,59.76 117.78,59.77 116.84,59.82 115.9,59.86 114.97,59.96 114.03,59.99 113.1,59.8 112.16,59.89 111.23,59.94 
						110.29,59.96 109.35,59.95 108.42,59.87 107.47,59.9 106.54,59.79 105.6,59.83 104.66,59.7 103.72,59.77 102.78,59.8 
						101.85,59.96 100.92,59.96 100.41,60.47 99.84,60.94 99.92,61.59 100.07,62.2 100.57,62.76 101.17,63.18 102.06,63.22 
						102.97,63.32 103.89,63.32 104.8,63.23 105.73,63.35 106.65,63.39 107.57,63.36 108.48,63.21 109.4,63.24 110.32,63.14 
						111.24,63.22 112.16,63.31 113.08,63.27 114,63.08 114.92,63.16 115.83,63.34 116.75,63.11 117.68,63.22 118.59,63.22 
						119.51,63.25 120.43,63.12 121.35,63.06 122.27,63.09 123.19,63.25 124.11,63.09 125.04,63.16 125.95,63.15 126.87,63.25 
						127.8,63.21 128.71,63.09 129.63,62.97 130.55,63 131.47,63.06 132.39,63.13 133.31,63.12 134.23,63.04 135.16,63.05 
						136.07,63.18 137,63.21 137.93,63.16 138.85,63.11 139.75,63.24 140.27,63.63 140.68,64.15 140.49,64.81 140.43,65.5 
						140.37,66.21 140.28,66.89 140.25,67.6 140.11,68.32 140.73,68.57 141.21,67.74 141.8,66.99 142.36,66.24 142.89,65.44 
						143.41,64.65 					"/>
				</g>
				<g>
					<polygon class="st1" points="120.83,55.23 121.19,56.05 121.51,56.87 121.42,57.75 121.32,58.64 121.19,59.52 121.22,60.43 
						120.99,61.3 120.86,62.19 120.89,63.09 120.84,64 120.61,64.86 120.42,65.72 119.85,66.21 119.28,66.69 118.31,66.79 
						117.31,66.85 116.3,66.86 115.31,66.81 114.31,66.77 113.3,66.79 112.3,66.88 111.32,66.77 110.77,66.37 110.38,65.8 
						110.39,64.84 110.58,63.89 110.71,62.93 110.77,61.96 110.8,60.99 110.97,60.04 111.24,59.1 111.39,58.13 111.47,57.17 
						111.44,56.19 111.61,55.23 111.71,54.27 111.73,53.3 111.96,52.34 112.09,51.39 112.27,50.46 113.26,49.91 113.99,50.48 
						114.74,51.03 115.53,51.51 116.32,51.99 117.08,52.53 117.76,53.16 118.59,53.59 119.39,54.06 120.08,54.69 					"/>
				</g>
			</g>
		</g>
		<g>
			<g>
				<g>
					<polygon class="st2" points="36.32,115.63 36.8,116.13 37.33,116.6 37.26,117.58 37.06,118.52 37.02,119.52 36.74,120.46 
						36.64,121.43 36.64,122.41 36.48,123.38 36.31,124.33 36.19,125.31 36.08,126.27 36.03,127.25 36.01,128.23 35.89,129.2 
						35.68,130.16 35.59,131.13 35.48,132.1 35.36,133.07 35.11,134.02 35.05,134.99 34.96,135.97 34.82,136.93 34.62,137.89 
						34.54,138.87 34.31,139.82 34.25,140.8 34.16,141.77 34.01,142.74 33.88,143.7 33.25,144.2 32.69,144.83 31.69,144.76 
						30.69,144.78 29.71,144.85 28.71,144.85 27.71,144.83 26.73,144.85 25.73,144.85 24.74,144.85 23.74,144.89 22.73,144.9 
						22.21,144.36 21.74,143.78 21.89,142.81 21.99,141.85 22.03,140.87 22.27,139.91 22.24,138.93 22.45,137.97 22.47,136.99 
						22.69,136.03 22.91,135.08 23.05,134.11 23.11,133.13 23.29,132.17 23.45,131.21 23.48,130.23 23.61,129.26 23.63,128.28 
						23.85,127.33 24,126.36 24.01,125.39 24.21,124.42 24.37,123.46 24.57,122.5 24.62,121.52 24.83,120.56 24.93,119.58 
						24.94,118.61 24.98,117.62 25.07,116.62 25.77,116.06 26.37,115.4 27.39,115.42 28.38,115.58 29.36,115.65 30.36,115.65 
						31.35,115.54 32.35,115.63 33.34,115.51 34.34,115.46 35.34,115.52 					"/>
				</g>
				<g>
					<polygon class="st2" points="74.97,129.52 74.49,130.45 73.96,131.3 73.77,132.29 73.8,133.33 73.61,134.34 73.38,135.35 
						73.4,136.38 73.33,137.41 73.21,138.43 73,139.43 72.38,140.05 71.72,140.65 70.74,140.54 69.78,140.59 68.8,140.56 
						67.83,140.54 66.86,140.51 65.89,140.56 64.92,140.62 63.95,140.61 62.98,140.64 62.01,140.72 61.03,140.61 60.07,140.56 
						59.09,140.6 58.12,140.61 57.15,140.54 56.17,140.52 55.2,140.65 54.23,140.6 53.26,140.5 52.27,140.58 51.89,140.02 
						51.5,139.54 51.52,138.63 51.61,137.7 51.62,136.76 51.79,135.84 51.91,134.91 51.97,133.97 51.99,133.04 52.13,132.11 
						52.26,131.18 52.33,130.25 52.49,129.32 52.76,128.42 52.74,127.47 52.98,126.55 53.08,125.62 53.08,124.68 53.23,123.76 
						53.39,122.84 53.49,121.91 53.61,120.98 53.7,120.04 53.75,119.11 53.8,118.17 53.93,117.24 54.02,116.31 54.14,115.38 
						54.19,114.44 54.38,113.52 54.48,112.58 54.59,111.67 54.22,110.85 53.9,109.97 53.07,109.53 52.33,108.98 51.55,108.48 
						50.79,107.96 49.99,107.49 49.19,107.04 48.48,106.45 47.67,105.99 46.9,105.48 46.07,105.07 45.26,104.61 44.51,104.08 
						43.45,104.49 43.29,105.49 43.18,106.47 43.06,107.44 43,108.44 42.9,109.41 42.8,110.4 42.69,111.37 42.59,112.36 
						42.43,113.32 42.29,114.3 42.11,115.27 42.21,116.28 41.93,117.23 41.85,118.23 41.63,119.18 41.46,120.16 41.37,121.14 
						41.34,122.13 41.22,123.11 41.05,124.09 40.87,125.06 40.7,126.03 40.79,127.03 40.7,128.02 40.52,128.99 40.37,129.97 
						40.17,130.94 40.13,131.93 39.97,132.9 39.92,133.89 39.7,134.86 39.5,135.83 39.5,136.82 39.51,137.82 39.44,138.8 
						39.25,139.78 39.14,140.76 38.98,141.75 38.73,142.7 38.52,143.71 39.07,144.28 39.64,144.75 40.62,144.82 41.6,144.74 
						42.59,144.69 43.57,144.64 44.56,144.63 45.54,144.69 46.53,144.76 47.52,144.82 48.5,144.78 49.48,144.57 50.47,144.67 
						51.47,144.57 52.44,144.72 53.44,144.76 54.42,144.76 55.41,144.62 56.39,144.76 57.38,144.67 58.37,144.71 59.35,144.76 
						60.34,144.71 61.32,144.76 62.31,144.75 63.3,144.73 64.28,144.6 65.27,144.7 66.26,144.62 67.25,144.77 68.24,144.75 
						69.23,144.66 70.22,144.62 71.2,144.72 72.38,144.56 73.41,144.66 74.4,144.66 75.39,144.7 76.4,144.7 77.38,144.57 
						78.38,144.58 79.37,144.57 80.36,144.68 81.36,144.75 82.35,144.5 83.33,144.48 83.97,144.03 84.54,143.47 84.61,142.51 
						84.73,141.57 85.01,140.65 85.07,139.7 85.11,138.76 85.2,137.8 85.44,136.88 85.42,135.91 85.61,134.99 85.85,134.06 
						85.76,133.1 85.95,132.16 86.13,131.23 86.29,130.29 86.34,129.35 86.38,128.39 86.59,127.46 86.67,126.51 86.82,125.57 
						86.97,124.63 87.06,123.68 87.08,122.75 86.36,122.15 85.5,122.65 84.66,123.14 83.95,123.81 83.15,124.36 82.32,124.85 
						81.47,125.3 80.69,125.88 79.84,126.34 79.07,126.92 78.24,127.42 77.43,127.94 76.65,128.52 75.86,129.09 					"/>
				</g>
				<g>
					<polygon class="st2" points="72.28,108.98 72.04,109.92 71.95,110.88 71.5,111.75 71.2,112.68 70.56,113.41 69.91,114.15 
						69.04,114.6 68.18,115.07 67.22,115.21 66.26,115.34 65.28,115.34 64.34,115.09 63.48,114.64 62.62,114.17 61.97,113.44 
						61.36,112.7 60.97,111.81 60.54,110.95 60.36,110 60.14,109.04 60.23,108.06 60.36,107.06 60.92,106.24 61.42,105.41 
						61.96,104.6 62.61,103.86 63.5,103.46 64.36,103.01 65.29,102.72 66.26,102.56 67.23,102.71 68.2,102.86 69.02,103.4 
						69.81,103.95 70.53,104.61 71.32,105.2 71.64,106.16 72.14,107.02 72.23,108 					"/>
				</g>
				<g>
					<polygon class="st1" points="86.96,108.91 86.79,109.85 86.74,110.83 86.34,111.71 85.97,112.63 85.25,113.28 84.64,114.06 
						83.79,114.55 82.94,115.05 81.96,115.14 80.99,115.27 80.05,115.13 79.13,114.88 78.26,114.5 77.44,113.99 76.79,113.29 
						76.11,112.62 75.76,111.71 75.15,110.91 75.07,109.93 75.09,108.96 75.2,107.99 75.16,107.01 75.67,106.17 76.04,105.25 
						76.68,104.51 77.33,103.76 78.2,103.3 79.06,102.81 80.03,102.7 81,102.6 81.96,102.68 82.86,103 83.7,103.44 84.54,103.89 
						85.19,104.59 85.83,105.29 86.2,106.17 86.61,107.02 86.79,107.96 					"/>
				</g>
			</g>
		</g>
		<g>
			<g>
				<polygon class="st2" points="154.78,115.51 154,115.23 153.22,114.93 152.6,114.39 151.91,113.94 151.39,113.28 150.81,112.7 
					150.16,112.19 149.52,111.67 148.82,111.22 148.27,110.64 148.08,109.98 148.08,109.28 148.58,108.66 149.04,108.03 
					149.61,107.51 150.15,106.93 150.62,106.29 151.02,105.63 151.56,105.06 152.03,104.44 152.54,103.85 152.96,103.19 
					153.45,102.58 153.91,101.95 154.4,101.33 154.73,100.66 154.49,100.11 153.8,100.04 153.08,99.96 152.36,100.01 151.64,100.05 
					150.91,100.01 150.18,100.13 149.46,100.01 148.74,99.96 147.83,100.1 146.9,100.04 145.89,100.16 144.89,100.13 143.97,100.09 
					143.06,100.08 142.27,100.17 141.49,100.09 140.7,100.1 139.91,100.04 139.14,100.1 138.35,100.07 137.56,100.07 136.78,100.12 
					135.99,100.12 135.21,100.22 134.41,100.09 133.63,100.13 132.84,100.13 132.06,100.08 131.27,100.02 130.48,99.97 
					129.69,100.05 128.9,100.14 128.12,100.19 127.37,100.2 126.63,101.07 126.55,102.02 126.53,103.03 127.11,103.47 
					127.58,103.97 128.37,103.97 129.15,103.91 129.93,103.85 130.7,103.92 131.48,103.89 132.26,103.88 133.05,103.9 
					133.83,103.95 134.6,103.93 135.38,103.8 136.17,103.92 136.94,103.82 137.73,103.79 138.51,103.79 139.3,103.8 140.09,103.82 
					140.38,104.53 140.04,105.17 139.53,105.67 138.85,106.15 138.05,106.41 137.22,106.35 136.37,106.3 135.53,106.43 
					134.67,106.33 133.83,106.49 132.96,106.38 132.87,106.97 133.46,107.62 134.02,108.34 134.81,108.78 135.58,109.31 
					135.51,110.03 135.48,110.69 134.96,111.41 134.42,112.11 133.99,112.91 133.5,113.67 132.75,114.21 132.25,114.98 
					131.52,115.39 130.75,115.65 129.78,115.78 128.78,115.72 127.79,115.63 126.78,115.64 126.39,116.15 126.01,116.64 
					125.98,117.6 126.02,118.6 126.49,119.04 127,119.39 127.86,119.42 128.73,119.5 129.49,119.41 130.23,119.53 130.99,119.53 
					131.74,119.38 132.49,119.36 133.24,119.44 134,119.48 134.74,119.3 135.5,119.4 136.25,119.47 137,119.33 137.75,119.43 
					138.5,119.36 139.25,119.31 140.03,119.11 140.73,118.68 141.12,118.19 141.53,117.69 141.92,117.19 142.32,116.74 
					142.96,116.65 143.62,116.52 144.23,117.09 144.79,117.71 145.49,118.18 146.11,118.71 146.85,119.14 147.68,119.35 
					148.46,119.37 149.25,119.42 150.05,119.35 150.84,119.36 151.64,119.35 152.43,119.44 153.23,119.4 154.02,119.4 
					154.83,119.42 155.61,119.27 156.42,119.35 157.21,119.43 158.29,119.45 158.99,118.62 159.41,118.01 159.87,117.45 
					160.34,116.89 160.75,116.31 160.35,115.6 159.42,115.57 158.5,115.53 157.57,115.53 156.64,115.46 155.71,115.45 				"/>
			</g>
			<g>
				<polygon class="st2" points="159.97,144.55 160.46,144.13 160.81,143.6 160.78,142.62 160.58,141.67 160.09,141.23 
					159.69,140.73 158.9,140.75 158.11,140.76 157.31,140.77 156.52,140.6 155.72,140.67 154.92,140.69 154.13,140.83 
					153.33,140.84 152.53,140.67 151.74,140.71 150.93,140.83 150.14,140.74 149.33,140.92 148.54,140.83 147.7,139.94 
					147.81,139.16 148.07,138.46 148.12,137.72 148.15,136.99 148.18,136.25 148.2,135.51 148.35,134.77 148.48,134.05 
					148.54,133.31 148.73,132.6 149.14,132.11 149.68,131.76 150.54,131.79 151.41,131.68 152.29,131.8 153.16,131.74 
					154.03,131.81 154.9,131.74 155.77,131.66 156.61,131.53 157.39,130.72 157.46,129.74 157.4,128.77 156.89,128.29 156.42,127.7 
					155.6,127.76 154.83,127.77 154.05,127.94 153.26,127.81 152.48,127.94 151.71,127.75 150.92,127.75 150.1,127.95 149.5,126.96 
					149.42,126.26 149.42,125.52 149.67,124.8 149.67,124.06 149.77,123.32 149.77,122.6 149.05,121.69 148.3,121.64 147.52,121.71 
					146.73,121.69 145.96,121.76 145.17,121.7 144.39,121.86 143.61,121.85 142.82,121.8 142.03,121.85 141.25,121.74 
					140.47,121.84 139.7,121.87 139.2,122.26 138.69,122.65 138.51,123.38 138.31,124.1 138.31,124.84 138.24,125.58 138.27,126.32 
					138.05,127.01 137.55,127.44 137.07,127.93 136.29,127.86 135.51,127.84 134.72,127.99 133.93,127.9 133.15,127.93 
					132.36,127.92 131.57,127.95 130.78,127.96 130,127.98 129.21,128.11 128.42,127.95 127.6,127.91 127.16,128.41 126.73,128.9 
					126.84,129.9 126.77,130.91 127.41,131.25 127.9,131.72 128.76,131.76 129.63,131.75 130.5,131.79 131.38,131.76 132.25,131.77 
					133.11,131.71 133.99,131.75 134.86,131.71 135.73,131.81 136.61,131.79 137.46,132.64 137.43,133.38 137.29,134.11 
					137.24,134.86 137.04,135.56 136.93,136.29 136.82,137.01 136.79,137.75 136.75,138.5 136.61,139.23 136.62,139.99 
					136.02,140.4 135.48,140.84 134.62,140.9 133.78,140.77 132.93,140.93 132.08,140.93 131.23,140.87 130.38,140.86 
					129.54,140.93 128.7,140.85 127.85,140.94 127,140.98 126.15,141.02 125.3,140.97 124.51,141.83 124.59,142.8 124.65,143.79 
					125.16,144.16 125.52,144.71 126.34,144.71 127.12,144.72 127.91,144.72 128.7,144.75 129.48,144.77 130.27,144.76 
					131.06,144.72 131.85,144.65 132.63,144.62 133.42,144.62 134.21,144.68 135,144.68 135.86,144.61 136.82,144.61 137.61,144.66 
					138.4,144.66 139.18,144.57 139.96,144.61 140.74,144.62 141.53,144.63 142.31,144.58 143.09,144.57 143.88,144.57 
					144.67,144.46 145.45,144.65 146.24,144.63 147.22,144.56 148.07,144.49 148.92,144.54 149.76,144.6 150.61,144.6 151.46,144.5 
					152.31,144.62 153.16,144.48 154,144.55 154.85,144.52 155.7,144.51 156.55,144.39 157.4,144.6 158.26,144.53 159.11,144.63 
									"/>
			</g>
			<g>
				<polygon class="st2" points="101.84,134.9 102.62,135.76 102.62,136.57 102.37,137.37 102.46,138.2 102.23,139.01 
					102.18,139.82 102.09,140.65 101.95,141.46 101.94,142.29 101.78,143.1 101.56,143.89 101.06,144.27 100.57,144.66 
					99.82,144.82 99.04,144.92 98.26,144.79 97.47,144.78 96.69,144.81 95.91,144.78 95.12,144.76 94.34,144.91 93.55,144.95 
					92.76,144.82 91.98,144.83 91.22,144.85 90.76,144.47 90.46,143.95 90.5,143.16 90.65,142.34 90.7,141.52 90.88,140.72 
					90.83,139.89 91.03,139.07 91.07,138.25 91.17,137.44 91.22,136.61 91.37,135.77 91.97,135.36 92.4,134.78 93.22,134.79 
					94,134.93 94.79,134.82 95.57,134.86 96.35,134.91 97.14,134.99 97.92,134.86 98.71,134.82 99.48,134.9 100.28,134.78 
					101.06,134.9 				"/>
			</g>
			<g>
				<polygon class="st2" points="108.49,128.22 108.18,127.66 108.73,127.09 109.18,126.42 109.7,125.83 110.2,125.21 110.8,124.69 
					111.39,124.16 111.81,123.47 112.36,122.9 112.91,122.33 113.46,121.76 113.98,121.16 114.48,120.56 114.99,119.96 
					115.48,119.33 116.09,118.82 116.56,118.17 117.08,117.57 117.7,117.07 118.14,116.4 118.62,115.77 119.24,115.25 
					119.88,114.77 120.31,114.09 120.88,113.54 121.39,112.92 121.91,112.33 122.32,111.62 122.91,111.08 123.38,110.43 
					124.09,109.94 123.7,109.12 122.9,109.18 122.12,109.18 121.33,109.23 120.55,109.2 119.77,109.13 118.99,109.11 118.19,109.18 
					117.41,109.37 116.63,109.37 115.84,109.23 115.06,109.24 114.26,109.28 113.48,109.57 112.69,109.89 112.27,110.54 
					111.79,111.1 111.2,111.57 110.71,112.13 110.25,112.7 109.86,113.35 109.23,113.76 108.72,114.32 108.17,114.82 107.74,115.43 
					107.28,116 106.88,116.69 106.2,116.52 105.57,116.54 104.87,115.84 104.07,115.2 104.05,114.54 104.16,113.94 104.59,113.27 
					105.12,112.69 105.74,112.18 106.17,111.51 106.69,110.91 107.21,110.31 107.79,109.77 108.27,109.14 108.81,108.56 
					109.37,108.01 109.83,107.34 110.46,106.85 110.93,106.2 111.48,105.64 111.93,104.98 112.54,104.47 113.01,103.81 
					113.54,103.23 114.06,102.63 114.6,102.05 115.07,101.4 115.56,100.83 115.4,100.19 114.59,100.13 113.8,100.17 113.01,100.27 
					112.23,100.21 111.45,100.24 110.67,100.24 109.88,100.31 109.09,100.27 108.31,100.25 107.52,100.24 106.75,100.3 
					105.98,100.31 105.2,100.6 104.4,100.89 103.9,101.52 103.37,102.1 102.85,102.7 102.33,103.29 101.88,103.94 101.28,104.47 
					100.83,105.13 100.29,105.71 99.68,106.21 99.11,106.77 98.67,107.44 98.22,108.1 97.56,108.57 97.01,109.14 96.57,109.82 
					95.93,110.3 95.43,110.92 94.92,111.53 94.45,112.17 93.96,112.8 93.31,113.29 92.83,113.93 92.75,114.62 92.85,115.29 
					93.4,115.93 94.07,116.47 94.72,117.03 95.3,117.67 95.89,118.29 96.48,118.92 97.16,119.45 97.72,120.11 98.36,120.68 
					98.95,121.31 99.63,121.85 100.22,122.51 100.11,123.19 100.19,123.82 99.65,124.47 98.94,124.99 98.55,125.79 97.97,126.42 
					97.46,127.12 96.88,127.76 96.19,128.29 95.65,128.97 95.06,129.6 94.44,130.19 93.93,130.88 93.34,131.51 93.58,132.14 
					94.57,132.08 95.55,132.16 96.51,132.07 97.49,132.16 98.4,132.2 99.31,132.05 100.11,132.18 100.9,132.15 101.7,132.23 
					102.49,132.18 103.29,132.11 104.1,132 104.49,132.53 104.82,133.03 104.77,133.79 104.65,134.57 104.45,135.33 104.42,136.11 
					104.33,136.89 104.33,137.68 104.05,138.43 104.13,139.23 103.94,140 103.86,140.78 103.95,141.58 103.68,142.33 103.7,143.13 
					103.63,143.88 104.3,144.85 105.11,144.76 105.9,144.81 106.68,144.76 107.47,144.72 108.25,144.83 109.03,144.83 
					109.82,144.78 110.59,144.63 111.39,144.73 112.17,144.62 112.96,144.66 113.75,144.72 114.21,144.21 114.75,143.82 
					114.79,143.07 114.91,142.29 115.07,141.52 115.24,140.75 115.28,139.97 115.37,139.19 115.44,138.41 115.56,137.64 
					115.57,136.84 115.84,136.09 115.95,135.32 116,134.53 116.09,133.74 116.13,132.99 116.57,132.47 117.18,132.13 117.8,132.1 
					118.46,132.09 119.11,132 119.76,131.93 120.74,132.1 121.59,131.99 121.78,132.05 122.29,131.61 122.81,131.14 122.95,130.38 
					123,129.63 123.16,128.88 123.05,128.12 123.2,127.38 123.29,126.63 123.28,125.88 123.45,125.13 123.63,124.4 123.8,123.66 
					123.87,122.91 124.01,122.16 124.02,121.4 124.14,120.66 124.19,119.9 124.29,119.15 123.72,118.91 123.13,119.5 122.66,120.21 
					122.08,120.84 121.52,121.49 120.86,122.04 120.24,122.62 119.68,123.25 119.04,123.82 118.56,124.52 117.97,125.15 
					117.39,125.77 116.82,126.4 116.17,126.96 115.72,127.73 114.9,128.03 114.08,128.21 113.14,128.24 112.21,128.41 
					111.28,128.32 110.34,128.39 109.4,128.36 				"/>
			</g>
		</g>
		<g>
			<g>
				<g>
					<g>
						<polygon class="st2" points="90.79,62.1 90.22,62.44 89.79,62.96 89.68,63.59 89.59,64.24 89.62,64.9 89.58,65.59 
							88.92,65.93 88.39,66.36 87.71,66.36 86.8,65.58 87.11,64.82 87.18,64.05 87.21,63.28 87.22,62.51 87.48,61.77 87.51,61 
							87.63,60.25 87.79,59.5 87.85,58.72 87.99,57.97 88.2,57.23 88.27,56.46 88.48,55.72 88.61,54.94 87.75,54.07 86.83,54.04 
							85.92,54.13 85.13,53.98 84.34,54.06 83.56,53.92 82.77,54.02 81.99,54.01 81.2,54.07 80.42,54.16 79.62,54.2 78.84,54.1 
							78.05,53.98 77.13,53.94 76.22,54.1 75.35,54.13 74.48,54.08 73.57,54.08 72.66,54.2 71.84,54.15 71.04,54 70.24,54.15 
							69.42,54.15 68.63,54.05 67.82,54.01 67,54.09 66.2,54.23 65.39,54.16 64.58,54.16 63.78,54.21 62.94,54.09 62.44,54.64 
							61.94,55.12 61.66,55.81 61.59,56.58 61.47,57.34 61.57,58.12 61.38,58.87 61.18,59.61 61.17,60.38 60.97,61.13 60.98,61.91 
							60.83,62.66 60.66,63.41 60.59,64.18 60.51,64.94 60.3,65.68 59.82,66.21 59.23,66.57 58.26,66.57 57.84,67.04 57.37,67.52 
							57.52,68.54 57.55,69.57 58.02,70.03 58.55,70.42 58.67,70.46 59.57,70.56 60.48,70.47 61.29,70.48 62.1,70.48 62.91,70.48 
							63.72,70.39 64.52,70.48 65.32,70.45 66.14,70.35 66.94,70.33 67.75,70.31 68.57,70.26 69.38,70.37 70.19,70.53 70.67,69.99 
							71.12,69.47 71.3,68.75 71.37,67.98 71.67,67.26 71.72,66.49 71.8,65.72 71.97,64.97 71.99,64.2 72.21,63.46 72.27,62.69 
							72.3,61.93 72.47,61.17 72.51,60.4 72.64,59.64 72.85,58.93 73.37,58.47 73.87,57.86 74.76,57.93 75.65,57.99 76.4,58.87 
							76.23,59.63 76.19,60.39 76.09,61.16 75.9,61.9 75.81,62.66 75.82,63.44 75.67,64.19 75.5,64.93 75.35,65.68 75.29,66.45 
							75.17,67.21 75.1,67.98 74.96,68.74 74.88,69.47 75.53,70.41 76.35,70.26 77.15,70.32 78.06,70.4 78.98,70.43 79.76,70.49 
							80.55,70.52 81.33,70.35 82.11,70.2 82.9,70.27 83.69,70.44 84.47,70.36 85.26,70.22 86.18,70.24 87.09,70.32 87.92,70.29 
							88.83,70.36 89.76,70.33 90.43,70.27 91.11,70.26 91.79,70.16 92.47,70.18 92.93,69.75 93.4,69.34 93.54,68.57 93.73,67.78 
							93.9,66.98 93.99,66.16 93.97,65.34 94.13,64.54 94.15,63.72 94.25,62.93 93.5,62.09 92.83,62.01 92.14,62.09 91.45,61.96 
													"/>
					</g>
					<g>
						<path class="st2" d="M91.5,93.64l-0.42-0.51l-0.43-0.51l-0.76,0.11l-0.76-0.08l-0.75,0.03l-0.82-0.22l-0.75-0.4l-0.7-0.36
							l-0.59-0.53l-0.6-0.51l-0.52-0.6l-0.61-0.5l-0.52-0.6l-0.68-0.42l-0.62-0.49l-0.48-0.65l-0.53-0.55l-0.07-0.6l-0.14-0.65
							l0.6-0.58l0.43-0.66l0.45-0.65l0.54-0.58l0.52-0.6l0.41-0.69l0.53-0.6l0.36-0.71l0.57-0.57l0.43-0.66l0.56-0.56l0.57-0.56
							l0.37-0.72l0.61-0.52l0.36-0.72l0.48-0.63l0.5-0.62l0.51-0.6l0.43-0.67l0.55-0.62l-0.36-0.65l-0.81-0.03l-0.8-0.04l-0.81-0.05
							l-0.8,0.02l-0.81,0.07l-0.81-0.03l-0.8,0.07l-0.81,0.01l-0.92,0.02l-0.91-0.18l-0.81,0.15l-0.81-0.04l-0.91-0.08l-0.91,0.06
							l-0.79,0.09l-0.79,0.09l-0.79,0.02h-0.79l-0.79-0.09l-0.79-0.14l-0.79,0.09l-0.79,0.13l-0.79-0.17l-0.79,0.08l-0.79,0.04
							l-0.79-0.06h-0.79l-0.79,0.04h-0.79l-0.79,0.03l-0.79-0.17l-0.79,0.01l-0.78,0.24l-0.79-0.02l-0.79,0.04l-0.79-0.03
							l-0.79-0.01L59.5,72.5l-0.79,0.14l-0.79,0.09L57,72.64l-0.91-0.1l-0.82,0.08l-0.44-0.45l-0.39-0.51l0.05-0.84l0.2-0.81
							l0.09-0.83l0.26-0.8l-0.08-0.85l0.06-0.84l0.14-0.82l0.07-0.83l0.08-0.83l0.25-0.81l0.06-0.83l0.08-0.83l0.01-0.84l0.26-0.8
							L56,59.24l0.12-0.83l0.05-0.84l0.2-0.82l-0.01-0.84l0.13-0.82l-0.36-0.5l-0.43-0.4l-0.78,0.09l-0.82-0.05l-0.81-0.01
							l-0.81-0.08l-0.91,0.05l-0.91,0.04l-0.77-0.04l-0.77,0.08l-0.77-0.12l-0.78,0.13l-0.77-0.14l-0.77,0.12l-0.91-0.02l-0.91,0.04
							h-0.88l-0.79-0.32l-0.78-0.33l-0.51-0.57l-0.51-0.58l-0.7-0.36l-0.6-0.48l-0.51-0.58l-0.58-0.49l-0.63-0.44l-0.51-0.56
							l-0.44-0.63l-0.61-0.47l-0.56-0.52l-0.55-0.53l-0.59-0.49l-0.59-0.49l-0.62-0.45l-0.55-0.52l-0.76,0.27l-0.04,0.74l-0.23,0.76
							l0.1,0.78l0.04,0.79l-0.29,0.74l-0.05,0.78l-0.19,0.76l0.04,0.79l-0.08,0.77l-0.09,0.79l-0.48,0.48L30.1,54.2l-0.71,0.21
							l-0.75,0.05l-0.75-0.12l-0.75-0.02l-1.15,0.1l-0.41,0.82l-0.08,0.84l-0.29,0.8l0.05,0.84l-0.07,0.83l-0.17,0.82l-0.08,0.83
							l-0.16,0.82l-0.11,0.83l0.03,0.84l-0.01,0.84l-0.19,0.82v0.85l-0.24,0.81l-0.23,0.81l-0.1,0.83l-0.01,0.84l-0.16,0.83
							l-0.05,0.84l-0.03,0.84l-0.1,0.86l-0.54,0.44l-0.53,0.45l-0.96-0.02l-0.94-0.09l-0.93,0.12l-0.94,0.11l-0.94-0.12h-0.9
							l-0.49,0.38l-0.32,0.55l0.05,1.01l-0.04,1.03l0.56,0.43l0.45,0.6l0.84-0.07l0.8-0.1l0.81,0.09l0.81-0.03l0.81-0.06l0.79,0.02
							l0.37,0.44l0.53,0.43l-0.16,0.79l-0.14,0.76l-0.07,0.78l-0.13,0.77l-0.05,0.78l-0.02,0.78l-0.11,0.77L22.1,83.7l-0.05,0.78
							l-0.15,0.76L21.75,86l-0.08,0.77l-0.05,0.78l-0.13,0.77v0.78l-0.07,0.78l-0.15,0.77l-0.32,0.73l0.08,0.79l-0.13,0.77
							l-0.12,0.77l-0.07,0.78l-0.15,0.77l-0.11,0.81l0.89,0.89l0.9-0.05l0.91,0.03L24.06,97l0.92-0.07l0.44-0.54l0.51-0.42
							l0.16-0.74l0.06-0.78l0.14-0.77l0.04-0.78l0.08-0.77l0.12-0.77l0.04-0.78l0.17-0.76l0.01-0.78l0.04-0.79l0.17-0.77l0.22-0.75
							L27.36,86l0.09-0.77l-0.03-0.79l0.14-0.77l-0.02-0.79l0.05-0.78l0.18-0.76l0.19-0.76l-0.06-0.79l0.22-0.77l0.05-0.78
							l0.17-0.74l0.45-0.51l0.5-0.51l0.78-0.03l0.76,0.07l0.76-0.09l0.76,0.05l0.76,0.12l0.76,0.06l0.76-0.1l0.76,0.07l0.76-0.05
							l0.75-0.14l0.76-0.02l0.76-0.05l0.76,0.19l0.77,0.01l0.76-0.12l0.77,0.01l0.8,0.92l-0.05,0.82l-0.14,0.79l0.03,0.8l-0.2,0.78
							l-0.04,0.8l-0.23,0.78l-0.12,0.79l-0.05,0.8l-0.13,0.79l0.03,0.8l-0.16,0.79l-0.18,0.78l-0.06,0.79l-0.07,0.79l-0.15,0.79
							l-0.13,0.79l-0.1,0.79l0.05,0.8l-0.03,0.8l-0.16,0.79l-0.2,0.78l-0.08,0.79l-0.1,0.79l-0.27,0.77l0.06,0.82l-0.17,0.79
							l-0.04,0.8l-0.06,0.8l-0.03,0.8l-0.13,0.79l0.58,0.39l0.65-0.43l0.76-0.23l0.67-0.4l0.61-0.5l0.73-0.27l0.64-0.45l0.7-0.35
							l0.7-0.33l0.63-0.47l0.7-0.33l0.7-0.34l0.7-0.33l0.62-0.48l0.72-0.3l0.65-0.44l0.66-0.38l0.55-0.62l0.36-0.75l0.17-0.76
							l-0.02-0.78l0.03-0.77l0.22-0.75l0.03-0.78l0.29-0.73l-0.08-0.79l0.11-0.77l0.05-0.77l0.05-0.77l0.27-0.73l0.08-0.78
							l0.15-0.76l0.04-0.77l0.14-0.76l0.12-0.77l-0.03-0.78l0.1-0.77l0.09-0.77l0.04-0.78l0.23-0.75l0.08-0.77l0.54-0.38l0.46-0.42
							h0.75l0.79-0.02l1-0.08l0.82,0.04l0.79-0.01l0.79,0.05l0.78-0.17h0.79l0.78,0.04l0.78-0.03l0.78,0.06l0.79,0.04l0.78-0.21
							l0.79,0.13l0.78-0.05h0.79l0.79,0.04l0.78-0.1l0.79-0.04l0.78,0.09l0.79,0.01l0.78,0.12l0.79,0.01l0.79-0.05l0.79-0.1
							l0.78,0.06l0.38,0.65l-0.55,0.59l-0.33,0.71l-0.6,0.51l-0.51,0.57l-0.65,0.52l-0.78,0.32l-0.81,0.05l-0.81-0.05l-0.82,0.06
							l-0.81-0.18l-0.82,0.05l-0.81,0.11l-0.81-0.13l-0.82,0.12l-0.81-0.07l-0.82-0.05L63.4,80.2l-0.79,0.18l-0.3,0.56l0.59,0.46
							l0.58,0.44l0.59,0.43l0.49,0.54l0.54,0.49l0.54,0.49l0.55,0.48l0.55,0.49l0.56,0.47l0.44,0.57l0.05,0.63l0.17,0.63l-0.43,0.69
							l-0.62,0.54l-0.49,0.65l-0.56,0.6l-0.41,0.72l-0.54,0.61L64.4,91.5l-0.49,0.64l-0.72,0.39l-0.72,0.44l-0.72-0.16l-0.71,0.05
							l-0.71,0.09l-0.71-0.08h-0.71l-0.72,0.02l-0.71,0.02l-0.68,0.09l-0.81,0.85l0.11,1l0.07,1l0.42,0.44l0.42,0.51l0.81-0.05
							l0.79,0.03l0.79-0.04l0.91,0.05l0.91-0.04l0.83-0.07l0.82,0.08l0.83,0.08l0.82-0.06l0.82-0.1l0.82,0.07l0.83,0.03l0.82-0.21
							l0.83,0.04l0.83,0.04l0.83,0.06l0.84,0.09l0.71-0.44l0.69-0.43l0.51-0.73l0.54-0.72l0.66-0.62l0.62-0.65l1.2-0.17l0.56,0.54
							L77.28,94l0.5,0.59l0.55,0.52l0.61,0.46l0.49,0.61l0.88,0.13l0.8,0.33l0.82,0.05l0.81-0.02l0.81-0.04l0.81,0.16l0.91-0.19
							l0.92,0.05l0.79,0.06l0.79-0.11l0.79,0.02l0.79-0.11l0.79,0.02l0.81,0.05l0.88-0.88l-0.23-1.05L91.5,93.64z M43.04,71.77
							l-0.58,0.4l-0.56,0.39l-0.75,0.13l-0.77-0.07h-0.76l-0.76,0.09l-0.77-0.07l-0.75,0.21l-0.76-0.06l-0.76,0.02l-0.76-0.1
							l-0.76,0.05l-0.76-0.05l-0.76,0.14l-0.77-0.01l-0.76-0.17l-0.76-0.05l-0.75,0.03l-0.89-0.76l0.29-0.8l0.12-0.79l-0.01-0.8
							l0.11-0.79l0.13-0.79l-0.02-0.8l0.16-0.79l-0.05-0.81l0.29-0.76l0.13-0.79l0.13-0.79l0.14-0.79L30.2,61.5l0.23-0.79
							l-0.01-0.81l0.14-0.79l0.48-0.51l0.51-0.49l0.77-0.03l0.76,0.11h0.76l0.76,0.02l0.76-0.05l0.76,0.05l0.76,0.05l0.76-0.07
							l0.76-0.03l0.76-0.07l0.76,0.05l0.76-0.02l0.76,0.14l0.76-0.15l0.76,0.04l0.73,0.07l0.43,0.41l0.48,0.42l-0.05,0.8l-0.08,0.79
							l-0.15,0.79L44.1,62.2l-0.14,0.79l-0.01,0.8l-0.08,0.79l-0.27,0.77l0.03,0.81l-0.06,0.79l-0.14,0.79l-0.1,0.79l-0.1,0.79
							l-0.1,0.79l0.02,0.8L43.04,71.77z"/>
					</g>
					<g>
						<polygon class="st2" points="39.86,86.6 39.75,87.38 39.63,88.14 39.29,88.83 38.91,89.49 38.55,90.15 38.17,90.83 
							37.63,91.38 37.06,91.91 36.31,92.17 35.6,92.46 34.85,92.64 34.08,92.72 33.3,92.68 32.56,92.46 31.86,92.15 31.11,91.93 
							30.58,91.35 29.9,90.94 29.55,90.24 29.11,89.61 28.8,88.91 28.52,88.19 28.54,87.41 28.26,86.67 28.44,85.9 28.59,85.14 
							28.72,84.37 29.01,83.65 29.44,83 29.97,82.42 30.61,82 31.23,81.55 31.83,81.06 32.52,80.68 33.31,80.71 34.08,80.57 
							34.84,80.63 35.55,80.93 36.27,81.16 37.01,81.39 37.63,81.85 38.24,82.33 38.63,83.01 38.97,83.7 39.35,84.35 39.6,85.09 
							39.63,85.85 						"/>
					</g>
				</g>
			</g>
		</g>
		<g>
			<polygon class="st1" points="49.33,66.05 48.43,66.24 47.61,66.36 46.76,66.37 45.94,66.53 45.12,66.66 44.28,66.77 43.49,67.09 
				42.7,67.33 41.87,67.47 41.13,67.89 40.41,68.31 39.73,68.8 39.17,69.41 38.72,70.11 38.21,70.77 37.94,71.56 37.67,72.35 
				37.4,73.14 37.16,73.93 36.98,74.74 36.9,75.58 36.74,76.4 36.66,77.23 36.55,78.06 36.42,78.97 36.27,78.07 36.18,77.23 
				36.05,76.41 35.9,75.58 35.8,74.75 35.58,73.94 35.49,73.1 35.13,72.33 34.86,71.55 34.51,70.8 34.18,70.03 33.64,69.4 
				33.07,68.79 32.36,68.35 31.69,67.87 30.92,67.53 30.12,67.29 29.32,67.08 28.51,66.9 27.69,66.74 26.9,66.47 26.06,66.42 
				25.25,66.23 24.41,66.11 23.55,66.05 24.4,65.86 25.25,65.89 26.05,65.63 26.88,65.56 27.69,65.33 28.55,65.34 29.34,65.03 
				30.13,64.78 30.95,64.58 31.72,64.25 32.46,63.85 33.05,63.25 33.73,62.75 34.24,62.08 34.52,61.28 35,60.58 35.12,59.74 
				35.51,58.98 35.53,58.14 35.87,57.36 35.99,56.53 36.11,55.7 36.26,54.88 36.25,54.03 36.42,53.3 36.47,54.05 36.64,54.87 
				36.77,55.69 36.83,56.53 36.97,57.37 37.15,58.18 37.39,58.98 37.64,59.79 37.86,60.59 38.3,61.31 38.6,62.11 39.22,62.69 
				39.8,63.27 40.43,63.81 41.16,64.21 41.89,64.61 42.72,64.77 43.51,65.01 44.3,65.25 45.11,65.5 45.96,65.49 46.77,65.67 
				47.6,65.77 48.42,65.94 			"/>
		</g>
		<g>
			<polygon class="st1" points="130.04,136.73 129.16,136.77 128.36,136.99 127.56,137.13 126.75,137.29 125.94,137.39 
				125.14,137.55 124.34,137.74 123.61,138.13 122.91,138.53 122.16,138.89 121.65,139.53 121.23,140.22 120.86,140.94 
				120.58,141.7 120.24,142.44 120.08,143.24 119.89,144.03 119.7,144.83 119.7,145.65 119.59,146.46 119.43,147.19 119.32,146.46 
				119.19,145.65 119.08,144.84 118.91,144.04 118.7,143.25 118.62,142.42 118.33,141.67 118.02,140.91 117.69,140.16 
				117.25,139.46 116.67,138.87 115.97,138.45 115.25,138.06 114.48,137.82 113.7,137.58 112.9,137.46 112.11,137.24 111.31,137.08 
				110.5,136.97 109.69,136.85 108.9,136.73 109.69,136.58 110.51,136.57 111.3,136.31 112.11,136.17 112.91,136 113.72,135.89 
				114.49,135.61 115.26,135.34 115.95,134.91 116.66,134.51 117.24,133.93 117.68,133.25 118.03,132.52 118.3,131.76 
				118.52,130.98 118.84,130.22 118.92,129.4 119.13,128.61 119.26,127.81 119.3,126.99 119.43,126.09 119.47,127 119.73,127.78 
				119.79,128.6 120.01,129.4 120,130.23 120.3,131 120.55,131.78 120.77,132.57 121.14,133.3 121.6,133.98 122.27,134.48 
				122.86,135.05 123.58,135.43 124.4,135.59 125.14,135.97 125.97,135.99 126.73,136.32 127.57,136.29 128.34,136.58 
				129.16,136.68 			"/>
		</g>
	</g>
</g>
</svg>
