<?xml version="1.0" encoding="UTF-8"?><svg id="_レイヤー_1" xmlns="http://www.w3.org/2000/svg" viewBox="0 0 100 100"><path d="m42.20872,31.53958c-3.13343.34909-5.91747.59061-7.67657.77313-1.75947.18398-7.44077.49499-9.56601.93449-.21975.95347-.51361,1.85219-.87937,2.69397-.36796.84323-1.02758,1.44846-1.97923,1.81423-.43987-.21975-.9177-.4395-1.42948-.65999-.51397-.21975-1.02758-.40154-1.53936-.54974-1.75947-.73153-3.35395-1.52001-4.78307-2.36397-1.42948-.84177-1.99821-1.99602-1.70435-3.46346.14601-.51178.45703-.98925.93449-1.42948.47601-.4395.75088-.95201.82462-1.53899.22012-1.02575.32999-2.08947.32999-3.18896v-4.61844c-1.53936-.80527-2.84181-1.90476-3.90333-3.29847-1.06372-1.39152-1.33859-2.93124-.82498-4.61844.806-.07155,1.55688-.10951,2.2541-.10951.69612,0,1.33676.03796,1.92447.10951,1.17177.07447,2.21613.07447,3.13384,0,.91551-.07155,5.56955-1.23999,6.81705-1.209,2.08258.05173,19.35787-1.20171,23.59627-1.48424,2.74872-.18252,8.56029-.40227,11.45721-.65999,2.89474-.25626,2.562-.53076,4.9811-.82498,2.41909-.29203,9.52193-.62202,10.84117-.98925.87974-.44023,2.19934-.67678,3.95845-.71474,1.75947-.0365,3.71972.09272,5.88219.38475,2.16247.29349,4.23442.7527,6.21292,1.37473,1.97996.62348,3.55545,1.374,4.72795,2.25373,0,.44023-.10951.78848-.32999,1.04473-.21902.25772-.47747.49499-.7695.71474-.29349.29349-.568.62348-.82498.98925-.25699.36796-2.62096,2.84217-3.57297,3.68394-.95347.84323-2.05296,1.44846-3.29847,1.81423-.80746.95347-1.26449,2.1632-1.37546,3.62846-.10951,1.46745-.25699,3.00644-.4395,4.61844-.18398,1.61273-.82498,3.07872-1.92447,4.39796-1.39298.36796-2.8962.58771-4.50747.65999-1.61346.07374-2.9327-.47601-3.95845-1.64996-2.05333,0-9.11966.01898-10.7313.05549-1.61346.03796-.19839.09272-1.73775.165-.95347.07374-1.90695.12849-2.8586.165m-22.73875-2.80421c-.07374-.87974-.09272-1.72151-.05476-2.52897.03614-.806.05476-1.61127.05476-2.41873.07228-1.24623.10988-2.47422.10988-3.68394s-.21975-2.43625-.65962-3.68321c-1.97923-.07228-7.45938.165-8.96114.71474-1.50322.54974-2.54795,1.22798-3.13347,2.03398-.73372,1.09949-1.09985,2.52897-1.09985,4.28844s.22012,3.77593.65999,6.04719c1.39152-.21975,2.94986-.4395,4.67283-.65926,1.72151-.22048,7.01806-.25626,8.4114-.11024Zm20.09954-12.09511c-.58734-1.39152-1.72297-2.0515-3.40834-1.97923-1.6872.07374-7.85842.29349-9.54379.65999-.22012,0-.43987.01898-.65999.05476-.21975.03796-.43987.09272-.65962.165.7319,1.39298,1.08051,3.15245,1.04437,5.27769-.0376,2.1267-.23873,4.25194-.6045,6.37718.58588.29422,2.75977.44023,3.52926.44023.76986,0,1.52074-.0365,2.2541-.11024.51215,0,3.96156-.01679,4.36529-.05476.4019-.03577.78665-.01752,1.15424.05476.65999-.73153,1.17177-1.77627,1.53936-3.13347.36613-1.35574.62202-2.74872.76986-4.1782.14601-1.42948.21975-2.62023.21975-3.5737Zm18.18661-2.41873c-.36759-.14601-1.15461-.27524-2.36397-.38548-1.20936-.10951-6.26718-.18179-7.69666-.21975-1.42948-.03577-1.19868.09272-2.29817.38475.14601,1.75947.18215,3.37293.10988,4.83819-.07374,1.46745-.14784,2.85896-.21975,4.1782-.0741.80746-.12886,1.5587-.165,2.25446-.03796.69722-.05512,1.41196-.05512,2.14422,1.17177-.22048.97893-.34751,2.40841-.38475,1.42912-.0365,6.65192-.05549,8.19128-.05549h1.42948c.51178-1.17177.91551-2.54576,1.20936-4.12345.29203-1.5755.40227-3.15099.32999-4.72795-.07374-1.5755-.36759-2.87575-.87974-3.90297Z"/><path d="m97.78186,91.48006c-1.09949.806-2.58373,1.31924-4.45271,1.53899-1.86972.22048-3.7387.29276-5.60842.22048-1.86899-.07374-3.42696-.18398-4.67246-.32999-5.4259-.65999-10.41297-1.15497-16.46089-1.48424-6.04719-.32999-12.11409-.3665-18.19778-.11024-6.08515.25772-11.91259.89653-17.48304,1.92447-5.57118,1.02575-9.88148,3.23865-14.42618,5.1456-3.3722-.80746-6.21219-2.87434-8.5214-4.70609-2.30922-1.83102-4.30743-3.95845-5.99243-6.37718,1.46526-.87974,2.94949-1.15497,4.45271-.82498,1.50176.32999,2.95022.7527,4.34393,1.26449.4395.1482.7695.25772.98925.32999,3.37074-.65999,7.10944-1.15424,11.21537-1.48424,4.10447-.32999,7.57153-.641,11.89721-.93449,4.32422-.29203,8.46665-.58625,12.4251-.87974-.07374-1.97923-.29349-5.71025-.4395-7.32371-3.59269-.36577-6.8364-.27524-9.73113.27524-2.89693.54974-4.4256,1.26449-7.57587,2.14349-.51397.1482-1.00896.27524-1.48497.38548-.47747.10951-.97246.23873-1.48424.38475-1.09949-.29203-2.51145-.84177-4.23296-1.64923-1.7237-.806-3.22692-1.777-4.5082-2.91445-1.28347-1.13526-1.85219-2.39975-1.70472-3.79346,4.03073-.73153,8.8879-1.15424,14.56932-1.26449,5.67996-.10951,9.99533-.42052,15.933-.93449-.07447-.73153-.11024.36746-.11024-.22025,0-1.83102-.11024-1.20156-.32999-2.59527-.21975-1.39152-1.02721-2.49101-2.41873-3.29847-5.20615.14747-9.65886.47747-13.35959.98998-3.70293.51324-7.16639,1.39298-10.39112,2.63848-2.78669-.95201-5.44269-2.30922-7.97166-4.06796-2.52897-1.75947-4.30743-3.62846-5.33318-5.60769.73226-1.02575,1.64923-1.46599,2.74872-1.31997,1.10022.1482,2.23548.40373,3.40871.77023.51251.14747,1.04473.29349,1.59448.4395.54974.14747,1.08051.21975,1.59448.21975,2.63921.1482,5.33318.12922,8.0819-.05476,2.74872-.18252,5.55293-.42125,8.41116-.71474,2.49174-.21975,5.02071-.44023,7.58764-.65999,2.56474-.21975,5.05794-.29203,7.47667-.21975,0-1.02575,0,.51635,0-1.35264s-.01898,1.53275-.05476-.26469c-.03796-1.79525-.05549-3.09551-.05549-3.90297-2.19898-.36577-4.39796-.36577-6.59693,0-2.19898.36723-4.32641.80746-6.37791,1.31924-2.71222.65999-3.72693,1.11847-6.03614,1.37473-2.30922.25772-4.23369-.38475-5.77268-1.92447-1.24769-1.2455-2.63921-2.56474-4.1782-3.95845-1.53972-1.39152-2.41946-3.33497-2.63921-5.82744,1.61127-.44023,3.09624-.45703,4.45344-.05476,1.35501.40373,2.72974.86222,4.12272,1.374.58625.21975,1.17177.45849,1.75947.71474.58625.25772,1.20973.45849,1.86972.6045,2.49101-.21975,3.9642-.38475,7.41087-.49426,3.44448-.11024,7.3292-.38475,11.6556-.82498.29203-2.78523.05476-2.15864-.71474-4.10136-.77023-1.94126-.8848-1.58704-1.83681-3.42025-.58771-1.09949-1.13745-2.21577-1.64923-3.35322-.51324-1.13599-.95347-2.36397-1.31924-3.68394,2.7845,0,5.64346.38548,8.57616,1.15497,2.93124.7695,5.34997,1.9617,7.25765,3.5737.87901,1.46672,1.26449,2.95168,1.15424,4.45271-.11024,1.50322-1.09662.85477-1.46238,2.54051-.14747.80746-.69722,1.2256-.7695,2.17689,2.0515.22048,4.23296.29422,6.54218.22048,2.30922-.07228,2.95816-.29203,4.93738-.65999,1.97923-.36577,3.48025-.87974,4.5082-1.53899.65926.21975,1.374.42198,2.14422.6045.7695.18398,1.55651.38475,2.36397.6045,1.53899.29422,3.04075.65999,4.5082,1.09949,1.46526.44023,2.63848,1.09949,3.51822,1.97923s1.2455,2.1632,1.09949,3.84894c-3.00644.51324-5.80992.78848-8.41116.82425-2.60344.03796-5.18716.01898-7.75191-.05476-2.27345-.07228-3.12316-.11024-5.54188-.11024-2.41946,0-5.05794.18398-7.9169.54974-.1482,1.09949-.29422,2.54795-.44023,4.3432-.14747,1.79744-.02186.51783-.24161,1.83707.806,0,1.04761-.01679,2.22083-.05476,1.17177-.0365,2.41946-.09126,3.7387-.165,2.0515-.07228,4.12345-.12703,6.21219-.165,2.08947-.03577,3.68394.01898,4.78343.165.87974-.07228,1.64923-.4395,2.30922-1.09949.65926-.65999,1.42948-.98998,2.30922-.98998,2.56474.51397,5.00246,1.02794,7.31167,1.53972,2.30922.51397,4.30524,1.33822,5.99243,2.47422,1.68574,1.13745,2.78523,2.95168,3.2992,5.44269-1.97923.07374-4.01394.07374-6.10267,0-2.08947-.07228-4.23369-.14601-6.43267-.21975-4.10593-.22048-8.33962-.34751-12.69961-.38548-4.36218-.03577-8.74189.27524-13.13984.93522.73153,2.27272,1.04473,2.92166.93449,4.93665-.11024,2.01719,1.50176,1.69056,3.29847,1.61683,1.79598-.07228,3.61021-.34678,5.44342-.82425,1.83102-.47601,6.98816-.73226,8.7856-.32999,1.79525.40373,3.35322,1.04473,4.67246,1.92374,1.31997.87974,2.34572,2.38296,3.07945,4.5082-3.07945.44023-6.32316.7527-9.73113.93522-3.40871.18325-5.15714.31247-8.23585.38475-3.07872.07374-5.75589.18398-8.02715.32999-.07374,1.24696-.36723,6.34934-.4395,7.96061-.07374,1.61346-.18398-1.55315-.32999-.52739,1.39152-.07228,2.80348-.07228,4.23296,0,1.42948.07374,2.83998.18398,4.23369.32999,2.71076.21975,4.51107.29349,6.89403.21975,2.3815-.07228,4.41548-.91551,6.10267-2.52897,3.07872.21975,5.95447.53222,8.63165.93449,2.67499.40373,5.09371,1.19221,7.25692,2.36397,2.16174,1.17396,3.97597,3.07872,5.44269,5.71793Z"/></svg>