<?xml version="1.0" encoding="UTF-8"?><svg id="_レイヤー_1" xmlns="http://www.w3.org/2000/svg" viewBox="0 0 100 100"><defs><style>.cls-1{fill:none;}</style></defs><path d="m37.85495,76.50641c-1.73507,1.66528-3.79835,2.96606-6.19193,3.90269s-4.80512,1.83906-7.23324,2.70556c-2.42882.86857-4.68281,1.9434-6.76406,3.22621-2.08125,1.28454-3.71267,3.07005-4.89149,5.35963-.83264.06979-1.52708-.0342-2.08125-.31233-.55624-.27639-1.07656-.58837-1.56094-.93663-.34826-.27639-.7283-.53655-1.14496-.78047-.41597-.24219-2.02943-1.95929-2.54974-2.4454-.52031-.48473-1.05859-.90105-1.61276-1.24896-.83264-.62431-1.56094-1.30078-2.18559-2.02943-.62465-.7283-.93698-1.8895-.93698-3.48637,1.10903-.27639,2.08194-.32822,2.91458-.15582.83195.17378,1.66459.39974,2.49722.67613.20799.07014.43256.13992.67648.20833.24254.06979.46849.13992.67648.20799,2.28993-.97049,4.50938-1.94133,6.66042-2.91389,2.14966-.97084,4.50938-1.76927,7.07708-2.39358.06772-2.21945.08568-5.11572.05182-8.68984-.03593-3.5724-.05182-6.95478-.05182-10.14679v-6.45208c-1.11111,0-2.20355.27812-3.27873.83264-1.07587.5559-2.13307,1.14462-3.1737,1.76892-.76423.48645-1.49322.93663-2.18559,1.35295-.69444.41632-1.38888.69444-2.08125.83264-.41666-.41632-.88446-.83264-1.40477-1.24896s-1.02473-.83229-1.50911-1.24861c-1.59687-1.31737-3.03619-2.75807-4.31935-4.31901-1.28454-1.56094-1.68255-3.72856-1.19679-6.50425.90105.13992,1.73368.27812,2.49792.41632.76285.13992,1.52501.27812,2.28924.41632,2.22014.48611,4.30139.79843,6.24444.93663,1.94167.13958,4.4389-.27639,7.49305-1.24896.1382-2.14966.1382-4.527,0-7.1289-.13958-2.60156-.36415-5.11537-.67648-7.54488-.31233-2.42778-.71241-4.37083-1.19679-5.82778-.90243-1.52535-1.73507-2.91389-2.49792-4.16285-.76423-1.24896-1.35295-3.05209-1.76892-5.41146,1.04063-.48473,2.06328-.71068,3.07005-.67648,1.00469.03559,1.9935.43394,2.96571,1.19679.90105.6941,1.94167,1.59687,3.12257,2.70556,1.17882,1.11076,2.27127,2.22152,3.27804,3.33021,1.00469,1.11076,1.64731,2.01319,1.92509,2.7059.27639.76423.36415,1.73507.2605,2.91389-.10434,1.18055-.2605,2.49792-.46849,3.95486-.27847,1.73507-.52031,3.57413-.7283,5.51545-.20868,1.9434-.10434,3.81666.31163,5.61979,1.80347-.69271,3.6947-.46814,5.67231.67648,1.97691,1.14462,3.27804,2.72352,3.90269,4.73498-1.73507.27812-3.24418.76458-4.52734,1.45729-1.28454.6941-2.75773,1.21441-4.423,1.56094-.20799,1.59687-.33029,3.31397-.36415,5.1513-.03593,1.83906-.05182,3.73029-.05182,5.67196,0,2.49757-.03593,4.99514-.10434,7.49271-.06979,2.49792-.38212,4.82308-.93629,6.97274,1.24861-.48438,2.61746-.7625,4.11068-.83264,1.49115-.06806,2.8441.17413,4.05816.72864,1.21337.55624,1.99419,1.52673,2.34175,2.91389Z"/><path class="cls-1" d="m71.89469,70.14106c1.35295-.10399,2.3763-.57248,3.07005-1.40512.06841-.69271.1382-1.36884.20868-2.02908.06841-.65851.1382-1.33499.20799-2.02943.1382-1.10903.25981-2.27162.36415-3.48637.10434-1.21303.12023-2.51381.05182-3.90269l-8.63733.10434c-.14027,2.08125-.19209,4.11068-.15616,6.08793.03386,1.97726-.08776,4.2506-.36415,6.81658h.93629c1.5257,0,2.9664-.05217,4.31866-.15616Z"/><path class="cls-1" d="m67.05572,48.96302v2.28958h3.12188c1.04132.06979,1.99419.10399,2.86206.10399.8665,0,1.88985-.06841,3.07005-.20833.48438-2.14966.67648-4.12691.57283-5.93177-.10434-1.80347-.36484-4.02292-.78081-6.66042h-6.1401c-.69444,0-1.52708.03559-2.49792.10399-.20799,1.11076-.31163,2.35937-.31163,3.74653,0,1.38854.03386,2.8099.10365,4.26684v2.28958Z"/><path class="cls-1" d="m56.33679,57.6007c-1.04063.13992-2.08125.27812-3.12188.41632-.27812.06979-.53828.12196-.78081.15616-.24392.03559-.50407.08776-.78047.15616-.34791,1.73472-.50407,3.48603-.46814,5.2553.0342,1.76927-.36415,3.24418-1.19679,4.423.97084.76423,1.10903,1.70086.41632,2.8099,1.94133,0,3.83255-.0342,5.67161-.10399,1.83768-.06841,3.17404-.1724,4.00668-.31233-.06979-.97084-.08776-1.90747-.05217-2.8099.0342-.9007.08637-1.76927.15616-2.60156.06841-1.31737.10434-2.58394.10434-3.7987,0-1.21303-.13992-2.44575-.41632-3.69436-1.31875-.06841-2.49792-.0342-3.53854.10399Z"/><path class="cls-1" d="m51.23731,51.87691c.48473-.06841,1.00504-.10399,1.56128-.10399.55452,0,1.10903.03559,1.66493.10399,1.04063,0,2.06363-.01624,3.07005-.05217,1.00504-.03386,1.8895-.19002,2.65373-.46814-.27812-2.21979-.41632-4.23125-.41632-6.03611,0-1.80313-.13958-3.85052-.41597-6.1401-2.15139.27812-4.21502.60807-6.19227.9888-1.97726.38212-3.93828.81605-5.87995,1.30078.20833.27812.43256.57248.67648.88446.24219.31233.46849.60841.67648.88481,1.04063,1.18055,1.92543,2.4454,2.65373,3.79835.72864,1.35295.71068,2.96606-.05217,4.83932Z"/><path d="m87.60979,87.7809c-2.11718-1.17917-4.66692-1.90747-7.64922-2.18559-.90243,1.11076-2.06536,1.66528-3.48672,1.66528-1.42274,0-2.96571-.06841-4.63099-.20833-.97222-.1382-1.97691-.24219-3.01823-.31233-1.04063-.06806-2.0467-.03386-3.01754.10434.55452-1.38715.78047-3.07005.67648-5.04731-.10399-1.9776.08637-3.65877.57214-5.04765,1.38681-.34618,2.89592-.50235,4.52734-.46814,1.62935.03559,3.27804.08776,4.94332.15616,1.38681.06979,2.75773.13958,4.11068.20799,1.35295.07014,2.72179.03593,4.11068-.10399.48438-1.17882.46849-2.02943-.05251-2.54974-.52031-.52031-1.12838-.95287-1.82075-1.30078-.41666-.20833-.81675-.43256-1.19679-.67648-.38212-.24219-.67648-.53655-.88446-.88446,1.10903-.83264,1.75096-2.01146,1.92509-3.53854.17206-1.52535.34618-3.22621.52031-5.09948.17206-1.87326.81467-3.67639,1.92509-5.41146.90105,0,1.76962.05217,2.60156.15616.83264.10399,1.62935.22595,2.39358.36415,1.73368.27812,3.33055.41632,4.78784.41632,1.4566,0,2.80955-.58872,4.05816-1.76927-.90243-1.45694-2.13307-2.56598-3.69401-3.33021-1.56094-.7625-3.27873-1.31702-5.15199-1.66493-1.87257-.34653-3.67812-.65851-5.41111-.93663.20799-.55452.58872-1.43932,1.14427-2.65373.55486-1.21337,1.07517-2.27162,1.56163-3.17439-.48645-1.24861-1.16293-2.27162-2.02943-3.07005-.86857-.79671-1.7171-1.64697-2.54974-2.54939.55417-.06841,1.10903-.08637,1.66528-.05217.55417.03593,1.07448.05217,1.56094.05217,1.04063.06979,1.97691.05182,2.80955-.05217s1.45729-.60669,1.87326-1.50911c-1.4566-2.08125-3.07005-3.52023-4.83898-4.31866-1.76962-.79705-3.71267-1.21303-5.82778-1.24896-2.11718-.0342-4.423.01797-6.92092.15616-.90243.06979-1.85668.13992-2.86206.20799-1.00608.07014-2.02943.10434-3.07005.10434,1.17882-1.45729,1.66528-2.8441,1.45729-4.16285-.20799-1.31737-.74627-2.54974-1.61345-3.6947-.86788-1.14462-1.75234-2.16728-2.65339-3.07005l-.10399-.10399c1.10903-.62431,2.4796-1.09279,4.11033-1.40477,1.62935-.31233,3.31259-.62431,5.04765-.93663,1.73368-.31233,3.34645-.76285,4.83898-1.35295,1.49115-.58872,2.65408-1.47318,3.48672-2.65373-.90243-2.28958-2.20355-3.97075-3.90269-5.04731-1.70121-1.07483-3.57447-1.76927-5.61979-2.0816-2.04739-.31198-4.18047-.39835-6.40026-.26016-.06979.69444,0,1.19679.20833,1.50911.20799.31233.41632.57248.62396.78047.27639.20833.50235.45225.67648.72864.17275.27812.12023.7283-.15616,1.35295-4.0243,1.80486-8.34297,3.4-12.95634,4.78715-4.61475,1.38854-8.89783,2.77569-12.85234,4.1625.97084,1.9434,2.27162,3.15815,3.90269,3.64253,1.629.48611,3.41624.57248,5.35929.26016,1.94167-.31233,3.85052-.71068,5.72378-1.19679.27674-.06841.55452-.1382.83264-.20799.27639-.06841.55452-.1382.83264-.20833.06841.62465.15616,1.23272.26016,1.82144.10399.5901.19037,1.16258.26016,1.7171.20799.97222.36415,1.94305.46814,2.91389.10434.97222.15616,2.04705.15616,3.22621-.27812.06979-.66024.13958-1.14462.20799-2.49757.34791-5.13506.66024-7.90937.93663-2.77569.27812-5.16927.31233-7.18073.10399.02738-.19388-10.3491-.96699-11.03904-.03694-1.03373,1.39349,4.81627,5.47586,4.94122,5.72554.20799.41632,3.96441,1.92642,4.27673,2.79326.31198.86822.67648,1.75269,1.09279,2.65373.48438,1.04063.93663,2.13342,1.35261,3.27804.41632,1.14496.52066,2.44575.31233,3.90269-1.45694-.06841-2.68966,0-3.69436.20799-.92713.19188-1.69518-.00791-3.1832.13647l-3.29418,1.22402,3.29418,3.35645c.08922.04124.18743.07346.26931.12239.1724.10399.32822.22595.46814.36415,1.04063.55624,2.04566,1.00677,3.01823,1.35295.97049.34791,2.14966.48611,3.53819.41632.34618,1.73507.50235,3.41796.46814,5.04731-.03559,1.63107.19037,3.52196.67648,5.67196-.6941.48611-1.31875.71206-1.87326.67613-.5559-.03386-1.07621-.15582-1.56094-.36415-.41632-.1382-.8164-.22423-1.19679-.26016-.38212-.0342-.78047.08776-1.19679.36415,2.01146,4.16285,5.37587,6.76475,10.09462,7.80538.76285-.55452,1.61311-.88446,2.54974-.9888.93663-.10399,1.92543-.15616,2.96606-.15616.7625,0,1.56094-.01624,2.39358-.05182.83264-.0342,1.66528-.15616,2.49757-.36415v3.33021c0,1.38854.01624,2.70556.05217,3.95451.0342,1.24896.15616,2.18559.36415,2.8099-2.08125.41632-4.3888.69444-6.92057.83264-2.5335.13958-5.09948.26016-7.70104.36415-2.60191.10399-5.06527.27812-7.38906.52031-2.32517.24392-4.31866.71206-5.98394,1.40477,1.38715,1.73368,3.05209,3.26042,4.99548,4.57917,1.94133,1.31702,3.98872,2.14966,6.1401,2.49757,1.52501-1.11041,3.05209-1.76892,4.57882-1.97726,1.52535-.20799,3.12222-.41632,4.78715-.62431,3.05243-.34791,6.66042-.59045,10.82326-.72864,4.1625-.13958,8.15156-.13958,11.96788,0,2.14966.06841,4.54323.31233,7.18073.72864,2.63611.41632,4.99514.62431,7.07639.62431,1.87326,0,3.27873-.31198,4.21502-.93663.93698-.62431.9888-1.80486.15616-3.53819-2.49792-.76423-4.80512-1.73334-6.92023-2.91389Zm-20.34609-49.12083c.97084-.06841,1.80347-.10399,2.49792-.10399h6.1401c.41597,2.63749.67648,4.85694.78081,6.66042.10365,1.80486-.08845,3.78211-.57283,5.93177-1.1802.13992-2.20355.20833-3.07005.20833-.86788,0-1.82075-.0342-2.86206-.10399h-3.12188v-4.57917c-.06979-1.45694-.10365-2.8783-.10365-4.26684,0-1.38715.10365-2.63577.31163-3.74653Zm-.25981,24.82057c-.03593-1.97726.01589-4.00668.15616-6.08793l8.63733-.10434c.06841,1.38888.05251,2.68966-.05182,3.90269-.10434,1.21475-.22595,2.37734-.36415,3.48637-.06979.69444-.13958,1.37092-.20799,2.02943-.07048.66024-.14027,1.33637-.20868,2.02908-.69375.83264-1.7171,1.30113-3.07005,1.40512-1.35226.10399-2.79297.15616-4.31866.15616h-.93629c.27639-2.56598.39801-4.83932.36415-6.81658Zm-18.36814-20.2414c-.20799-.27639-.43428-.57248-.67648-.88481-.24392-.31198-.46814-.60634-.67648-.88446,1.94167-.48473,3.90269-.91867,5.87995-1.30078,1.97726-.38073,4.04089-.71068,6.19227-.9888.27639,2.28958.41597,4.33697.41597,6.1401,0,1.80486.1382,3.81632.41632,6.03611-.76423.27812-1.64869.43428-2.65373.46814-1.00642.03593-2.02943.05217-3.07005.05217-.5559-.06841-1.11041-.10399-1.66493-.10399-.55624,0-1.07656.03559-1.56128.10399.76285-1.87326.78081-3.48637.05217-4.83932-.7283-1.35295-1.61311-2.6178-2.65373-3.79835Zm11.55156,21.75052c-.06979.83229-.12196,1.70086-.15616,2.60156-.03559.90243-.01762,1.83906.05217,2.8099-.83264.13992-2.16901.24392-4.00668.31233-1.83906.06979-3.73029.10399-5.67161.10399.69271-1.10903.81467-5.46363.78047-7.2329-.03593-1.76927.12023-3.52057.46814-5.2553.27639-.06841.53655-.12058.78047-.15616.24254-.0342.50269-.08637.78081-.15616,1.04063-.1382,2.08125-.27639,3.12188-.41632,1.04063-.1382,2.21979-.1724,3.53854-.10399.27639,1.24861.41632,2.48133.41632,3.69436,0,1.21475-.03593,2.48133-.10434,3.7987Z"/></svg>