<?xml version="1.0" encoding="utf-8"?>
<!-- Generator: Adobe Illustrator 25.4.6, SVG Export Plug-In . SVG Version: 6.00 Build 0)  -->
<svg version="1.1" id="レイヤー_1" xmlns="http://www.w3.org/2000/svg" xmlns:xlink="http://www.w3.org/1999/xlink" x="0px"
	 y="0px" viewBox="0 0 1200 333" style="enable-background:new 0 0 1200 333;" xml:space="preserve">
<style type="text/css">
	.st0{fill:#C9B54F;}
	.st1{fill:#2D2D2D;}
	.st2{fill:#FFFFFF;}
</style>
<g>
	<g>
		<polygon class="st0" points="423.43,84.7 423.33,81.85 422.68,79.05 422,76.39 421.37,73.72 420.24,71.68 419.43,69.56 
			418.88,67.31 418.46,65.04 417.24,63 417.21,60.67 416.4,58.44 416.35,56.12 416.9,53.84 417.37,51.51 417.42,49.13 416.92,46.78 
			416.84,44.4 415.93,42.18 414.93,40.03 414.18,37.81 412.84,35.85 411.82,33.7 410.46,31.77 409.1,29.81 407.45,28.11 
			405.68,26.75 405.68,29.05 406.02,31.38 406.22,33.73 405.83,36.08 405.91,38.46 405.81,40.9 404.76,43.07 403.71,45.18 
			402.41,46.86 402.17,44.66 402.54,42.31 402.56,39.9 402.17,37.52 402.38,35.12 401.65,32.79 401.52,30.38 401.02,28.03 
			400.42,25.7 399.42,23.5 399.29,21.02 398.17,18.87 396.99,16.75 396.05,14.56 395.5,12.15 393.88,10.29 393.1,7.97 391.79,5.93 
			390.45,3.91 388.94,2.06 387.55,0.49 388,2.5 388.75,4.78 389.09,7.16 388.65,9.54 388.13,11.84 388.07,14.27 387.18,16.49 
			386.4,18.74 385.12,20.78 383.68,22.69 382.16,24.52 380.7,26.38 379.23,28.24 378,30.36 376.3,32.06 374.03,33.1 372.59,35.06 
			370.73,36.61 368.69,37.86 366.6,39.01 364.8,40.61 362.78,41.86 360.93,43.38 358.91,44.66 356.95,46.05 354.68,46.86 
			352.61,48.01 350.54,49.24 348.69,50.78 346.67,52.12 344.92,53.74 343.09,55.31 341.7,57.29 339.74,58.81 338.56,60.93 
			337.2,62.92 336.03,65.01 334.9,67.13 333.91,69.32 333.07,71.6 332,73.77 331.76,76.2 331.42,78.58 330.3,80.83 330.06,83.24 
			330.38,85.67 330.12,88.08 329.91,90.46 330.19,92.81 330.25,95.22 331.03,97.49 331.66,99.77 332.03,102.12 333.28,104.21 
			334.04,106.44 334.85,108.66 336.08,110.7 337.23,112.74 338.28,114.91 340.11,116.48 341.52,118.39 343.22,120.01 344.37,122.21 
			346.25,123.67 348.4,124.8 349.92,126.73 352.01,127.86 354.2,128.83 356.38,129.77 358.52,130.71 360.51,132.12 362.94,132.3 
			365.06,133.45 367.44,133.64 369.74,134.19 372.07,134.76 374.42,134.97 376.83,134.5 379.16,134.37 381.56,134.79 383.92,134.4 
			386.16,133.56 388.54,133.4 390.87,132.83 393.1,132.04 395.32,131.21 397.31,129.82 399.45,128.83 401.6,127.83 403.71,126.73 
			405.6,125.24 407.19,123.46 409.1,122.05 410.57,120.14 412.34,118.55 413.68,116.61 415.09,114.7 416.42,112.77 417.58,110.7 
			419.01,108.76 419.54,106.41 420.82,104.37 421.32,102.04 421.92,99.74 422.62,97.49 422.86,95.14 422.91,92.76 423.8,90.46 
			423.46,88.08 		"/>
	</g>
	<g>
		<polygon class="st0" points="551.43,84.7 551.07,81.93 551.12,79 550.07,76.41 549.1,73.85 548.84,71.52 548.14,69.35 
			547.17,67.26 546.33,65.14 545.65,62.94 545,60.72 544.79,58.42 544.92,56.12 544.74,53.79 545.31,51.49 545.16,49.13 545,46.81 
			545,44.4 544.21,42.15 543.3,39.95 542.23,37.86 541.26,35.72 540.21,33.57 538.28,32.06 536.76,30.25 535.35,28.39 533.65,26.46 
			534.3,29 534.51,31.35 534.48,33.73 534.33,36.11 534.27,38.49 533.73,40.82 532.84,43.04 531.63,45.03 530.35,47.38 
			530.67,44.69 530.56,42.31 531.06,39.9 530.46,37.52 530.67,35.09 529.99,32.76 529.41,30.43 528.83,28.11 528.91,25.62 
			527.97,23.37 527.42,21.04 526.59,18.77 525.67,16.55 524.39,14.48 523.13,12.41 522.32,10.14 521.22,7.99 520.13,5.82 
			518.32,4.15 517.09,2.06 515.5,0.07 516.2,2.5 516.7,4.8 517.2,7.16 516.88,9.54 516.83,11.94 516.18,14.24 515.13,16.39 
			514.63,18.79 513.53,20.91 512.04,22.82 510.32,24.5 509.32,26.75 507.47,28.29 505.87,30.07 504.3,31.87 502.65,33.6 
			500.82,35.17 498.97,36.66 496.74,37.68 494.97,39.27 493.19,40.92 491.15,42.18 489.03,43.28 486.96,44.48 485.13,46.07 
			483.04,47.2 480.87,48.14 478.57,49 476.95,50.89 474.83,52.09 472.87,53.5 471.58,55.62 469.44,56.9 468.47,59.23 466.85,61.01 
			465.65,63.07 464.29,65.06 463.42,67.31 462.3,69.43 460.99,71.5 460.15,73.77 459.89,76.2 459.42,78.56 459,80.91 458.14,83.24 
			458.56,85.67 457.96,88.08 458.14,90.46 458.27,92.81 458.51,95.19 459.29,97.47 460.02,99.72 460.55,102.02 461.17,104.32 
			462.25,106.41 462.85,108.76 464.44,110.6 465.07,112.95 466.46,114.88 468.13,116.61 469.86,118.26 470.98,120.4 473.02,121.71 
			474.49,123.59 476.5,124.88 478.36,126.34 480.08,128.04 482.23,129.11 484.53,129.77 486.54,131.05 488.85,131.65 491.04,132.57 
			493.19,133.61 495.65,133.48 497.97,133.9 500.27,134.45 502.63,134.58 504.98,134.76 507.34,134.53 509.69,134.37 512.04,134.11 
			514.35,133.59 516.78,133.59 518.92,132.49 521.35,132.23 523.5,131.23 525.64,130.19 527.71,129.01 529.67,127.67 531.69,126.42 
			533.75,125.24 535.19,123.25 537.44,122.21 538.83,120.22 540.55,118.57 541.7,116.48 543.32,114.75 544.84,112.92 545.55,110.57 
			546.96,108.66 548.21,106.62 548.55,104.21 549.81,102.15 550.2,99.79 550.7,97.47 551.12,95.14 551.64,92.81 551.96,90.46 
			551.48,88.08 		"/>
	</g>
	<g>
		<polygon class="st0" points="679.69,84.7 679.33,81.9 678.85,79.11 678.44,76.39 677.7,73.72 676.84,71.6 676.13,69.43 
			675.01,67.39 674.57,65.11 674.28,62.84 673.26,60.72 673.28,58.39 672.94,56.12 673.23,53.84 673.28,51.49 673.41,49.13 
			673.23,46.81 673.15,44.4 672.29,42.18 671.71,39.88 670.75,37.7 669.49,35.66 668.24,33.68 666.72,31.85 665.49,29.78 
			663.45,28.45 661.75,26.35 662.3,29.02 662.56,31.38 662.17,33.73 662.4,36.11 662.43,38.49 661.7,40.76 661.36,43.17 
			659.84,45.05 658.56,47.28 658.61,44.69 658.93,42.31 658.61,39.93 658.48,37.55 658.3,35.17 658.22,32.76 657.51,30.46 
			657.59,27.98 656.75,25.73 655.76,23.5 655.26,21.15 654.53,18.87 653.41,16.73 652.73,14.4 651.29,12.44 650.4,10.19 
			649.27,8.07 647.68,6.24 646.48,4.15 645.35,2 643.65,0.07 644.25,2.53 644.93,4.8 645.35,7.16 645.4,9.56 644.54,11.86 
			644.1,14.17 643.42,16.44 642.61,18.69 641.56,20.84 640.38,22.93 639.05,24.92 637.35,26.62 635.8,28.45 634.31,30.33 
			632.38,31.74 630.44,33.15 628.95,35.09 627.12,36.63 624.9,37.68 623.38,39.61 621.11,40.56 619.09,41.81 617.21,43.28 
			615.12,44.43 613.23,45.92 610.96,46.73 609.05,48.17 606.9,49.26 604.73,50.36 602.8,51.83 601.1,53.55 599.29,55.18 
			597.59,56.9 596.57,59.15 594.66,60.75 593.93,63.15 592.73,65.22 591.45,67.23 590.35,69.38 589.09,71.47 588.81,73.9 
			588.15,76.23 587.66,78.56 586.92,80.86 586.98,83.29 586.87,85.7 586.74,88.08 586.84,90.43 586.48,92.81 587.32,95.09 
			587.03,97.54 587.63,99.87 588.83,101.99 589.2,104.37 590.3,106.46 591.06,108.74 592.31,110.75 593.23,112.98 594.74,114.83 
			596.29,116.61 597.52,118.68 599.08,120.48 600.94,121.97 602.62,123.67 604.63,124.93 606.43,126.5 608.37,127.88 610.44,129.03 
			612.66,129.87 614.65,131.21 616.92,131.96 619.12,132.88 621.42,133.45 623.77,133.77 626.13,134 628.46,134.47 630.81,134.79 
			633.16,134.81 635.52,134.53 637.84,134.16 640.3,134.58 642.61,134.03 644.91,133.43 647.18,132.7 649.3,131.62 651.65,131.13 
			653.85,130.24 655.76,128.75 657.91,127.78 659.79,126.29 661.7,124.93 663.82,123.78 665.15,121.71 666.85,120.09 668.37,118.28 
			670.17,116.72 671.37,114.65 672.68,112.69 673.89,110.67 674.83,108.5 675.98,106.44 677.15,104.37 677.91,102.12 678.25,99.74 
			678.88,97.47 679.14,95.11 679.9,92.84 680.08,90.46 679.98,88.08 		"/>
	</g>
	<g>
		<polygon class="st0" points="808.08,84.7 807.4,81.93 806.83,79.13 806.85,76.31 805.44,73.85 804.92,71.63 804.08,69.51 
			803.79,67.18 803.06,65.01 802.46,62.84 801.73,60.67 801.31,58.42 801.12,56.12 801.39,53.84 801.83,51.49 801.78,49.13 
			801.73,46.75 800.76,44.53 800.65,42.12 799.61,39.98 798.35,37.97 797.65,35.69 796.5,33.6 794.98,31.77 793.49,29.94 
			791.92,28.16 789.98,26.43 790.58,29 791.03,31.35 790.85,33.73 790.72,36.11 790.53,38.49 789.72,40.74 789.15,43.01 
			788.36,45.26 786.9,46.96 787.29,44.71 786.95,42.31 786.98,39.9 787.05,37.5 787.13,35.09 786.22,32.79 785.93,30.41 785.62,28 
			784.62,25.8 784.15,23.45 783.58,21.1 782.58,18.9 781.61,16.73 780.65,14.53 779.97,12.18 778.42,10.27 777.17,8.25 776.44,5.87 
			774.89,3.99 773.56,1.98 771.83,0.04 772.67,2.47 772.8,4.85 773.06,7.18 773.24,9.54 773.14,11.94 772.22,14.17 771.65,16.47 
			770.45,18.51 769.43,20.65 768.09,22.61 766.97,24.73 765.71,26.77 763.88,28.34 762.52,30.36 760.32,31.53 758.62,33.18 
			756.77,34.64 755.38,36.74 753.34,38.02 751.22,39.14 749.31,40.58 747.4,41.99 745.42,43.35 743.19,44.24 741.15,45.47 
			739.17,46.78 737.31,48.35 735.27,49.58 733.2,50.76 731.03,51.91 729.41,53.71 727.45,55.15 725.93,57.03 724.55,59.02 
			722.87,60.77 721.64,62.86 720.28,64.85 719.45,67.15 718.29,69.27 717.9,71.7 716.99,73.93 716.33,76.23 715.71,78.53 
			715.47,80.94 715.26,83.32 715,85.7 714.29,88.08 714.87,90.43 714.69,92.81 715.13,95.16 715.26,97.54 715.97,99.82 
			716.52,102.15 717.88,104.19 718.53,106.44 719.21,108.74 720.49,110.75 721.88,112.66 723.03,114.73 724.55,116.56 
			725.88,118.52 727.4,120.35 729.2,121.89 730.77,123.7 732.76,125.01 734.61,126.47 736.73,127.54 738.72,128.85 740.94,129.66 
			743.01,130.84 745.02,132.15 747.33,132.8 749.55,133.61 751.88,134.16 754.23,134.42 756.64,134.29 758.99,134.47 761.34,134.42 
			763.72,135.1 766.08,134.71 768.38,134.03 770.71,133.56 773.11,133.51 775.31,132.57 777.69,132.23 779.78,131.05 782.08,130.32 
			783.86,128.64 786.16,127.88 787.94,126.26 789.9,124.95 791.58,123.28 793.3,121.68 795.03,120.09 797.04,118.7 798.38,116.74 
			799.53,114.65 801.12,112.87 802.43,110.86 803.37,108.69 803.95,106.36 804.97,104.24 805.57,101.94 806.54,99.77 807.17,97.49 
			807.56,95.16 808.03,92.81 808.19,90.46 808.08,88.08 		"/>
	</g>
	<g>
		<polygon class="st0" points="935.74,84.7 935.79,81.9 935.4,79.05 934.77,76.39 933.83,73.8 933.12,71.63 932.5,69.43 
			932.03,67.15 931.08,65.06 930.67,62.81 930.19,60.62 929.59,58.39 929.17,56.12 929.99,53.89 929.7,51.49 930.06,49.13 
			929.33,46.83 929.36,44.45 928.94,42.1 927.89,39.93 927,37.73 925.67,35.77 924.26,33.89 923.08,31.85 921.49,30.07 920.26,28 
			918.16,26.43 918.53,29.02 918.79,31.38 918.79,33.73 918.58,36.08 918.71,38.49 918.43,40.87 917.46,43.07 916.78,45.42 
			914.87,47.38 915.08,44.69 915.21,42.31 915.55,39.9 915.29,37.5 914.97,35.12 914.87,32.71 914.29,30.36 913.48,28.08 
			913.4,25.62 912.46,23.4 911.91,21.04 910.55,18.98 910.11,16.57 908.67,14.58 907.78,12.36 906.84,10.14 905.53,8.12 
			904.51,5.93 903.1,3.99 901.43,2.21 900.07,0.17 900.82,2.47 901.43,4.78 901.53,7.18 901.79,9.56 901.4,11.94 900.33,14.14 
			899.73,16.41 898.97,18.69 897.97,20.86 896.59,22.82 895.12,24.71 893.74,26.67 891.98,28.29 890.41,30.09 888.69,31.72 
			887.07,33.49 885.29,35.06 883.27,36.37 881.63,38.18 879.4,39.14 877.68,40.84 875.66,42.15 873.44,43.07 871.64,44.71 
			869.31,45.45 867.43,46.94 865.18,47.77 863.37,49.42 861.38,50.78 859.5,52.25 857.51,53.63 855.6,55.12 854.14,57.06 
			852.96,59.18 851.05,60.77 850.09,63.02 848.49,64.88 847.34,67 846.32,69.22 845.56,71.52 845.04,73.88 844.62,76.26 
			843.78,78.5 843.7,80.94 843.05,83.26 842.76,85.67 842.92,88.08 842.76,90.46 843.36,92.76 842.97,95.22 843.49,97.54 
			844.17,99.82 845.22,101.96 845.35,104.42 846.35,106.59 847.76,108.56 848.86,110.65 849.67,112.92 850.87,114.96 852.83,116.48 
			854.11,118.49 855.79,120.14 857.46,121.82 858.98,123.65 861.1,124.8 862.95,126.26 864.94,127.52 866.9,128.85 868.97,129.95 
			871.24,130.68 873.23,132.04 875.61,132.38 877.76,133.48 880.16,133.53 882.44,134.32 884.82,134.27 887.15,134.81 
			889.53,134.87 891.91,134.95 894.23,134.47 896.67,134.63 898.99,134.21 901.29,133.56 903.44,132.43 905.79,131.96 
			907.99,131.13 909.95,129.69 912.23,128.96 914.32,127.86 916.23,126.45 918.14,125.03 919.89,123.44 921.62,121.84 923.42,120.3 
			924.86,118.42 926.53,116.72 928.02,114.86 928.86,112.58 930.53,110.83 931.48,108.66 932.1,106.36 933.54,104.37 934.17,102.07 
			934.82,99.79 935.29,97.49 935.58,95.14 935.71,92.78 935.84,90.43 936.05,88.08 		"/>
	</g>
	<g>
		<g>
			<g>
				<path class="st1" d="M572.8,241.68l-1.96,0.55l-1.86-0.18l-2.35-0.68l-2.35,0.47l-2.35-0.03l-2.35-0.18l-2.35,0.18l-2.35,0.31
					l-2.35-0.37l-2.35-0.63l-2.35,0.58l-2.35-0.55l-2.35,0.18l-2.35,0.52l-2.35-0.6l-2.35,0.84l-2.35-0.37l-2.35,0.24l-2.35-0.16
					l-2.35-0.13l-2.35,0.34l-2.35-0.42l-2.35,0.39l-2.35-0.65l-2.35,0.31l-2.35-0.37l-2.35,0.44l-2.35-0.05l-2.35-0.47l-2.38,0.58
					l-2.35-0.47l-2.35-0.03l-2.35,0.21l-2.38,0.68l-2.35-0.44l-2.35,0.31l-2.35-0.16l-2.38-0.76l-2.35,0.5l-2.35-0.37l-2.35-0.16
					l-2.38,0.29l-2.35-0.1l-2.35,0.08l-2.38,0.24l-2.38,0.03l-2.38,0.05l-2.35-0.58l-2.38,0.73l-2.38,0.08l-2.38-0.21l-2.38,0.34
					l-2.25-1.31v-2.48l1.23-1.91l1.91-1.31l2.3,0.05l2.33,0.16l2.33-0.5l2.33,0.65h2.33l2.33-0.08l2.33-0.65l2.33-0.18l2.33,0.99
					l2.33-0.73l2.33,0.44l2.33-0.37l2.33,0.03l2.33,0.29l2.33,0.34l2.33-0.31l2.33-0.6l2.35,0.16l2.33-0.24l2.33,0.99l2.33-0.5
					l2.33-0.52l2.33,1.07l2.33-0.29l2.33-0.63l2.33-0.03l2.35,0.5l2.35-0.03l2.35,0.05l2.33,0.05l2.33,0.08h2.33l2.33-0.13
					l2.35-0.03l2.35,0.44l2.35-0.24l2.35-0.24l2.35-0.24l2.35,0.18l2.35,0.1l2.35,0.44l2.35-0.94l2.35,0.86l2.33-0.86h2.33
					l2.33-0.05l2.35,0.97l2.35-0.71l2.35,0.47l2.35,0.16l2.35-0.76l2.35,0.76l2.35-0.68l2.35,0.03l2.35,0.6l2.35-0.65l2.35,0.21
					l2.14-1.39l1.15-2.22l-0.37-2.07l0.08-2.09l-0.42-1.91l-1.7-0.94l-1.7-0.81l-2.33,0.13l-2.33,0.26l-2.33-0.26l-2.33-0.03
					l-2.33,0.16l-2.33-0.5l-2.33,0.03l-2.33-0.37l-2.33,0.37l-2.35,0.03l-2.35-0.26l-2.35,0.73l-2.35-0.03l-2.35-0.03l-2.35-0.78
					l-2.35,0.21l-2.35,0.18l-2.35-0.24l-2.35-0.13l-2.35,0.26l-2.35-0.13l-2.35,0.55l-2.35-0.31l-2.35-0.13l-2.35,0.29l-2.35-0.52
					l-2.35,0.03l-2.35,0.89l-2.35-0.52l-2.35-0.29l-2.35-0.03l-2.35,0.47l-2.35-0.08l-2.35,0.52l-2.35-0.84l-2.35,0.16l-2.35,0.16
					l-2.35-0.55l-2.35,0.29l-2.35-0.21l-2.35,0.31l-2.35-0.18l-2.35-0.18l-2.35,1.05l-2.35-0.71l-2.35,0.24l-2.35,0.1l-2.35,0.24
					l-2.35-0.1l-2.35,0.05l-2.38-0.21l-2.38,0.29l-2.38-0.24l-2.17-0.71l0.08-1.94l-0.76-2.12l-2.04-0.52l-2.41-0.63l-2.41,0.03
					l-2.41,0.78l-2.41-0.24l-2.41-0.1l-2.41,0.13l-2.41-0.52l-2.41,0.39l-2.41-0.5l-2.43,0.78l-2.43,0.1l-2.43-0.08l-3.01,0.05
					l-2.33,2.12l-1.7,2.25l-2.9,0.52l-2.3-0.18l-2.3,0.47l-2.3-0.63l-2.3-0.03l-2.3,0.31l-2.3-0.18l-2.3-0.08l-2.3,0.89l-2.33-0.13
					l-2.3-0.24l-2.3-0.37l-2.33,0.26l-2.33,0.05l-2.33,0.13l-2.3-0.76l-2.33,0.94l-2.33,0.16l-2.33-0.76l-2.33-0.34l-2.51,1.65
					l-0.63,2.56v2.09l0.24,2.07l0.18,1.99l1.62,1.23l1.91,0.34l2.35-0.03l2.35,0.47l2.33-0.42l2.33-0.03l2.35,0.16l2.35,0.24
					l2.35-0.5l2.35,0.05l2.35,0.18l2.35,0.05l2.35,0.47l2.35-0.21l2.35-0.37l2.35-0.24l2.38,0.63l2.38-0.63l2.09,1.33l0.42,2.51
					l-1.57,1.83l-1.07,2.07l-0.39,2.38l-1.52,1.86l-0.55,2.33l-1.02,2.09l-1.6,1.8l-0.86,2.17l-0.42,2.38l-1.41,1.91l-0.92,2.14
					l-0.92,2.14l-1.1,2.07l-0.99,2.09l-0.94,2.12l-1.44,1.88l-0.47,2.35l-1.41,1.88l-1.15,2.01l-0.76,2.22l-1.05,2.07l-0.86,2.14
					l-1.28,1.96l-1.12,2.04l-0.6,2.3l-0.78,2.2l-1.6,1.83l-1.18,2.01l-0.29,2.46l-1.8,1.73l-0.78,2.22l-0.84,2.2l-1.39,1.94
					l-0.1,2.56l-0.81,2.33l2.46,0.71l2.41-0.21l2.41,0.58l2.41-0.37l2.41-0.42l2.41,0.39l2.41-0.03l2.41,0.63l2.41-0.94l2.41,0.86
					l2.43-0.08l2.43-0.18l2.43,0.29l1.94-1.36l2.25-0.5l1.15-1.96l1.28-2.01l0.5-2.38l0.92-2.17l1.52-1.88l1.33-1.99l0.13-2.56
					l1.67-1.83l1.1-2.12l0.21-2.54l1.39-1.96l0.81-2.22l1.7-1.83l0.68-2.33l1.07-2.12l0.76-2.3l1.57,0.47l-0.1,2.43l-0.44,2.38
					l-0.78,2.35l-0.5,2.38l0.05,2.46l-0.26,2.43v2.46l-0.52,2.38l-0.16,2.43l-0.94,2.33l0.21,2.48l-0.1,2.46l-1.1,2.33l0.84,2.85
					l2.72,1.15l2.41,0.16l2.41-0.16l2.41-0.24l2.41-0.42l2.41,0.5l2.41,0.34l2.41-0.08l2.41-0.39l2.41,0.47l2.43-0.65l2.43,0.05
					l2.43,0.65l1.86-0.81l2.2,0.29l1.52-0.44l1.86,0.31l2.35-0.31h2.35l2.33-0.05l2.33,0.58l2.35-0.24l2.35,0.5l2.35-0.26l2.35,0.16
					l2.35,0.13l2.33-0.71l2.35,0.26l2.35,0.24l2.35,0.16l2.35,0.21l2.35-0.92l2.35,0.92l2.35-0.21l2.38-0.78l2.38,0.08l2.38,0.18
					l2.35-0.03l2.35,0.47l2.35,0.16l2.35-0.5l2.35,0.08l2.35-0.05l2.35-0.31l2.35-0.05l2.35-0.08l2.33,0.94l2.41-0.05l2.35-0.5
					l2.38-0.26l2.3-0.73l2.3-0.6l2.35-0.42l2.07-1.33l2.28-0.68l2.38-0.47l1.88-1.6l2.07-1.18l2.43-0.55l1.86-1.52l2.01-1.28
					l2.01-1.33l1.52-1.88l1.73-1.67l0.94-2.22l1.28-1.99l0.47-2.3l0.81-2.22l-0.5-2.38l0.26-2.28l0.99-2.2l0.26-2.28l0.13-2.3
					l-0.1-2.33l0.97-2.17l0.13-2.3l-0.44-2.41l0.37-2.3l0.63-2.25l0.58-2.25l0.05-2.33l0.1-2.33l0.6-2.25l0.24-2.3l0.99-2.2
					l-0.68-2.43l0.86-2.17l-0.94-2.41l-2.25-1.26l-2.72-0.16l-1.86-0.29L572.8,241.68z M512.23,301.47l-2.3,0.65l-2.33-0.18
					l-2.33-0.68l-2.33,0.47l-2.33-0.03l-2.33-0.18l-2.33,0.18l-2.33,0.31l-2.33-0.37l-2.33-0.63l-2.35,0.58l-2.33-0.55l-2.33,0.18
					l-2.33,0.52l-2.33-0.6l-2.33,0.84l-2.33-0.37l-2.33,0.24l-2.3-0.16l-2.48-1.23l-1.1-2.64l0.71-2.22l-0.1-2.33l0.94-2.17v-2.33
					l0.65-2.22l-0.16-2.33l0.34-2.25l0.78-2.22l-0.29-2.35l0.76-2.22l0.31-2.28l0.1-2.3l-0.37-2.35l0.73-2.22v-2.33l0.44-2.28
					l1.05-2.2l-0.18-2.35l1.05-1.65l1.46-1.07l1.7-0.73l2.38,0.1l2.38-0.08l2.38-0.24l2.38-0.03l2.38-0.05l2.38,0.58l2.38-0.73
					l2.38-0.08l2.38,0.21l2.38-0.34l2.38,0.29l2.38-0.03l2.38-0.21l2.38-0.1l2.38,0.55l2.38,0.16l2.38-0.5l2.38,0.65h2.38l2.38-0.08
					l2.38-0.65l2.38-0.18l2.38,0.99l2.38-0.73l2.41,0.44l2.41-0.37l2.41,0.03l2.41,0.29l2.09,1.23l0.94,2.25l0.29,2.38l-0.47,2.28
					l-0.08,2.33l-1.28,2.17l0.18,2.38l0.21,2.38l-1.36,2.17l-0.03,2.35l0.31,2.41l-0.29,2.33l-0.81,2.25l-0.26,2.33l-0.34,2.3
					l-0.55,2.17l-1.05,1.99l-1.33,1.8l-1.54,1.65l-1.8,1.39l-2.17,0.78l-1.91,1.2l-2.04,1.05l-2.09,0.94l-2.28,0.39l-2.25,0.37
					l-2.33-0.08l-2.17,1.2l-2.35-0.71L512.23,301.47z"/>
			</g>
			<g>
				<polygon class="st1" points="536.39,203.34 537.62,201.35 539.74,200.3 542.07,199.73 544.42,199.81 546.8,200.57 549.18,199.7 
					551.54,199.91 553.92,200.43 556.3,199.86 558.68,200.54 561.03,199.73 563.41,200.2 565.76,200.23 568.14,199.6 570.52,200.64 
					572.88,200.41 575.26,200.02 577.64,200.46 580.02,200.02 582.4,200.17 584.78,200.64 587.16,200.3 589.54,199.62 
					591.94,200.67 594.32,199.99 596.55,198.79 597.65,196.46 597.93,194.37 597.88,192.27 596.68,190.55 595.16,189.53 
					593.49,188.35 591.13,188.38 588.78,188.25 586.45,188.51 584.1,188.25 581.74,188.98 579.42,188.72 577.06,188.3 
					574.71,188.27 572.38,189.08 570.03,188.53 567.67,188.59 565.32,189.08 562.97,188.51 560.61,189.03 558.26,188.69 
					555.9,188.59 553.52,188.98 551.17,188.85 548.82,187.96 549.86,185.76 551.48,184.19 552.56,182.21 554.18,180.64 
					554.88,178.33 556.95,177.13 558.42,175.43 559.46,173.39 560.53,171.38 562.42,169.99 563.44,167.93 564.06,166.07 
					562.23,164.71 559.83,164.94 557.42,165.28 555.02,165.47 552.58,165.44 550.18,165.47 547.77,164.71 545.36,164.79 
					542.96,165.34 540.53,165.7 538.12,165.28 535.69,164.92 533.25,165.41 531.08,165.23 529.67,166.91 529.36,168.87 
					528.91,171.14 528.76,173.47 528.6,175.8 528.08,178.05 527.71,180.35 527.63,182.7 526.93,184.95 525.59,186.49 524.39,187.93 
					522.53,188.04 520.18,189.03 517.82,188.12 515.47,188.59 513.12,188.43 510.76,188.98 508.41,188.06 506.05,189.11 
					503.7,188.82 501.37,189.11 499.02,188.09 496.67,188.53 494.34,188.56 491.98,189.03 489.66,188.69 487.3,188.51 
					484.95,188.22 482.62,188.67 480.27,189.08 477.91,188.93 475.53,188.43 473.18,188.64 470.83,188.69 468.47,188.33 
					466.12,188.59 463.76,188.22 461.41,189.03 459.06,188.93 456.7,188.51 454.35,188.9 451.99,188.46 449.64,188.43 
					447.26,188.87 444.91,188.8 442.55,189.11 440.2,188.87 437.84,189.03 435.46,189.03 433.11,188.27 430.76,188.3 428.4,188.25 
					426.02,188.48 423.67,188.33 421.29,188.74 418.94,188.93 416.58,188.19 414.2,188.12 411.85,188.19 409.49,188.61 
					407.14,188.38 404.76,188.25 402.41,188.53 400.05,188.64 397.67,188.09 395.32,188.35 392.94,188.59 390.58,188.43 
					388.2,188.43 385.82,188.82 383.44,188.06 381.06,188.43 378.34,189.53 377.64,192.3 377.35,194.42 378.29,196.43 
					378.19,198.55 380.23,199.26 381.9,200.02 384.26,199.81 386.61,200.3 388.96,199.81 391.32,200.54 393.67,200.46 
					396.02,200.57 398.35,200.12 400.71,200.64 403.03,199.81 405.39,199.99 407.72,199.83 410.07,200.23 412.4,199.81 
					414.75,200.67 417.1,199.91 419.43,200.28 421.79,200.46 424.14,200.43 426.49,199.86 428.87,200.07 431.23,199.81 
					433.58,199.65 435.91,199.73 438.26,200.28 440.62,200.7 442.97,200.28 445.33,200.28 447.68,199.91 450.03,200.23 
					452.39,199.7 454.77,199.96 457.12,200.02 459.47,200.3 461.83,200.12 464.18,200.7 466.54,199.75 468.89,200.62 471.27,199.99 
					473.62,199.62 475.98,199.7 478.33,199.65 480.71,199.65 483.07,200.28 485.42,199.83 487.8,199.99 490.15,200.62 
					492.51,200.33 494.86,199.83 497.21,200.49 499.57,200.46 501.95,200.15 504.3,200.02 506.68,200.7 509.04,200.2 511.39,200.59 
					513.77,200.38 516.15,199.65 518.53,199.75 520.91,200.2 523.05,201.51 524.15,203.83 523.29,206.06 522.92,208.36 
					523.16,210.74 522.27,212.99 522.11,215.32 522.14,217.7 522.43,219.5 523.68,218.25 525.43,216.52 526.69,214.4 528.23,212.52 
					529.65,210.53 531.76,209.09 533.36,207.21 534.46,204.93 				"/>
			</g>
			<g>
				<polygon class="st0" points="452.73,173.34 454.32,174.73 455.26,176.69 454.98,178.78 455.42,181.16 455.21,183.46 
					454.06,185.66 454.37,188.04 453.67,190.29 454.01,192.67 453.3,194.92 453.54,197.3 452.96,199.55 452.05,201.77 
					451.97,204.12 451.68,206.45 451.16,208.73 450.92,210.69 449.46,212.23 447.39,212.83 444.99,212.88 442.58,212.02 
					440.17,212.54 437.77,212.88 435.33,212.33 432.93,212.33 430.52,212.86 428.12,212.57 425.68,212.1 423.28,212.28 
					420.84,212.75 418.41,213.01 415.61,211.65 415.59,208.83 415.8,206.48 415.88,204.07 416.35,201.74 416.48,199.36 
					416.24,196.93 417.42,194.68 417.29,192.27 417.58,189.92 418.2,187.59 418.62,185.27 418.6,182.86 419.2,180.53 419.56,178.18 
					418.91,175.69 420.19,173.47 420.48,171.09 419.93,168.63 420.3,166.28 421.03,163.95 421.42,161.6 420.98,159.11 
					421.71,156.78 423.2,155.06 425.53,154.95 427.3,156.5 429.21,157.86 431.23,159.01 433.01,160.58 434.94,161.91 436.93,163.14 
					439.15,164.05 441.32,165 443.15,166.49 444.88,168.11 446.92,169.29 448.86,170.62 450.79,171.98 				"/>
			</g>
		</g>
	</g>
	<g>
		<g>
			<g>
				<polygon class="st1" points="688.69,217.3 691.02,218.69 691.57,221.1 692.04,223.53 691.62,225.83 690.55,228.03 
					691.17,230.46 689.84,232.66 689.71,234.98 689.47,237.31 689.71,239.69 689.6,242.05 689.26,244.37 688.19,246.6 688.58,249 
					687.62,251.23 687.64,253.61 687.07,255.88 686.49,258.18 686.41,260.54 686.83,262.94 686.44,265.24 685.89,267.55 
					685.21,269.82 684.95,272.15 685.13,274.56 685.08,276.91 684.29,279.16 683.82,281.46 683.88,283.81 683.85,286.19 
					682.73,288.42 682.93,290.8 682.18,293.07 681.57,295.37 681.68,297.75 681.86,300.13 681.31,302.44 681.05,304.79 
					680.19,307.06 680.06,309.42 679.77,311.48 678.04,312.66 676.08,312.98 673.78,313 671.48,313.45 669.2,312.87 666.9,313.18 
					664.6,312.74 662.3,313.37 660,312.87 657.7,313.5 655.37,312.69 653.07,312.98 650.77,312.77 648.46,312.98 646.16,313.45 
					643.83,312.79 641.51,313.37 639.34,311.8 638.76,309.52 639,307.2 638.71,304.79 639.1,302.49 639.41,300.19 639.54,297.86 
					639.62,295.5 640.17,293.2 640.49,290.9 641.56,288.68 641.66,286.32 641.53,283.94 642.45,281.7 642.32,279.34 642.79,277.04 
					642.79,274.66 643.44,272.38 643.76,270.06 643.6,267.68 644.62,265.45 644.46,263.07 645.25,260.8 645.22,258.44 
					645.35,256.09 645.9,253.79 646.4,251.51 645.72,249.06 646.84,246.86 647.08,244.5 647.44,242.18 647.16,239.8 647.36,237.44 
					648.25,235.19 648.8,232.89 648.65,230.51 648.99,228.18 649.64,225.88 649.88,223.53 649.48,221.1 650.87,219.42 
					652.44,218.43 654.11,217.67 656.41,217.96 658.72,217.07 661.02,217.23 663.29,217.7 665.59,217.38 667.9,217.51 670.2,217.36 
					672.53,217.25 674.83,217.59 677.13,217.67 679.43,217.62 681.73,217.98 684.03,217.2 686.36,216.96 				"/>
			</g>
			<g>
				<polygon class="st1" points="822.57,264.43 820.77,265.69 819.38,267.52 819.25,269.77 817.99,272.04 818.18,274.5 
					818.2,276.96 817.03,279.24 817.34,281.72 816.66,284.08 815.95,286.4 815.85,288.84 815.4,291.24 815.2,293.65 815.22,296.13 
					814.44,297.96 812.71,298.8 811.04,299.98 808.71,300.19 806.38,299.45 804.08,300.19 801.75,300 799.45,299.72 797.12,300.26 
					794.8,300.26 792.47,300.26 790.17,299.64 787.84,299.9 785.51,299.92 783.18,299.43 780.86,299.92 778.55,299.85 
					776.23,299.72 773.9,299.51 771.6,299.74 769.27,300.11 766.94,300.08 764.61,299.82 762.29,299.98 759.96,299.87 
					757.63,300.06 755.3,300.16 752.98,300.08 750.65,299.53 748.32,299.32 745.97,300.11 743.64,299.82 741.49,298.41 
					740.21,296.11 741.05,293.86 741.55,291.56 741.34,289.15 741.6,286.82 741.41,284.44 742.23,282.17 742.77,279.89 
					743.04,277.56 742.88,275.18 743.46,272.91 743.93,270.61 743.95,268.25 744.11,265.9 745.02,263.65 744.34,261.19 
					745.23,258.94 745.81,256.67 745.81,254.29 746.25,251.98 746.78,249.68 746.83,247.33 746.99,244.98 747.2,242.62 
					747.2,240.27 747.51,237.94 748.29,235.66 748.42,233.31 748.69,230.98 748.58,228.58 749.31,226.33 749.42,223.97 
					749.68,221.65 750.1,219.32 750.88,217.04 750.67,214.66 751.3,212.36 751.56,210.01 751.98,207.71 752.37,205.38 
					752.69,203.05 753.24,200.72 752.84,198.29 753.5,195.96 753.05,193.82 751.9,192.04 750.57,190.44 748.74,188.9 746.8,187.54 
					744.79,186.34 742.77,185.08 740.55,184.22 738.43,183.15 736.37,182 734.46,180.58 732.5,179.22 730.38,178.15 728.15,177.26 
					726.59,175.3 724.1,174.8 722.37,173.08 720.02,172.37 718.24,170.67 715.76,170.17 714.5,172.42 714.71,174.83 714.11,177.11 
					713.14,179.33 712.91,181.66 712.75,184.01 713.19,186.42 712.54,188.67 712.41,190.99 712.36,193.35 711.21,195.54 711,197.87 
					710.53,200.15 710.76,202.53 710.06,204.78 709.61,207.08 709.64,209.43 709.74,211.79 709.64,214.14 708.83,216.41 
					708.93,218.77 708.75,221.12 707.78,223.35 707.15,225.62 706.97,227.95 707.28,230.36 706.42,232.6 706.5,234.96 
					706.19,237.29 705.98,239.61 705.71,241.94 704.96,244.22 704.85,246.57 704.75,248.9 704.01,251.17 704.33,253.58 
					703.39,255.83 703.75,258.24 703.07,260.51 703.05,262.86 702.34,265.14 702.5,267.52 701.63,269.8 702.11,272.23 
					701.66,274.53 701.16,276.83 700.8,279.13 699.93,281.38 699.54,283.71 699.23,286.04 699.57,288.44 698.57,290.69 
					698.99,293.1 698,295.35 697.87,297.7 698,300.08 697.87,302.44 696.9,304.71 697.42,307.17 696.3,309.39 697.35,312.11 
					699.88,313.11 702.26,313.6 704.62,313.21 707,313.05 709.35,312.66 711.73,313.32 714.11,313.66 716.49,312.64 718.84,312.9 
					721.22,313.55 723.6,313.39 725.96,312.82 728.34,312.58 730.69,313.37 733.07,312.69 735.45,312.71 737.83,313.08 
					740.21,313.6 742.57,312.64 744.95,312.98 747.33,313.58 749.71,312.77 752.09,313.52 754.47,313.39 756.85,313.03 
					759.23,312.9 761.58,312.71 763.96,313.47 766.34,313.5 768.72,313.16 771.1,312.84 773.48,313.08 775.89,312.84 778.24,313.55 
					780.62,313.47 783,313.52 785.38,312.64 787.76,312.58 790.14,312.71 792.52,313.16 794.93,312.9 797.31,313.42 799.69,313.18 
					802.07,313.6 804.47,313.63 806.88,313.18 809.26,312.87 811.14,313.32 812.5,313.03 814.83,313.47 816.69,312.61 
					818.99,313.18 821.29,313.6 823.56,313.45 825.87,313.32 828.17,313.58 830.47,312.66 832.77,313.58 835.07,312.87 
					837.37,313.6 839.68,312.64 841.98,313.39 844.3,312.82 846.61,312.69 848.93,313.5 851.24,312.77 852.91,312.14 854.74,311.35 
					854.92,309.39 855.79,307.14 856.55,304.87 856.41,302.49 856.65,300.16 856.62,297.81 857.17,295.53 857.75,293.23 
					857.59,290.85 858.61,288.63 858.38,286.22 858.48,283.87 858.61,281.54 859.68,279.32 859.63,276.94 859.87,274.61 
					860.39,272.31 860.63,269.98 860.97,267.68 860.83,265.3 861.04,262.94 862.22,260.75 861.78,258.31 862.06,255.99 
					862.51,253.66 862.95,251.36 863.84,249.11 863.58,246.7 864.26,244.4 864.16,241.99 863.95,239.67 861.59,240.19 
					859.68,241.47 858.01,243.12 855.87,243.98 853.96,245.24 851.81,246.1 849.85,247.28 848.12,248.9 845.95,249.71 
					844.33,251.44 842.19,252.35 839.88,252.98 837.9,254.13 836.2,255.75 833.97,256.54 831.99,257.69 830.02,258.89 
					828.46,260.75 826.34,261.71 824.61,263.26 				"/>
			</g>
			<g>
				<polygon class="st1" points="814.31,187.38 814.23,189.71 813.73,192.01 813,194.24 812.55,196.62 810.78,198.29 809.83,200.51 
					808.26,202.27 806.36,203.65 804.5,205.09 802.43,206.19 800.26,207 798.12,208.12 795.68,207.73 793.38,208.65 791.08,207.86 
					788.81,207.42 786.58,206.79 784.2,206.45 782.53,204.65 780.12,204.02 778.92,201.82 776.85,200.57 775.6,198.55 
					774.87,196.28 773.4,194.37 772.59,192.12 772.75,189.71 772.88,187.38 772.75,185.06 772.98,182.7 773.27,180.32 
					774.19,178.13 776.2,176.58 776.7,174.07 778.34,172.32 780.7,171.46 782.24,169.63 784.52,168.97 786.69,168.27 788.75,167.14 
					791.06,166.62 793.38,166.36 795.68,166.93 797.96,167.32 800.21,167.9 802.59,168.29 804.5,169.7 806.04,171.51 808.26,172.5 
					809.39,174.62 810.64,176.53 812.34,178.26 813.44,180.35 813.7,182.73 813.57,185.08 				"/>
			</g>
			<g>
				<polygon class="st0" points="864.86,187.38 864.57,189.66 864.44,191.96 863.71,194.16 863.11,196.41 861.7,198.26 
					860.63,200.36 859.06,202.08 857.46,203.81 855.34,204.88 853.62,206.61 851.34,207.37 849.04,207.97 846.71,208.23 
					844.36,208.52 841.98,208.49 839.73,207.57 837.35,207.37 835.31,206.14 833.22,205.06 831.15,203.94 829.95,201.77 
					827.7,200.64 826.28,198.73 825.66,196.38 825.06,194.13 823.96,192.04 824.04,189.66 823.38,187.38 823.36,185 823.62,182.65 
					824.61,180.48 825.68,178.39 826.78,176.32 828.17,174.46 829.29,172.32 831.65,171.43 833.4,169.94 835.36,168.74 
					837.53,167.93 839.81,167.51 842.08,167.25 844.36,166.98 846.66,166.88 849.04,166.85 851.37,167.32 853.56,168.24 
					855.32,169.91 857.04,171.48 859.16,172.58 860.6,174.41 861.7,176.48 862.9,178.44 864.39,180.35 864.97,182.68 865.28,185 
									"/>
			</g>
		</g>
	</g>
	<g>
		<g>
			<polygon class="st1" points="1174.32,198.73 1172.07,198.34 1169.77,197.85 1167.44,196.98 1166.26,194.6 1164.35,193.09 
				1162.02,192.07 1160.35,190.26 1158.15,189.08 1156.85,186.86 1154.33,186.05 1152.61,184.3 1151.12,182.28 1149.05,180.95 
				1147.27,179.22 1145.36,176.87 1146.46,173.91 1147.88,172.08 1149.76,170.7 1151.54,169.18 1152.37,166.88 1153.97,165.23 
				1155.51,163.51 1157.03,161.78 1158.44,159.97 1159.75,158.04 1161.4,156.39 1162.81,154.59 1164.72,153.17 1165.74,151 
				1167.05,149.09 1169.06,147.76 1170.21,145.69 1171.62,143.86 1173.32,142.24 1175.15,140.75 1175.18,138.55 1173.48,137.51 
				1171.07,137.53 1168.64,137.38 1166.21,138.11 1163.78,137.35 1161.34,138.11 1158.91,137.06 1156.48,137.43 1154.02,137.59 
				1151.59,137.35 1149.13,137.82 1146.67,137.77 1144.19,137.3 1141.73,137.17 1139.56,137.09 1137.41,137.69 1135.24,137.85 
				1133.07,137.14 1130.61,137.14 1128.13,137.33 1125.67,137.17 1123.32,137.09 1120.96,137.93 1118.63,138.16 1116.28,137.27 
				1113.93,137.19 1111.57,137.19 1109.25,137.82 1106.89,137.12 1104.54,137.48 1102.18,137.14 1099.83,137.74 1097.5,137.56 
				1095.15,138.16 1092.79,137.22 1090.44,137.46 1088.11,137.43 1085.76,138.03 1083.41,138.14 1081.05,137.4 1078.7,138.14 
				1076.34,137.95 1073.99,137.09 1071.64,137.82 1069.28,137.72 1066.93,137.61 1064.57,137.3 1062.19,137.69 1059.81,137.59 
				1057.04,138.48 1056.91,141.27 1056.44,143.81 1056.83,146.3 1056.52,148.83 1057.77,150.53 1058.82,152.36 1060.91,152.18 
				1063.29,152.05 1065.65,152.36 1068.03,152.86 1070.41,152.21 1072.79,151.95 1075.17,152.91 1077.52,152.99 1079.9,152.55 
				1082.28,152.13 1084.63,152.78 1087.01,152.68 1089.39,152.81 1091.77,152.34 1094.15,152.47 1096.53,152.42 1098.91,152.29 
				1101.29,152 1103.67,151.97 1106.05,152.21 1108.43,152.57 1110.84,152.47 1113.22,152.65 1115,153.41 1114.4,155.21 
				1112.91,157.7 1110.63,159.5 1109.25,161.39 1107.07,162.2 1104.83,162.3 1102.45,162.38 1100.07,162.75 1097.71,162.96 
				1095.33,162.07 1092.98,162.12 1090.6,163.09 1088.22,162.35 1085.84,162.49 1083.46,162.59 1082.05,163.43 1082.91,164.55 
				1084.14,166.88 1086.26,168.16 1087.85,170.04 1090.21,171.06 1091.75,173.05 1093.89,174.31 1095.57,176.87 1094.44,179.72 
				1092.69,181.37 1090.91,182.99 1089.79,185.16 1087.83,186.63 1086.52,188.64 1084.9,190.39 1083.93,192.72 1082.33,194.52 
				1080.14,195.81 1078.65,197.4 1076.76,198.79 1074.43,198.45 1072.03,199.47 1069.62,198.97 1067.22,199.52 1064.81,199.47 
				1062.4,198.47 1059.97,198.79 1057.57,199.15 1055.26,200.25 1054.56,202.63 1054.32,205.14 1054.17,207.68 1054.92,210.14 
				1055.84,212.75 1058.45,213.35 1060.89,213.9 1063.29,214.22 1065.7,213.64 1068.03,214.32 1070.33,213.93 1072.66,214.32 
				1074.98,213.93 1077.29,213.85 1079.61,213.51 1081.91,213.75 1084.24,214.17 1086.57,213.69 1088.87,213.69 1091.2,214.37 
				1093.53,214.03 1095.85,213.96 1098.16,213.33 1100.48,214.4 1102.81,213.35 1105.14,214.19 1107.49,214.35 1109.82,213.3 
				1112.23,213.93 1114.03,212.28 1115.52,210.69 1117.82,209.27 1118.97,206.92 1120.86,205.17 1122.27,203.02 1124.91,201.48 
				1127.63,202.74 1129.54,203.99 1131.16,205.59 1133.2,206.69 1134.51,208.67 1136.65,209.67 1138.3,211.24 1140.11,212.75 
				1142.49,212.99 1144.68,213.59 1147.01,213.38 1149.37,213.56 1151.72,213.72 1154.07,213.98 1156.4,214.03 1158.76,214.3 
				1161.11,214.14 1163.46,214.3 1165.82,213.51 1168.17,214.32 1170.52,214.3 1172.88,214.01 1175.23,214.3 1177.59,214.27 
				1179.94,213.56 1182.32,214.35 1184.67,214.17 1186.84,214.14 1188.99,213.85 1190.45,212.41 1192.05,211.05 1193.23,209.01 
				1195.19,207.6 1196.68,205.82 1198.06,203.94 1199.56,202.11 1199.63,199.89 1197.83,198.5 1195.5,199.39 1193.15,199.1 
				1190.79,199.18 1188.44,199.49 1186.11,198.87 1183.76,198.68 1181.4,198.53 1179.05,198.79 1176.7,198.68 			"/>
		</g>
		<g>
			<polygon class="st1" points="1196.16,312.69 1198.33,311.69 1200,309.39 1199.08,306.96 1198.85,304.48 1199.16,301.94 
				1198.51,300 1196.97,298.75 1195.08,298.62 1192.73,298.28 1190.4,297.96 1188.07,298.64 1185.72,298.15 1183.39,297.83 
				1181.06,297.94 1178.74,297.83 1176.41,297.83 1174.08,298.38 1171.73,298.49 1169.4,298.41 1167.07,298.25 1164.72,298.25 
				1162.39,298.25 1160.04,297.75 1157.71,298.62 1155.35,298.67 1153.03,298.49 1150.67,298.15 1148.29,298.22 1146.1,296.92 
				1144.76,294.54 1145.08,292.16 1145.89,289.83 1146.33,287.48 1145.99,285.02 1146.67,282.66 1146.93,280.28 1146.78,277.85 
				1148.03,275.6 1147.9,273.14 1147.95,270.71 1148.4,268.33 1149.31,266.03 1149.55,264.07 1151.14,262.84 1153.05,261.79 
				1155.46,262.52 1157.92,262.76 1160.35,262.45 1162.78,262.5 1165.22,262.58 1167.65,262.26 1170.11,261.77 1172.54,262.81 
				1174.97,262.76 1177.43,262.05 1179.86,262.37 1182.32,261.87 1185.2,261.5 1185.22,258.63 1185.25,256.12 1185.67,253.58 
				1185.17,251.1 1184.7,249.16 1182.9,248.35 1181.25,247.72 1178.87,247.83 1176.49,247.25 1174.11,246.86 1171.73,247.7 
				1169.35,247.51 1166.97,247.43 1164.59,247.41 1162.18,247.49 1159.8,247.7 1157.4,247.49 1155.02,247.56 1152.82,246.05 
				1151.56,243.69 1151.67,241.24 1152.69,238.88 1152.56,236.4 1152.79,233.96 1153.37,231.56 1154.15,229.15 1153.79,226.62 
				1153.37,223.97 1150.8,222.9 1148.5,222.74 1146.17,223.45 1143.85,222.72 1141.55,223.45 1139.24,222.43 1136.92,222.8 
				1134.59,222.93 1132.29,222.72 1129.96,223.19 1127.63,223.14 1125.33,222.67 1123,222.53 1120.67,222.43 1118.35,223.06 
				1116.02,223.19 1113.69,222.48 1111.34,222.51 1109.27,223.21 1107.55,224.55 1106.63,226.59 1107.15,229.13 1107.05,231.58 
				1105.85,233.91 1105.45,236.34 1105.11,238.78 1105.43,241.31 1104.41,243.67 1104.04,245.5 1102.42,246.49 1100.72,247.54 
				1098.39,247.36 1096.06,247.93 1093.74,247.02 1091.41,247.22 1089.08,247.2 1086.78,247.83 1084.43,247.93 1082.12,247.2 
				1079.8,247.9 1077.44,247.72 1075.11,246.88 1072.79,247.62 1070.46,247.49 1068.13,247.38 1065.78,247.09 1063.45,247.49 
				1061.1,247.36 1058.3,248.27 1058.17,251.07 1057.7,253.61 1058.09,256.09 1057.77,258.63 1059.03,260.3 1060.08,262.13 
				1062.17,261.98 1064.44,261.84 1066.75,262.16 1069.02,262.66 1071.3,261.98 1073.57,261.74 1075.85,262.71 1078.12,262.76 
				1080.42,262.32 1082.7,261.92 1085,262.55 1087.28,262.47 1089.55,262.6 1091.85,262.13 1094.15,262.24 1096.46,262.21 
				1098.76,262.05 1101.61,263.02 1102.5,266.03 1101.97,268.38 1101.29,270.71 1101.06,273.09 1100.56,275.44 1100.25,277.82 
				1099.86,280.2 1100.01,282.64 1099.12,284.94 1099.36,287.4 1098.86,289.78 1098.23,292.13 1098.03,294.54 1097.58,296.5 
				1096.14,298.07 1094.02,297.73 1091.64,297.81 1089.29,298.75 1086.91,298.02 1084.56,298.17 1082.18,298.25 1079.82,298.64 
				1077.47,298.75 1075.09,297.78 1072.73,298.15 1070.35,297.73 1067.97,298.43 1065.62,297.91 1063.24,298.36 1060.89,298.67 
				1058.51,298.41 1056.13,298.15 1053.75,297.81 1051.34,298.36 1048.49,299.01 1047.73,301.94 1047.81,304.45 1048.72,306.88 
				1048.83,309.39 1048.7,311.54 1050.43,312.82 1052.44,312.87 1054.77,313.63 1057.09,312.61 1059.42,313.11 1061.72,312.58 
				1064.05,312.61 1066.38,313.63 1068.71,313.29 1071.03,312.92 1073.36,312.82 1075.69,312.69 1078.02,313.13 1080.35,313.45 
				1082.67,312.87 1085.03,313.13 1087.35,312.64 1089.71,313.16 1092.06,313.5 1093.92,312.92 1095.28,313.05 1097.61,313.21 
				1099.46,313.6 1101.79,313.21 1104.09,313.13 1106.42,312.79 1108.72,313.03 1111.05,313.45 1113.35,312.98 1115.68,312.98 
				1117.98,313.66 1120.31,313.32 1122.64,313.24 1124.96,312.61 1127.27,313.68 1129.59,312.64 1131.92,313.47 1134.25,313.63 
				1136.6,312.58 1138.93,313.66 1140.79,312.9 1142.15,313.05 1144.47,313.47 1146.33,312.87 1148.71,313.21 1151.07,312.9 
				1153.45,312.74 1155.83,313.16 1158.18,312.9 1160.56,313.08 1162.91,312.61 1165.29,313.29 1167.65,312.69 1170,312.84 
				1172.38,313.18 1174.76,312.58 1177.12,312.87 1179.5,312.64 1181.88,312.82 1184.26,313 1186.61,313.26 1188.99,313.32 
				1191.37,313.58 1193.8,313.42 			"/>
		</g>
		<g>
			<polygon class="st1" points="953.76,273.82 956.35,274.82 956.48,277.46 956.48,279.76 956.19,282.04 956.11,284.34 
				956.06,286.64 955.7,288.91 954.99,291.14 954.88,293.44 954.13,295.66 954.67,298.07 954.41,300.34 954.2,302.64 952.98,304.79 
				953.39,307.2 953.16,309.5 951.93,311.25 950.46,312.5 948.58,313.13 946.25,313.5 943.95,313.16 941.62,312.84 939.32,313.52 
				936.99,313.03 934.69,312.71 932.37,312.82 930.06,312.71 927.74,312.71 925.41,313.26 923.08,313.37 920.78,313.29 
				918.45,313.13 916.12,313.13 913.8,313.13 911.44,312.64 909.11,313.5 906.32,312.32 905.64,309.42 906.29,307.2 906.5,304.92 
				907.15,302.7 906.79,300.32 907.07,298.04 907.86,295.82 908.28,293.57 907.94,291.19 908.62,288.97 908.85,286.69 
				908.67,284.34 909.93,282.17 909.79,279.81 909.85,277.48 910.76,275.58 912.59,274.76 914.29,273.77 916.62,273.88 
				918.92,273.35 921.25,274.06 923.55,274.32 925.85,274.01 928.18,274.06 930.51,274.11 932.81,273.8 935.14,273.3 937.47,274.37 
				939.79,274.32 942.09,273.59 944.42,273.9 946.75,273.4 949.08,274.27 951.41,273.27 			"/>
		</g>
		<g>
			<polygon class="st1" points="981.17,247.88 979.47,247.38 980.15,245.68 981.46,243.72 983.24,242.2 984.78,240.42 
				986.58,238.93 988.23,237.31 989.41,235.22 991.26,233.76 992.99,232.19 994.19,230.12 996.44,229.05 998.01,227.32 
				999.37,225.36 1000.55,223.27 1002.56,221.96 1004.5,220.6 1005.81,218.64 1007.69,217.17 1009.28,215.47 1010.17,213.09 
				1012,211.63 1013.57,209.9 1015.4,208.44 1017.16,206.89 1018.49,204.99 1019.75,202.95 1021.97,201.85 1023.7,200.25 
				1024.66,197.92 1026.83,196.77 1028.35,194.99 1030.21,193.53 1031.67,191.67 1033.16,189.89 1034.58,187.96 1036.3,186.36 
				1037.9,184.64 1039.81,183.25 1041.04,181.16 1042.71,179.51 1044.62,178.05 1045.69,175.8 1046.55,174.28 1044.85,173.71 
				1042.53,173.23 1040.22,173.65 1037.9,173.86 1035.57,173.65 1033.27,173.23 1030.97,173.26 1028.64,173.18 1026.31,173.5 
				1024.01,173.68 1021.68,173.84 1019.35,173.97 1017.03,173.16 1014.72,173.86 1012.4,173.5 1010.07,173.03 1007.72,173.21 
				1005.39,173.44 1003.14,173.94 1000.73,174.28 998.95,175.95 997.31,177.68 995.82,179.54 994.38,181.45 992.65,183.09 
				990.72,184.53 989.2,186.39 987.21,187.78 986.16,190.1 984.54,191.86 982.95,193.63 980.62,194.71 979.5,196.93 977.87,198.71 
				975.86,200.12 974.19,201.82 971.68,203.05 968.75,202.32 967.02,200.2 965.24,198.11 962.81,196.75 962.02,193.87 
				963.23,191.52 964.77,189.74 966.44,188.12 968.07,186.44 969.27,184.35 970.79,182.6 972.46,180.95 974.19,179.38 
				975.81,177.68 977.4,175.98 979.36,174.62 980.33,172.35 981.9,170.65 983.63,169.08 985.48,167.61 987.03,165.86 988.91,164.39 
				990.04,162.25 991.63,160.55 993.59,159.19 995.32,157.57 996.44,155.42 998.35,153.99 999.92,152.23 1001.2,150.19 
				1003.5,149.15 1004.79,147.16 1006.22,145.28 1007.95,143.65 1010.02,142.35 1011.25,140.25 1012.06,138.4 1010.15,138.11 
				1007.85,137.38 1005.52,137.14 1003.19,137.46 1000.89,137.4 998.59,137.33 996.26,137.67 993.93,138.14 991.63,137.09 
				989.3,137.14 986.98,137.85 984.65,137.53 982.35,138.03 980.02,137.19 977.69,138.16 975.36,137.95 973.04,137.35 
				970.68,137.67 968.35,137.87 966.52,139.37 964.67,140.52 963.12,142.29 961.08,143.6 959.2,145.01 958.21,147.29 956.48,148.86 
				954.81,150.51 953.16,152.15 951.59,153.91 950.15,155.76 948.4,157.31 946.85,159.03 944.84,160.34 943.69,162.43 
				942.25,164.29 940.13,165.49 938.85,167.51 937.28,169.26 935.5,170.78 933.54,172.16 932.44,174.36 930.56,175.8 928.97,177.52 
				927.24,179.12 926.14,181.32 923.97,182.49 922.9,184.72 920.54,185.71 919.16,187.67 917.64,189.48 915.86,191.05 
				915.23,193.87 916.31,196.35 917.67,198.26 919.26,199.96 920.88,201.61 923,202.76 924.78,204.25 925.98,206.37 927.68,207.94 
				929.51,209.41 931.11,211.13 932.76,212.78 935.03,213.75 936.86,215.19 937.96,217.46 939.61,219.11 941.31,220.7 
				943.43,221.85 944.66,223.97 946.62,225.31 947.4,227.82 946.93,230.51 945.23,232.06 944.06,234.1 941.78,235.12 940.34,236.95 
				938.72,238.59 937.6,240.69 936.05,242.41 933.93,243.56 932.84,245.73 931.11,247.25 928.89,248.35 927.81,250.52 
				926.11,252.09 924.47,253.71 922.64,255.15 921.3,257.11 919.6,258.71 917.77,260.17 917.77,262.11 919.16,263.2 921.49,263 
				923.84,263.52 926.17,262.84 928.49,263.49 930.85,262.76 933.2,262.66 935.56,262.94 937.44,263.44 939.58,263.1 941.13,262.58 
				942.98,263.54 945.21,263.62 947.43,263.18 949.68,262.79 951.9,263.41 954.13,263.31 956.35,263.44 958.6,262.97 960.85,263.1 
				963.1,263.05 965.74,264.07 966.81,266.89 966.52,269.25 965.97,271.57 965.32,273.9 965.08,276.28 964.61,278.61 964.27,280.96 
				963.91,283.32 964.06,285.75 963.15,288.05 963.41,290.48 962.91,292.84 962.29,295.16 962.08,297.54 962.1,299.95 
				962.02,302.36 960.82,304.61 960.56,307.01 961.19,309.52 961.27,312.19 963.91,313.21 966.24,313.11 968.54,312.71 
				970.86,312.61 973.17,313.6 975.49,313.21 977.8,313.66 980.12,312.92 982.45,313.45 984.75,313.03 987.08,312.69 989.41,312.95 
				991.74,313.24 994.04,313.55 996.36,313 998.69,313.58 1001.05,313.29 1003.37,313.42 1005.1,312.22 1006.51,311.09 
				1008.06,309.52 1008.11,307.12 1007.95,304.68 1009.02,302.44 1008.32,299.92 1009.13,297.62 1008.89,295.19 1009.26,292.84 
				1010.57,290.61 1010.54,288.21 1010.49,285.78 1010.7,283.4 1010.88,281.02 1011.61,278.71 1012.24,276.39 1012,273.93 
				1012.58,271.6 1012.37,269.14 1013.23,266.81 1014.23,265.19 1015.35,263.47 1017.37,263.62 1019.59,263.23 1021.81,263.62 
				1024.04,263.23 1026.26,263.15 1028.48,262.79 1030.34,263.05 1032.46,263.31 1034.05,263 1035.91,263 1036.72,263.65 
				1038.76,262.81 1040.25,261.37 1040.41,259.39 1041.77,257.19 1041.04,254.7 1042.19,252.48 1042.66,250.15 1041.92,247.67 
				1043.28,245.47 1042.87,243.04 1042.89,240.69 1044.04,238.44 1043.76,236.03 1044.38,233.73 1044.38,231.35 1044.54,228.97 
				1045.27,226.67 1045.32,224.29 1045.8,221.99 1045.64,219.55 1046.63,217.3 1046.34,214.85 1046.82,212.52 1046.69,210.69 
				1045.35,211.89 1043.47,213.38 1041.95,215.21 1040.15,216.78 1038.34,218.35 1036.46,219.87 1034.73,221.57 1032.85,223.06 
				1031.28,224.89 1029.48,226.46 1028.32,228.73 1026.08,229.88 1024.38,231.58 1022.91,233.52 1021,235.01 1019.33,236.74 
				1018.12,238.96 1015.88,240.11 1014.31,241.97 1012.61,243.69 1011.09,245.63 1009.31,247.12 1007.04,247.75 1004.79,248.45 
				1002.43,247.8 1000.08,247.77 997.72,247.85 995.37,247.83 992.99,248.43 990.66,247.77 988.28,248.69 985.93,248.4 
				983.52,248.45 			"/>
		</g>
		<g>
			<polygon class="st0" points="1070.28,286.01 1068.31,286.19 1065.96,286.72 1063.63,287.27 1061.28,287.63 1058.9,288.02 
				1056.52,288.39 1054.27,289.25 1051.94,289.83 1049.77,290.82 1047.55,291.66 1045.46,292.81 1043.31,293.99 1041.74,295.84 
				1040.3,297.78 1039.44,300.03 1038.24,302.1 1037.53,304.37 1036.54,306.57 1035.88,308.87 1035.94,311.3 1035.18,313.6 
				1034.58,315.9 1034.73,318.36 1033.48,320.59 1033.66,322.57 1033.45,320.66 1032.48,318.39 1032.67,315.93 1032.69,313.5 
				1031.86,311.2 1031.67,308.76 1031.07,306.44 1029.42,304.42 1028.9,302.1 1027.85,299.98 1026.94,297.75 1025.63,295.71 
				1023.7,294.25 1021.52,293.23 1019.88,291.32 1017.76,290.17 1015.2,290.2 1013.16,288.76 1010.83,288.29 1008.55,287.45 
				1006.15,287.19 1003.77,286.93 1001.36,286.85 999.01,286.32 996.63,286.01 999.08,286.12 1001.36,285.2 1003.74,284.89 
				1006.15,284.83 1008.37,283.6 1010.75,283.37 1013.02,282.64 1015.46,282.4 1017.55,281.2 1019.62,280.02 1021.76,279 
				1023.9,277.9 1025.6,276.18 1027.1,274.29 1028.04,272.07 1028.85,269.82 1029.53,267.57 1030.08,265.27 1031.46,263.18 
				1031.25,260.69 1032.09,258.42 1032.98,256.14 1033.16,253.76 1033.29,251.36 1033.66,248.85 1033.53,251.44 1034.18,253.74 
				1034.55,256.12 1035.2,258.44 1035.91,260.75 1036.35,263.1 1036.56,265.51 1037.45,267.76 1037.84,270.16 1039.62,271.99 
				1040.85,273.98 1042.32,275.78 1043.36,278.11 1045.69,278.98 1047.76,280.1 1049.72,281.54 1051.97,282.38 1054.27,282.95 
				1056.65,283.19 1058.9,284.02 1061.2,284.78 1063.66,284.52 1065.93,285.41 1068.26,286.06 			"/>
		</g>
	</g>
	<g>
		<g>
			<g>
				<g>
					<polygon class="st1" points="311.7,176.56 309.77,177.52 308.3,178.83 307.78,180.71 307.02,183.15 306.32,185.61 
						306.5,188.17 306.68,190.76 305.53,192.61 303.94,193.84 302,194.68 298.76,194.55 296.59,193.06 295.78,190.73 295.51,188.33 
						296.01,186.02 296.69,183.77 297.24,181.5 297.03,179.12 297.37,176.82 298.08,174.57 299.02,172.35 299.33,170.02 
						299.62,167.72 299.73,165.34 299.99,163.01 300.98,160.81 300.72,158.41 301.35,156.13 301.14,153.72 302.24,151.5 
						302.31,149.15 301.84,146.4 299.2,145.67 299.02,145.69 296.56,145.98 294.08,146.01 291.62,145.17 289.26,145.88 
						286.91,145.88 284.56,145.56 282.2,145.43 279.85,145.85 277.49,145.67 275.14,145.54 272.76,145.22 270.41,145.85 
						268.05,145.88 265.7,145.49 263.32,145.49 260.94,145.72 258.56,145.72 256.1,145.33 253.62,145.15 251.16,145.62 
						248.67,145.62 246.19,145.33 243.7,145.25 241.25,145.07 238.76,145.8 236.3,145.64 233.92,145.15 231.52,145.01 
						229.14,145.62 226.76,145.49 224.38,146.01 222,145.64 219.62,145.28 217.21,145.54 214.83,144.94 212.45,145.33 
						210.04,146.01 207.66,145.38 205.28,145.96 202.88,145.04 200.47,145.28 198.06,145.28 195.66,145.2 193.85,146.24 
						192.18,147.29 191.58,149.17 191.21,151.47 190.19,153.67 190.38,156.08 189.64,158.33 189.22,160.6 189.7,163.03 
						188.75,165.26 188.36,167.56 188.2,169.91 187.76,172.19 187.63,174.54 186.71,176.77 186.53,179.12 185.88,181.37 
						186.06,183.77 185.62,186.08 184.99,188.38 185.01,190.76 184.26,192.82 182.19,193.61 180.38,194.76 178.19,194.47 
						176.02,194.52 173.58,195.54 172.83,198.03 172.25,200.72 173.01,203.29 173.09,205.93 173.51,207.97 175.26,209.09 
						177.14,209.46 177.93,209.56 180.38,209.27 182.87,209.35 185.33,209.46 187.71,209.72 190.11,209.3 192.49,209.67 
						194.87,209.75 197.25,209.67 199.63,209.2 202.01,209.46 204.42,210.06 206.8,209.35 209.21,209.82 211.59,209.61 
						213.97,209.72 216.37,209.2 218.75,209.33 221.16,210.01 223.56,209.3 225.97,209.09 227.93,209.14 229.66,207.97 
						230.08,205.93 231.12,203.73 231.28,201.4 231.28,199.02 232.12,196.8 231.93,194.39 232.8,192.2 232.4,189.76 233.22,187.51 
						233.19,185.16 234.16,182.94 233.97,180.53 234.44,178.26 234.99,175.98 235.36,173.65 236.17,171.43 236.46,169.08 
						236.82,166.75 236.72,164.37 238.21,162.88 239.05,160.76 241.27,161.18 243.73,160.97 246.21,160.55 248.7,160.65 
						251.16,161.78 251.52,164.34 251.08,166.64 251.45,169.05 250.66,171.3 250.5,173.65 249.48,175.85 249.3,178.18 
						249.54,180.56 249.04,182.86 248.2,185.08 247.57,187.36 247.78,189.76 247.39,192.07 247.31,194.42 246.92,196.72 
						246.48,199.02 245.8,201.3 245.14,203.57 245.51,206.03 245.74,208.59 248.25,209.54 250.5,209.69 252.78,209.54 
						255.03,209.98 257.51,209.48 259.97,209.14 262.46,209.46 264.86,209.88 267.24,209.93 269.65,209.48 272.05,209.48 
						274.43,209.85 276.84,209.22 279.25,209.25 281.65,209.22 284.06,209.98 286.47,209.77 288.87,209.33 291.36,209.17 
						293.81,209.98 296.3,209.33 298.13,210.11 299.99,209.38 302.45,209.75 304.93,209.59 307.39,210.16 309.69,209.64 
						312.02,209.8 314.32,209.14 316.65,210.14 318.97,209.43 321.01,209.3 322.19,207.63 323.24,205.95 323.94,203.7 
						323.58,201.32 323.87,199.05 324.73,196.83 324.99,194.52 324.44,192.12 325.72,189.95 325.85,187.62 326.11,185.32 
						326.61,183.04 326.74,180.69 325.57,178.26 323.29,177.08 320.99,176.92 318.66,177.26 316.36,176.53 314.01,177.21 					"/>
				</g>
				<g>
					<path class="st1" d="M315.13,301.57l-0.63-1.78l-1.39-1.31l-1.83-1.18l-2.41,0.92l-2.43,0.1l-2.43-0.18l-2.43-0.16l-2.2-0.97
						l-2.56,0.18l-1.44-2.12l-2.33-0.81l-1.44-1.86l-2.2-0.94l-1.78-1.46l-1.23-2.12l-2.07-1.12l-1.62-1.65l-1.46-1.83l-2.17-0.99
						l-1.88-1.33l-1.62-1.65l-1.75-1.52l-1.67-1.6l-1.96-1.26l-1.31-2.64l0.68-2.93l1.96-1.41l1.6-1.73l1.18-2.09l1.52-1.8
						l1.88-1.49l0.84-2.38l2.07-1.33l1.12-2.12l1.83-1.52l1.44-1.86l1.49-1.8l1.44-1.86l1.6-1.75l1.39-1.91l1.57-1.75l1.83-1.54
						l1.36-1.96l1.44-1.88l1.54-1.78l0.99-2.25l1.88-1.52l1.18-2.09l1.44-1.86l1.96-1.46l1.36-1.96l1.94-1.49l0.92-2.33l1.02-1.83
						l-2.07-1.1l-2.25,0.65l-2.28-0.31l-2.25-0.13l-2.25,0.08l-2.28-0.03l-2.28-0.44l-2.25,0.03l-2.25,0.03l-2.28,0.37h-2.28
						l-2.28,0.39l-2.28-0.42l-2.46,0.55l-2.48-0.73l-2.46,0.76l-2.33,0.08l-2.35-0.34l-2.35,0.39l-2.46-0.05l-2.48-0.52l-2.46,0.21
						l-2.38-0.31l-2.38,0.21l-2.38-0.13l-2.38-0.08l-2.38,0.1l-2.38-0.29l-2.38,0.39l-2.38-0.39l-2.38,0.13l-2.38,0.52l-2.38,0.03
						l-2.38-0.63l-2.38,0.68l-2.38-0.31l-2.38-0.03l-2.38-0.34l-2.38,0.34l-2.38,0.39l-2.38-0.03l-2.38-0.81l-2.38,0.92l-2.38-0.99
						l-2.38,0.68l-2.38-0.37l-2.38-0.31l-2.38,0.86l-2.38-0.26l-2.38,0.31l-2.38-0.58l-2.38,0.5l-2.38-0.84l-2.38,0.34l-2.41,0.55
						l-2.41-0.6l-2.41,0.42l-2.41-0.44l-2.46,0.71l-2.48-0.05l-2.46-0.31l-1.8-0.13l-1.8-0.42l-2.12-0.86l-1.02-2.28l0.68-2.28
						l-0.52-2.43l0.99-2.22l0.21-2.33l0.1-2.35l0.29-2.33l0.52-2.3l0.26-2.33l0.47-2.3l-0.18-2.38l0.86-2.25l-0.47-2.43l0.68-2.28
						l0.63-2.28l-0.52-2.43l0.97-2.22l-0.21-2.38l0.92-2.25l0.26-2.33l0.65-2.28l-0.03-2.38l0.58-2.3l-0.16-2.38l0.13-2.35
						l0.03-2.38l1.15-2.22l0.24-2.35l0.5-2.33l-1.65-2.3l-2.07-1.26l-2.28-0.1l-2.28-0.44l-2.3,0.6l-2.3,0.29l-2.3-0.08l-2.3-0.92
						h-2.46l-2.48,0.21l-2.46,0.71l-2.43-0.29l-2.43-0.34l-2.43,0.47l-2.43-0.37l-2.43-0.05l-2.43-0.21l-2.43,0.73l-2.43-0.58
						l-2.46,0.21l-2.48,0.21l-2.46,0.26l-1.91-0.08l-1.91,0.1l-2.3-0.97l-2.14-0.92l-2.3-0.78l-1.88-1.41l-1.2-2.17l-2.09-1.18
						l-1.36-2.01l-1.88-1.41l-1.73-1.62l-2.25-1.05l-1.8-1.52l-1.39-2.01l-2.3-0.97l-1.83-1.49l-1.65-1.7l-1.73-1.65l-1.86-1.49
						l-1.88-1.44l-1.36-2.04l-2.14-1.12l-1.6-1.8l-1.91-1.44l-1.91-1.44l-1.33-2.33l-2.62-0.78l-0.5,2.46l-1.23,2.2l-0.03,2.33
						l-0.52,2.28l0.55,2.41l-0.52,2.28l-0.81,2.25l0.08,2.35l-0.08,2.33l-0.81,2.25l-0.05,2.35l-0.08,2.35l0.31,2.41l-0.55,2.3
						l-0.78,1.96l-1.44,1.62l-2.14,0.16l-2.51-0.16l-2.54,0.47l-2.54,0.13l-2.54-0.03l-2.54-0.16l-2.41-0.24l-2.41-0.29l-1.31,1.75
						l-0.26,2.09l-0.84,2.25l0.03,2.35l-0.37,2.3l-0.47,2.3l-0.1,2.35l-0.13,2.35l0.24,2.35l-1.07,2.22l0.26,2.41l-0.42,2.3
						l-0.6,2.28l0.29,2.41l-0.34,2.33l-0.42,2.3l-0.65,2.28l-0.76,2.25l-0.29,2.33l-0.21,2.35l0.55,2.43l-1.26,2.2l0.26,2.41
						l-0.6,2.3l-0.47,2.3l-0.18,2.33l-0.31,2.33l-0.08,2.35l-0.65,2.3l-0.1,2.38l-0.52,1.96l-1.75,1.02l-1.83,0.34l-2.35,0.26h-2.35
						l-2.35,0.18l-2.35-0.08l-2.35,0.03l-2.35-0.52l-2.35,0.03l-2.38,0.6l-2.38-0.08l-2.38-0.1l-2.9,0.84l-0.1,2.9L0,224.24
						l0.47,2.62l-0.26,2.67l1.05,1.7l0.97,1.91l2.14,0.42l2.28-0.47l2.28-0.29l2.28-0.03l2.28,0.21l2.28,0.39l2.28-0.24l2.28,0.08
						l2.3-0.44l2.3,0.34l2.38,1.28l1.18,2.56l-0.81,2.28l-0.52,2.33l0.47,2.35l-1.05,2.25l-0.42,2.33l0.16,2.41l-0.13,2.35
						l-1.05,2.25l0.52,2.46l-0.99,2.25l-0.42,2.33l0.03,2.38l-0.16,2.35l0.13,2.41l-0.84,2.28l-0.63,2.3l-0.18,2.35l-0.18,2.35
						l-0.08,2.35l-0.78,2.28l-0.24,2.35l-0.37,2.33l-0.34,2.33v2.38l-0.52,2.33l0.26,2.43L19.48,300l-0.5,2.33l0.63,2.48l-0.63,2.33
						l-0.63,2.33l1.15,2.35l2.2,1.1l2.2,0.34l2.2-0.21l2.2,0.5l2.2-0.18l2.2-0.55l2.2,0.47l2.2,0.21l1.99-0.76l1.07-1.67l1.36-1.54
						l0.1-2.35l0.52-2.33l0.24-2.35l0.05-2.38l0.31-2.33l0.16-2.35l0.78-2.28l0.44-2.33l-0.34-2.46l0.21-2.35l0.52-2.3l0.58-2.3
						l0.21-2.35l-0.05-2.38l1.05-2.25l-0.29-2.43l0.65-2.3l-0.1-2.38l0.55-2.3l0.58-2.3l-0.37-2.43l1.18-2.22l0.21-2.35l0.18-2.38
						l-0.16-2.41l0.86-2.28v-2.38l0.39-2.33l0.44-2.33l0.1-2.38l0.21-2.38l1.18-1.65l1.07-1.8l2.09,0.1l2.3-0.84l2.3,0.92l2.3,0.05
						l2.3-0.89l2.3,0.63l2.3,0.05l2.3-0.26l2.3-0.47l2.3,0.5l2.3-0.39l2.3-0.08l2.33-0.03l2.3,0.65l2.3,0.21l2.33-0.86l2.3,0.1
						l2.3,0.26l2.3-0.16l2.33,0.5l2.33-0.58l2.33,0.92h2.33l2.69,0.34l0.37,2.77l-0.34,2.33l-0.44,2.33l-0.03,2.38l-0.58,2.3
						l-0.21,2.35l-0.26,2.33l-0.29,2.33l0.05,2.38l-0.21,2.35l-0.84,2.28l0.16,2.41l-0.94,2.25l0.37,2.43l-0.31,2.33l-1.02,2.25
						l-0.16,2.35l-0.21,2.35l0.05,2.38l-0.13,2.35l-0.89,2.25l0.21,2.41l-0.5,2.33l-0.63,2.3l-0.05,2.38l-0.39,2.33l-0.39,2.33
						l0.1,2.38l-0.81,2.28l0.24,2.41l-1.1,2.25l0.55,2.46l-0.37,2.33l-0.13,2.38l-0.31,2.35l-1.26,2.22l-0.37,2.33l0.73,2.48
						l-1.23,2.22l-0.03,2.41l-0.6,2.33l0.78,2.51l2.51-0.37l2.22-0.76l1.91-1.33l1.88-1.39l1.88-1.41l2.33-0.55l1.94-1.28l2.2-0.78
						l1.96-1.26l2.2-0.81l1.99-1.2l1.75-1.65l2.12-0.99l2.3-0.63l2.04-1.1l2.12-0.97l2.01-1.18l1.8-1.57l2.09-1.02l2.09-1.05
						l1.94-1.33l2.01-1.23l2.09-1.05l1.75-1.2l1.57-1.65l0.68-2.17l0.71-2.3l-0.13-2.41l0.05-2.38l0.86-2.28l-0.55-2.46l0.6-2.33
						l0.03-2.41l1.05-2.25l-0.08-2.41l0.16-2.38l0.08-2.38l1.1-2.25l-0.18-2.43l0.29-2.35l1.12-2.25l-0.18-2.41v-2.41l0.13-2.38
						l1.15-2.25l-0.37-2.46l0.52-2.33l0.73-2.3l-0.1-2.41l0.68-2.3l0.08-2.41l0.42-2.35l0.24-2.38l0.6-2.35l0.84-1.6l1.15-1.52
						l1.88-0.71l2.25,0.16l2.25,0.5l2.25-0.68l1.86-0.42l2.01,0.55l1.67-0.31l1.86-0.08l2.33,0.78l2.33-0.42l2.33,0.34l2.3-0.1
						l2.3,0.26l2.3-0.05l2.33-0.63l2.33-0.16l2.33,0.24l2.33,0.63l2.33-0.13l2.33-0.1l2.33,0.05l2.33-0.78l2.33-0.05l2.33,0.5
						l2.33,0.5l2.3-0.16l2.3,0.18l2.3-1.07l2.33,0.18l2.33-0.03l2.33,0.21l2.33,0.65l2.33-0.84l2.33,0.13l2.33,0.73l2.33-0.08
						l2.33-0.71l2.33,0.31l2.33,0.47l1.46,0.52l-0.55,1.46l-1.41,2.01l-1.46,1.99l-1.12,2.28l-1.62,1.86l-2.22,1.39l-1.6,1.49
						l-1.86,1.39l-2.3,0.26l-2.41,0.16l-2.41-0.31l-2.41,0.65l-2.41-0.03l-2.41-0.05h-2.41l-2.41-0.65l-2.41,0.16l-2.41,0.52
						l-2.43,0.05l-2.41-0.86l-2.41,0.5l-2.41-0.37l-2.43-0.21l-2.43,0.13l-2.43,0.39l-2.43-0.26l-1.49,0.86l0.6,1.52l1.67,1.54
						l1.73,1.49l1.7,1.57l1.8,1.41l1.65,1.6l2.12,1.05l1.33,1.99l1.91,1.28l2.22,0.89l1.67,1.6l1.46,1.86l1.54,1.75l2.09,1.1
						l1.8,2.51l-0.94,3.11l-2.22,1.23l-1.36,1.94l-1.62,1.73l-1.62,1.73l-1.23,2.04l-1.86,1.54l-1.02,2.2l-1.52,1.8l-1.44,1.88
						l-1.78,1.62l-1.7,1.67l-1.2,2.12l-2.2,0.97l-2.38,0.34l-2.41-0.55l-2.41,0.42l-2.41-0.24l-2.41-0.08l-2.41-0.24l-2.41,0.05
						h-2.41l-2.41,0.29l-2.41,0.47l-2.41,0.05l-2.82,0.34l-0.29,2.85l0.34,2.62l-0.65,2.69l0.24,2.62l1.1,1.75l1.1,1.78l2.09-0.34
						l2.54,0.16l2.54,0.89l2.56-0.39l2.56,0.37l2.46-0.89l2.48,0.81l2.46-0.81l2.3,0.31l2.3-0.42l2.3,0.78l2.3,0.16l2.3-0.55
						l2.3,0.29l2.3-0.26l2.3,0.52l2.3-0.26l2.3,0.1l2.33-0.42l2.3-0.26l2.3,0.58h2.3l2.33-0.52l2.33,0.58l2.33-0.65l2.33-0.08
						l2.28,0.13l2.25-0.73l1.54-1.8l1.49-1.88l1.96-1.49l1.62-1.78l0.86-2.41l1.57-1.83l1.8-1.65l2.51-0.89l2.62,0.44l1.6,1.73
						l2.01,1.2l1.54,1.78l1.88,1.39l1.96,1.31l1.65,1.67l1.62,1.73l2.17,1.05l1.86,1.52l2.25,0.86l2.41-0.31l2.28,0.86l2.28-0.16
						l2.3,0.24l2.3-0.84l2.3,0.44l2.3-0.71l2.46,0.42l2.48,0.5l2.46-0.37l2.22,0.47l2.22-0.81l2.22,0.31l2.22,0.03l2.22,0.39
						l2.22-0.31l2.22,0.37l2.25-0.58l2.25-0.21l2.2-1.05l1.49-2.33l-0.94-2.56l0.55-2.69L315.13,301.57z M112.33,214.24l-0.76,1.94
						l-1.57,1.36l-2.01-0.16l-2.3,0.92l-2.3,0.1l-2.3-0.18l-2.3-0.16l-2.3-0.65l-2.3,1.05l-2.3-1.07l-2.3,0.86l-2.3-0.5l-2.3,0.68
						h-2.3l-2.33-0.84l-2.3,0.44l-2.3-0.21l-2.33-0.47l-2.3,0.63l-2.3,0.18l-2.3-0.21l-2.33-0.05l-2.33-0.16l-2.33,0.31l-2.33-0.08
						l-2.72-0.97l-0.24-2.77l0.44-2.35l-0.13-2.43l0.34-2.38l0.81-2.3l-0.55-2.48l1.05-2.28l-0.18-2.43l0.73-2.3l0.21-2.38
						l0.31-2.35l0.24-2.38l0.39-2.35l0.16-2.38l0.39-2.35l0.71-2.33l0.1-2.41l0.21-2.38l0.34-2.38l-0.34-2.46l0.78-2.33l-0.1-2.46
						l0.76-2.07l1.94-0.97l1.88-0.71l2.3,0.55l2.3-0.78l2.3,0.52l2.3,0.18l2.3-0.65l2.3,0.31l2.3,0.13l2.3-0.08l2.3,0.03l2.3,0.44
						l2.3-0.03l2.33-0.03l2.3-0.37h2.3l2.33-0.39l2.3,0.42l2.3-0.55l2.3,0.73l2.33-0.76l2.33-0.08l2.33,0.34l2.33-0.39l2.85,1.31
						l0.34,2.9l-0.1,2.38l-0.63,2.33l-0.1,2.41l-0.44,2.35l-0.39,2.35l-0.21,2.38l-0.6,2.33l0.08,2.41l-0.71,2.3l-0.18,2.38
						l0.21,2.43l-0.29,2.38l-0.94,2.28l0.34,2.46l-0.63,2.33l-0.34,2.38l-0.65,2.33l0.03,2.43l0.05,2.43l-0.34,2.38L112.33,214.24z"
						/>
				</g>
				<g>
					<polygon class="st1" points="99.39,272.78 98.91,275.1 98.26,277.35 98.29,279.76 97.45,281.96 96.72,284.26 94.7,285.75 
						93.68,287.89 91.8,289.33 90.55,291.4 88.56,292.65 86.67,294.09 84.53,295.11 82.31,295.95 80.01,296.55 77.55,295.98 
						75.27,297.1 73,295.95 70.64,296.03 68.24,295.95 66.27,294.51 63.89,294.07 61.99,292.65 59.92,291.48 58.53,289.52 
						56.81,287.92 55.89,285.72 53.88,284.23 53.15,281.96 52.83,279.58 52.02,277.41 51.81,275.08 51.73,272.78 51.68,270.45 
						52.05,268.15 52.05,265.74 53.49,263.75 54.64,261.74 55.55,259.6 56.7,257.56 58.51,256.01 60.23,254.44 62.09,253.03 
						64.23,252.12 66.12,250.7 68.37,250 70.59,249.29 72.97,249.4 75.27,249.45 77.6,249.06 79.9,249.58 82.02,250.52 
						84.45,250.62 86.41,251.93 88.35,253.24 90.23,254.55 91.91,256.14 93.37,257.92 95.12,259.52 96.43,261.48 97.03,263.78 
						97.76,265.95 99.15,268.02 99.28,270.42 					"/>
				</g>
			</g>
			<g>
				<polygon class="st0" points="133.44,189.63 131.63,190.31 129.23,190.18 126.9,190.6 124.62,191.2 122.35,191.96 119.99,192.2 
					117.54,191.88 115.31,192.82 113.06,193.56 110.71,193.95 108.36,194.37 106.37,195.83 104.09,196.51 102.16,197.9 
					100.3,199.34 98.42,200.75 96.74,202.37 95.23,204.15 94.34,206.35 92.48,207.99 91.98,210.35 91.36,212.62 90.75,214.87 
					89.29,216.91 89.05,219.27 88.03,221.46 88.09,223.87 87.28,226.12 87.22,228.5 86.99,230.85 85.92,233.05 85.81,235.43 
					85.76,238.07 85.47,235.48 85.11,233.13 84.53,230.83 83.77,228.58 84.22,226.09 83.75,223.79 83.2,221.49 82.83,219.13 
					81.68,216.99 81.65,214.53 80.79,212.31 79.33,210.35 78.49,208.18 77.6,205.98 76.58,203.81 74.36,202.58 73.41,200.2 
					71.32,199 69.44,197.58 67.06,197.06 64.97,196.07 63.08,194.37 60.52,194.6 58.38,193.61 56.21,192.59 53.83,192.43 
					51.58,191.67 49.2,191.59 47,190.55 44.59,190.55 42.29,190.08 39.91,189.95 37.82,189.63 39.83,188.9 42.29,189.29 
					44.59,188.64 46.82,187.72 49.27,188.06 51.55,187.31 53.88,186.94 56.21,186.52 58.32,185.29 60.86,185.55 62.9,184.25 
					65.36,184.04 67.29,182.55 69.54,181.71 71.17,179.93 73.05,178.52 74.64,176.82 75.98,174.93 78.07,173.47 78.8,171.17 
					79.46,168.92 80.63,166.83 81,164.47 82.07,162.35 82.18,159.95 83.48,157.83 83.04,155.35 83.8,153.1 83.8,150.72 
					84.69,148.47 84.56,146.06 84.95,143.73 85.73,141.17 86.33,143.76 86.13,146.17 86.91,148.44 86.67,150.87 87.12,153.2 
					87.75,155.5 88.37,157.78 89.47,159.95 89.94,162.25 90.52,164.53 91.41,166.7 91.62,169.15 92.79,171.22 94.39,173 
					95.46,175.07 96.95,176.87 98.71,178.39 100.09,180.37 102.39,181.13 104.49,182.13 106.26,183.85 108.57,184.45 110.79,185.24 
					113.19,185.42 115.23,186.89 117.59,187.2 120.05,186.97 122.3,187.62 124.65,187.91 126.9,188.64 129.2,189.32 131.61,189.06 
									"/>
			</g>
		</g>
	</g>
	<g>
		<g>
			<g>
				<g>
					<polygon class="st2" points="406.09,71.39 407.58,72.91 407.06,75.21 406.22,77.48 406.33,79.86 405.68,82.17 405.6,84.52 
						405.02,86.85 405.28,89.28 404.73,91.58 404.18,93.91 402.69,95.64 400.52,95.43 398.33,95.53 396.16,95.27 393.96,95.58 
						391.79,95.19 389.59,94.88 387.39,95.27 386.03,93.88 386.69,91.61 387.29,89.31 387.13,86.9 387.32,84.55 388.05,82.27 
						388.13,79.89 388.88,77.59 389.09,75.24 389.17,72.83 390.79,71.36 392.99,71.78 395.16,71.44 397.33,71.7 399.53,71.81 
						401.7,71.89 403.9,71.29 					"/>
				</g>
				<g>
					<polygon class="st2" points="381.43,81.51 382.74,83.24 381.88,85.44 382.06,87.82 381.93,90.14 381.51,92.44 380.7,94.69 
						380.86,97.05 380.59,99.38 380.04,101.62 379.63,103.93 378.92,106.2 378.82,108.56 378.79,110.91 377.06,112.4 374.87,112.24 
						372.7,112.24 370.52,112.16 368.33,112.09 366.13,111.96 363.93,111.93 361.74,112.09 360.77,110.91 361.03,108.61 
						361.48,106.31 361.84,104 362.26,101.73 362.6,99.43 362.7,97.07 362.68,94.72 363.28,92.47 363.41,90.14 364.06,87.87 
						364.48,85.57 364.33,83.16 366.1,81.56 368.3,82.06 370.47,81.88 372.64,81.9 374.84,81.85 377.04,81.72 379.18,81.54 					"/>
				</g>
				<g>
					<polygon class="st2" points="400.71,75.89 399.35,77.51 396.99,77.35 394.64,77.2 392.28,77.54 389.93,77.56 387.58,77.54 
						385.22,77.33 382.87,77.54 380.52,76.99 378.16,76.86 375.81,77.48 373.45,76.96 371.1,77.59 368.75,76.99 366.37,77.07 
						364.01,77.41 361.66,77.35 359.3,77.17 356.92,77.46 354.57,77.07 352.19,77.17 349.81,77.12 347.43,77.35 345.78,75.94 
						346.07,72.86 347.09,71.42 349.42,71.55 351.72,71.29 354.05,71.5 356.38,71.39 358.7,71.55 361,71.65 363.33,71.78 
						365.66,71.65 367.96,71.6 370.26,71.89 372.59,71.65 374.92,71.31 377.22,71.18 379.55,71.18 381.88,71.89 384.2,71.23 
						386.53,71.29 388.83,71.81 391.19,71.81 393.51,71.84 395.84,71.6 398.2,71.63 400.13,72.75 					"/>
				</g>
			</g>
			<g>
				<g>
					<polygon class="st2" points="920.23,71.91 921.75,72.91 920.75,75.13 920.78,77.54 920.39,79.86 920.07,82.19 919.42,84.49 
						919.68,86.9 919.39,89.25 918.43,91.53 918.03,93.88 916.83,95.61 914.66,95.11 912.46,95.19 910.29,95.11 908.09,95.27 
						905.92,95.43 903.73,95.24 901.53,95.03 900.12,93.88 900.77,91.61 901.11,89.25 901.37,86.9 901.43,84.55 901.74,82.19 
						902.34,79.89 902.73,77.56 902.81,75.16 903.67,72.88 904.93,71.36 907.13,71.57 909.3,71.39 911.47,71.23 913.67,71.26 
						915.86,71.26 918.06,71.26 					"/>
				</g>
				<g>
					<polygon class="st2" points="895.57,81.93 896.93,83.24 896.14,85.46 895.88,87.79 895.57,90.09 895.7,92.44 895.04,94.72 
						894.49,96.97 894.08,99.27 894.21,101.62 894.05,103.98 893.47,106.25 892.85,108.53 892.56,110.86 891.2,112.32 889,111.96 
						886.83,112.5 884.66,112.22 882.46,112.09 880.27,111.88 878.07,112.43 875.87,112.3 874.85,110.91 875.06,108.58 
						875.61,106.31 875.56,103.95 876.08,101.68 876.61,99.4 877.1,97.13 876.74,94.72 877.34,92.47 877.78,90.17 878.25,87.87 
						878.75,85.57 878.51,83.16 880.24,82.01 882.44,81.8 884.61,81.62 886.78,81.93 888.98,81.54 891.17,82.27 893.37,81.54 					
						"/>
				</g>
				<g>
					<polygon class="st2" points="914.27,75.99 913.48,77.07 911.13,77.25 908.77,77.51 906.42,77.01 904.07,77.3 901.71,77.54 
						899.36,77.38 897.01,77.54 894.65,77.51 892.3,77.3 889.94,77.33 887.59,77.62 885.24,76.99 882.88,77.54 880.5,77.04 
						878.15,77.51 875.79,76.91 873.44,77.3 871.06,77.09 868.71,77.3 866.33,77.46 863.95,77.17 861.57,77.43 859.79,75.94 
						859.68,72.88 861.23,71.16 863.55,71.21 865.86,71.6 868.18,71.84 870.51,71.36 872.84,71.5 875.14,71.76 877.47,71.91 
						879.8,71.6 882.1,71.78 884.4,71.78 886.73,71.76 889.05,71.5 891.36,71.89 893.68,71.16 896.01,71.57 898.34,71.68 
						900.67,71.44 902.97,71.44 905.32,71.52 907.65,71.52 909.98,71.21 912.33,71.44 913.87,72.86 					"/>
				</g>
			</g>
			<g>
				<g>
					<polygon class="st2" points="661.88,92.18 660.81,93.49 658.43,93.2 656.05,93.6 653.67,93.46 651.29,93.54 648.93,93.31 
						646.55,93.2 644.17,93.62 641.79,93.15 639.39,93.41 637.01,93.46 634.63,93.23 632.25,93.75 629.87,93.6 627.46,93.6 
						625.08,93.6 622.68,93.36 620.27,93.67 618.88,92.16 618.1,89.1 619.09,87.97 621.39,88.16 623.7,87.74 626,87.45 
						628.27,87.92 630.57,87.45 632.85,88.08 635.15,88.1 637.45,87.92 639.75,88.1 642.03,87.89 644.33,87.89 646.63,87.84 
						648.93,87.74 651.24,87.87 653.54,87.84 655.84,87.87 658.17,88.13 660.47,88.08 661.59,89.12 					"/>
				</g>
				<g>
					<polygon class="st2" points="634.73,71.26 636.14,72.88 635.2,75.18 635.02,77.56 635.15,80 634.5,82.32 633.97,84.68 
						634.03,87.11 633.9,89.52 632.88,91.79 632.9,94.22 632.8,96.63 632.22,98.96 632.12,101.36 631.65,103.74 631.25,106.12 
						630.44,108.45 630.21,110.86 628.87,111.98 626.7,112.11 624.53,112.01 622.36,112.43 620.16,112.11 617.97,112.09 
						615.77,112.01 613.57,112.09 612.42,110.88 612.5,108.48 613.36,106.18 613.1,103.72 613.97,101.42 614.07,99.04 614.62,96.68 
						614.99,94.3 614.88,91.87 615.14,89.49 616.06,87.19 616.37,84.81 616.5,82.4 617.08,80.05 617.16,77.64 617.21,75.21 
						617.92,72.86 619.43,71.31 621.6,71.89 623.8,71.5 625.97,71.65 628.17,71.86 630.34,71.7 632.54,71.55 					"/>
				</g>
			</g>
			<g>
				<g>
					<polygon class="st2" points="776.7,79.73 775.55,81.04 773.17,81.38 770.76,81.17 769.69,79.71 769.5,77.38 769.43,75.05 
						768.8,72.72 770.18,71.57 772.59,71.23 774.97,71.23 776.78,72.7 776.72,75.05 776.8,77.38 					"/>
				</g>
				<g>
					<polygon class="st2" points="789.25,79.71 787.68,80.96 785.28,81.04 782.9,81.41 781.74,79.71 781.22,77.41 781.06,75.08 
						781.33,72.7 782.32,71.55 784.7,71.02 787.11,71.47 788.41,72.72 788.26,75.08 788.75,77.41 					"/>
				</g>
				<g>
					<polygon class="st2" points="787.34,92.18 786.16,93.15 783.78,93.49 781.4,93.57 779.02,93.75 776.64,93.18 774.26,93.39 
						771.91,93.49 769.5,93.2 767.12,93.44 764.74,93.83 762.36,93.12 759.98,93.57 757.6,93.75 755.22,93.83 752.82,93.7 
						750.44,93.65 748.03,93.33 745.63,93.7 743.95,92.21 743.17,89.15 744.45,87.84 746.75,87.48 749.05,87.89 751.33,87.74 
						753.63,87.79 755.93,87.95 758.21,87.48 760.51,87.58 762.81,88.18 765.08,87.4 767.39,87.87 769.69,88 771.99,87.42 
						774.29,88 776.59,88.08 778.89,87.68 781.2,87.89 783.52,87.95 785.82,88.1 787.55,89.12 					"/>
				</g>
				<g>
					<polygon class="st2" points="760.09,71.52 760.9,72.8 760.9,75.24 760.66,77.62 760.09,79.94 759.88,82.32 759.49,84.7 
						759.25,87.08 758.78,89.44 758.26,91.79 758.13,94.2 758.05,96.6 757.24,98.93 757.24,101.34 757.11,103.74 756.11,106.04 
						755.77,108.42 755.59,110.86 754.23,112.22 752.06,112.43 749.89,111.9 747.69,112.14 745.52,112.58 743.32,112.58 
						741.13,112.09 738.93,111.82 737.67,110.86 738.25,108.53 738.46,106.12 738.88,103.77 739.19,101.42 739.27,99.01 
						739.9,96.66 740.24,94.3 740.37,91.9 741.23,89.59 740.92,87.11 741.91,84.83 742.09,82.45 742.3,80.05 742.51,77.64 
						742.64,75.21 743.27,72.86 744.79,71.57 746.96,71.31 749.16,71.16 751.33,71.26 753.5,71.76 755.7,71.6 757.89,71.89 					"/>
				</g>
			</g>
			<g>
				<g>
					<polygon class="st2" points="493.13,71.16 494.49,72.88 494.1,75.37 493.74,77.85 493.4,80.36 492.48,82.77 492.43,85.33 
						491.98,87.82 490.6,89.31 488.4,89.23 486.23,88.97 484.06,89.36 481.86,88.89 479.69,89.41 477.49,89.44 475.3,89.54 
						474.51,87.89 474.46,85.33 474.54,82.82 475.56,80.41 475.38,77.82 475.74,75.34 476.53,72.88 477.83,71.42 480.01,71.23 
						482.18,71.29 484.37,71.63 486.54,71.76 488.74,71.52 490.96,71.86 					"/>
				</g>
				<g>
					<polygon class="st2" points="513.46,66.68 514.89,68.3 514.21,70.27 514.06,72.31 512.49,73.69 510.29,73.35 508.12,73.72 
						505.95,73.22 503.75,73.61 501.56,73.38 499.36,73.64 497.16,73.9 496.27,72.33 495.99,70.24 496.51,68.23 498.13,66.84 
						500.33,66.58 502.5,66.63 504.67,66.63 506.87,66.68 509.06,66.55 511.23,66.71 					"/>
				</g>
				<g>
					<polygon class="st2" points="533.49,71.16 534.88,72.88 534.07,75.21 533.7,77.56 533.23,79.92 533.59,82.38 532.86,84.68 
						532.42,87.06 531.92,89.41 531.97,91.84 531.32,94.17 531.29,96.58 530.59,98.9 530.61,101.34 529.96,103.66 529.96,106.1 
						529.41,108.48 529.28,110.91 527.63,112.16 525.43,111.98 523.26,112.22 521.09,112.09 518.9,112.32 516.7,112.43 
						514.5,112.56 512.31,112.48 510.87,110.83 511.7,108.53 511.76,106.12 512.44,103.8 512.83,101.44 512.88,99.04 512.83,96.6 
						513.51,94.28 513.53,91.87 514.61,89.59 514.84,87.19 515.1,84.81 515.6,82.45 515.63,80.02 516.1,77.67 515.91,75.18 
						516.25,72.8 518.16,71.44 520.36,71.42 522.53,71.89 524.7,71.34 526.9,71.26 529.1,71.29 531.27,71.23 					"/>
				</g>
				<g>
					<polygon class="st2" points="527.63,75.97 526.74,77.64 524.34,77.51 521.96,76.88 519.58,77.62 517.2,77.48 514.82,77.12 
						512.44,77.22 510.06,77.07 507.68,76.94 505.3,76.91 502.92,77.14 500.54,77.46 498.16,77.09 495.75,77.22 493.37,77.17 
						490.99,77.33 488.58,77.14 486.2,77.04 483.8,77.04 481.39,77.33 478.99,77.07 477.6,75.92 476.71,72.86 477.83,71.52 
						480.21,71.6 482.59,71.31 484.97,71.47 487.35,71.6 489.73,71.7 492.14,71.73 494.49,71.63 496.87,71.36 499.25,71.18 
						501.63,71.73 504.04,71.21 506.42,71.65 508.8,71.78 511.18,71.39 513.59,71.6 515.97,71.84 518.35,71.6 520.75,71.86 
						523.16,71.55 525.57,71.44 526.82,72.91 					"/>
				</g>
				<g>
					<polygon class="st2" points="528.86,110.86 527.63,112.53 525.36,112.56 523.08,112.19 520.83,112.4 518.56,112.58 
						516.28,112.43 514.01,112.35 511.73,112.53 509.45,112.16 507.18,112.37 504.9,112.43 502.63,111.93 500.33,112.58 
						498.03,111.85 495.75,111.93 494.44,110.86 493.76,107.85 495.41,106.75 497.76,106.72 500.14,106.65 502.55,106.54 
						504.93,106.12 507.31,106.52 509.69,106.31 512.1,106.41 514.48,106.15 516.86,106.33 519.24,106.12 521.64,106.38 
						524.05,106.83 526.45,106.59 527.89,107.82 					"/>
				</g>
			</g>
		</g>
	</g>
</g>
</svg>
