<?xml version="1.0" encoding="utf-8"?>
<!-- Generator: Adobe Illustrator 25.4.6, SVG Export Plug-In . SVG Version: 6.00 Build 0)  -->
<svg version="1.1" id="レイヤー_1" xmlns="http://www.w3.org/2000/svg" xmlns:xlink="http://www.w3.org/1999/xlink" x="0px"
	 y="0px" viewBox="0 0 1200 333" style="enable-background:new 0 0 1200 333;" xml:space="preserve">
<style type="text/css">
	.st0{fill:#FFFFFF;}
	.st1{fill:#C9B54F;}
	.st2{fill:#2D2D2D;}
</style>
<rect x="-86.3" y="-79.5" class="st0" width="1372.6" height="491.9"/>
<g>
	<g>
		<polygon class="st1" points="423.4,84.7 423.3,81.8 422.7,79.1 422,76.4 421.4,73.7 420.2,71.7 419.4,69.6 418.9,67.3 418.5,65 
			417.2,63 417.2,60.7 416.4,58.4 416.4,56.1 416.9,53.8 417.4,51.5 417.4,49.1 416.9,46.8 416.8,44.4 415.9,42.2 414.9,40 
			414.2,37.8 412.8,35.8 411.8,33.7 410.5,31.8 409.1,29.8 407.5,28.1 405.7,26.8 405.7,29 406,31.4 406.2,33.7 405.8,36.1 
			405.9,38.5 405.8,40.9 404.8,43.1 403.7,45.2 402.4,46.9 402.2,44.7 402.5,42.3 402.6,39.9 402.2,37.5 402.4,35.1 401.6,32.8 
			401.5,30.4 401,28 400.4,25.7 399.4,23.5 399.3,21 398.2,18.9 397,16.8 396,14.6 395.5,12.1 393.9,10.3 393.1,8 391.8,5.9 
			390.5,3.9 388.9,2.1 387.5,0.5 388,2.5 388.8,4.8 389.1,7.2 388.6,9.5 388.1,11.8 388.1,14.3 387.2,16.5 386.4,18.7 385.1,20.8 
			383.7,22.7 382.2,24.5 380.7,26.4 379.2,28.2 378,30.4 376.3,32.1 374,33.1 372.6,35.1 370.7,36.6 368.7,37.9 366.6,39 
			364.8,40.6 362.8,41.9 360.9,43.4 358.9,44.7 357,46 354.7,46.9 352.6,48 350.5,49.2 348.7,50.8 346.7,52.1 344.9,53.7 
			343.1,55.3 341.7,57.3 339.7,58.8 338.6,60.9 337.2,62.9 336,65 334.9,67.1 333.9,69.3 333.1,71.6 332,73.8 331.8,76.2 
			331.4,78.6 330.3,80.8 330.1,83.2 330.4,85.7 330.1,88.1 329.9,90.5 330.2,92.8 330.2,95.2 331,97.5 331.7,99.8 332,102.1 
			333.3,104.2 334,106.4 334.9,108.7 336.1,110.7 337.2,112.7 338.3,114.9 340.1,116.5 341.5,118.4 343.2,120 344.4,122.2 
			346.2,123.7 348.4,124.8 349.9,126.7 352,127.9 354.2,128.8 356.4,129.8 358.5,130.7 360.5,132.1 362.9,132.3 365.1,133.4 
			367.4,133.6 369.7,134.2 372.1,134.8 374.4,135 376.8,134.5 379.2,134.4 381.6,134.8 383.9,134.4 386.2,133.6 388.5,133.4 
			390.9,132.8 393.1,132 395.3,131.2 397.3,129.8 399.5,128.8 401.6,127.8 403.7,126.7 405.6,125.2 407.2,123.5 409.1,122.1 
			410.6,120.1 412.3,118.6 413.7,116.6 415.1,114.7 416.4,112.8 417.6,110.7 419,108.8 419.5,106.4 420.8,104.4 421.3,102 
			421.9,99.7 422.6,97.5 422.9,95.1 422.9,92.8 423.8,90.5 423.5,88.1 		"/>
	</g>
	<g>
		<polygon class="st1" points="551.4,84.7 551.1,81.9 551.1,79 550.1,76.4 549.1,73.8 548.8,71.5 548.1,69.3 547.2,67.3 546.3,65.1 
			545.7,62.9 545,60.7 544.8,58.4 544.9,56.1 544.7,53.8 545.3,51.5 545.2,49.1 545,46.8 545,44.4 544.2,42.2 543.3,40 542.2,37.9 
			541.3,35.7 540.2,33.6 538.3,32.1 536.8,30.2 535.3,28.4 533.7,26.5 534.3,29 534.5,31.4 534.5,33.7 534.3,36.1 534.3,38.5 
			533.7,40.8 532.8,43 531.6,45 530.3,47.4 530.7,44.7 530.6,42.3 531.1,39.9 530.5,37.5 530.7,35.1 530,32.8 529.4,30.4 
			528.8,28.1 528.9,25.6 528,23.4 527.4,21 526.6,18.8 525.7,16.5 524.4,14.5 523.1,12.4 522.3,10.1 521.2,8 520.1,5.8 518.3,4.2 
			517.1,2.1 515.5,0.1 516.2,2.5 516.7,4.8 517.2,7.2 516.9,9.5 516.8,11.9 516.2,14.2 515.1,16.4 514.6,18.8 513.5,20.9 512,22.8 
			510.3,24.5 509.3,26.8 507.5,28.3 505.9,30.1 504.3,31.9 502.6,33.6 500.8,35.2 499,36.7 496.7,37.7 495,39.3 493.2,40.9 
			491.1,42.2 489,43.3 487,44.5 485.1,46.1 483,47.2 480.9,48.1 478.6,49 477,50.9 474.8,52.1 472.9,53.5 471.6,55.6 469.4,56.9 
			468.5,59.2 466.9,61 465.6,63.1 464.3,65.1 463.4,67.3 462.3,69.4 461,71.5 460.1,73.8 459.9,76.2 459.4,78.6 459,80.9 
			458.1,83.2 458.6,85.7 458,88.1 458.1,90.5 458.3,92.8 458.5,95.2 459.3,97.5 460,99.7 460.5,102 461.2,104.3 462.2,106.4 
			462.9,108.8 464.4,110.6 465.1,112.9 466.5,114.9 468.1,116.6 469.9,118.3 471,120.4 473,121.7 474.5,123.6 476.5,124.9 
			478.4,126.3 480.1,128 482.2,129.1 484.5,129.8 486.5,131.1 488.9,131.6 491,132.6 493.2,133.6 495.6,133.5 498,133.9 
			500.3,134.4 502.6,134.6 505,134.8 507.3,134.5 509.7,134.4 512,134.1 514.3,133.6 516.8,133.6 518.9,132.5 521.3,132.2 
			523.5,131.2 525.6,130.2 527.7,129 529.7,127.7 531.7,126.4 533.8,125.2 535.2,123.2 537.4,122.2 538.8,120.2 540.5,118.6 
			541.7,116.5 543.3,114.8 544.8,112.9 545.5,110.6 547,108.7 548.2,106.6 548.5,104.2 549.8,102.2 550.2,99.8 550.7,97.5 
			551.1,95.1 551.6,92.8 552,90.5 551.5,88.1 		"/>
	</g>
	<g>
		<polygon class="st1" points="679.7,84.7 679.3,81.9 678.8,79.1 678.4,76.4 677.7,73.7 676.8,71.6 676.1,69.4 675,67.4 674.6,65.1 
			674.3,62.8 673.3,60.7 673.3,58.4 672.9,56.1 673.2,53.8 673.3,51.5 673.4,49.1 673.2,46.8 673.2,44.4 672.3,42.2 671.7,39.9 
			670.8,37.7 669.5,35.7 668.2,33.7 666.7,31.9 665.5,29.8 663.5,28.5 661.8,26.4 662.3,29 662.6,31.4 662.2,33.7 662.4,36.1 
			662.4,38.5 661.7,40.8 661.4,43.2 659.8,45 658.6,47.3 658.6,44.7 658.9,42.3 658.6,39.9 658.5,37.5 658.3,35.2 658.2,32.8 
			657.5,30.5 657.6,28 656.8,25.7 655.8,23.5 655.3,21.1 654.5,18.9 653.4,16.7 652.7,14.4 651.3,12.4 650.4,10.2 649.3,8.1 
			647.7,6.2 646.5,4.2 645.3,2 643.7,0.1 644.2,2.5 644.9,4.8 645.3,7.2 645.4,9.6 644.5,11.9 644.1,14.2 643.4,16.4 642.6,18.7 
			641.6,20.8 640.4,22.9 639,24.9 637.3,26.6 635.8,28.5 634.3,30.3 632.4,31.7 630.4,33.2 629,35.1 627.1,36.6 624.9,37.7 
			623.4,39.6 621.1,40.6 619.1,41.8 617.2,43.3 615.1,44.4 613.2,45.9 611,46.7 609,48.2 606.9,49.3 604.7,50.4 602.8,51.8 
			601.1,53.5 599.3,55.2 597.6,56.9 596.6,59.2 594.7,60.8 593.9,63.2 592.7,65.2 591.5,67.2 590.3,69.4 589.1,71.5 588.8,73.9 
			588.2,76.2 587.7,78.6 586.9,80.9 587,83.3 586.9,85.7 586.7,88.1 586.8,90.4 586.5,92.8 587.3,95.1 587,97.5 587.6,99.9 
			588.8,102 589.2,104.4 590.3,106.5 591.1,108.7 592.3,110.8 593.2,113 594.7,114.8 596.3,116.6 597.5,118.7 599.1,120.5 
			600.9,122 602.6,123.7 604.6,124.9 606.4,126.5 608.4,127.9 610.4,129 612.7,129.9 614.7,131.2 616.9,132 619.1,132.9 
			621.4,133.4 623.8,133.8 626.1,134 628.5,134.5 630.8,134.8 633.2,134.8 635.5,134.5 637.8,134.2 640.3,134.6 642.6,134 
			644.9,133.4 647.2,132.7 649.3,131.6 651.7,131.1 653.8,130.2 655.8,128.8 657.9,127.8 659.8,126.3 661.7,124.9 663.8,123.8 
			665.2,121.7 666.8,120.1 668.4,118.3 670.2,116.7 671.4,114.7 672.7,112.7 673.9,110.7 674.8,108.5 676,106.4 677.2,104.4 
			677.9,102.1 678.2,99.7 678.9,97.5 679.1,95.1 679.9,92.8 680.1,90.5 680,88.1 		"/>
	</g>
	<g>
		<polygon class="st1" points="808.1,84.7 807.4,81.9 806.8,79.1 806.8,76.3 805.4,73.8 804.9,71.6 804.1,69.5 803.8,67.2 803.1,65 
			802.5,62.8 801.7,60.7 801.3,58.4 801.1,56.1 801.4,53.8 801.8,51.5 801.8,49.1 801.7,46.8 800.8,44.5 800.7,42.1 799.6,40 
			798.3,38 797.7,35.7 796.5,33.6 795,31.8 793.5,29.9 791.9,28.2 790,26.4 790.6,29 791,31.4 790.8,33.7 790.7,36.1 790.5,38.5 
			789.7,40.7 789.2,43 788.4,45.3 786.9,47 787.3,44.7 787,42.3 787,39.9 787,37.5 787.1,35.1 786.2,32.8 785.9,30.4 785.6,28 
			784.6,25.8 784.2,23.5 783.6,21.1 782.6,18.9 781.6,16.7 780.7,14.5 780,12.2 778.4,10.3 777.2,8.2 776.4,5.9 774.9,4 773.6,2 
			771.8,0 772.7,2.5 772.8,4.8 773.1,7.2 773.2,9.5 773.1,11.9 772.2,14.2 771.7,16.5 770.5,18.5 769.4,20.6 768.1,22.6 767,24.7 
			765.7,26.8 763.9,28.3 762.5,30.4 760.3,31.5 758.6,33.2 756.8,34.6 755.4,36.7 753.3,38 751.2,39.1 749.3,40.6 747.4,42 
			745.4,43.3 743.2,44.2 741.2,45.5 739.2,46.8 737.3,48.3 735.3,49.6 733.2,50.8 731,51.9 729.4,53.7 727.5,55.2 725.9,57 
			724.5,59 722.9,60.8 721.6,62.9 720.3,64.8 719.5,67.2 718.3,69.3 717.9,71.7 717,73.9 716.3,76.2 715.7,78.5 715.5,80.9 
			715.3,83.3 715,85.7 714.3,88.1 714.9,90.4 714.7,92.8 715.1,95.2 715.3,97.5 716,99.8 716.5,102.2 717.9,104.2 718.5,106.4 
			719.2,108.7 720.5,110.8 721.9,112.7 723,114.7 724.5,116.6 725.9,118.5 727.4,120.3 729.2,121.9 730.8,123.7 732.8,125 
			734.6,126.5 736.7,127.5 738.7,128.9 740.9,129.7 743,130.8 745,132.1 747.3,132.8 749.5,133.6 751.9,134.2 754.2,134.4 
			756.6,134.3 759,134.5 761.3,134.4 763.7,135.1 766.1,134.7 768.4,134 770.7,133.6 773.1,133.5 775.3,132.6 777.7,132.2 
			779.8,131.1 782.1,130.3 783.9,128.6 786.2,127.9 787.9,126.3 789.9,124.9 791.6,123.3 793.3,121.7 795,120.1 797,118.7 
			798.4,116.7 799.5,114.7 801.1,112.9 802.4,110.9 803.4,108.7 804,106.4 805,104.2 805.6,101.9 806.5,99.8 807.2,97.5 807.6,95.2 
			808,92.8 808.2,90.5 808.1,88.1 		"/>
	</g>
	<g>
		<polygon class="st1" points="935.7,84.7 935.8,81.9 935.4,79.1 934.8,76.4 933.8,73.8 933.1,71.6 932.5,69.4 932,67.2 931.1,65.1 
			930.7,62.8 930.2,60.6 929.6,58.4 929.2,56.1 930,53.9 929.7,51.5 930.1,49.1 929.3,46.8 929.4,44.5 928.9,42.1 927.9,39.9 
			927,37.7 925.7,35.8 924.3,33.9 923.1,31.9 921.5,30.1 920.3,28 918.2,26.4 918.5,29 918.8,31.4 918.8,33.7 918.6,36.1 
			918.7,38.5 918.4,40.9 917.5,43.1 916.8,45.4 914.9,47.4 915.1,44.7 915.2,42.3 915.5,39.9 915.3,37.5 915,35.1 914.9,32.7 
			914.3,30.4 913.5,28.1 913.4,25.6 912.5,23.4 911.9,21 910.5,19 910.1,16.6 908.7,14.6 907.8,12.4 906.8,10.1 905.5,8.1 
			904.5,5.9 903.1,4 901.4,2.2 900.1,0.2 900.8,2.5 901.4,4.8 901.5,7.2 901.8,9.6 901.4,11.9 900.3,14.1 899.7,16.4 899,18.7 
			898,20.9 896.6,22.8 895.1,24.7 893.7,26.7 892,28.3 890.4,30.1 888.7,31.7 887.1,33.5 885.3,35.1 883.3,36.4 881.6,38.2 
			879.4,39.1 877.7,40.8 875.7,42.2 873.4,43.1 871.6,44.7 869.3,45.5 867.4,46.9 865.2,47.8 863.4,49.4 861.4,50.8 859.5,52.2 
			857.5,53.6 855.6,55.1 854.1,57.1 853,59.2 851,60.8 850.1,63 848.5,64.9 847.3,67 846.3,69.2 845.6,71.5 845,73.9 844.6,76.3 
			843.8,78.5 843.7,80.9 843,83.3 842.8,85.7 842.9,88.1 842.8,90.5 843.4,92.8 843,95.2 843.5,97.5 844.2,99.8 845.2,102 
			845.3,104.4 846.3,106.6 847.8,108.6 848.9,110.7 849.7,112.9 850.9,115 852.8,116.5 854.1,118.5 855.8,120.1 857.5,121.8 
			859,123.7 861.1,124.8 863,126.3 864.9,127.5 866.9,128.9 869,129.9 871.2,130.7 873.2,132 875.6,132.4 877.8,133.5 880.2,133.5 
			882.4,134.3 884.8,134.3 887.2,134.8 889.5,134.9 891.9,134.9 894.2,134.5 896.7,134.6 899,134.2 901.3,133.6 903.4,132.4 
			905.8,132 908,131.1 910,129.7 912.2,129 914.3,127.9 916.2,126.4 918.1,125 919.9,123.4 921.6,121.8 923.4,120.3 924.9,118.4 
			926.5,116.7 928,114.9 928.9,112.6 930.5,110.8 931.5,108.7 932.1,106.4 933.5,104.4 934.2,102.1 934.8,99.8 935.3,97.5 
			935.6,95.1 935.7,92.8 935.8,90.4 936,88.1 		"/>
	</g>
	<g>
		<g>
			<g>
				<path class="st2" d="M572.8,241.7l-2,0.6l-1.9-0.2l-2.3-0.7l-2.3,0.5l-2.3,0l-2.3-0.2l-2.3,0.2l-2.3,0.3l-2.3-0.4l-2.3-0.6
					l-2.3,0.6l-2.3-0.6l-2.3,0.2l-2.3,0.5l-2.3-0.6l-2.3,0.8l-2.3-0.4l-2.3,0.2l-2.3-0.2l-2.3-0.1l-2.3,0.3l-2.3-0.4l-2.3,0.4
					l-2.3-0.6l-2.3,0.3l-2.3-0.4l-2.4,0.4l-2.4-0.1l-2.4-0.5l-2.4,0.6l-2.4-0.5l-2.4,0l-2.4,0.2l-2.4,0.7l-2.4-0.4L489,242l-2.4-0.2
					l-2.4-0.8l-2.4,0.5l-2.4-0.4l-2.4-0.2l-2.4,0.3l-2.4-0.1l-2.4,0.1l-2.4,0.2l-2.4,0l-2.4,0.1l-2.4-0.6l-2.4,0.7l-2.4,0.1
					l-2.4-0.2l-2.4,0.3l-2.2-1.3v-2.5l1.2-1.9l1.9-1.3l2.3,0.1l2.3,0.2l2.3-0.5l2.3,0.6h2.3l2.3-0.1l2.3-0.6l2.3-0.2l2.3,1l2.3-0.7
					l2.3,0.4l2.3-0.4l2.3,0l2.3,0.3l2.3,0.3l2.3-0.3l2.3-0.6l2.4,0.2l2.3-0.2l2.3,1l2.3-0.5l2.3-0.5l2.3,1.1l2.3-0.3l2.3-0.6l2.3,0
					l2.3,0.5l2.3,0l2.3,0.1l2.3,0.1l2.3,0.1h2.3l2.3-0.1l2.3,0l2.3,0.4l2.3-0.2l2.3-0.2l2.3-0.2l2.3,0.2l2.3,0.1l2.3,0.4l2.3-0.9
					l2.3,0.9l2.3-0.9h2.3l2.3-0.1l2.3,1l2.3-0.7l2.3,0.5l2.3,0.2l2.3-0.8l2.3,0.8l2.3-0.7l2.3,0l2.3,0.6l2.3-0.6l2.3,0.2l2.1-1.4
					l1.2-2.2l-0.4-2.1l0.1-2.1l-0.4-1.9l-1.7-0.9l-1.7-0.8l-2.3,0.1l-2.3,0.3l-2.3-0.3l-2.3,0l-2.3,0.2l-2.3-0.5l-2.3,0l-2.3-0.4
					l-2.3,0.4l-2.3,0l-2.3-0.3l-2.3,0.7l-2.3,0l-2.3,0l-2.3-0.8l-2.3,0.2l-2.3,0.2l-2.3-0.2l-2.3-0.1l-2.3,0.3l-2.3-0.1l-2.3,0.6
					l-2.3-0.3l-2.3-0.1l-2.3,0.3l-2.3-0.5l-2.3,0l-2.3,0.9l-2.3-0.5l-2.3-0.3l-2.4,0l-2.4,0.5l-2.4-0.1l-2.4,0.5l-2.4-0.8l-2.4,0.2
					l-2.4,0.2l-2.4-0.6l-2.4,0.3l-2.4-0.2l-2.4,0.3l-2.4-0.2l-2.4-0.2l-2.4,1.1l-2.4-0.7l-2.4,0.2l-2.4,0.1l-2.4,0.2l-2.4-0.1
					l-2.4,0.1l-2.4-0.2l-2.4,0.3l-2.4-0.2l-2.2-0.7l0.1-1.9l-0.8-2.1l-2-0.5l-2.4-0.6l-2.4,0l-2.4,0.8l-2.4-0.2l-2.4-0.1l-2.4,0.1
					l-2.4-0.5l-2.4,0.4l-2.4-0.5l-2.4,0.8l-2.4,0.1l-2.4-0.1l-3,0.1l-2.3,2.1l-1.7,2.2l-2.9,0.5l-2.3-0.2l-2.3,0.5l-2.3-0.6l-2.3,0
					l-2.3,0.3l-2.3-0.2l-2.3-0.1l-2.3,0.9l-2.3-0.1l-2.3-0.2l-2.3-0.4l-2.3,0.3l-2.3,0.1l-2.3,0.1l-2.3-0.8l-2.3,0.9L377,224
					l-2.3-0.8l-2.3-0.3l-2.5,1.6l-0.6,2.6v2.1l0.2,2.1l0.2,2l1.6,1.2l1.9,0.3l2.4,0l2.4,0.5l2.3-0.4l2.3,0l2.4,0.2l2.4,0.2l2.4-0.5
					l2.4,0.1l2.4,0.2l2.4,0.1l2.4,0.5l2.4-0.2l2.4-0.4l2.4-0.2l2.4,0.6l2.4-0.6l2.1,1.3l0.4,2.5l-1.6,1.8l-1.1,2.1l-0.4,2.4
					l-1.5,1.9l-0.5,2.3l-1,2.1l-1.6,1.8l-0.9,2.2l-0.4,2.4l-1.4,1.9l-0.9,2.1l-0.9,2.1l-1.1,2.1l-1,2.1l-0.9,2.1l-1.4,1.9l-0.5,2.4
					l-1.4,1.9l-1.1,2l-0.8,2.2l-1,2.1l-0.9,2.1l-1.3,2l-1.1,2l-0.6,2.3l-0.8,2.2l-1.6,1.8l-1.2,2l-0.3,2.5l-1.8,1.7l-0.8,2.2
					l-0.8,2.2l-1.4,1.9l-0.1,2.6l-0.8,2.3l2.5,0.7l2.4-0.2l2.4,0.6l2.4-0.4l2.4-0.4l2.4,0.4l2.4,0l2.4,0.6l2.4-0.9l2.4,0.9l2.4-0.1
					l2.4-0.2l2.4,0.3l1.9-1.4l2.2-0.5l1.1-2l1.3-2l0.5-2.4l0.9-2.2l1.5-1.9l1.3-2l0.1-2.6l1.7-1.8l1.1-2.1l0.2-2.5l1.4-2l0.8-2.2
					l1.7-1.8l0.7-2.3l1.1-2.1l0.8-2.3l1.6,0.5l-0.1,2.4l-0.4,2.4l-0.8,2.4l-0.5,2.4l0,2.5l-0.3,2.4v2.5l-0.5,2.4l-0.2,2.4l-0.9,2.3
					l0.2,2.5l-0.1,2.5l-1.1,2.3l0.8,2.9l2.7,1.1l2.4,0.2l2.4-0.2l2.4-0.2l2.4-0.4l2.4,0.5l2.4,0.3l2.4-0.1l2.4-0.4l2.4,0.5l2.4-0.6
					l2.4,0l2.4,0.6l1.9-0.8l2.2,0.3l1.5-0.4l1.9,0.3l2.4-0.3h2.4l2.3,0l2.3,0.6l2.4-0.2l2.4,0.5l2.4-0.3l2.4,0.2l2.4,0.1l2.3-0.7
					l2.4,0.3l2.4,0.2l2.4,0.2l2.4,0.2l2.4-0.9l2.4,0.9l2.4-0.2l2.4-0.8l2.4,0.1l2.4,0.2l2.3,0l2.3,0.5l2.3,0.2l2.3-0.5l2.3,0.1
					l2.3,0l2.3-0.3l2.3,0l2.3-0.1l2.3,0.9l2.4,0l2.3-0.5l2.4-0.3l2.3-0.7l2.3-0.6l2.3-0.4l2.1-1.3l2.3-0.7l2.4-0.5l1.9-1.6l2.1-1.2
					l2.4-0.5l1.9-1.5l2-1.3l2-1.3l1.5-1.9l1.7-1.7l0.9-2.2l1.3-2l0.5-2.3l0.8-2.2l-0.5-2.4l0.3-2.3l1-2.2l0.3-2.3l0.1-2.3l-0.1-2.3
					l1-2.2l0.1-2.3l-0.4-2.4l0.4-2.3l0.6-2.2l0.6-2.2l0-2.3l0.1-2.3l0.6-2.2l0.2-2.3l1-2.2l-0.7-2.4l0.9-2.2l-0.9-2.4l-2.2-1.3
					l-2.7-0.2l-1.9-0.3L572.8,241.7z M512.2,301.5l-2.3,0.6l-2.3-0.2l-2.3-0.7l-2.3,0.5l-2.3,0l-2.3-0.2l-2.3,0.2l-2.3,0.3l-2.3-0.4
					L489,301l-2.4,0.6l-2.3-0.5l-2.3,0.2l-2.3,0.5l-2.3-0.6L475,302l-2.3-0.4l-2.3,0.2l-2.3-0.2l-2.5-1.2l-1.1-2.6l0.7-2.2l-0.1-2.3
					l0.9-2.2v-2.3l0.6-2.2l-0.2-2.3l0.3-2.2l0.8-2.2l-0.3-2.4l0.8-2.2l0.3-2.3l0.1-2.3l-0.4-2.4l0.7-2.2v-2.3l0.4-2.3l1-2.2
					l-0.2-2.4l1-1.6l1.5-1.1l1.7-0.7l2.4,0.1l2.4-0.1l2.4-0.2l2.4,0l2.4-0.1l2.4,0.6l2.4-0.7l2.4-0.1l2.4,0.2l2.4-0.3l2.4,0.3l2.4,0
					l2.4-0.2l2.4-0.1l2.4,0.6l2.4,0.2l2.4-0.5l2.4,0.6h2.4l2.4-0.1l2.4-0.6l2.4-0.2l2.4,1l2.4-0.7l2.4,0.4l2.4-0.4l2.4,0l2.4,0.3
					l2.1,1.2l0.9,2.2l0.3,2.4l-0.5,2.3l-0.1,2.3l-1.3,2.2l0.2,2.4l0.2,2.4l-1.4,2.2l0,2.4l0.3,2.4l-0.3,2.3l-0.8,2.2l-0.3,2.3
					l-0.3,2.3l-0.5,2.2l-1,2l-1.3,1.8l-1.5,1.6l-1.8,1.4l-2.2,0.8l-1.9,1.2l-2,1l-2.1,0.9l-2.3,0.4l-2.2,0.4l-2.3-0.1l-2.2,1.2
					l-2.3-0.7L512.2,301.5z"/>
			</g>
			<g>
				<polygon class="st2" points="536.4,203.3 537.6,201.4 539.7,200.3 542.1,199.7 544.4,199.8 546.8,200.6 549.2,199.7 
					551.5,199.9 553.9,200.4 556.3,199.9 558.7,200.5 561,199.7 563.4,200.2 565.8,200.2 568.1,199.6 570.5,200.6 572.9,200.4 
					575.3,200 577.6,200.5 580,200 582.4,200.2 584.8,200.6 587.2,200.3 589.5,199.6 591.9,200.7 594.3,200 596.5,198.8 
					597.7,196.5 597.9,194.4 597.9,192.3 596.7,190.6 595.2,189.5 593.5,188.4 591.1,188.4 588.8,188.2 586.5,188.5 584.1,188.2 
					581.7,189 579.4,188.7 577.1,188.3 574.7,188.3 572.4,189.1 570,188.5 567.7,188.6 565.3,189.1 563,188.5 560.6,189 
					558.3,188.7 555.9,188.6 553.5,189 551.2,188.9 548.8,188 549.9,185.8 551.5,184.2 552.6,182.2 554.2,180.6 554.9,178.3 
					557,177.1 558.4,175.4 559.5,173.4 560.5,171.4 562.4,170 563.4,167.9 564.1,166.1 562.2,164.7 559.8,164.9 557.4,165.3 
					555,165.5 552.6,165.4 550.2,165.5 547.8,164.7 545.4,164.8 543,165.3 540.5,165.7 538.1,165.3 535.7,164.9 533.2,165.4 
					531.1,165.2 529.7,166.9 529.4,168.9 528.9,171.1 528.8,173.5 528.6,175.8 528.1,178.1 527.7,180.4 527.6,182.7 526.9,184.9 
					525.6,186.5 524.4,187.9 522.5,188 520.2,189 517.8,188.1 515.5,188.6 513.1,188.4 510.8,189 508.4,188.1 506,189.1 
					503.7,188.8 501.4,189.1 499,188.1 496.7,188.5 494.3,188.6 492,189 489.7,188.7 487.3,188.5 485,188.2 482.6,188.7 
					480.3,189.1 477.9,188.9 475.5,188.4 473.2,188.6 470.8,188.7 468.5,188.3 466.1,188.6 463.8,188.2 461.4,189 459.1,188.9 
					456.7,188.5 454.4,188.9 452,188.5 449.6,188.4 447.3,188.9 444.9,188.8 442.5,189.1 440.2,188.9 437.8,189 435.5,189 
					433.1,188.3 430.8,188.3 428.4,188.2 426,188.5 423.7,188.3 421.3,188.7 418.9,188.9 416.6,188.2 414.2,188.1 411.9,188.2 
					409.5,188.6 407.1,188.4 404.8,188.2 402.4,188.5 400,188.6 397.7,188.1 395.3,188.4 392.9,188.6 390.6,188.4 388.2,188.4 
					385.8,188.8 383.4,188.1 381.1,188.4 378.3,189.5 377.6,192.3 377.4,194.4 378.3,196.4 378.2,198.6 380.2,199.3 381.9,200 
					384.3,199.8 386.6,200.3 389,199.8 391.3,200.5 393.7,200.5 396,200.6 398.4,200.1 400.7,200.6 403,199.8 405.4,200 
					407.7,199.8 410.1,200.2 412.4,199.8 414.8,200.7 417.1,199.9 419.4,200.3 421.8,200.5 424.1,200.4 426.5,199.9 428.9,200.1 
					431.2,199.8 433.6,199.6 435.9,199.7 438.3,200.3 440.6,200.7 443,200.3 445.3,200.3 447.7,199.9 450,200.2 452.4,199.7 
					454.8,200 457.1,200 459.5,200.3 461.8,200.1 464.2,200.7 466.5,199.8 468.9,200.6 471.3,200 473.6,199.6 476,199.7 
					478.3,199.6 480.7,199.6 483.1,200.3 485.4,199.8 487.8,200 490.1,200.6 492.5,200.3 494.9,199.8 497.2,200.5 499.6,200.5 
					502,200.1 504.3,200 506.7,200.7 509,200.2 511.4,200.6 513.8,200.4 516.2,199.6 518.5,199.8 520.9,200.2 523,201.5 
					524.2,203.8 523.3,206.1 522.9,208.4 523.2,210.7 522.3,213 522.1,215.3 522.1,217.7 522.4,219.5 523.7,218.2 525.4,216.5 
					526.7,214.4 528.2,212.5 529.7,210.5 531.8,209.1 533.4,207.2 534.5,204.9 				"/>
			</g>
			<g>
				<polygon class="st1" points="452.7,173.3 454.3,174.7 455.3,176.7 455,178.8 455.4,181.2 455.2,183.5 454.1,185.7 454.4,188 
					453.7,190.3 454,192.7 453.3,194.9 453.5,197.3 453,199.6 452,201.8 452,204.1 451.7,206.4 451.2,208.7 450.9,210.7 
					449.5,212.2 447.4,212.8 445,212.9 442.6,212 440.2,212.5 437.8,212.9 435.3,212.3 432.9,212.3 430.5,212.9 428.1,212.6 
					425.7,212.1 423.3,212.3 420.8,212.8 418.4,213 415.6,211.6 415.6,208.8 415.8,206.5 415.9,204.1 416.4,201.7 416.5,199.4 
					416.2,196.9 417.4,194.7 417.3,192.3 417.6,189.9 418.2,187.6 418.6,185.3 418.6,182.9 419.2,180.5 419.6,178.2 418.9,175.7 
					420.2,173.5 420.5,171.1 419.9,168.6 420.3,166.3 421,163.9 421.4,161.6 421,159.1 421.7,156.8 423.2,155.1 425.5,154.9 
					427.3,156.5 429.2,157.9 431.2,159 433,160.6 434.9,161.9 436.9,163.1 439.1,164.1 441.3,165 443.1,166.5 444.9,168.1 
					446.9,169.3 448.9,170.6 450.8,172 				"/>
			</g>
		</g>
	</g>
	<g>
		<g>
			<g>
				<polygon class="st2" points="688.7,217.3 691,218.7 691.6,221.1 692,223.5 691.6,225.8 690.5,228 691.2,230.5 689.8,232.7 
					689.7,235 689.5,237.3 689.7,239.7 689.6,242.1 689.3,244.4 688.2,246.6 688.6,249 687.6,251.2 687.6,253.6 687.1,255.9 
					686.5,258.2 686.4,260.5 686.8,262.9 686.4,265.2 685.9,267.5 685.2,269.8 685,272.1 685.1,274.6 685.1,276.9 684.3,279.2 
					683.8,281.5 683.9,283.8 683.8,286.2 682.7,288.4 682.9,290.8 682.2,293.1 681.6,295.4 681.7,297.8 681.9,300.1 681.3,302.4 
					681,304.8 680.2,307.1 680.1,309.4 679.8,311.5 678,312.7 676.1,313 673.8,313 671.5,313.5 669.2,312.9 666.9,313.2 
					664.6,312.7 662.3,313.4 660,312.9 657.7,313.5 655.4,312.7 653.1,313 650.8,312.8 648.5,313 646.2,313.5 643.8,312.8 
					641.5,313.4 639.3,311.8 638.8,309.5 639,307.2 638.7,304.8 639.1,302.5 639.4,300.2 639.5,297.9 639.6,295.5 640.2,293.2 
					640.5,290.9 641.6,288.7 641.7,286.3 641.5,283.9 642.5,281.7 642.3,279.3 642.8,277 642.8,274.7 643.4,272.4 643.8,270.1 
					643.6,267.7 644.6,265.5 644.5,263.1 645.2,260.8 645.2,258.4 645.3,256.1 645.9,253.8 646.4,251.5 645.7,249.1 646.8,246.9 
					647.1,244.5 647.4,242.2 647.2,239.8 647.4,237.4 648.2,235.2 648.8,232.9 648.7,230.5 649,228.2 649.6,225.9 649.9,223.5 
					649.5,221.1 650.9,219.4 652.4,218.4 654.1,217.7 656.4,218 658.7,217.1 661,217.2 663.3,217.7 665.6,217.4 667.9,217.5 
					670.2,217.4 672.5,217.2 674.8,217.6 677.1,217.7 679.4,217.6 681.7,218 684,217.2 686.4,217 				"/>
			</g>
			<g>
				<polygon class="st2" points="822.6,264.4 820.8,265.7 819.4,267.5 819.2,269.8 818,272 818.2,274.5 818.2,277 817,279.2 
					817.3,281.7 816.7,284.1 816,286.4 815.8,288.8 815.4,291.2 815.2,293.6 815.2,296.1 814.4,298 812.7,298.8 811,300 
					808.7,300.2 806.4,299.5 804.1,300.2 801.8,300 799.5,299.7 797.1,300.3 794.8,300.3 792.5,300.3 790.2,299.6 787.8,299.9 
					785.5,299.9 783.2,299.4 780.9,299.9 778.5,299.9 776.2,299.7 773.9,299.5 771.6,299.7 769.3,300.1 766.9,300.1 764.6,299.8 
					762.3,300 760,299.9 757.6,300.1 755.3,300.2 753,300.1 750.7,299.5 748.3,299.3 746,300.1 743.6,299.8 741.5,298.4 
					740.2,296.1 741,293.9 741.5,291.6 741.3,289.1 741.6,286.8 741.4,284.4 742.2,282.2 742.8,279.9 743,277.6 742.9,275.2 
					743.5,272.9 743.9,270.6 744,268.2 744.1,265.9 745,263.6 744.3,261.2 745.2,258.9 745.8,256.7 745.8,254.3 746.2,252 
					746.8,249.7 746.8,247.3 747,245 747.2,242.6 747.2,240.3 747.5,237.9 748.3,235.7 748.4,233.3 748.7,231 748.6,228.6 
					749.3,226.3 749.4,224 749.7,221.6 750.1,219.3 750.9,217 750.7,214.7 751.3,212.4 751.6,210 752,207.7 752.4,205.4 
					752.7,203.1 753.2,200.7 752.8,198.3 753.5,196 753,193.8 751.9,192 750.6,190.4 748.7,188.9 746.8,187.5 744.8,186.3 
					742.8,185.1 740.5,184.2 738.4,183.1 736.4,182 734.5,180.6 732.5,179.2 730.4,178.1 728.2,177.3 726.6,175.3 724.1,174.8 
					722.4,173.1 720,172.4 718.2,170.7 715.8,170.2 714.5,172.4 714.7,174.8 714.1,177.1 713.1,179.3 712.9,181.7 712.8,184 
					713.2,186.4 712.5,188.7 712.4,191 712.4,193.4 711.2,195.5 711,197.9 710.5,200.1 710.8,202.5 710.1,204.8 709.6,207.1 
					709.6,209.4 709.7,211.8 709.6,214.1 708.8,216.4 708.9,218.8 708.8,221.1 707.8,223.4 707.2,225.6 707,227.9 707.3,230.4 
					706.4,232.6 706.5,235 706.2,237.3 706,239.6 705.7,241.9 705,244.2 704.8,246.6 704.8,248.9 704,251.2 704.3,253.6 
					703.4,255.8 703.8,258.2 703.1,260.5 703,262.9 702.3,265.1 702.5,267.5 701.6,269.8 702.1,272.2 701.7,274.5 701.2,276.8 
					700.8,279.1 699.9,281.4 699.5,283.7 699.2,286 699.6,288.4 698.6,290.7 699,293.1 698,295.4 697.9,297.7 698,300.1 
					697.9,302.4 696.9,304.7 697.4,307.2 696.3,309.4 697.3,312.1 699.9,313.1 702.3,313.6 704.6,313.2 707,313 709.3,312.7 
					711.7,313.3 714.1,313.7 716.5,312.6 718.8,312.9 721.2,313.5 723.6,313.4 726,312.8 728.3,312.6 730.7,313.4 733.1,312.7 
					735.5,312.7 737.8,313.1 740.2,313.6 742.6,312.6 745,313 747.3,313.6 749.7,312.8 752.1,313.5 754.5,313.4 756.8,313 
					759.2,312.9 761.6,312.7 764,313.5 766.3,313.5 768.7,313.2 771.1,312.8 773.5,313.1 775.9,312.8 778.2,313.5 780.6,313.5 
					783,313.5 785.4,312.6 787.8,312.6 790.1,312.7 792.5,313.2 794.9,312.9 797.3,313.4 799.7,313.2 802.1,313.6 804.5,313.6 
					806.9,313.2 809.3,312.9 811.1,313.3 812.5,313 814.8,313.5 816.7,312.6 819,313.2 821.3,313.6 823.6,313.5 825.9,313.3 
					828.2,313.6 830.5,312.7 832.8,313.6 835.1,312.9 837.4,313.6 839.7,312.6 842,313.4 844.3,312.8 846.6,312.7 848.9,313.5 
					851.2,312.8 852.9,312.1 854.7,311.4 854.9,309.4 855.8,307.1 856.5,304.9 856.4,302.5 856.7,300.2 856.6,297.8 857.2,295.5 
					857.8,293.2 857.6,290.9 858.6,288.6 858.4,286.2 858.5,283.9 858.6,281.5 859.7,279.3 859.6,276.9 859.9,274.6 860.4,272.3 
					860.6,270 861,267.7 860.8,265.3 861,262.9 862.2,260.8 861.8,258.3 862.1,256 862.5,253.7 863,251.4 863.8,249.1 863.6,246.7 
					864.3,244.4 864.2,242 864,239.7 861.6,240.2 859.7,241.5 858,243.1 855.9,244 854,245.2 851.8,246.1 849.8,247.3 848.1,248.9 
					846,249.7 844.3,251.4 842.2,252.4 839.9,253 837.9,254.1 836.2,255.8 834,256.5 832,257.7 830,258.9 828.5,260.8 826.3,261.7 
					824.6,263.3 				"/>
			</g>
			<g>
				<polygon class="st2" points="814.3,187.4 814.2,189.7 813.7,192 813,194.2 812.5,196.6 810.8,198.3 809.8,200.5 808.3,202.3 
					806.4,203.6 804.5,205.1 802.4,206.2 800.3,207 798.1,208.1 795.7,207.7 793.4,208.6 791.1,207.9 788.8,207.4 786.6,206.8 
					784.2,206.4 782.5,204.6 780.1,204 778.9,201.8 776.8,200.6 775.6,198.6 774.9,196.3 773.4,194.4 772.6,192.1 772.8,189.7 
					772.9,187.4 772.8,185.1 773,182.7 773.3,180.3 774.2,178.1 776.2,176.6 776.7,174.1 778.3,172.3 780.7,171.5 782.2,169.6 
					784.5,169 786.7,168.3 788.8,167.1 791.1,166.6 793.4,166.4 795.7,166.9 798,167.3 800.2,167.9 802.6,168.3 804.5,169.7 
					806,171.5 808.3,172.5 809.4,174.6 810.6,176.5 812.3,178.3 813.4,180.4 813.7,182.7 813.6,185.1 				"/>
			</g>
			<g>
				<polygon class="st1" points="864.9,187.4 864.6,189.7 864.4,192 863.7,194.2 863.1,196.4 861.7,198.3 860.6,200.4 859.1,202.1 
					857.5,203.8 855.3,204.9 853.6,206.6 851.3,207.4 849,208 846.7,208.2 844.4,208.5 842,208.5 839.7,207.6 837.3,207.4 
					835.3,206.1 833.2,205.1 831.2,203.9 830,201.8 827.7,200.6 826.3,198.7 825.7,196.4 825.1,194.1 824,192 824,189.7 
					823.4,187.4 823.4,185 823.6,182.6 824.6,180.5 825.7,178.4 826.8,176.3 828.2,174.5 829.3,172.3 831.7,171.4 833.4,169.9 
					835.4,168.7 837.5,167.9 839.8,167.5 842.1,167.2 844.4,167 846.7,166.9 849,166.9 851.4,167.3 853.6,168.2 855.3,169.9 
					857,171.5 859.2,172.6 860.6,174.4 861.7,176.5 862.9,178.4 864.4,180.4 865,182.7 865.3,185 				"/>
			</g>
		</g>
	</g>
	<g>
		<g>
			<polygon class="st2" points="1174.3,198.7 1172.1,198.3 1169.8,197.9 1167.4,197 1166.3,194.6 1164.3,193.1 1162,192.1 
				1160.3,190.3 1158.2,189.1 1156.8,186.9 1154.3,186.1 1152.6,184.3 1151.1,182.3 1149.1,180.9 1147.3,179.2 1145.4,176.9 
				1146.5,173.9 1147.9,172.1 1149.8,170.7 1151.5,169.2 1152.4,166.9 1154,165.2 1155.5,163.5 1157,161.8 1158.4,160 1159.8,158 
				1161.4,156.4 1162.8,154.6 1164.7,153.2 1165.7,151 1167.1,149.1 1169.1,147.8 1170.2,145.7 1171.6,143.9 1173.3,142.2 
				1175.2,140.8 1175.2,138.6 1173.5,137.5 1171.1,137.5 1168.6,137.4 1166.2,138.1 1163.8,137.4 1161.3,138.1 1158.9,137.1 
				1156.5,137.4 1154,137.6 1151.6,137.4 1149.1,137.8 1146.7,137.8 1144.2,137.3 1141.7,137.2 1139.6,137.1 1137.4,137.7 
				1135.2,137.9 1133.1,137.1 1130.6,137.1 1128.1,137.3 1125.7,137.2 1123.3,137.1 1121,137.9 1118.6,138.2 1116.3,137.3 
				1113.9,137.2 1111.6,137.2 1109.2,137.8 1106.9,137.1 1104.5,137.5 1102.2,137.1 1099.8,137.7 1097.5,137.6 1095.2,138.2 
				1092.8,137.2 1090.4,137.5 1088.1,137.4 1085.8,138 1083.4,138.1 1081.1,137.4 1078.7,138.1 1076.3,137.9 1074,137.1 
				1071.6,137.8 1069.3,137.7 1066.9,137.6 1064.6,137.3 1062.2,137.7 1059.8,137.6 1057,138.5 1056.9,141.3 1056.4,143.8 
				1056.8,146.3 1056.5,148.8 1057.8,150.5 1058.8,152.4 1060.9,152.2 1063.3,152.1 1065.7,152.4 1068,152.9 1070.4,152.2 
				1072.8,151.9 1075.2,152.9 1077.5,153 1079.9,152.6 1082.3,152.1 1084.6,152.8 1087,152.7 1089.4,152.8 1091.8,152.3 
				1094.2,152.5 1096.5,152.4 1098.9,152.3 1101.3,152 1103.7,152 1106.1,152.2 1108.4,152.6 1110.8,152.5 1113.2,152.6 1115,153.4 
				1114.4,155.2 1112.9,157.7 1110.6,159.5 1109.2,161.4 1107.1,162.2 1104.8,162.3 1102.4,162.4 1100.1,162.8 1097.7,163 
				1095.3,162.1 1093,162.1 1090.6,163.1 1088.2,162.4 1085.8,162.5 1083.5,162.6 1082.1,163.4 1082.9,164.6 1084.1,166.9 
				1086.3,168.2 1087.8,170 1090.2,171.1 1091.8,173.1 1093.9,174.3 1095.6,176.9 1094.4,179.7 1092.7,181.4 1090.9,183 
				1089.8,185.2 1087.8,186.6 1086.5,188.6 1084.9,190.4 1083.9,192.7 1082.3,194.5 1080.1,195.8 1078.7,197.4 1076.8,198.8 
				1074.4,198.4 1072,199.5 1069.6,199 1067.2,199.5 1064.8,199.5 1062.4,198.5 1060,198.8 1057.6,199.1 1055.3,200.2 1054.6,202.6 
				1054.3,205.1 1054.2,207.7 1054.9,210.1 1055.8,212.8 1058.4,213.4 1060.9,213.9 1063.3,214.2 1065.7,213.6 1068,214.3 
				1070.3,213.9 1072.7,214.3 1075,213.9 1077.3,213.9 1079.6,213.5 1081.9,213.8 1084.2,214.2 1086.6,213.7 1088.9,213.7 
				1091.2,214.4 1093.5,214 1095.8,214 1098.2,213.3 1100.5,214.4 1102.8,213.4 1105.1,214.2 1107.5,214.4 1109.8,213.3 
				1112.2,213.9 1114,212.3 1115.5,210.7 1117.8,209.3 1119,206.9 1120.9,205.2 1122.3,203 1124.9,201.5 1127.6,202.7 1129.5,204 
				1131.2,205.6 1133.2,206.7 1134.5,208.7 1136.7,209.7 1138.3,211.2 1140.1,212.8 1142.5,213 1144.7,213.6 1147,213.4 
				1149.4,213.6 1151.7,213.7 1154.1,214 1156.4,214 1158.8,214.3 1161.1,214.1 1163.5,214.3 1165.8,213.5 1168.2,214.3 
				1170.5,214.3 1172.9,214 1175.2,214.3 1177.6,214.3 1179.9,213.6 1182.3,214.4 1184.7,214.2 1186.8,214.1 1189,213.9 
				1190.4,212.4 1192.1,211.1 1193.2,209 1195.2,207.6 1196.7,205.8 1198.1,203.9 1199.6,202.1 1199.6,199.9 1197.8,198.5 
				1195.5,199.4 1193.2,199.1 1190.8,199.2 1188.4,199.5 1186.1,198.9 1183.8,198.7 1181.4,198.5 1179.1,198.8 1176.7,198.7 			"/>
		</g>
		<g>
			<polygon class="st2" points="1196.2,312.7 1198.3,311.7 1200,309.4 1199.1,307 1198.8,304.5 1199.2,301.9 1198.5,300 1197,298.8 
				1195.1,298.6 1192.7,298.3 1190.4,298 1188.1,298.6 1185.7,298.1 1183.4,297.8 1181.1,297.9 1178.7,297.8 1176.4,297.8 
				1174.1,298.4 1171.7,298.5 1169.4,298.4 1167.1,298.2 1164.7,298.2 1162.4,298.2 1160,297.8 1157.7,298.6 1155.3,298.7 
				1153,298.5 1150.7,298.1 1148.3,298.2 1146.1,296.9 1144.8,294.5 1145.1,292.2 1145.9,289.8 1146.3,287.5 1146,285 1146.7,282.7 
				1146.9,280.3 1146.8,277.9 1148,275.6 1147.9,273.1 1147.9,270.7 1148.4,268.3 1149.3,266 1149.6,264.1 1151.1,262.8 
				1153.1,261.8 1155.5,262.5 1157.9,262.8 1160.3,262.5 1162.8,262.5 1165.2,262.6 1167.7,262.3 1170.1,261.8 1172.5,262.8 
				1175,262.8 1177.4,262 1179.9,262.4 1182.3,261.9 1185.2,261.5 1185.2,258.6 1185.2,256.1 1185.7,253.6 1185.2,251.1 
				1184.7,249.2 1182.9,248.4 1181.2,247.7 1178.9,247.8 1176.5,247.2 1174.1,246.9 1171.7,247.7 1169.3,247.5 1167,247.4 
				1164.6,247.4 1162.2,247.5 1159.8,247.7 1157.4,247.5 1155,247.6 1152.8,246.1 1151.6,243.7 1151.7,241.2 1152.7,238.9 
				1152.6,236.4 1152.8,234 1153.4,231.6 1154.2,229.1 1153.8,226.6 1153.4,224 1150.8,222.9 1148.5,222.7 1146.2,223.4 
				1143.8,222.7 1141.6,223.4 1139.2,222.4 1136.9,222.8 1134.6,222.9 1132.3,222.7 1130,223.2 1127.6,223.1 1125.3,222.7 
				1123,222.5 1120.7,222.4 1118.3,223.1 1116,223.2 1113.7,222.5 1111.3,222.5 1109.3,223.2 1107.6,224.6 1106.6,226.6 
				1107.2,229.1 1107.1,231.6 1105.8,233.9 1105.4,236.3 1105.1,238.8 1105.4,241.3 1104.4,243.7 1104,245.5 1102.4,246.5 
				1100.7,247.5 1098.4,247.4 1096.1,247.9 1093.7,247 1091.4,247.2 1089.1,247.2 1086.8,247.8 1084.4,247.9 1082.1,247.2 
				1079.8,247.9 1077.4,247.7 1075.1,246.9 1072.8,247.6 1070.5,247.5 1068.1,247.4 1065.8,247.1 1063.4,247.5 1061.1,247.4 
				1058.3,248.3 1058.2,251.1 1057.7,253.6 1058.1,256.1 1057.8,258.6 1059,260.3 1060.1,262.1 1062.2,262 1064.4,261.8 
				1066.8,262.2 1069,262.7 1071.3,262 1073.6,261.7 1075.8,262.7 1078.1,262.8 1080.4,262.3 1082.7,261.9 1085,262.5 1087.3,262.5 
				1089.6,262.6 1091.8,262.1 1094.2,262.2 1096.5,262.2 1098.8,262 1101.6,263 1102.5,266 1102,268.4 1101.3,270.7 1101.1,273.1 
				1100.6,275.4 1100.2,277.8 1099.9,280.2 1100,282.6 1099.1,284.9 1099.4,287.4 1098.9,289.8 1098.2,292.1 1098,294.5 
				1097.6,296.5 1096.1,298.1 1094,297.7 1091.6,297.8 1089.3,298.8 1086.9,298 1084.6,298.2 1082.2,298.2 1079.8,298.6 
				1077.5,298.8 1075.1,297.8 1072.7,298.1 1070.3,297.7 1068,298.4 1065.6,297.9 1063.2,298.4 1060.9,298.7 1058.5,298.4 
				1056.1,298.1 1053.8,297.8 1051.3,298.4 1048.5,299 1047.7,301.9 1047.8,304.5 1048.7,306.9 1048.8,309.4 1048.7,311.5 
				1050.4,312.8 1052.4,312.9 1054.8,313.6 1057.1,312.6 1059.4,313.1 1061.7,312.6 1064.1,312.6 1066.4,313.6 1068.7,313.3 
				1071,312.9 1073.4,312.8 1075.7,312.7 1078,313.1 1080.3,313.5 1082.7,312.9 1085,313.1 1087.3,312.6 1089.7,313.2 1092.1,313.5 
				1093.9,312.9 1095.3,313 1097.6,313.2 1099.5,313.6 1101.8,313.2 1104.1,313.1 1106.4,312.8 1108.7,313 1111.1,313.5 1113.3,313 
				1115.7,313 1118,313.7 1120.3,313.3 1122.6,313.2 1125,312.6 1127.3,313.7 1129.6,312.6 1131.9,313.5 1134.2,313.6 1136.6,312.6 
				1138.9,313.7 1140.8,312.9 1142.2,313 1144.5,313.5 1146.3,312.9 1148.7,313.2 1151.1,312.9 1153.4,312.7 1155.8,313.2 
				1158.2,312.9 1160.6,313.1 1162.9,312.6 1165.3,313.3 1167.7,312.7 1170,312.8 1172.4,313.2 1174.8,312.6 1177.1,312.9 
				1179.5,312.6 1181.9,312.8 1184.3,313 1186.6,313.3 1189,313.3 1191.4,313.6 1193.8,313.4 			"/>
		</g>
		<g>
			<polygon class="st2" points="953.8,273.8 956.3,274.8 956.5,277.5 956.5,279.8 956.2,282 956.1,284.3 956.1,286.6 955.7,288.9 
				955,291.1 954.9,293.4 954.1,295.7 954.7,298.1 954.4,300.3 954.2,302.6 953,304.8 953.4,307.2 953.2,309.5 951.9,311.2 
				950.5,312.5 948.6,313.1 946.2,313.5 944,313.2 941.6,312.8 939.3,313.5 937,313 934.7,312.7 932.4,312.8 930.1,312.7 
				927.7,312.7 925.4,313.3 923.1,313.4 920.8,313.3 918.5,313.1 916.1,313.1 913.8,313.1 911.4,312.6 909.1,313.5 906.3,312.3 
				905.6,309.4 906.3,307.2 906.5,304.9 907.2,302.7 906.8,300.3 907.1,298 907.9,295.8 908.3,293.6 907.9,291.2 908.6,289 
				908.8,286.7 908.7,284.3 909.9,282.2 909.8,279.8 909.8,277.5 910.8,275.6 912.6,274.8 914.3,273.8 916.6,273.9 918.9,273.4 
				921.2,274.1 923.5,274.3 925.8,274 928.2,274.1 930.5,274.1 932.8,273.8 935.1,273.3 937.5,274.4 939.8,274.3 942.1,273.6 
				944.4,273.9 946.8,273.4 949.1,274.3 951.4,273.3 			"/>
		</g>
		<g>
			<polygon class="st2" points="981.2,247.9 979.5,247.4 980.2,245.7 981.5,243.7 983.2,242.2 984.8,240.4 986.6,238.9 988.2,237.3 
				989.4,235.2 991.3,233.8 993,232.2 994.2,230.1 996.4,229.1 998,227.3 999.4,225.4 1000.5,223.3 1002.6,222 1004.5,220.6 
				1005.8,218.6 1007.7,217.2 1009.3,215.5 1010.2,213.1 1012,211.6 1013.6,209.9 1015.4,208.4 1017.2,206.9 1018.5,205 
				1019.8,202.9 1022,201.9 1023.7,200.2 1024.7,197.9 1026.8,196.8 1028.3,195 1030.2,193.5 1031.7,191.7 1033.2,189.9 1034.6,188 
				1036.3,186.4 1037.9,184.6 1039.8,183.2 1041,181.2 1042.7,179.5 1044.6,178.1 1045.7,175.8 1046.6,174.3 1044.8,173.7 
				1042.5,173.2 1040.2,173.6 1037.9,173.9 1035.6,173.6 1033.3,173.2 1031,173.3 1028.6,173.2 1026.3,173.5 1024,173.7 
				1021.7,173.8 1019.3,174 1017,173.2 1014.7,173.9 1012.4,173.5 1010.1,173 1007.7,173.2 1005.4,173.4 1003.1,173.9 1000.7,174.3 
				999,175.9 997.3,177.7 995.8,179.5 994.4,181.4 992.7,183.1 990.7,184.5 989.2,186.4 987.2,187.8 986.2,190.1 984.5,191.9 
				983,193.6 980.6,194.7 979.5,196.9 977.9,198.7 975.9,200.1 974.2,201.8 971.7,203.1 968.8,202.3 967,200.2 965.2,198.1 
				962.8,196.8 962,193.9 963.2,191.5 964.8,189.7 966.4,188.1 968.1,186.4 969.3,184.4 970.8,182.6 972.5,180.9 974.2,179.4 
				975.8,177.7 977.4,176 979.4,174.6 980.3,172.4 981.9,170.6 983.6,169.1 985.5,167.6 987,165.9 988.9,164.4 990,162.2 
				991.6,160.6 993.6,159.2 995.3,157.6 996.4,155.4 998.3,154 999.9,152.2 1001.2,150.2 1003.5,149.1 1004.8,147.2 1006.2,145.3 
				1008,143.6 1010,142.4 1011.2,140.2 1012.1,138.4 1010.2,138.1 1007.8,137.4 1005.5,137.1 1003.2,137.5 1000.9,137.4 
				998.6,137.3 996.3,137.7 993.9,138.1 991.6,137.1 989.3,137.1 987,137.9 984.7,137.5 982.3,138 980,137.2 977.7,138.2 
				975.4,137.9 973,137.4 970.7,137.7 968.3,137.9 966.5,139.4 964.7,140.5 963.1,142.3 961.1,143.6 959.2,145 958.2,147.3 
				956.5,148.9 954.8,150.5 953.2,152.1 951.6,153.9 950.2,155.8 948.4,157.3 946.8,159 944.8,160.3 943.7,162.4 942.2,164.3 
				940.1,165.5 938.8,167.5 937.3,169.3 935.5,170.8 933.5,172.2 932.4,174.4 930.6,175.8 929,177.5 927.2,179.1 926.1,181.3 
				924,182.5 922.9,184.7 920.5,185.7 919.2,187.7 917.6,189.5 915.9,191.1 915.2,193.9 916.3,196.4 917.7,198.3 919.3,200 
				920.9,201.6 923,202.8 924.8,204.2 926,206.4 927.7,207.9 929.5,209.4 931.1,211.1 932.8,212.8 935,213.8 936.9,215.2 938,217.5 
				939.6,219.1 941.3,220.7 943.4,221.9 944.7,224 946.6,225.3 947.4,227.8 946.9,230.5 945.2,232.1 944.1,234.1 941.8,235.1 
				940.3,236.9 938.7,238.6 937.6,240.7 936,242.4 933.9,243.6 932.8,245.7 931.1,247.2 928.9,248.4 927.8,250.5 926.1,252.1 
				924.5,253.7 922.6,255.1 921.3,257.1 919.6,258.7 917.8,260.2 917.8,262.1 919.2,263.2 921.5,263 923.8,263.5 926.2,262.8 
				928.5,263.5 930.8,262.8 933.2,262.7 935.6,262.9 937.4,263.4 939.6,263.1 941.1,262.6 943,263.5 945.2,263.6 947.4,263.2 
				949.7,262.8 951.9,263.4 954.1,263.3 956.3,263.4 958.6,263 960.8,263.1 963.1,263 965.7,264.1 966.8,266.9 966.5,269.2 
				966,271.6 965.3,273.9 965.1,276.3 964.6,278.6 964.3,281 963.9,283.3 964.1,285.8 963.2,288 963.4,290.5 962.9,292.8 
				962.3,295.2 962.1,297.5 962.1,300 962,302.4 960.8,304.6 960.6,307 961.2,309.5 961.3,312.2 963.9,313.2 966.2,313.1 
				968.5,312.7 970.9,312.6 973.2,313.6 975.5,313.2 977.8,313.7 980.1,312.9 982.5,313.5 984.8,313 987.1,312.7 989.4,313 
				991.7,313.2 994,313.5 996.4,313 998.7,313.6 1001,313.3 1003.4,313.4 1005.1,312.2 1006.5,311.1 1008.1,309.5 1008.1,307.1 
				1008,304.7 1009,302.4 1008.3,299.9 1009.1,297.6 1008.9,295.2 1009.3,292.8 1010.6,290.6 1010.5,288.2 1010.5,285.8 
				1010.7,283.4 1010.9,281 1011.6,278.7 1012.2,276.4 1012,273.9 1012.6,271.6 1012.4,269.1 1013.2,266.8 1014.2,265.2 
				1015.3,263.5 1017.4,263.6 1019.6,263.2 1021.8,263.6 1024,263.2 1026.3,263.1 1028.5,262.8 1030.3,263 1032.5,263.3 1034.1,263 
				1035.9,263 1036.7,263.6 1038.8,262.8 1040.2,261.4 1040.4,259.4 1041.8,257.2 1041,254.7 1042.2,252.5 1042.7,250.1 
				1041.9,247.7 1043.3,245.5 1042.9,243 1042.9,240.7 1044,238.4 1043.8,236 1044.4,233.7 1044.4,231.4 1044.5,229 1045.3,226.7 
				1045.3,224.3 1045.8,222 1045.6,219.6 1046.6,217.3 1046.3,214.9 1046.8,212.5 1046.7,210.7 1045.3,211.9 1043.5,213.4 
				1041.9,215.2 1040.2,216.8 1038.3,218.4 1036.5,219.9 1034.7,221.6 1032.8,223.1 1031.3,224.9 1029.5,226.5 1028.3,228.7 
				1026.1,229.9 1024.4,231.6 1022.9,233.5 1021,235 1019.3,236.7 1018.1,239 1015.9,240.1 1014.3,242 1012.6,243.7 1011.1,245.6 
				1009.3,247.1 1007,247.8 1004.8,248.4 1002.4,247.8 1000.1,247.8 997.7,247.9 995.4,247.8 993,248.4 990.7,247.8 988.3,248.7 
				985.9,248.4 983.5,248.4 			"/>
		</g>
		<g>
			<polygon class="st1" points="1070.3,286 1068.3,286.2 1066,286.7 1063.6,287.3 1061.3,287.6 1058.9,288 1056.5,288.4 
				1054.3,289.2 1051.9,289.8 1049.8,290.8 1047.6,291.7 1045.5,292.8 1043.3,294 1041.7,295.8 1040.3,297.8 1039.4,300 
				1038.2,302.1 1037.5,304.4 1036.5,306.6 1035.9,308.9 1035.9,311.3 1035.2,313.6 1034.6,315.9 1034.7,318.4 1033.5,320.6 
				1033.7,322.6 1033.4,320.7 1032.5,318.4 1032.7,315.9 1032.7,313.5 1031.9,311.2 1031.7,308.8 1031.1,306.4 1029.4,304.4 
				1028.9,302.1 1027.8,300 1026.9,297.8 1025.6,295.7 1023.7,294.2 1021.5,293.2 1019.9,291.3 1017.8,290.2 1015.2,290.2 
				1013.2,288.8 1010.8,288.3 1008.5,287.5 1006.2,287.2 1003.8,286.9 1001.4,286.9 999,286.3 996.6,286 999.1,286.1 1001.4,285.2 
				1003.7,284.9 1006.2,284.8 1008.4,283.6 1010.8,283.4 1013,282.6 1015.5,282.4 1017.5,281.2 1019.6,280 1021.8,279 1023.9,277.9 
				1025.6,276.2 1027.1,274.3 1028,272.1 1028.8,269.8 1029.5,267.6 1030.1,265.3 1031.5,263.2 1031.2,260.7 1032.1,258.4 
				1033,256.1 1033.2,253.8 1033.3,251.4 1033.7,248.9 1033.5,251.4 1034.2,253.7 1034.6,256.1 1035.2,258.4 1035.9,260.8 
				1036.3,263.1 1036.6,265.5 1037.4,267.8 1037.8,270.2 1039.6,272 1040.8,274 1042.3,275.8 1043.4,278.1 1045.7,279 1047.8,280.1 
				1049.7,281.5 1052,282.4 1054.3,283 1056.7,283.2 1058.9,284 1061.2,284.8 1063.7,284.5 1065.9,285.4 1068.3,286.1 			"/>
		</g>
	</g>
	<g>
		<g>
			<g>
				<g>
					<polygon class="st2" points="311.7,176.6 309.8,177.5 308.3,178.8 307.8,180.7 307,183.1 306.3,185.6 306.5,188.2 306.7,190.8 
						305.5,192.6 303.9,193.8 302,194.7 298.8,194.6 296.6,193.1 295.8,190.7 295.5,188.3 296,186 296.7,183.8 297.2,181.5 
						297,179.1 297.4,176.8 298.1,174.6 299,172.4 299.3,170 299.6,167.7 299.7,165.3 300,163 301,160.8 300.7,158.4 301.4,156.1 
						301.1,153.7 302.2,151.5 302.3,149.1 301.8,146.4 299.2,145.7 299,145.7 296.6,146 294.1,146 291.6,145.2 289.3,145.9 
						286.9,145.9 284.6,145.6 282.2,145.4 279.9,145.9 277.5,145.7 275.1,145.5 272.8,145.2 270.4,145.9 268,145.9 265.7,145.5 
						263.3,145.5 260.9,145.7 258.6,145.7 256.1,145.3 253.6,145.1 251.2,145.6 248.7,145.6 246.2,145.3 243.7,145.2 241.2,145.1 
						238.8,145.8 236.3,145.6 233.9,145.1 231.5,145 229.1,145.6 226.8,145.5 224.4,146 222,145.6 219.6,145.3 217.2,145.5 
						214.8,144.9 212.4,145.3 210,146 207.7,145.4 205.3,146 202.9,145 200.5,145.3 198.1,145.3 195.7,145.2 193.9,146.2 
						192.2,147.3 191.6,149.2 191.2,151.5 190.2,153.7 190.4,156.1 189.6,158.3 189.2,160.6 189.7,163 188.8,165.3 188.4,167.6 
						188.2,169.9 187.8,172.2 187.6,174.5 186.7,176.8 186.5,179.1 185.9,181.4 186.1,183.8 185.6,186.1 185,188.4 185,190.8 
						184.3,192.8 182.2,193.6 180.4,194.8 178.2,194.5 176,194.5 173.6,195.5 172.8,198 172.2,200.7 173,203.3 173.1,205.9 
						173.5,208 175.3,209.1 177.1,209.5 177.9,209.6 180.4,209.3 182.9,209.4 185.3,209.5 187.7,209.7 190.1,209.3 192.5,209.7 
						194.9,209.8 197.2,209.7 199.6,209.2 202,209.5 204.4,210.1 206.8,209.4 209.2,209.8 211.6,209.6 214,209.7 216.4,209.2 
						218.8,209.3 221.2,210 223.6,209.3 226,209.1 227.9,209.1 229.7,208 230.1,205.9 231.1,203.7 231.3,201.4 231.3,199 
						232.1,196.8 231.9,194.4 232.8,192.2 232.4,189.8 233.2,187.5 233.2,185.2 234.2,182.9 234,180.5 234.4,178.3 235,176 
						235.4,173.6 236.2,171.4 236.5,169.1 236.8,166.8 236.7,164.4 238.2,162.9 239.1,160.8 241.3,161.2 243.7,161 246.2,160.6 
						248.7,160.6 251.2,161.8 251.5,164.3 251.1,166.6 251.4,169.1 250.7,171.3 250.5,173.6 249.5,175.9 249.3,178.2 249.5,180.6 
						249,182.9 248.2,185.1 247.6,187.4 247.8,189.8 247.4,192.1 247.3,194.4 246.9,196.7 246.5,199 245.8,201.3 245.1,203.6 
						245.5,206 245.7,208.6 248.2,209.5 250.5,209.7 252.8,209.5 255,210 257.5,209.5 260,209.1 262.5,209.5 264.9,209.9 
						267.2,209.9 269.6,209.5 272,209.5 274.4,209.9 276.8,209.2 279.2,209.2 281.6,209.2 284.1,210 286.5,209.8 288.9,209.3 
						291.4,209.2 293.8,210 296.3,209.3 298.1,210.1 300,209.4 302.5,209.8 304.9,209.6 307.4,210.2 309.7,209.6 312,209.8 
						314.3,209.1 316.6,210.1 319,209.4 321,209.3 322.2,207.6 323.2,205.9 323.9,203.7 323.6,201.3 323.9,199.1 324.7,196.8 
						325,194.5 324.4,192.1 325.7,189.9 325.9,187.6 326.1,185.3 326.6,183 326.7,180.7 325.6,178.3 323.3,177.1 321,176.9 
						318.7,177.3 316.4,176.5 314,177.2 					"/>
				</g>
				<g>
					<path class="st2" d="M315.1,301.6l-0.6-1.8l-1.4-1.3l-1.8-1.2l-2.4,0.9l-2.4,0.1l-2.4-0.2l-2.4-0.2l-2.2-1l-2.6,0.2l-1.4-2.1
						l-2.3-0.8l-1.4-1.9l-2.2-0.9l-1.8-1.5l-1.2-2.1l-2.1-1.1l-1.6-1.6l-1.5-1.8l-2.2-1l-1.9-1.3l-1.6-1.6l-1.8-1.5l-1.7-1.6l-2-1.3
						l-1.3-2.6l0.7-2.9l2-1.4l1.6-1.7l1.2-2.1l1.5-1.8l1.9-1.5l0.8-2.4l2.1-1.3l1.1-2.1l1.8-1.5l1.4-1.9l1.5-1.8l1.4-1.9l1.6-1.8
						l1.4-1.9l1.6-1.8l1.8-1.5l1.4-2l1.4-1.9l1.5-1.8l1-2.2l1.9-1.5l1.2-2.1l1.4-1.9l2-1.5l1.4-2l1.9-1.5l0.9-2.3l1-1.8l-2.1-1.1
						l-2.2,0.6l-2.3-0.3l-2.2-0.1l-2.2,0.1l-2.3,0l-2.3-0.4l-2.2,0l-2.2,0l-2.3,0.4h-2.3l-2.3,0.4l-2.3-0.4l-2.5,0.6l-2.5-0.7
						l-2.5,0.8l-2.3,0.1l-2.4-0.3l-2.4,0.4l-2.5-0.1l-2.5-0.5l-2.5,0.2l-2.4-0.3l-2.4,0.2l-2.4-0.1l-2.4-0.1l-2.4,0.1l-2.4-0.3
						l-2.4,0.4l-2.4-0.4l-2.4,0.1l-2.4,0.5l-2.4,0l-2.4-0.6l-2.4,0.7l-2.4-0.3l-2.4,0l-2.4-0.3l-2.4,0.3l-2.4,0.4l-2.4,0l-2.4-0.8
						l-2.4,0.9l-2.4-1l-2.4,0.7l-2.4-0.4l-2.4-0.3l-2.4,0.9l-2.4-0.3l-2.4,0.3l-2.4-0.6l-2.4,0.5l-2.4-0.8l-2.4,0.3l-2.4,0.6
						l-2.4-0.6l-2.4,0.4l-2.4-0.4l-2.5,0.7l-2.5-0.1l-2.5-0.3l-1.8-0.1l-1.8-0.4l-2.1-0.9l-1-2.3l0.7-2.3l-0.5-2.4l1-2.2l0.2-2.3
						l0.1-2.4l0.3-2.3l0.5-2.3l0.3-2.3l0.5-2.3l-0.2-2.4l0.9-2.2l-0.5-2.4l0.7-2.3l0.6-2.3l-0.5-2.4l1-2.2l-0.2-2.4l0.9-2.2l0.3-2.3
						l0.6-2.3l0-2.4l0.6-2.3l-0.2-2.4l0.1-2.4l0-2.4l1.1-2.2l0.2-2.4l0.5-2.3l-1.6-2.3l-2.1-1.3l-2.3-0.1l-2.3-0.4l-2.3,0.6
						l-2.3,0.3l-2.3-0.1l-2.3-0.9h-2.5l-2.5,0.2l-2.5,0.7l-2.4-0.3l-2.4-0.3l-2.4,0.5l-2.4-0.4l-2.4-0.1l-2.4-0.2l-2.4,0.7l-2.4-0.6
						l-2.5,0.2l-2.5,0.2l-2.5,0.3l-1.9-0.1l-1.9,0.1l-2.3-1l-2.1-0.9l-2.3-0.8l-1.9-1.4l-1.2-2.2l-2.1-1.2l-1.4-2l-1.9-1.4l-1.7-1.6
						l-2.2-1.1l-1.8-1.5l-1.4-2l-2.3-1l-1.8-1.5l-1.7-1.7l-1.7-1.7l-1.9-1.5l-1.9-1.4l-1.4-2l-2.1-1.1l-1.6-1.8l-1.9-1.4l-1.9-1.4
						l-1.3-2.3l-2.6-0.8l-0.5,2.5l-1.2,2.2l0,2.3l-0.5,2.3l0.6,2.4l-0.5,2.3l-0.8,2.2l0.1,2.3l-0.1,2.3l-0.8,2.2l0,2.4l-0.1,2.4
						l0.3,2.4l-0.5,2.3l-0.8,2l-1.4,1.6l-2.1,0.2l-2.5-0.2l-2.5,0.5l-2.5,0.1l-2.5,0l-2.5-0.2l-2.4-0.2l-2.4-0.3l-1.3,1.8l-0.3,2.1
						l-0.8,2.2l0,2.4l-0.4,2.3l-0.5,2.3l-0.1,2.4l-0.1,2.4l0.2,2.4l-1.1,2.2l0.3,2.4l-0.4,2.3l-0.6,2.3l0.3,2.4l-0.3,2.3l-0.4,2.3
						l-0.7,2.3l-0.8,2.2l-0.3,2.3l-0.2,2.4l0.5,2.4l-1.3,2.2l0.3,2.4l-0.6,2.3l-0.5,2.3l-0.2,2.3l-0.3,2.3l-0.1,2.4l-0.6,2.3
						l-0.1,2.4l-0.5,2l-1.8,1l-1.8,0.3l-2.4,0.3h-2.4l-2.4,0.2l-2.4-0.1l-2.4,0l-2.4-0.5l-2.4,0L8.1,218L5.7,218l-2.4-0.1l-2.9,0.8
						l-0.1,2.9L0,224.2l0.5,2.6l-0.3,2.7l1,1.7l1,1.9l2.1,0.4l2.3-0.5l2.3-0.3l2.3,0l2.3,0.2l2.3,0.4l2.3-0.2l2.3,0.1l2.3-0.4
						l2.3,0.3l2.4,1.3l1.2,2.6l-0.8,2.3l-0.5,2.3l0.5,2.4l-1,2.2l-0.4,2.3l0.2,2.4l-0.1,2.4l-1,2.2l0.5,2.5l-1,2.2l-0.4,2.3l0,2.4
						l-0.2,2.4l0.1,2.4l-0.8,2.3l-0.6,2.3l-0.2,2.4l-0.2,2.4l-0.1,2.4l-0.8,2.3l-0.2,2.4l-0.4,2.3l-0.3,2.3v2.4l-0.5,2.3l0.3,2.4
						l-0.9,2.3l-0.5,2.3l0.6,2.5l-0.6,2.3l-0.6,2.3l1.1,2.4l2.2,1.1l2.2,0.3l2.2-0.2l2.2,0.5l2.2-0.2l2.2-0.5l2.2,0.5l2.2,0.2l2-0.8
						l1.1-1.7l1.4-1.5l0.1-2.4l0.5-2.3l0.2-2.4l0-2.4l0.3-2.3l0.2-2.4l0.8-2.3l0.4-2.3l-0.3-2.5L44,286l0.5-2.3l0.6-2.3l0.2-2.4
						l0-2.4l1-2.2L46,272l0.7-2.3l-0.1-2.4l0.5-2.3l0.6-2.3l-0.4-2.4l1.2-2.2l0.2-2.4l0.2-2.4l-0.2-2.4l0.9-2.3v-2.4L50,244l0.4-2.3
						l0.1-2.4l0.2-2.4l1.2-1.6l1.1-1.8l2.1,0.1l2.3-0.8l2.3,0.9l2.3,0.1l2.3-0.9l2.3,0.6l2.3,0.1l2.3-0.3l2.3-0.5l2.3,0.5l2.3-0.4
						l2.3-0.1l2.3,0l2.3,0.6l2.3,0.2l2.3-0.9l2.3,0.1l2.3,0.3l2.3-0.2l2.3,0.5l2.3-0.6l2.3,0.9h2.3l2.7,0.3l0.4,2.8l-0.3,2.3
						l-0.4,2.3l0,2.4l-0.6,2.3l-0.2,2.4l-0.3,2.3l-0.3,2.3l0.1,2.4l-0.2,2.3l-0.8,2.3l0.2,2.4l-0.9,2.2l0.4,2.4l-0.3,2.3l-1,2.2
						l-0.2,2.4l-0.2,2.4l0.1,2.4l-0.1,2.4l-0.9,2.2l0.2,2.4l-0.5,2.3l-0.6,2.3l-0.1,2.4l-0.4,2.3l-0.4,2.3l0.1,2.4l-0.8,2.3l0.2,2.4
						l-1.1,2.2l0.6,2.5l-0.4,2.3l-0.1,2.4l-0.3,2.4l-1.3,2.2l-0.4,2.3l0.7,2.5l-1.2,2.2l0,2.4l-0.6,2.3l0.8,2.5l2.5-0.4l2.2-0.8
						l1.9-1.3l1.9-1.4l1.9-1.4l2.3-0.5l1.9-1.3l2.2-0.8l2-1.3l2.2-0.8l2-1.2l1.8-1.6l2.1-1l2.3-0.6l2-1.1l2.1-1l2-1.2l1.8-1.6l2.1-1
						l2.1-1l1.9-1.3l2-1.2l2.1-1l1.8-1.2l1.6-1.6l0.7-2.2l0.7-2.3l-0.1-2.4l0.1-2.4l0.9-2.3l-0.6-2.5l0.6-2.3l0-2.4l1.1-2.2
						l-0.1-2.4l0.2-2.4l0.1-2.4l1.1-2.2l-0.2-2.4l0.3-2.4l1.1-2.2l-0.2-2.4V263l0.1-2.4l1.1-2.2l-0.4-2.5l0.5-2.3l0.7-2.3l-0.1-2.4
						l0.7-2.3l0.1-2.4l0.4-2.4l0.2-2.4l0.6-2.4l0.8-1.6l1.1-1.5l1.9-0.7l2.2,0.2l2.2,0.5l2.2-0.7l1.9-0.4l2,0.6l1.7-0.3l1.9-0.1
						l2.3,0.8l2.3-0.4l2.3,0.3l2.3-0.1l2.3,0.3l2.3-0.1l2.3-0.6l2.3-0.2l2.3,0.2l2.3,0.6l2.3-0.1l2.3-0.1l2.3,0.1l2.3-0.8l2.3-0.1
						l2.3,0.5l2.3,0.5l2.3-0.2l2.3,0.2l2.3-1.1l2.3,0.2l2.3,0l2.3,0.2l2.3,0.6l2.3-0.8l2.3,0.1l2.3,0.7l2.3-0.1l2.3-0.7l2.3,0.3
						l2.3,0.5l1.5,0.5l-0.6,1.5l-1.4,2l-1.5,2l-1.1,2.3l-1.6,1.9l-2.2,1.4l-1.6,1.5l-1.9,1.4l-2.3,0.3l-2.4,0.2l-2.4-0.3l-2.4,0.6
						l-2.4,0l-2.4-0.1h-2.4l-2.4-0.6l-2.4,0.2l-2.4,0.5l-2.4,0.1l-2.4-0.9l-2.4,0.5l-2.4-0.4l-2.4-0.2l-2.4,0.1l-2.4,0.4l-2.4-0.3
						l-1.5,0.9l0.6,1.5l1.7,1.5l1.7,1.5l1.7,1.6l1.8,1.4l1.6,1.6l2.1,1l1.3,2l1.9,1.3l2.2,0.9l1.7,1.6l1.5,1.9l1.5,1.8l2.1,1.1
						l1.8,2.5l-0.9,3.1l-2.2,1.2l-1.4,1.9l-1.6,1.7l-1.6,1.7l-1.2,2l-1.9,1.5l-1,2.2l-1.5,1.8l-1.4,1.9l-1.8,1.6l-1.7,1.7l-1.2,2.1
						l-2.2,1l-2.4,0.3l-2.4-0.5l-2.4,0.4l-2.4-0.2l-2.4-0.1l-2.4-0.2l-2.4,0h-2.4l-2.4,0.3l-2.4,0.5l-2.4,0l-2.8,0.3l-0.3,2.9
						l0.3,2.6l-0.6,2.7l0.2,2.6l1.1,1.8l1.1,1.8l2.1-0.3l2.5,0.2l2.5,0.9l2.6-0.4l2.6,0.4l2.5-0.9l2.5,0.8l2.5-0.8l2.3,0.3l2.3-0.4
						l2.3,0.8l2.3,0.2l2.3-0.5l2.3,0.3l2.3-0.3l2.3,0.5l2.3-0.3l2.3,0.1l2.3-0.4l2.3-0.3l2.3,0.6h2.3l2.3-0.5l2.3,0.6l2.3-0.6
						l2.3-0.1l2.3,0.1l2.2-0.7l1.5-1.8l1.5-1.9l2-1.5l1.6-1.8l0.9-2.4l1.6-1.8l1.8-1.6l2.5-0.9l2.6,0.4l1.6,1.7l2,1.2l1.5,1.8
						l1.9,1.4l2,1.3l1.6,1.7l1.6,1.7l2.2,1l1.9,1.5l2.2,0.9l2.4-0.3l2.3,0.9l2.3-0.2l2.3,0.2l2.3-0.8l2.3,0.4l2.3-0.7l2.5,0.4
						l2.5,0.5l2.5-0.4l2.2,0.5l2.2-0.8l2.2,0.3l2.2,0l2.2,0.4l2.2-0.3l2.2,0.4l2.2-0.6l2.2-0.2l2.2-1l1.5-2.3l-0.9-2.6l0.5-2.7
						L315.1,301.6z M112.3,214.2l-0.8,1.9l-1.6,1.4l-2-0.2l-2.3,0.9l-2.3,0.1l-2.3-0.2l-2.3-0.2l-2.3-0.6l-2.3,1.1l-2.3-1.1
						l-2.3,0.9l-2.3-0.5l-2.3,0.7h-2.3l-2.3-0.8l-2.3,0.4l-2.3-0.2l-2.3-0.5l-2.3,0.6l-2.3,0.2l-2.3-0.2l-2.3-0.1l-2.3-0.2l-2.3,0.3
						l-2.3-0.1l-2.7-1l-0.2-2.8l0.4-2.4l-0.1-2.4l0.3-2.4l0.8-2.3l-0.5-2.5l1-2.3l-0.2-2.4l0.7-2.3l0.2-2.4l0.3-2.4l0.2-2.4l0.4-2.4
						l0.2-2.4l0.4-2.4l0.7-2.3l0.1-2.4l0.2-2.4l0.3-2.4l-0.3-2.5l0.8-2.3l-0.1-2.5l0.8-2.1l1.9-1l1.9-0.7l2.3,0.6l2.3-0.8l2.3,0.5
						l2.3,0.2l2.3-0.6l2.3,0.3l2.3,0.1l2.3-0.1l2.3,0l2.3,0.4l2.3,0l2.3,0l2.3-0.4H97l2.3-0.4l2.3,0.4l2.3-0.6l2.3,0.7l2.3-0.8
						l2.3-0.1l2.3,0.3l2.3-0.4l2.8,1.3l0.3,2.9l-0.1,2.4L118,169l-0.1,2.4l-0.4,2.4l-0.4,2.4l-0.2,2.4l-0.6,2.3l0.1,2.4l-0.7,2.3
						l-0.2,2.4l0.2,2.4l-0.3,2.4l-0.9,2.3l0.3,2.5l-0.6,2.3l-0.3,2.4l-0.7,2.3l0,2.4l0.1,2.4l-0.3,2.4L112.3,214.2z"/>
				</g>
				<g>
					<polygon class="st2" points="99.4,272.8 98.9,275.1 98.3,277.4 98.3,279.8 97.4,282 96.7,284.3 94.7,285.8 93.7,287.9 
						91.8,289.3 90.6,291.4 88.6,292.6 86.7,294.1 84.5,295.1 82.3,296 80,296.5 77.6,296 75.3,297.1 73,296 70.6,296 68.2,296 
						66.3,294.5 63.9,294.1 62,292.6 59.9,291.5 58.5,289.5 56.8,287.9 55.9,285.7 53.9,284.2 53.2,282 52.8,279.6 52,277.4 
						51.8,275.1 51.7,272.8 51.7,270.5 52,268.1 52,265.7 53.5,263.8 54.6,261.7 55.5,259.6 56.7,257.6 58.5,256 60.2,254.4 
						62.1,253 64.2,252.1 66.1,250.7 68.4,250 70.6,249.3 73,249.4 75.3,249.4 77.6,249.1 79.9,249.6 82,250.5 84.4,250.6 
						86.4,251.9 88.3,253.2 90.2,254.6 91.9,256.1 93.4,257.9 95.1,259.5 96.4,261.5 97,263.8 97.8,266 99.2,268 99.3,270.4 					
						"/>
				</g>
			</g>
			<g>
				<polygon class="st1" points="133.4,189.6 131.6,190.3 129.2,190.2 126.9,190.6 124.6,191.2 122.3,192 120,192.2 117.5,191.9 
					115.3,192.8 113.1,193.6 110.7,193.9 108.4,194.4 106.4,195.8 104.1,196.5 102.2,197.9 100.3,199.3 98.4,200.8 96.7,202.4 
					95.2,204.1 94.3,206.4 92.5,208 92,210.4 91.4,212.6 90.8,214.9 89.3,216.9 89.1,219.3 88,221.5 88.1,223.9 87.3,226.1 
					87.2,228.5 87,230.9 85.9,233.1 85.8,235.4 85.8,238.1 85.5,235.5 85.1,233.1 84.5,230.8 83.8,228.6 84.2,226.1 83.8,223.8 
					83.2,221.5 82.8,219.1 81.7,217 81.7,214.5 80.8,212.3 79.3,210.4 78.5,208.2 77.6,206 76.6,203.8 74.4,202.6 73.4,200.2 
					71.3,199 69.4,197.6 67.1,197.1 65,196.1 63.1,194.4 60.5,194.6 58.4,193.6 56.2,192.6 53.8,192.4 51.6,191.7 49.2,191.6 
					47,190.6 44.6,190.6 42.3,190.1 39.9,189.9 37.8,189.6 39.8,188.9 42.3,189.3 44.6,188.6 46.8,187.7 49.3,188.1 51.5,187.3 
					53.9,186.9 56.2,186.5 58.3,185.3 60.9,185.6 62.9,184.2 65.4,184 67.3,182.6 69.5,181.7 71.2,179.9 73.1,178.5 74.6,176.8 
					76,174.9 78.1,173.5 78.8,171.2 79.5,168.9 80.6,166.8 81,164.5 82.1,162.4 82.2,159.9 83.5,157.8 83,155.4 83.8,153.1 
					83.8,150.7 84.7,148.5 84.6,146.1 84.9,143.7 85.7,141.2 86.3,143.8 86.1,146.2 86.9,148.4 86.7,150.9 87.1,153.2 87.8,155.5 
					88.4,157.8 89.5,159.9 89.9,162.2 90.5,164.5 91.4,166.7 91.6,169.1 92.8,171.2 94.4,173 95.5,175.1 96.9,176.9 98.7,178.4 
					100.1,180.4 102.4,181.1 104.5,182.1 106.3,183.9 108.6,184.4 110.8,185.2 113.2,185.4 115.2,186.9 117.6,187.2 120.1,187 
					122.3,187.6 124.7,187.9 126.9,188.6 129.2,189.3 131.6,189.1 				"/>
			</g>
		</g>
	</g>
	<g>
		<g>
			<g>
				<g>
					<polygon class="st0" points="406.1,71.4 407.6,72.9 407.1,75.2 406.2,77.5 406.3,79.9 405.7,82.2 405.6,84.5 405,86.8 
						405.3,89.3 404.7,91.6 404.2,93.9 402.7,95.6 400.5,95.4 398.3,95.5 396.2,95.3 394,95.6 391.8,95.2 389.6,94.9 387.4,95.3 
						386,93.9 386.7,91.6 387.3,89.3 387.1,86.9 387.3,84.6 388,82.3 388.1,79.9 388.9,77.6 389.1,75.2 389.2,72.8 390.8,71.4 
						393,71.8 395.2,71.4 397.3,71.7 399.5,71.8 401.7,71.9 403.9,71.3 					"/>
				</g>
				<g>
					<polygon class="st0" points="381.4,81.5 382.7,83.2 381.9,85.4 382.1,87.8 381.9,90.1 381.5,92.4 380.7,94.7 380.9,97.1 
						380.6,99.4 380,101.6 379.6,103.9 378.9,106.2 378.8,108.6 378.8,110.9 377.1,112.4 374.9,112.2 372.7,112.2 370.5,112.2 
						368.3,112.1 366.1,112 363.9,111.9 361.7,112.1 360.8,110.9 361,108.6 361.5,106.3 361.8,104 362.3,101.7 362.6,99.4 
						362.7,97.1 362.7,94.7 363.3,92.5 363.4,90.1 364.1,87.9 364.5,85.6 364.3,83.2 366.1,81.6 368.3,82.1 370.5,81.9 372.6,81.9 
						374.8,81.8 377,81.7 379.2,81.5 					"/>
				</g>
				<g>
					<polygon class="st0" points="400.7,75.9 399.4,77.5 397,77.3 394.6,77.2 392.3,77.5 389.9,77.6 387.6,77.5 385.2,77.3 
						382.9,77.5 380.5,77 378.2,76.9 375.8,77.5 373.5,77 371.1,77.6 368.8,77 366.4,77.1 364,77.4 361.7,77.3 359.3,77.2 
						356.9,77.5 354.6,77.1 352.2,77.2 349.8,77.1 347.4,77.3 345.8,75.9 346.1,72.9 347.1,71.4 349.4,71.6 351.7,71.3 354,71.5 
						356.4,71.4 358.7,71.6 361,71.7 363.3,71.8 365.7,71.7 368,71.6 370.3,71.9 372.6,71.7 374.9,71.3 377.2,71.2 379.5,71.2 
						381.9,71.9 384.2,71.2 386.5,71.3 388.8,71.8 391.2,71.8 393.5,71.8 395.8,71.6 398.2,71.6 400.1,72.8 					"/>
				</g>
			</g>
			<g>
				<g>
					<polygon class="st0" points="920.2,71.9 921.8,72.9 920.8,75.1 920.8,77.5 920.4,79.9 920.1,82.2 919.4,84.5 919.7,86.9 
						919.4,89.2 918.4,91.5 918,93.9 916.8,95.6 914.7,95.1 912.5,95.2 910.3,95.1 908.1,95.3 905.9,95.4 903.7,95.2 901.5,95 
						900.1,93.9 900.8,91.6 901.1,89.2 901.4,86.9 901.4,84.6 901.7,82.2 902.3,79.9 902.7,77.6 902.8,75.2 903.7,72.9 904.9,71.4 
						907.1,71.6 909.3,71.4 911.5,71.2 913.7,71.3 915.9,71.3 918.1,71.3 					"/>
				</g>
				<g>
					<polygon class="st0" points="895.6,81.9 896.9,83.2 896.1,85.5 895.9,87.8 895.6,90.1 895.7,92.4 895,94.7 894.5,97 
						894.1,99.3 894.2,101.6 894,104 893.5,106.2 892.8,108.5 892.6,110.9 891.2,112.3 889,112 886.8,112.5 884.7,112.2 
						882.5,112.1 880.3,111.9 878.1,112.4 875.9,112.3 874.8,110.9 875.1,108.6 875.6,106.3 875.6,103.9 876.1,101.7 876.6,99.4 
						877.1,97.1 876.7,94.7 877.3,92.5 877.8,90.2 878.2,87.9 878.8,85.6 878.5,83.2 880.2,82 882.4,81.8 884.6,81.6 886.8,81.9 
						889,81.5 891.2,82.3 893.4,81.5 					"/>
				</g>
				<g>
					<polygon class="st0" points="914.3,76 913.5,77.1 911.1,77.2 908.8,77.5 906.4,77 904.1,77.3 901.7,77.5 899.4,77.4 897,77.5 
						894.7,77.5 892.3,77.3 889.9,77.3 887.6,77.6 885.2,77 882.9,77.5 880.5,77 878.2,77.5 875.8,76.9 873.4,77.3 871.1,77.1 
						868.7,77.3 866.3,77.5 864,77.2 861.6,77.4 859.8,75.9 859.7,72.9 861.2,71.2 863.5,71.2 865.9,71.6 868.2,71.8 870.5,71.4 
						872.8,71.5 875.1,71.8 877.5,71.9 879.8,71.6 882.1,71.8 884.4,71.8 886.7,71.8 889,71.5 891.4,71.9 893.7,71.2 896,71.6 
						898.3,71.7 900.7,71.4 903,71.4 905.3,71.5 907.7,71.5 910,71.2 912.3,71.4 913.9,72.9 					"/>
				</g>
			</g>
			<g>
				<g>
					<polygon class="st0" points="661.9,92.2 660.8,93.5 658.4,93.2 656,93.6 653.7,93.5 651.3,93.5 648.9,93.3 646.5,93.2 
						644.2,93.6 641.8,93.2 639.4,93.4 637,93.5 634.6,93.2 632.2,93.8 629.9,93.6 627.5,93.6 625.1,93.6 622.7,93.4 620.3,93.7 
						618.9,92.2 618.1,89.1 619.1,88 621.4,88.2 623.7,87.7 626,87.4 628.3,87.9 630.6,87.4 632.8,88.1 635.2,88.1 637.5,87.9 
						639.8,88.1 642,87.9 644.3,87.9 646.6,87.8 648.9,87.7 651.2,87.9 653.5,87.8 655.8,87.9 658.2,88.1 660.5,88.1 661.6,89.1 
											"/>
				</g>
				<g>
					<polygon class="st0" points="634.7,71.3 636.1,72.9 635.2,75.2 635,77.6 635.2,80 634.5,82.3 634,84.7 634,87.1 633.9,89.5 
						632.9,91.8 632.9,94.2 632.8,96.6 632.2,99 632.1,101.4 631.7,103.7 631.2,106.1 630.4,108.4 630.2,110.9 628.9,112 
						626.7,112.1 624.5,112 622.4,112.4 620.2,112.1 618,112.1 615.8,112 613.6,112.1 612.4,110.9 612.5,108.5 613.4,106.2 
						613.1,103.7 614,101.4 614.1,99 614.6,96.7 615,94.3 614.9,91.9 615.1,89.5 616.1,87.2 616.4,84.8 616.5,82.4 617.1,80.1 
						617.2,77.6 617.2,75.2 617.9,72.9 619.4,71.3 621.6,71.9 623.8,71.5 626,71.7 628.2,71.9 630.3,71.7 632.5,71.6 					"/>
				</g>
			</g>
			<g>
				<g>
					<polygon class="st0" points="776.7,79.7 775.5,81 773.2,81.4 770.8,81.2 769.7,79.7 769.5,77.4 769.4,75.1 768.8,72.7 
						770.2,71.6 772.6,71.2 775,71.2 776.8,72.7 776.7,75.1 776.8,77.4 					"/>
				</g>
				<g>
					<polygon class="st0" points="789.2,79.7 787.7,81 785.3,81 782.9,81.4 781.7,79.7 781.2,77.4 781.1,75.1 781.3,72.7 
						782.3,71.6 784.7,71 787.1,71.5 788.4,72.7 788.3,75.1 788.8,77.4 					"/>
				</g>
				<g>
					<polygon class="st0" points="787.3,92.2 786.2,93.2 783.8,93.5 781.4,93.6 779,93.8 776.6,93.2 774.3,93.4 771.9,93.5 
						769.5,93.2 767.1,93.4 764.7,93.8 762.4,93.1 760,93.6 757.6,93.8 755.2,93.8 752.8,93.7 750.4,93.7 748,93.3 745.6,93.7 
						744,92.2 743.2,89.2 744.5,87.8 746.8,87.5 749,87.9 751.3,87.7 753.6,87.8 755.9,87.9 758.2,87.5 760.5,87.6 762.8,88.2 
						765.1,87.4 767.4,87.9 769.7,88 772,87.4 774.3,88 776.6,88.1 778.9,87.7 781.2,87.9 783.5,87.9 785.8,88.1 787.5,89.1 					
						"/>
				</g>
				<g>
					<polygon class="st0" points="760.1,71.5 760.9,72.8 760.9,75.2 760.7,77.6 760.1,79.9 759.9,82.3 759.5,84.7 759.2,87.1 
						758.8,89.4 758.3,91.8 758.1,94.2 758,96.6 757.2,98.9 757.2,101.3 757.1,103.7 756.1,106 755.8,108.4 755.6,110.9 
						754.2,112.2 752.1,112.4 749.9,111.9 747.7,112.1 745.5,112.6 743.3,112.6 741.1,112.1 738.9,111.8 737.7,110.9 738.2,108.5 
						738.5,106.1 738.9,103.8 739.2,101.4 739.3,99 739.9,96.7 740.2,94.3 740.4,91.9 741.2,89.6 740.9,87.1 741.9,84.8 742.1,82.4 
						742.3,80.1 742.5,77.6 742.6,75.2 743.3,72.9 744.8,71.6 747,71.3 749.2,71.2 751.3,71.3 753.5,71.8 755.7,71.6 757.9,71.9 
											"/>
				</g>
			</g>
			<g>
				<g>
					<polygon class="st0" points="493.1,71.2 494.5,72.9 494.1,75.4 493.7,77.8 493.4,80.4 492.5,82.8 492.4,85.3 492,87.8 
						490.6,89.3 488.4,89.2 486.2,89 484.1,89.4 481.9,88.9 479.7,89.4 477.5,89.4 475.3,89.5 474.5,87.9 474.5,85.3 474.5,82.8 
						475.6,80.4 475.4,77.8 475.7,75.3 476.5,72.9 477.8,71.4 480,71.2 482.2,71.3 484.4,71.6 486.5,71.8 488.7,71.5 491,71.9 					
						"/>
				</g>
				<g>
					<polygon class="st0" points="513.5,66.7 514.9,68.3 514.2,70.3 514.1,72.3 512.5,73.7 510.3,73.3 508.1,73.7 506,73.2 
						503.8,73.6 501.6,73.4 499.4,73.6 497.2,73.9 496.3,72.3 496,70.2 496.5,68.2 498.1,66.8 500.3,66.6 502.5,66.6 504.7,66.6 
						506.9,66.7 509.1,66.6 511.2,66.7 					"/>
				</g>
				<g>
					<polygon class="st0" points="533.5,71.2 534.9,72.9 534.1,75.2 533.7,77.6 533.2,79.9 533.6,82.4 532.9,84.7 532.4,87.1 
						531.9,89.4 532,91.8 531.3,94.2 531.3,96.6 530.6,98.9 530.6,101.3 530,103.7 530,106.1 529.4,108.5 529.3,110.9 527.6,112.2 
						525.4,112 523.3,112.2 521.1,112.1 518.9,112.3 516.7,112.4 514.5,112.6 512.3,112.5 510.9,110.8 511.7,108.5 511.8,106.1 
						512.4,103.8 512.8,101.4 512.9,99 512.8,96.6 513.5,94.3 513.5,91.9 514.6,89.6 514.8,87.2 515.1,84.8 515.6,82.4 515.6,80 
						516.1,77.7 515.9,75.2 516.2,72.8 518.2,71.4 520.4,71.4 522.5,71.9 524.7,71.3 526.9,71.3 529.1,71.3 531.3,71.2 					"/>
				</g>
				<g>
					<polygon class="st0" points="527.6,76 526.7,77.6 524.3,77.5 522,76.9 519.6,77.6 517.2,77.5 514.8,77.1 512.4,77.2 
						510.1,77.1 507.7,76.9 505.3,76.9 502.9,77.1 500.5,77.5 498.2,77.1 495.8,77.2 493.4,77.2 491,77.3 488.6,77.1 486.2,77 
						483.8,77 481.4,77.3 479,77.1 477.6,75.9 476.7,72.9 477.8,71.5 480.2,71.6 482.6,71.3 485,71.5 487.4,71.6 489.7,71.7 
						492.1,71.7 494.5,71.6 496.9,71.4 499.2,71.2 501.6,71.7 504,71.2 506.4,71.7 508.8,71.8 511.2,71.4 513.6,71.6 516,71.8 
						518.3,71.6 520.8,71.9 523.2,71.6 525.6,71.4 526.8,72.9 					"/>
				</g>
				<g>
					<polygon class="st0" points="528.9,110.9 527.6,112.5 525.4,112.6 523.1,112.2 520.8,112.4 518.6,112.6 516.3,112.4 514,112.3 
						511.7,112.5 509.5,112.2 507.2,112.4 504.9,112.4 502.6,111.9 500.3,112.6 498,111.8 495.8,111.9 494.4,110.9 493.8,107.8 
						495.4,106.8 497.8,106.7 500.1,106.7 502.5,106.5 504.9,106.1 507.3,106.5 509.7,106.3 512.1,106.4 514.5,106.2 516.9,106.3 
						519.2,106.1 521.6,106.4 524,106.8 526.5,106.6 527.9,107.8 					"/>
				</g>
			</g>
		</g>
	</g>
</g>
</svg>
