<!--?xml version="1.0" encoding="utf-8"?-->
<!-- Generator: Adobe Illustrator 18.0.0, SVG Export Plug-In . SVG Version: 6.00 Build 0)  -->

<svg version="1.1" id="_x32_" xmlns="http://www.w3.org/2000/svg" xmlns:xlink="http://www.w3.org/1999/xlink" x="0px" y="0px" viewBox="0 0 512 512" style="width: 32px; height: 32px; opacity: 1;" xml:space="preserve">
<style type="text/css">
	.st0{fill:#4B4B4B;}
</style>
<g>
	<path class="st0" d="M387.754,62.365l-45.922-14.489l0.008,0.095l-0.248-0.078c0.09,1.43,0.244,2.848,0.244,4.301
		c0,18.734-171.672,18.068-171.672,0c0-1.292,0.127-2.554,0.217-3.823l0.1-0.249l-0.086,0.028c0.004-0.085,0.008-0.171,0.014-0.256
		L0,101.316v76.535v73.028c0,1.883,1.619,3.356,3.494,3.18l86.307-8.115c10.576-0.994,19.715,7.324,19.715,17.947v200.234h292.969
		V263.89c0-10.623,9.139-18.941,19.715-17.947l86.309,8.115c1.873,0.176,3.492-1.297,3.492-3.18V177.85v-76.535L387.754,62.365z
		 M341.449,76.668c0.484-0.404,0.984-0.802,1.43-1.226c1.865-1.728,3.387-3.59,4.539-5.597c1.5,5.322,2.262,10.888,2.262,16.54
		c0,41.881-41.967,75.816-93.68,75.816c-51.711,0-93.68-33.935-93.68-75.816c0-5.726,0.77-11.369,2.308-16.754
		c9.402,17.951,46.754,22.82,91.371,22.82c37.053,0,69.035-3.386,84.221-14.804C340.652,77.33,341.045,76.996,341.449,76.668z" style="fill: rgb(255, 255, 255);"></path>
</g>
</svg>
