<?xml version="1.0" encoding="iso-8859-1"?>
<!-- Generator: Adobe Illustrator 21.1.0, SVG Export Plug-In . SVG Version: 6.00 Build 0)  -->
<svg version="1.1" id="_x34_" xmlns="http://www.w3.org/2000/svg" xmlns:xlink="http://www.w3.org/1999/xlink" x="0px" y="0px"
	 viewBox="0 0 512 512" style="enable-background:new 0 0 512 512;" xml:space="preserve">
<g>
	<path style="fill:#231815;" d="M232.289,33.186c-17.237,3.43-34.604,3.951-51.347,9.697c-6.69,2.296-13.45,4.397-20.134,6.668
		c-1.423,0.483-2.559,0.517-3.14,1.955c-1.103,2.73,2.02,6.02,4.501,5.879c3.502-0.199,6.579-4.935,9.743-6.123
		c3.307-1.242,7.056-2.011,10.456-3.145c7.152-2.384,14.279-4.518,21.644-6.126c8.429-1.84,15.248-2.618,23.757-1.93
		c3.946,0.319,7.309-0.034,9.297-4.016C239.177,31.817,235.623,30.983,232.289,33.186z"/>
	<path style="fill:#231815;" d="M302.625,42.805c-0.74,3.101-1.871,6.85-1.507,10.101c0.265,2.368,0.974,1.868,1.851,3.134
		c2.46,3.551,4.839,7.51,8.739,10.402c6.48,4.805,11.564,7.46,15.875,14.644c4.497,7.494,6.923,17.237,12.531,23.967
		c1.329,1.595,5.769,4.849,6.785,0.895c0.612-2.379-4.003-6.885-5.129-8.578c-5.16-7.753-9.587-15.969-14.706-23.755
		c-1.868-2.841-3.076-6.027-5.319-8.594c-2.511-2.874-6.296-5.056-8.225-8.423c-1.711-2.985-1.912-6.203-4.381-8.907
		C307.314,45.693,304.945,44.16,302.625,42.805z"/>
	<path style="fill:#231815;" d="M201.41,77.952c-7.764,2.263-17.254,2.683-24.359,6.735c-10.077,5.746,4.807,9.077,9.113,9.634
		c20,2.588,40.349-3.69,60.078,1.101c2.95,0.716,8.646,4.248,11.6,3.669c5.355-1.049,1.595-5.302-1.206-6.422
		c-4.193-1.676-8.928-1.201-13.32-1.568c-2.987-0.25-5.878-0.955-8.885-1.184c-10.635-0.807-21.107,1.035-31.704,1.512
		c-3.701,0.167-7.419,0.189-11.12,0.029c-2.828-0.122-10.667,0.424-13.045-1.657c-3.148-2.754,3.808-3.951,5.89-4.363
		c5.642-1.118,11.583-0.823,17.152-2.33c1.813-0.49,8.889-3.345,7.891-6.382C208.673,74.224,203.045,77.122,201.41,77.952z"/>
	<path style="fill:#231815;" d="M196.16,94.146c8.776,6.054,11.345,16.115,7.093,25.801c-2.141,4.878-5.563,9.191-9.55,12.698
		c-0.454,0.399-8.538,6.387-8.859,5.505c-0.422-1.155,7.41-9.398,8.348-10.538c3.556-4.32,7.107-9.438,7.335-15.25
		c0.145-3.698-0.6-8.054-2.902-11c-1.806-2.312-4.531-3.938-7.144-5.174c-1.528-0.723-4.934-1.183-5.929-2.6
		C183.87,92.618,194.742,93.63,196.16,94.146z"/>
	<path style="fill:#231815;" d="M239.632,38.121c-2.615,1.822-4.652,6.536-0.646,7.853c3.812,1.253,8.115-2.96,10.279-5.573
		c5.286-6.384,7.097-16.802,15.108-20.629c6.57-3.139,11.594,5.26,14.669,10.076c2.53,3.962,4.622,8.185,6.967,12.255
		c1.497,2.599,4.394,9.187,7.971,9.73c9.751,1.482-2.662-13.603-4.196-15.326c-5.271-5.922-8.422-13.582-14.494-18.816
		C260.622,5.046,249.48,31.212,239.632,38.121z"/>
	<path style="fill:#231815;" d="M190.593,29.545c-1.244,1.65-0.133,4.488,1.728,5.176c2.256,0.833,4.02-1.313,5.104-2.935
		c2.672-3.997,1.954-11.055,6.7-13.497c5.09-2.62,7.347,1.73,9.845,5.422c1.751,2.587,7.382,13.318,11.727,11.155
		c4.807-2.393-1.881-7.407-3.715-8.756c-3.978-2.927-5.639-7.535-9.307-10.674C202.873,7.05,194.768,23.374,190.593,29.545z"/>
	<path style="fill:#231815;" d="M178.025,170.367c-3.721,0.921-8.043,1.985-11.071,4.467c-2.414,1.978-2.839,4.364-3.875,7.03
		c-3.705,9.537-9.564,18.212-13.346,27.763c-7.369,18.614-4.965,38.756,0.166,57.64c1.24,4.563,2.683,9.055,3.67,13.685
		c0.947,4.444,1.354,9.761,5.372,12.687c4.299,3.13,4.222-0.258,2.826-3.406c-1.673-3.774-2.766-7.298-3.865-11.306
		c-4.789-17.468-15.626-39.414-7.107-57.334c4.762-10.015,10.14-19.711,15.723-29.291
		C170.733,185.071,175.329,178.374,178.025,170.367z"/>
	<path style="fill:#231815;" d="M354.075,109.564c-2.174-1.951-6.707-3.133-8.213,0.29c-1.434,3.259,2.063,6.926,4.044,8.999
		c5.971,6.247,12.978,11.351,18.712,17.857c5.789,6.566,10.497,13.974,16.469,20.396c2.859,3.075,5.681,6.153,8.373,9.378
		c2.223,2.663,4.89,6.972,8.394,8.232c2.723,0.979,5.854,0.048,5.726-3.321c-0.105-2.772-3.64-5.878-5.584-7.591
		c-5.525-4.868-11.482-8.553-16.282-14.288c-5.311-6.344-10.477-12.912-15.377-19.575
		C365.239,123.009,360.507,115.373,354.075,109.564z"/>
	<path style="fill:#231815;" d="M343.368,161.156c2.408,3.251,2.848,7.944,5.176,10.943c1.325,1.707,3.681,1.79,5.635,2.947
		c7.435,4.403,14.342,9.983,21.533,14.79c8.68,5.802,15.217,13.642,25.86,15.999c4.1,0.908,8.319,1.136,12.428,2.006
		c2.358,0.499,8.615,3.006,10.148-0.19c2.636-5.492-14.309-5.663-17.178-5.851c-10.193-0.668-18.037-5.047-25.192-12.254
		c-5.765-5.807-10.561-12.182-16.933-17.626C358.742,166.707,352.127,159.873,343.368,161.156z"/>
	<path style="fill:#231815;" d="M408.72,167.26c-2.076,3.445-2.52,8.418-0.113,11.854c1.847,2.635,4.244,2.694,7.041,3.279
		c8.957,1.874,17.692,4.239,26.792,5.529c7.753,1.099,15.26,1.824,22.92,3.622c6.307,1.48,14.24,2.283,19.791,5.91
		c7.367,4.813,11.023,14.649,19.612,17.899c1.944,0.736,8.134,1.413,7.127-2.257c-0.629-2.293-7.35-4.323-9.261-5.744
		c-6.249-4.647-10.578-11.992-18.03-14.96c-8.237-3.281-17.743-3.872-26.273-6.415c-8.197-2.443-16.093-5.544-24.449-7.778
		C425.249,175.892,415.673,173.226,408.72,167.26z"/>
	<path style="fill:#231815;" d="M469.315,210.407c5.835,3.585,12.636,5.607,17.993,9.978c1.433,1.17,8.14,8.122,5.272,10.564
		c0.602-0.512-6.901-7.051-7.403-7.423c-2.965-2.197-6.326-3.126-9.557-4.754c-2.247-1.132-14.622-8.068-13.171-9.655
		C463.088,208.416,468.234,210.238,469.315,210.407z"/>
	<path style="fill:#231815;" d="M485.723,207.403c5.65,3.019,11.417,6.099,15.754,10.928c1.512,1.684,8.042,10.595,4.929,13.222
		c1.549-1.307-11.51-13.628-13.131-14.669c-1.824-1.172-15.377-8.963-14.815-9.956C479.009,205.956,484.633,207.28,485.723,207.403z
		"/>
	<path style="fill:#231815;" d="M343.758,181.902c-3.216-9.445-7.275-18.617-10.237-28.146c-0.715-2.302-4.297-12.593,1.047-9.402
		c2.664,1.59,4.656,6.81,5.81,9.384c2.169,4.837,3.987,9.883,5.865,14.841c3.775,9.965,7.184,20.115,9.126,30.615
		c3.587,19.382,2.464,40.48-6.08,58.469c-3.37,7.095-7.819,13.503-13.149,19.261c-0.877,0.947-17.022,14.757-17.362,13.454
		c-0.488-1.869,6.621-7.675,7.829-9.106c3.258-3.858,6.177-7.971,8.714-12.339c4.746-8.169,8.235-16.969,10.508-26.133
		C350.809,222.729,348.957,201.717,343.758,181.902z"/>
	<path style="fill:#231815;" d="M161.691,301.188c1.856-1.255,11.01-6.215,10.41-9.215c-0.813-4.071-9.665-0.372-11.644,0.584
		c-10.583,5.114-18.771,14.979-25.215,24.536c-6.712,9.954-10.674,22.018-12.353,33.866c-0.805,5.679-1.515,12.422,0.523,17.924
		c2.237,6.038,7.874,10.783,12.272,15.231c9.208,9.313,17.824,19.158,22.181,31.739c1.729,4.992,2.243,10.241,3.78,15.27
		c1.696,5.552,4.6,5.815,5.641,0.009c4.304-24.011-20.668-40.941-34.595-56.116c-4.942-5.384-6.69-10-6.515-17.331
		c0.196-8.235,2.469-16.422,5.946-23.858C138.211,320.806,149.884,309.181,161.691,301.188z"/>
	<path style="fill:#231815;" d="M264.978,320.399c-11.334,6.101-24.275,3.746-36.473,5.207
		c-10.656,1.277-20.675,6.773-28.041,14.478c-8.215,8.592-16.159,21.83-16.386,34.053c-0.221,11.911,9.176,20.909,14.623,30.677
		c11.215,20.111,13.166,49.305-4.222,66.57c-17.668,17.543-42.965,10.375-64.994,10.617c-11.421,0.126-24.497,0.907-34.626,6.758
		c-1.698,0.981-10.738,6.972-8.143,9.629c2.168,2.219,14.268-3.302,16.739-4.027c9.282-2.721,18.712-4.501,28.377-4.898
		c11.709-0.48,23.503,1.35,35.168,0.481c22.08-1.645,40.301-16.428,44.667-38.47c4.057-20.481-5.039-40.529-15.854-57.358
		c-3.995-6.217-8.409-12.771-7.715-20.52c0.586-6.551,3.989-12.82,7.355-18.326c5.264-8.611,12.926-17.967,23.235-20.245
		c14.606-3.227,28.24,5.114,42.584,3.338c5.757-0.713,13.336-2.962,16.48-8.354c1.29-2.212,1.428-4.033,0.318-6.333
		c-0.311-0.644-5.506-6.806-6.538-6.222c-0.748,0.661-0.198,1.723-1.744,2.571C268.491,320.734,266.398,320.57,264.978,320.399z"/>
	<path style="fill:#231815;" d="M130.258,474.323c-11.306-0.606-21.103,0.78-31.879,3.776c-5.61,1.56-11.282,2.967-16.714,5.093
		c-0.969,0.379-12.439,5.446-12.253,6.035c-0.304-0.961,5.352-5.572,5.985-6.066c2.729-2.128,5.814-3.625,9.034-4.845
		c7.252-2.747,14.949-5.028,22.397-7.189c5.055-1.467,10.093-1.184,15.294-1.081c4.063,0.081,8.128,0.161,12.186,0.383
		c2.283,0.125,7.875-0.384,9.736,1.152c0.498,0.411-7.046,1.812-7.52,1.881C134.438,473.764,132.348,474.039,130.258,474.323z"/>
	<path style="fill:#231815;" d="M125.603,463.04c-12.134-0.206-24.502,1.714-35.964,5.713c-4.508,1.573-8.879,3.575-12.915,6.139
		c-0.869,0.552-10.323,7.432-9.974,7.963c-0.48-0.731,3.737-6.323,4.143-6.817c2.366-2.878,5.347-5.077,8.573-6.904
		c6.956-3.939,14.795-6.297,22.511-8.23c6.316-1.583,12.867-1.623,19.355-1.85c3.727-0.131,15.086-1.562,18.146,1.806
		c0.278,0.306-7.119,1.18-7.665,1.245C129.735,462.352,127.659,462.647,125.603,463.04z"/>
	<path style="fill:#231815;" d="M168.403,441.229c-13.429,11.034-32.245,10.705-48.534,10.208
		c-8.706-0.266-17.839-0.461-26.322,1.831c-3.398,0.918-6.752,2.268-9.525,4.48c-0.651,0.519-6.54,6.884-6.148,7.185
		c-0.91-0.697,1.995-7.162,2.424-7.941c1.525-2.767,3.77-4.997,6.42-6.706c6.2-4,14.004-4.811,21.195-5.273
		c12.205-0.784,24.277-0.156,36.456-1.571c8.351-0.97,26.059-5.454,22.6-17.07c-0.254-0.852-2.75-5.126-2.048-5.898
		c1.219-1.341,5.061,4.048,5.585,4.917C173.775,430.818,172.309,436.619,168.403,441.229z"/>
	<path style="fill:#231815;" d="M279.956,323.456c6.416,8.916,15.185,12.953,23.872,19.074c7.782,5.483,13.401,14.319,12.158,24.112
		c-1.44,11.345-9.919,20.839-17.025,29.201c-6.624,7.795-13.684,15.698-18.407,24.85c-9.4,18.216-11.882,41.328,9.388,51.876
		c17.275,8.567,38.058,3.376,56.553,5.421c8.897,0.983,19.986,2.607,25.939,10.096c1.574,1.98,4.538,6.678,0.644,6.815
		c-1.756,0.062-5.156-2.238-6.741-2.876c-2.954-1.19-5.963-2.215-9.015-3.123c-7.908-2.353-15.832-3.839-24.047-4.424
		c-10.96-0.781-22.367,0.76-33.162-1.467c-19.974-4.12-36.272-20.382-31.804-41.876c3.931-18.912,17.715-34.8,29.095-49.688
		c6.182-8.087,15.28-19.458,13.216-30.49c-1.889-10.096-16.733-13.046-24.809-15.371c-8.28-2.383-22.372-9.571-19.91-20.515
		c0.385-1.71,3.066-8.252,5.412-8.152c1.395,0.059,2,2.391,2.968,3.355C275.804,321.787,277.957,322.755,279.956,323.456z"/>
	<path style="fill:#231815;" d="M332.621,461.746c11.97,1.426,23.704,3.613,34.743,8.639c4.761,2.168,9.33,4.802,13.583,7.85
		c0.478,0.342,8.447,6.99,8.061,7.219c-0.494,0.293-6.409-3.01-6.953-3.27c-3.598-1.721-7.039-3.724-10.583-5.545
		c-6.231-3.202-12.742-5.612-19.594-7.071c-4.57-0.973-8.987-2.42-13.63-3.096c-3.738-0.544-7.512-0.789-11.263-1.224
		c-1.77-0.205-6.22-0.149-7.555-1.604C319.6,463.829,330.867,461.888,332.621,461.746z"/>
	<path style="fill:#231815;" d="M343.88,452.137c11.39-0.215,22.981,3.284,33.309,7.843c4.991,2.203,9.841,4.79,14.33,7.899
		c0.579,0.401,9.26,7.519,8.624,7.856c-1.084,0.574-10.68-5.336-11.805-5.919c-7.183-3.718-14.299-7.337-22.143-9.478
		c-5.333-1.456-10.833-3.322-16.337-3.919c-3.583-0.389-7.254-0.333-10.817,0.234c-1.793,0.285-5.442,1.989-7.2,1.535
		c-1.047-0.27,5.72-4.136,6.047-4.271C339.806,453.126,341.846,452.535,343.88,452.137z"/>
	<path style="fill:#231815;" d="M330.88,282.584c-2.336,5.501-8.735,18.369-0.908,21.939c3.774,1.722,7.893,2.217,11.115,5.189
		c3.025,2.79,1.975,6.664,3.271,10.373c6.414,18.351,10.663,38.111,0.012,55.835c-9.305,15.484-27.885,24.929-34.163,42.23
		c-3.614,9.958-1.283,21.564,8.967,26.358c9.801,4.585,21.441,1.19,31.624,0.023c9.885-1.133,20.069-0.989,27.789,6.254
		c7.138,6.697,12.019,14.498,22.474,16.456c3.637,0.681,9.165,0.011,9.066-4.885c-0.11-5.41-6.731-3.398-10.157-4.679
		c-9.542-3.569-15.993-12.278-25.145-16.482c-8.704-3.999-18.615-2.849-27.795-1.519c-9.318,1.35-23.196,5.178-30.341-3.31
		c-13.847-16.45,16.149-37.822,25.308-48.256c13.937-15.878,18.833-34.907,14.508-55.712c-0.991-4.766-2.802-9.26-3.938-13.969
		c-1.225-5.082-1.604-11.07-4.353-15.646c-2.487-4.139-7.508-5.507-9.057-10.366C337.717,287.898,337.074,282.424,330.88,282.584z"
		/>
	<path style="fill:#231815;" d="M195.974,126.516c-2.406-6.042-12.713-4.793-17.351-2.916c-4.191,1.696-8.1,5.322-11.806,7.947
		c-12.978,9.191-24.998,19.302-35.221,31.513c-19.587,23.394-41.968,47.55-73.804,52.582c-7.397,1.169-14.944,0.871-22.37,1.876
		c-6.648,0.9-16.183,2.027-20.742,7.633c-0.617,0.759-3.477,5.426-1.449,6.496c1.156,0.61,4.194-3.533,5.457-4.374
		c5.611-3.736,13.082-4.894,19.609-5.817c8.054-1.14,16.185-1.1,24.125-3.039c8.373-2.045,16.314-5.458,23.76-9.772
		c12.976-7.517,23.849-17.589,35.121-27.333c12.354-10.679,22.386-23.468,35.423-33.464c5.978-4.584,12.088-9.02,18.678-12.684
		c3.787-2.106,7.601-4.228,11.559-5.999C188.399,128.522,195.219,127.402,195.974,126.516z"/>
	<path style="fill:#231815;" d="M38.191,232.562c-7.819,1.305-15.114,5.359-21.988,9.102c-2.717,1.479-12.827,8.976-16.193,7.756
		c-0.373-0.135,10.292-9.225,10.841-9.565c4.881-3.02,10.139-6.904,15.59-8.78c4.974-1.712,11.101-3.807,16.358-3.415
		c2.087,0.155,4.58,0.307,2.65,2.076C44.097,230.977,40.003,231.586,38.191,232.562z"/>
	<path style="fill:#231815;" d="M51.783,239.655c-6.029,1.412-11.751,4.277-17.166,7.209c-2.581,1.397-5.112,2.886-7.626,4.4
		c-1.01,0.609-4.831,3.701-6.17,3.493c-0.546-0.085,4.502-6.9,5.051-7.362c3.533-2.979,7.98-5.274,11.975-7.584
		c2.273-1.314,20.528-7.643,20.552-4.436C58.405,236.307,52.571,239.085,51.783,239.655z"/>
	<path style="fill:#231815;" d="M43.815,256.151c-2.651,2.306-2.415,6.931,1.719,6.915c2.837-0.011,5.766-3.148,7.606-4.84
		c5.215-4.792,9.891-9.862,16.541-12.71c4.955-2.122,10.471-3.076,15.287,0.059c2.3,1.497,3.819,3.804,4.666,6.375
		c0.765,2.323-0.008,7.499,2.284,9.117c6.214,4.389,5.172-8.254,3.669-10.989c-3.085-5.613-9.154-9.873-15.464-10.818
		c-5.896-0.883-11.35,1.89-16.495,4.426C56.662,247.117,49.721,251.068,43.815,256.151z"/>
	<path style="fill:#231815;" d="M100.25,241.927c1.504-3.59,3.637-5.692,5.879-8.586c1.646-2.125,0.955-1.399,1.626-4.234
		c1.498-6.33,9.318-13.935,13.995-18.276c6.606-6.13,15.678-10.354,23.693-14.262c1.634-0.797,17.805-6.863,12.161-10.916
		c-3.258-2.339-15.85,7.498-18.308,9.026c-6.994,4.346-13.738,9.654-21.149,13.266C107.931,212.923,88.674,229.552,100.25,241.927z"
		/>
	<path style="fill:#231815;" d="M331.687,96.671c-5.781,0.135-11.567,0.039-17.34-0.307c-0.839-0.05-10.873-1.286-10.596-1.662
		c1.36-1.847,8.512-0.838,10.324-0.784c5.092,0.152,10.174,0.36,15.271,0.304c9.463-0.105,19.336-0.614,28.485-3.203
		c8.157-2.309,21.367-8.205,24.129-17.257c1.408-4.613-1.133-7.868-4.781-10.301c-2.941-1.961-7.726-2.476-10.254-4.723
		c1.12,0.986,6.166,1.31,7.973,2.033c2.953,1.183,6.148,2.799,8.071,5.449c4.476,6.169-0.227,13.195-4.999,17.525
		C365.403,95.145,347.878,96.755,331.687,96.671z"/>
	<path style="fill:#231815;" d="M346.634,60.96c-1.198-0.387-15.966-3.22-15.882-4.045c0.328-3.245,18.041,1.535,19.714,2.819
		c2.228,1.711,1.214,4.798-0.355,7.426c-3.734,6.253-12.61,7.83-19.195,8.85c-3.739,0.579-7.5,0.878-11.259,1.286
		c-1.953,0.212-6.91,1.842-8.807,1.271c0.247,0.039,4.045-1.84,4.512-1.986c2.246-0.704,4.554-1.21,6.848-1.732
		c3.711-0.845,7.456-1.529,11.169-2.366c4.213-0.949,9.271-1.969,12.596-4.986C347.887,65.76,351.125,61.498,346.634,60.96z"/>
	<path style="fill:#231815;" d="M431.815,207.515c-2.796-2.296-9.048-2.432-7.201,2.723c1.423,3.972,7.006,7.43,9.631,10.734
		c2.111,2.657,10.052,20.9,15.43,16.349c2.333-1.974,0.849-7.997,1.448-10.935c2.169-10.635,14.768-0.624,18.343,3.417
		c1.681,1.9,5.898,8.53,8.701,4.422c2.036-2.984-2.488-7.964-4.459-9.73c-4.43-3.968-11.817-7.599-18.026-7.17
		c-4.174,0.289-7.443,2.545-8.609,6.627c-0.426,1.492,0.397,6.059-1.447,5.777c-1.52-0.233-4.387-9.923-5.115-11.308
		C438.334,214.276,435.516,210.431,431.815,207.515z"/>
	<path style="fill:#231815;" d="M261.794,44.789c-5.145-3.429-0.6-17.917,4.939-13.783C270.883,34.104,269.47,49.908,261.794,44.789
		z"/>
	<path style="fill:#231815;" d="M186.453,58.555c-6.249,0.894-6.312-2.705-0.902-5.41C190.963,50.439,192.766,57.653,186.453,58.555
		z"/>
	<path style="fill:#231815;" d="M282.031,95.856c-4.086,2.847-7.772,6.078-12.874,3.741c-5.076-2.325-9.136-5.157-14.681-6.576
		c-8.448-2.161-16.357-4.859-24.566-7.833c-14.797-5.361-29.447-10.514-44.893-13.655c-8.37-1.702-20.465-2.546-27.149-8.218
		c-1.537-1.304-6.357-8.564-1.912-7.434c1.428,0.363,3.922,2.921,5.242,3.776c2.587,1.675,5.043,3.433,7.91,4.603
		c8.769,3.58,18.798,4.445,28.004,6.582c9.947,2.309,19.66,5.679,29.382,8.769c10.093,3.208,20.344,5.884,30.438,9.1
		c3.868,1.232,7.693,2.558,11.534,3.858C272.593,93.966,278.588,93.105,282.031,95.856z"/>
	<path style="fill:#231815;" d="M204.609,36.849c-0.874-2.62-2.531-5.927-1.135-8.676c1.494-2.942,4.734-3.793,6.32-0.793
		C211.761,31.104,210.064,38.98,204.609,36.849z"/>
	<path style="fill:#231815;" d="M349.789,123.416c-1.259,3.145-6.628,11.92-2.429,14.4c1.87,1.105,14.978-0.744,16.43-2.569
		C366.658,131.643,352.091,117.661,349.789,123.416z"/>
	<path style="fill:#231815;" d="M371.43,143.856c8.065,0,9.619,10.821-1.202,12.023C359.407,157.081,363.014,143.856,371.43,143.856
		z"/>
	<path style="fill:#231815;" d="M155.013,306.168c6.614,2.205,14.044,2.95,20.375,5.926c5.403,2.54,3.18,5.254-1.516,7.538
		c-6.008,2.922-13.456,1.439-19.814,0.739c-4.487-0.494-9.108-0.952-13.473-2.18C142.976,313.586,148.585,304.026,155.013,306.168z"
		/>
	<path style="fill:#231815;" d="M132.169,333.822c6.268-0.57,16.099-2.422,22.031,0.5c5.398,2.659,0.062,7.96-3.653,9.598
		C142.689,347.384,128.411,344.88,132.169,333.822z"/>
	<path style="fill:#231815;" d="M336.563,304.966c-4.938,2.116-11.948,5.268-14.992,9.911c-1.506,2.298-1.579,3.879,0.564,5.719
		c3.372,2.896,7.109,1.266,10.621-0.017c5.263-1.923,9.713,0.055,10.403-6.966C343.537,309.767,341.9,302.679,336.563,304.966z"/>
	<path style="fill:#231815;" d="M347.384,336.226c-3.076-0.384-18.902,1.078-14.747,7.342c2.655,4.003,13.752,5.898,18.354,7.086
		C349.789,345.845,348.586,341.036,347.384,336.226z"/>
	<path style="fill:#231815;" d="M174.25,133.035c3.969,3.176,8.392,8.727,9.668,13.735c1.731,6.795-5.187,3.968-9.202,2.836
		c-2.982-0.841-14.163-2.959-12.49-6.953c0.685-1.636,5.965-4.56,7.364-5.711C171.156,135.655,172.709,134.351,174.25,133.035z"/>
	<path style="fill:#231815;" d="M153.811,151.07c4.088,0.681,11.913,9.79,4.949,10.774c-5.132,0.726-11.852-1.511-16.972-2.358
		C145.795,156.681,149.803,153.875,153.811,151.07z"/>
	<path style="fill:#231815;" d="M290.875,65.705c8.416,1.202,14.428,9.618,7.214,8.416S290.875,65.705,290.875,65.705z"/>
	<path style="fill:#231815;" d="M162.227,226.816c2.616-3.488,4.645-9.825,8.278-12.288c2.034-1.379,1.383-1.26,2.495,0.417
		c0.389,0.587,0.245,3.34,0.398,4.042c0.345,1.585,1.023,3.041,1.707,4.498c1.817,3.87,4.792,9.91-2.526,10.123
		C168.402,233.73,164.616,229.861,162.227,226.816z"/>
	<path style="fill:#231815;" d="M177.857,185.937c2.929-2.93,5.733,0.279,5.357,3.552c-0.355,3.09-4.339,7.682-7.717,5.942
		C169.685,192.438,175.669,188.125,177.857,185.937z"/>
	<path style="fill:#231815;" d="M161.024,250.862c-2.405,4.809,0,21.642,3.607,15.63
		C168.238,260.48,163.429,246.053,161.024,250.862z"/>
	<path style="fill:#231815;" d="M181.464,244.851c2.668,4.001,6.012,9.618-1.202,8.416S179.059,241.244,181.464,244.851z"/>
</g>
</svg>
