<?xml version="1.0" encoding="iso-8859-1"?>
<!-- Generator: Adobe Illustrator 18.1.1, SVG Export Plug-In . SVG Version: 6.00 Build 0)  -->
<svg version="1.1" id="_x35_" xmlns="http://www.w3.org/2000/svg" xmlns:xlink="http://www.w3.org/1999/xlink" x="0px" y="0px"
	 viewBox="0 0 512 512" style="enable-background:new 0 0 512 512;" xml:space="preserve">
<g>
	<g>
		<path style="fill:#231815;" d="M195.02,24.861c-2.783,0.029-7.428,0.634-12.121,1.36c-4.696,0.715-9.421,1.568-12.539,1.717
			c-3.122,0.138-7.112,0.799-10.673,1.76c-3.571,0.941-6.66,2.226-8.231,3.043c-0.397,0.201-0.816,0.437-1.245,0.713
			c-0.217,0.137-0.431,0.286-0.652,0.444l-0.33,0.244c-0.16,0.108-0.336,0.266-0.544,0.372c-0.498,0.257-0.631,0.35-0.954,0.534
			l-0.869,0.51c-0.591,0.356-1.2,0.762-1.845,1.177c-2.562,1.694-5.483,3.932-8.718,6.721c-3.227,2.795-4.479,4.15-5.918,5.278
			c-1.426,1.144-2.986,2.116-6.539,4.635c-3.55,2.531-7.811,6.794-10.942,9.746c-3.137,2.948-5.151,4.529-4.035,1.793
			c2.084-5.147,6.275-9.877,10.508-13.705c4.22-3.844,8.456-6.663,10.2-8.553c1.748-1.902,3.58-3.199,5.709-4.608
			c2.142-1.401,4.57-2.918,7.793-5.091c0.814-0.528,1.564-1.06,2.307-1.516l1.078-0.688c0.26-0.171,0.257-0.266,0.683-0.596
			c1.315-1.081,2.589-1.967,3.884-2.797c2.599-1.64,5.3-3.069,8.998-4.57c7.488-2.919,13.08-1.051,20.541-2.993
			c3.766-0.936,3.775-0.909,4.57-1.002c0.805-0.063,2.38-0.318,9.41-1.27c7.064-0.916,11.661,1.198,12.108,3.259
			C207.098,22.882,203.715,24.789,195.02,24.861z"/>
		<path style="fill:#231815;" d="M96.586,78.174l-1.462,1.089l-0.377,0.262l-0.566,0.456c-0.729,0.577-1.356,1.037-1.917,1.419
			c-1.121,0.765-1.967,1.234-2.793,1.725c-1.638,0.983-3.264,2.032-6.607,5.722c-3.271,3.712-2.806,4.051-2.675,4.204
			c0.083,0.081,0.124,0.12-0.302,0.525c-0.397,0.402-1.358,1.178-2.831,2.741c-0.72,0.776-1.236,1.331-1.626,1.681
			c-0.392,0.365-0.665,0.458-0.981,0.605c-0.584,0.27-1.254,0.395-1.849-0.149c-0.605-0.505-0.877-1.818-0.53-3.27
			c0.322-1.452,1.139-2.98,2.217-4.211c2.184-2.434,2.905-3.058,4.166-4.295c1.276-1.211,3.147-2.969,7.924-7.112
			c1.193-1.035,2.364-1.938,3.485-2.718c0.561-0.39,1.105-0.747,1.64-1.082c0.684-0.427,1.121-0.58,1.667-0.839
			c2.052-0.925,3.767-1.455,4.946-1.538C100.442,73.192,100.699,74.908,96.586,78.174z"/>
		<path style="fill:#231815;" d="M227.342,106.075c7.777-0.144,13.059-1.471,13.599-2.937c0.544-1.439-3.81-3.14-15.376-3.072
			c-11.752,0.088-20.629,1.087-30.312,1.762c-4.841,0.339-9.884,0.602-15.559,0.555c-2.839-0.025-5.833-0.129-9.031-0.367
			l-2.411-0.201c-0.821-0.12-1.732-0.199-2.605-0.243c-1.77-0.09-3.579-0.074-5.449-0.025c-7.471,0.246-14.727,0.972-21.791,1.545
			c-7.058,0.598-13.912,1.137-20.483,1.473c-6.57,0.336-12.861,0.483-18.75,0.287c-5.875-0.205-11.395-0.722-16.125-1.949
			c-4.646-1.182-7.453-2.538-9.112-3.462c-0.844-0.451-1.462-0.765-1.915-0.726c-0.442,0.036-0.726,0.447-0.602,1.347
			c0.124,0.88,0.735,2.272,2.177,3.695c1.426,1.434,3.641,2.811,6.496,3.834c5.731,2.066,13.885,2.752,24.197,1.836
			c11.03-1.047,17.218-1.796,24.63-2.409l12.683-1.137c4.989-0.431,11.011-1.117,18.674-1.48c1.525-0.059,3.034-0.079,4.5-0.021
			c1.488,0.021,2.786,0.271,4.41,0.424c3.086,0.323,6.047,0.579,9.013,0.789c5.912,0.418,11.663,0.627,17.26,0.724
			C206.662,106.507,217.243,106.238,227.342,106.075z"/>
		<path style="fill:#231815;" d="M212.687,27.341c-1.8,3.593-2.138,6.474-1.103,7.563c0.525,0.521,1.455,0.537,2.706-0.323
			c1.247-0.853,2.783-2.617,4.267-5.483c2.991-5.844,3.981-10.615,5.535-15.495c0.79-2.418,1.671-4.942,3.329-7.242
			c0.832-1.132,1.893-2.181,3.28-2.842c1.378-0.681,3.081-0.825,4.973-0.553c3.765,0.553,7.252,2.377,10.349,4.43
			c3.104,2.087,5.876,4.493,8.399,6.931c5.036,4.903,9.099,9.94,12.5,14.282c3.288,4.241,6.264,5.174,6.647,2.939
			c0.322-2.176-2.053-7.861-10.863-15.051l-10.61-8.488c-1.622-1.261-3.397-2.614-5.829-4.075c-2.449-1.392-5.53-3.136-10.193-3.796
			c-1.815-0.216-3.855-0.248-5.776,0.411c-1.911,0.618-3.516,1.782-4.793,3.043c-2.54,2.578-4.101,5.476-5.533,8.224
			C217.189,17.361,215.083,22.643,212.687,27.341z"/>
		<path style="fill:#231815;" d="M121.884,40.875c-1.187,2.725-1.002,4.752-0.014,5.862c0.508,0.525,1.38,0.697,2.502,0.05
			c1.112-0.636,2.369-2.07,3.406-4.33c2.068-4.608,2.481-8.316,3.013-12.302c0.548-3.958,0.929-8.343,3.246-13.827
			c0.597-1.353,1.272-2.652,2.059-3.817c0.763-1.144,1.76-2.228,2.702-2.763c0.979-0.679,1.976-0.332,3.284-0.034
			c1.229,0.332,2.386,0.857,3.465,1.489c4.322,2.587,7.419,6.378,10.319,9.426c2.842,3.085,5.688,2.977,5.858,0.956
			c0.108-0.995-0.336-2.415-1.673-4.26c-1.353-1.814-3.589-4.191-7.473-6.465c-4.204-2.335-6.771-3.519-10.118-4.304
			c-0.424-0.077-0.855-0.172-1.31-0.217c-0.58-0.083-1.16-0.088-1.764-0.099c-1.148,0.19-2.439,0.93-3.41,1.795
			c-1.89,1.699-3.28,4.072-4.554,7.143c-1.969,4.919-3.419,9.5-4.965,13.797C124.938,33.258,123.458,37.306,121.884,40.875z"/>
		<path style="fill:#231815;" d="M103.862,106.017c-4.908-0.586-8.246,0.848-8.546,2.289c-0.323,1.525,2.307,2.872,8.88,3.844
			c6.667,1.089,11.731,1.985,17.435,3.273c2.839,0.65,5.801,1.423,9.088,2.447c0.814,0.287,1.737,0.476,2.318,0.814
			c0.803,0.424,1.626,0.875,2.467,1.356c1.682,0.965,3.446,2.044,5.305,3.279c14.83,9.908,27.337,21.195,35.324,30.4
			c1.935,2.251,3.561,3.661,4.806,4.274c1.234,0.609,2.145,0.393,2.312-0.81c0.399-2.353-2.775-8.966-13.134-16.195
			c-5.521-3.845-8.56-6.085-12.108-8.873c-3.568-2.75-7.628-6.05-15.622-11.176l-4.732-3.004l-2.325-1.46l-1.276-0.79l-1.389-0.58
			c-3.288-1.369-6.487-2.724-9.672-3.961C116.653,108.64,110.207,106.755,103.862,106.017z"/>
		<path style="fill:#231815;" d="M249.924,88.949c-1.331-0.594-2.607,0.491-3.025,1.884c-0.437,1.417-0.137,3.074,1.245,3.927
			c1.401,0.895,2.63,0.92,4.074,1.184c1.391,0.239,3.151,0.832,4.035,2.837c0.817,2.008,0.341,4.199-0.624,5.813
			c-0.966,1.651-2.278,2.876-3.383,3.906c-1.069,0.965-0.284,2.835,1.202,3.66c0.74,0.392,1.699,0.512,2.639-0.016
			c0.929-0.512,1.904-1.678,2.289-3.697c0.37-2.147,0.641-3.232,0.99-4.615c0.149-0.693,0.332-1.457,0.337-2.459
			c0.004-0.99-0.14-2.247-0.805-3.665c-1.076-2.246-2.533-3.992-4.076-5.42C253.28,90.846,251.617,89.743,249.924,88.949z"/>
		<path style="fill:#231815;" d="M289.935,27.675c-2.66-1.532-5.231-2.271-7.155-2.443c-1.944-0.16-3.234,0.237-3.611,0.878
			c-0.386,0.663,0.113,1.559,1.559,2.704c1.448,1.161,3.837,2.583,7.292,4.734c6.979,4.475,12.247,8.319,17.873,12.773
			c5.569,4.507,11.444,9.787,18.191,18.491c13.43,17.485,22.61,36.109,28.048,50.288c2.596,6.891,5.203,9.742,6.185,7.209
			c0.911-2.492-0.252-10.98-8.585-24.069c-4.48-6.951-6.979-10.894-9.875-15.656c-2.95-4.712-6.241-10.294-13.513-19.517
			c-5.844-7.33-11.535-14.063-17.444-20.085C302.985,36.986,296.85,31.641,289.935,27.675z"/>
		<path style="fill:#231815;" d="M244.19,34.868c1.168,0.233,2.055-5.452-0.553-6.043c-2.693-0.485-3.494,2.585-6.241,3.313
			c-2.79,0.776-5.68,0.719-7.637,0.959c-0.938,0.111-0.817,2.071-0.093,3.553c0.719,1.482,2.221,2.427,3.661,0.525
			c1.536-2.016,2.15-1.137,4.832-2.285C240.331,33.991,242.505,34.613,244.19,34.868z"/>
		<path style="fill:#231815;" d="M138.811,28.963c-1.434-0.753-3.334,4.563-1.829,5.788c1.556,1.29,3.629-0.898,6.128-0.025
			c2.485,0.882,4.815,2.423,6.886,2.901c1.024,0.216,1.455-1.696,1.195-3.327c-0.289-1.649-0.888-2.937-2.582-1.838
			c-1.962,1.098-2.021,0.013-4.576-0.438C141.928,31.598,140.535,29.92,138.811,28.963z"/>
		<path style="fill:#231815;" d="M134.95,89.577c-8.898-2.966-1.84-11.037-1.84-11.037C142.308,78.54,140.469,91.417,134.95,89.577z
			"/>
		<path style="fill:#231815;" d="M96.319,89.577c0,0-7.358-12.877,3.679-9.198C111.035,84.059,96.319,89.577,96.319,89.577z"/>
		<path style="fill:#231815;" d="M286.41,64.436c-3.679-6.131-1.227-13.49,7.358-9.81c8.583,3.679,6.131,12.264,12.263,14.717
			c6.133,2.452,9.812,7.358,3.679,11.037c-6.131,3.679-13.49,6.131-13.49-4.906S286.41,64.436,286.41,64.436z"/>
		<path style="fill:#231815;" d="M356.315,157.642c6.252,12.509,18.396,18.398,18.396,23.302s-8.585,3.677-19.623,1.225
			c-11.037-2.452-2.452-7.358-9.81-14.717C337.919,160.094,353.863,152.736,356.315,157.642z"/>
		<path style="fill:#231815;" d="M303.579,135.567c7.757,3.878,18.396,8.583,8.585,13.49
			C302.352,153.963,296.221,131.888,303.579,135.567z"/>
		<path style="fill:#231815;" d="M158.865,60.676c5.817-5.163,15.944-14.151,24.529-13.064c8.583,1.089,7.358,6.53,1.225,7.619
			c-6.131,1.09-15.942,9.798-22.075,10.887C156.412,67.208,155.186,63.942,158.865,60.676z"/>
		<path style="fill:#231815;" d="M449.404,299.31c-0.147-7.646-0.675-15.928-1.525-23.535c-0.839-7.612-1.962-14.548-2.955-19.557
			c-1.96-9.972-4.484-22.497-8.149-34.185c-3.58-11.708-8.454-22.395-12.313-29.135c-3.789-6.791-10.614-16.294-19.154-25.837
			c-8.497-9.593-18.599-19.283-27.797-28.009c-9.234-8.706-13.851-11.122-13.15-9.054c0.649,2.123,6.6,8.689,17.268,19.29
			c10.61,10.667,18.701,20.273,26.607,31.431c7.799,11.219,15.549,23.999,22.531,42.675c3.458,9.352,5.432,16.955,6.936,23.284
			c1.473,6.345,2.456,11.444,3.196,16.078c1.435,9.289,2.215,16.774,3.108,29.25c0.746,12.487,0.588,17.503,0.354,23.744
			c-0.154,3.119-0.386,6.55-0.88,11.357c-0.523,4.804-1.267,11.003-2.916,19.542c-1.69,8.526-2.91,12.681-3.41,14.627
			c-0.53,1.935-0.424,1.642-0.207,1.06c0.219-0.582,0.539-1.459,0.438-0.686c-0.118,0.764-0.562,3.212-2.314,9.141
			c-1.008,3.345-1.98,6.352-2.907,9.112c1.48-0.322,3.131,0,4.685,0.099c0.763,0.048,1.417,0.255,1.983,0.559
			c5.725-17.288,8.62-35.283,9.57-53.254C448.387,327.313,449.747,314.618,449.404,299.31z"/>
		<path style="fill:#231815;" d="M163.588,329.827c-1.545-1.613-5.643-5.855-9.034-10.838c-3.48-4.921-5.932-10.65-6.645-13.064
			c-0.379-1.193-1.333-4.116-1.904-8.037c-0.596-3.913-0.681-8.806-0.027-13.545c1.263-9.545,5.041-18.073,6.059-20.013
			c2.084-3.972,6.868-13.79,8.309-16.693c1.434-2.925,3.632-7.457,5.097-10.718c0.74-1.631,1.919-4.315,2.921-6.845l2.368-5.768
			c0.701-1.685,3.04-9.704,4.286-13.012c0.634-1.66,2.256-6.183,3.508-11.057c1.302-4.876,1.992-10.083,2.125-13.069
			c0.433-5.995-0.844-11.081,1.243-10.506c2.073,0.652,2.716,1.667,4.263,2.61c1.52,0.993-0.065,3.052,0.242,7.493
			c0.145,2.253-0.079,5.637-0.656,9.284c-0.557,3.652-1.437,7.559-2.111,11.048c-1.378,7.006-4.304,11.379-6.252,14.88
			c-2.014,3.49-6.447,9.439-7.578,13.326c-1.123,3.882-4.705,10.229-5.555,13.032c-0.866,2.808-6.006,14.409-6.189,18.886
			c-0.153,2.229-1.834,6.138-3.25,10.019c-1.453,3.866-2.544,7.759-2.7,9.46c-0.293,3.392,1.831,0.458-0.244,3.383
			c-1.967,3.004-2.835,4.243-2.567,6.737c0.124,1.256,1.277,5.573,3.198,9.431c1.849,3.898,4.294,7.335,4.644,8.354
			c0.697,2.068,2.299,2.696,2.727,4.114c0.449,1.414,0.278,2.019,2.219,3.665c1.964,1.601,0.905,1.124,3.742,2.86
			c2.88,1.656,0.893-0.356,4.367,3.128c1.759,1.703,1.861,3.704,0.632,4.527C169.62,333.702,166.96,333.321,163.588,329.827z"/>
		<path style="fill:#231815;" d="M453.689,392.784c9.976,8.486,17.155,18.471,22.025,29.085c4.82,10.628,7.47,22.032,7.11,33.854
			c-0.194,5.898-1.179,11.898-3.266,17.737c-2.086,5.824-5.298,11.49-9.897,16.373c-4.568,4.897-10.536,8.95-17.595,11.677
			c-7.056,2.741-15.151,4.184-23.882,4.344c-8.747,0.144-16.585-0.92-23.544-2.287c-6.949-1.385-13.093-3.189-18.687-4.766
			c-11.158-3.228-19.953-6.101-27.926-8.772c-15.938-5.379-28.576-10.015-49.771-17.417c-21.189-7.425-48.476-10.607-59.041-14.428
			c-10.561-3.758-4.392-8.485-34.196-18.504c-14.948-5.145-22.612-7.285-26.148-8.309c-3.55-0.999-3.015-0.81-1.933-0.46
			c1.08,0.356,2.695,0.898,1.304,0.614c-1.401-0.248-5.763-1.471-16.853-3.913c-22.233-4.811-38.414-5.163-48.641-4.574
			c-10.267,0.632-16.197-6.471-14.709,1.84c-2.679-14.974,30.062,2.414,44.459,6.056c32.295,4.392,75.197,27.22,106.529,37.059
			c0.009-0.023,9.536-4.339,34.859,4.89c25.323,9.223,54.99,19.75,72.184,25.154c8.587,2.724,18.252,5.779,28.456,8.668
			c10.315,2.901,21.419,5.035,32.505,5.264c11.05,0.286,22.129-1.518,31.359-5.7c9.286-4.096,16.307-10.522,20.575-16.44
			c4.36-5.869,8.262-14.402,9.708-24.462c1.488-10.037,0.614-21.439-2.819-32.574c-3.395-11.145-9.281-22.026-17.027-31.319
			c-7.725-9.32-17.294-16.987-27.38-22.452c-10.123-5.454-18.074-7.277-22.688-8.021c-4.662-0.681-6.142-0.302-4.599,0.548
			c1.531,0.896,6.095,2.289,13.087,5.21C434.19,379.724,443.663,384.33,453.689,392.784z"/>
		<path style="fill:#231815;" d="M106.428,348.246c-8.968,1.081-17.156,2.544-25.046,4.57c-7.879,2.043-15.491,4.622-23.059,8.372
			c-7.522,3.767-15.134,8.698-21.863,16.093c-3.34,3.697-6.413,8.029-8.817,13.068c-2.405,5.03-4.118,10.768-4.735,16.987
			c-0.614,6.223-0.133,11.779,0.747,16.643c0.46,2.463,0.965,4.642,1.649,6.889c0.764,2.186,1.547,4.069,2.411,5.903
			c3.455,7.256,7.671,12.315,12.038,16.182c4.407,3.852,9.002,6.584,14.286,8.769c5.296,2.156,11.336,3.753,18.947,4.538
			c7.617,0.737,12.947,0.53,17.296,0.345c4.349-0.223,7.75-0.539,11.488-0.938c7.409-0.83,16.323-1.559,37.07-4.267
			c10.371-1.396,15.548-2.242,17.95-2.63c2.402-0.397,2.027-0.367,1.279-0.293c-1.504,0.099-4.479,0.514,10.206-2.458
			c14.679-3.068,24.729-6.51,30.998-9.201c6.279-2.698,8.799-4.529,8.806-4.498c-9.852,2.535-19.745,3.677-29.647,4.574
			c-20.972,5.366-24.208,7.951-45.724,11.291l-27.849,2.283c-5.928,0.681-13.924,1.543-22.68,1.285
			c-8.713-0.214-18.116-1.622-25.984-4.813c-3.934-1.57-7.464-3.548-10.394-5.714c-2.941-2.159-5.287-4.484-7.087-6.586
			c-1.791-2.111-3.482-4.545-4.93-7.267c-0.724-1.362-1.396-2.788-2.01-4.268c-0.602-1.486-1.182-3.049-1.575-4.48
			c-1.593-6.356-2.152-13.344-1.292-19.853c0.828-6.536,3.068-12.59,5.986-17.534c2.901-4.967,6.39-8.851,9.387-11.736
			c2.995-2.887,7.021-6.286,12.11-9.548c5.073-3.273,11.188-6.396,17.965-9.011c13.547-5.291,29.64-8.399,44.358-9.37
			c7.364-0.49,12.529-0.839,15.581-1.297c3.05-0.444,3.984-0.993,2.867-1.55c-1.117-0.548-4.292-1.121-9.451-1.369
			C122.555,347.118,115.399,347.177,106.428,348.246z"/>
		<path style="fill:#231815;" d="M336.618,384.687c-4.509,0.388-9.153,0.411-13.723,0.647c-2.296,0.088-4.549,0.363-6.704,0.473
			c-2.215,0.155-4.378,0.374-6.467,0.668c-4.175,0.582-8.048,1.473-11.395,2.63c-3.352,1.143-6.156,2.567-8.28,3.904
			c-2.124,1.324-4.335,3.262-5.999,5.646c-1.689,2.364-2.777,5.106-3.223,7.538c-0.886,4.94,0.334,8.303,1.866,7.797
			c1.329-0.381,1.895-3.895,3.329-7.506c0.711-1.811,1.637-3.649,2.74-5.249c1.089-1.61,2.325-2.995,3.343-4.062
			c1.001-1.072,3.25-2.939,6.683-4.57c3.408-1.655,7.933-3.034,12.791-3.868c2.439-0.447,4.906-0.686,7.453-0.986
			c2.474-0.307,4.942-0.491,7.306-0.629c4.732-0.257,9.054-0.436,12.281-0.745c3.228-0.286,6.462-0.798,9.591-1.642
			c3.059-0.844,6.175-1.753,9.089-2.872c5.86-2.217,11.346-4.843,16.012-8.131c2.33-1.649,4.037-3.636,4.89-5.368
			c0.869-1.737,0.878-3.092,0.521-3.525c-0.376-0.449-0.959-0.083-2.043,1.026c-1.094,1.11-2.878,3.009-6.155,5.592
			c-3.291,2.565-6.25,4.251-8.826,5.627c-2.594,1.362-4.87,2.386-7.179,3.304c-2.287,0.923-4.708,1.671-7.509,2.515
			C344.212,383.685,340.901,384.323,336.618,384.687z"/>
		<path style="fill:#231815;" d="M333.183,391.994c-3.12-0.079-6.99,1.234-4.861,3.37c2.185,2.12,3.379,3.426,6.379,3.508
			c2.998,0.034,2.165-1.218,5.718-2.431c1.757-0.609,11.594-2.165,21.4-6.167c4.899-1.956,9.742-4.527,13.576-7.247
			c3.855-2.697,6.674-5.506,8.106-7.331c5.4-7.488-1.204,1.279-3.774,2.673c-1.137,0.823-6.367,4.471-12.466,6.931
			c-6.033,2.594-12.667,4.153-14.912,4.561c-4.461,0.945-11.699,2.612-14.553,2.567
			C334.958,392.446,333.182,391.986,333.183,391.994z"/>
		<path style="fill:#231815;" d="M329.899,404.332c-3.354-0.16-7.488,1.155-5.222,3.298c2.289,2.127,3.482,3.456,6.586,3.625
			c3.102,0.14,2.283-1.15,6.061-2.185c1.87-0.555,12.238-1.441,22.945-4.445c5.339-1.487,10.729-3.582,14.966-6.135
			c4.27-2.519,7.206-5.544,8.499-7.558c1.306-2.016,1.617-3.041,1.683-3.262c0.036-0.233-0.25,0.291-0.781,1.114
			c-0.992,1.689-3.399,4.312-4.664,5.077c-0.604,0.408-2.233,1.575-4.615,2.806c-2.377,1.238-5.506,2.506-8.799,3.501
			c-6.588,2.028-13.741,2.941-16.147,3.174c-4.802,0.539-12.593,1.737-15.617,1.59C331.782,404.826,329.899,404.328,329.899,404.332
			z"/>
		<path style="fill:#231815;" d="M322.372,416.575c-2.043-0.552-4.276-0.906-5.758-0.875c-1.453,0.041-2.427,0.53-1.518,2.104
			c1.991,3.058,3.37,4.827,7.398,5.891c4.055,0.936,3.255-0.503,8.352-0.765c2.531-0.113,16.122,0.571,30.44-1.698
			c7.143-1.089,14.458-2.851,20.428-5.316c6.002-2.398,10.456-5.708,12.36-8.17c1.944-2.438,2.233-3.798,2.343-4.053
			c0.039-0.295-0.255,0.402-0.938,1.446c-0.666,1.051-1.811,2.405-3.097,3.523c-1.274,1.128-2.655,2.028-3.503,2.468
			c-0.841,0.446-3.167,1.692-6.5,2.883c-3.322,1.211-7.626,2.361-12.09,3.162c-8.932,1.669-18.378,1.928-21.538,1.899
			c-3.171-0.004-7.312,0.097-11.145,0.003c-3.832-0.079-7.349-0.347-9.246-0.722C324.546,417.617,322.369,416.569,322.372,416.575z"
			/>
		<path style="fill:#231815;" d="M245.431,409.387c7.878,0.711,14.379,1.529,21.441,2.598c3.53,0.539,7.198,1.135,11.233,1.897
			c2.016,0.379,4.126,0.798,6.35,1.292l3.43,0.792c1.187,0.289,2.465,0.64,3.764,0.88c10.235,2.156,15.746,4.268,20.354,5.986
			c4.592,1.771,8.192,3.399,14.413,5.612l7.107,2.481l0.715,0.252l0.489,0.133l0.305,0.079l1.166,0.313
			c0.756,0.216,1.482,0.436,2.242,0.692c3.054,1.019,6.597,2.458,15.069,6.144c8.553,3.654,8.684,3.559,8.05,3.243
			c-0.577-0.372-1.823-0.966,4.649,1.001c6.535,1.908,11.519,2.084,14.643,1.788c3.146-0.3,4.491-0.929,4.493-0.905
			c-4.527-1.491-8.567-3.616-12.345-6.008c-9.159-1.739-18.216-5.129-27.565-7.885c0,0-1.543-0.611-4.076-1.489
			c-1.267-0.44-2.788-0.934-4.495-1.432l-0.652-0.181c-0.212-0.061-0.487-0.135-0.519-0.155l-1.211-0.464l-2.682-1.027
			c-7.319-2.839-15.87-6.311-20.889-8.032c-4.989-1.732-11.271-4.103-17.318-5.968c-1.509-0.433-2.851-0.952-4.335-1.439
			c-1.468-0.492-2.903-0.925-4.27-1.317c-2.738-0.781-5.215-1.362-7.209-1.739c-3.99-0.769-10.073-1.128-16.727-1.263
			c-6.66-0.158-13.919-0.16-20.444-0.805c-6.509-0.647-9.232,0.081-8.398,1.32C233.039,407.007,237.541,408.686,245.431,409.387z"/>
		<path style="fill:#231815;" d="M197.681,393.017c0.013-0.769-0.232-1.204-0.499-1.764c-0.273-0.555-0.636-1.202-1.045-2.112
			c-0.543-1.116-0.859-1.434-1.25-1.743c-0.424-0.3-0.954-0.636-2.513-1.635c-0.764-0.505-4.204-2.231-9.498-3.764
			c-2.635-0.778-5.706-1.534-9.031-2.201c-1.663-0.334-3.39-0.648-5.156-0.932l-2.677-0.401c-0.72-0.092-1.771-0.109-2.648-0.156
			c-7.36-0.289-15-0.083-21.491-0.084c-6.491,0.029-11.835-0.207-14.605-0.415c-5.537-0.375-11.92-1.144-17.805-2.84
			c-5.896-1.635-11.172-4.288-14.718-6.771c-3.561-2.49-4.958-4.441-5.194-5.136c-0.212-0.726,0.726-0.291,2.445,1.168
			c1.719,1.468,5.222,3.837,8.889,5.479c3.64,1.703,7.342,2.745,8.867,3.199c1.511,0.505,6.645,1.773,11.831,2.283
			c5.176,0.575,10.33,0.616,11.616,0.656c0.643,0.02,4.02,0.088,8.797,0.004c4.779-0.068,10.955-0.305,17.199-0.33l4.674,0.039
			l1.157,0.029c0.363,0.023,0.771-0.005,1.272,0.068l2.246,0.278c2.95,0.39,5.72,0.844,8.151,1.304
			c4.859,0.907,8.346,1.867,9.171,2.021c1.647,0.303,4.096,1.054,6.424,1.987c2.333,0.907,4.527,2.082,5.815,2.714
			c1.963,0.922,3.289,2.632,3.652,4.516c0.397,1.893-0.354,3.735-1.502,4.691c-0.501,0.46-1.223,0.699-1.743,0.648
			C197.985,393.774,197.652,393.488,197.681,393.017z"/>
		<path style="fill:#231815;" d="M138.171,397.117c-1.373,0.113-2.42,0.296-3.442-0.622c-1.241-1.126-0.785-0.507-2.626-1.132
			c-0.916-0.313-7.649-1.434-14.582-3.532c-3.469-1.035-6.985-2.296-9.893-3.548c-2.914-1.238-5.215-2.46-6.399-3.108
			c-2.373-1.288-5.048-2.894-7.41-4.718c-2.364-1.816-4.382-3.868-5.637-5.596c-1.265-1.734-1.459-2.961-1.292-3.406
			c0.181-0.458,0.72-0.208,1.279,0.717c0.557,0.934,1.874,2.488,3.316,3.767c1.426,1.299,2.937,2.35,3.525,2.833
			c0.577,0.496,2.619,1.982,4.791,3.194c2.158,1.238,4.399,2.235,4.951,2.5c0.532,0.293,5.869,2.689,11.573,4.197
			c5.677,1.586,11.566,2.434,12.349,2.373c1.574-0.086,4.662,0.501,5.864,0.121c1.815-0.569,2.716,1.32,3.688,3.384
			C138.656,395.468,139.026,397.045,138.171,397.117z"/>
		<path style="fill:#231815;" d="M136.251,411.557c-1.259-0.219-2.217-0.241-2.966-1.315c-0.932-1.304-0.62-0.643-2.251-1.505
			c-0.41-0.214-2.165-0.814-4.698-1.493c-2.531-0.688-5.848-1.428-9.295-2.19c-3.446-0.762-7.014-1.606-9.994-2.529
			c-2.984-0.906-5.364-1.879-6.588-2.404c-2.45-1.045-5.215-2.386-7.696-3.922c-2.488-1.52-4.694-3.196-6.221-4.558
			c-3.027-2.781-2.093-4.09-0.584-2.574c0.771,0.749,2.375,1.955,3.977,2.998c1.602,1.047,3.2,1.922,3.832,2.334
			c0.623,0.422,2.776,1.687,5.01,2.679c2.224,1.017,4.511,1.771,5.075,1.974c0.546,0.262,5.997,1.974,11.776,2.944
			c5.754,0.999,11.679,2.057,12.478,2.107c1.615-0.009,4.698,0.981,5.984,0.86c1.978-0.205,2.547,1.897,2.903,4.128
			C137.162,410.1,137.029,411.694,136.251,411.557z"/>
		<path style="fill:#231815;" d="M121.619,420.566c1.416,0.417,2.845,0.859,4.229,1.31c3.893,1.276,15.02,4.888,16.862,6.033
			c2.458,1.565,6.724,2.468,7.245-0.742c0.445-2.573-3.571-3.758-5.702-3.55c-1.383,0.156-13.418-2.738-17.354-3.588
			c-2.075-0.447-4.012-0.949-5.293-1.421c-0.467-0.172-2.229-0.724-4.809-1.5c-2.573-0.758-5.988-1.825-9.838-2.544
			c-7.676-1.434-16.716-2.294-22.847-3.801c-6.047-1.407-9.225-2.916-11.117-3.904c-1.888-1.013-2.52-1.55-3.169-2.019
			c-1.267-0.968-2.849-0.88-3.642-0.21c-0.769,0.629-0.625,2.084,2.026,3.302c1.272,0.566,2.221,0.92,4.26,1.755
			c2.046,0.789,5.224,2.061,11.145,3.322c6.304,1.417,15.372,2.208,22.935,3.561c3.773,0.672,7.152,1.701,9.834,2.465
			L121.619,420.566z"/>
		<path style="fill:#231815;" d="M303.362,219.859c2.75,2.303,4.507,4.75,6.201,7.513c1.683,2.79,3.305,5.93,5.404,10.409
			c2.059,4.523,2.603,7.365,2.975,9.69c0.343,2.348,0.419,4.261,0.972,7.401c0.552,3.144,0.769,4.418,0.918,6.027
			c0.164,1.617,0.185,3.559,0.638,8.186c0.523,4.647,0.625,4.672,0.641,4.304c0.061-0.363,0.108-1.076,1.058,2.149
			c0.99,3.23,2.436,5.264,3.557,6.415c1.126,1.16,1.942,1.484,1.931,1.489c0.35-2.639,0.927-5.136,1.662-7.542
			c-1.825-4.089-3.207-8.504-4.446-13.003c-0.079,0.034-1.019-12.737-2.197-17.923c-0.564-2.562-1.092-5.839-1.845-8.977
			c-0.731-3.137-1.728-6.126-2.693-8c-0.954-1.87-3.02-4.392-5.632-6.748c-2.601-2.387-5.708-4.529-8.44-6.469
			c-2.786-1.935-4.527-1.523-4.638-0.334C299.284,215.692,300.617,217.616,303.362,219.859z"/>
		<path style="fill:#231815;" d="M314.349,292.76c-6.151,6.544-10.854,10.357-17.999,19.844c-3.589,4.732-5.916,7.109-7.958,8.968
			c-2.089,1.901-3.868,3.374-6.374,6.162c-2.493,2.79-3.464,3.9-4.802,5.179c-1.342,1.258-2.995,2.779-6.951,5.943
			c-3.986,3.086-4.039,2.977-3.667,2.874c0.348-0.142,1.098-0.379-1.606,1.949c-5.456,4.516-6.782,7.793-6.754,7.849
			c2.853-0.12,5.749-0.379,8.679-0.798c4.207-3.775,7.993-7.949,11.451-12.254c0.002,0.009,2.754-2.589,5.903-5.74l4.856-4.775
			c1.57-1.518,3.027-2.86,4.103-3.957c4.239-4.276,11.09-10.202,14.061-13.533c2.989-3.325,7.211-11.472,12.34-16.799
			C324.79,288.429,320.592,286.223,314.349,292.76z"/>
		<path style="fill:#231815;" d="M379.66,215.185c2.071,4.196,3.327,7.908,4.662,11.964l4.633,14.445
			c1.859,5.984,2.238,9.529,2.416,12.444c0.133,2.932,0.029,5.276,0.075,9.155c0.011,3.88-0.115,5.431-0.377,7.349
			c-0.307,1.906-0.701,4.233-2.202,9.383c-1.618,5.095-1.759,5.025-1.489,4.714c0.208-0.336,0.737-0.984-0.309,2.662
			c-2.22,7.179-1.849,10.782-1.78,10.834c2.452-1.708,4.865-3.632,7.166-5.763c1.64-5.874,2.551-11.875,2.857-17.848
			c-0.005,0,0.787-4.013,1.135-8.918c0.393-4.899,0.255-10.66-0.149-13.913c-0.374-3.254-0.749-7.339-1.315-11.214
			c-0.55-3.875-1.29-7.527-2.019-9.893c-0.724-2.368-2.431-5.718-4.473-9.298c-2.037-3.591-4.416-7.394-6.318-10.966
			c-1.921-3.582-3.753-4.369-4.391-3.289C377.118,208.128,377.581,211.014,379.66,215.185z"/>
		<path style="fill:#231815;" d="M366.565,315.888c-7.4,5.551-14.111,9.498-21.403,14.038c-3.636,2.242-7.506,4.732-11.587,7.457
			c-4.218,2.736-8.733,6.006-13.642,9.944c-19.475,15.89-22.312,17.26-35.168,25.849c-3.194,2.055-5.657,3.542-7.466,4.678
			c-1.861,1.105-3.37,1.877-5.08,2.646c-1.714,0.762-3.636,1.527-6.396,2.355c-1.38,0.411-2.97,0.835-4.852,1.198
			c-0.94,0.185-1.953,0.356-3.045,0.496c-0.535,0.081-1.171,0.133-1.786,0.205l-2.005,0.273c-5.314,0.672-7.992,0.834-9.223,0.947
			c-1.234,0.101-1.04,0.11-0.654,0.135c0.774,0.004,2.319,0.234-5.248,0.954c-7.541,0.616-12.708,0.798-15.638,0.427
			c-1.473-0.169-2.33-0.458-2.828-0.674c-0.499-0.226-0.729-0.444-0.735-0.431c0.048,0.956,0.78,1.999,1.813,2.831
			c1.02,0.842,2.247,1.516,3.505,2.109c2.538,1.169,5.248,2.003,7.966,2.716c5.964-0.284,11.731-1.141,17.453-2.199l4.279-0.857
			l2.089-0.465c0.697-0.147,1.401-0.257,2.134-0.431c2.926-0.648,5.776-1.534,8.528-2.63c-0.004-0.009,1.939-0.577,4.922-1.816
			c1.493-0.62,3.243-1.41,5.124-2.395c1.901-0.952,3.888-2.211,5.874-3.343c8.269-4.701,17.3-11.151,22.285-14.927
			c5.007-3.783,11.348-8.352,17.453-12.475c6.126-4.179,11.918-7.684,15.956-10.229c3.907-2.612,9.496-6.805,15.795-11.573
			c6.28-4.764,13.132-10.129,19.245-15.18c6.124-5.105,7.414-8.336,5.819-8.237C378.404,307.32,373.929,310.339,366.565,315.888z"/>
		<path style="fill:#231815;" d="M230.023,330.184c4.392,0.55,8.616,2.77,11.824,5.239c3.235,2.477,5.547,5.185,6.748,7.098
			c1.216,1.917,2.785,4.148,4.184,5.74c1.419,1.563,2.682,2.576,4.128,1.85c1.193-0.625,0.967-2.925-0.167-5.073
			c-1.101-2.174-3.004-4.213-4.45-5.215c-1.437-1.019-5.104-4.265-9.647-6.897c-2.26-1.326-4.727-2.495-7.083-3.288
			c-2.352-0.809-4.577-1.222-6.259-1.416c-3.365-0.427-6.904,0.119-9.944,1.518c-3.056,1.378-5.592,3.449-7.624,5.567
			c-2.057,2.158-2.312,4.628-1.626,5.388c0.744,0.812,2.132-0.047,4.531-3.419c2.518-3.32,4.547-4.754,6.668-5.822
			C223.457,330.484,225.864,329.721,230.023,330.184z"/>
		<path style="fill:#231815;" d="M222.366,342.997c2.415,0.988,4.797,2.206,6.595,3.58c1.816,1.356,2.95,2.883,3.223,3.963
			c0.322,1.096,0.58,2.062,1.058,2.876c0.494,0.79,1.234,1.694,2.847,1.777c1.295,0.073,2.177-1.198,2.1-2.941
			c-0.045-1.742-1.166-3.499-2.152-4.15c-0.948-0.772-3.35-2.635-6.088-3.873c-2.716-1.31-5.677-2.339-7.364-3.169
			c-3.37-1.651-6.859-3.067-9.67-4.448c-1.391-0.679-2.835-0.19-3.458,0.618c-0.634,0.79-0.146,2.156,2.448,2.724
			C216.982,341.01,217.733,341.139,222.366,342.997z"/>
		<path style="fill:#231815;" d="M218.238,363.952c3.532,0.756,7.276,1.076,10.632,0.742c3.361-0.291,6.27-1.344,8.167-2.224
			c1.933-0.81,3.932-2.828,4.577-4.779c0.699-1.951,0.224-3.523-1.333-3.861c-1.299-0.293-2.325,0.634-3.237,1.639
			c-0.911,1.017-1.795,2.188-2.395,3.106c-0.285,0.464-0.993,1.225-2.15,1.947c-1.146,0.729-2.749,1.382-4.529,1.759
			c-3.577,0.799-7.719,0.386-10.01-0.314c-4.601-1.354-9.013-3.593-11.875-6.225c-1.391-1.259-2.867-1.69-3.911-1.554
			c-0.496,0.102-0.85,0.582-0.623,1.477c0.223,0.869,1.058,2.053,2.646,3.023c3.18,1.859,5.086,2.409,6.954,3.14
			C213.03,362.488,214.886,363.207,218.238,363.952z"/>
		<path style="fill:#231815;" d="M197.291,327.004c-7.554-1.204-15.288,0.528-19.082,0.828c-3.879,0.259-9.022,2.803-7.319,5.585
			c1.356,2.224,6.176,0.293,8.296-1.125c1.042-0.74,4.301-2.204,8.081-3.034c3.762-0.885,8.025-0.927,10.423-0.282
			c2.395,0.593,4.687,1.563,6.465,2.968c1.795,1.387,2.993,3.198,3.487,5.016c0.498,1.744,1.505,3.178,2.528,3.46
			c0.498,0.119,0.999-0.119,1.263-0.934c0.246-0.796,0.275-2.256-0.67-4.112c-0.963-1.831-2.084-3.002-3.09-3.877
			c-1.019-0.875-1.962-1.464-2.912-1.992C202.846,328.496,200.852,327.619,197.291,327.004z"/>
		<path style="fill:#231815;" d="M195.233,346.043c3.618-2.055,7.872-3.374,9.924-2.989c1.031,0.155,2.114,0.113,2.874-0.255
			c0.74-0.388,1.423-1.118,1.696-2.709c0.217-1.292-0.852-2.192-2.125-2.352c-1.272-0.187-2.601,0.26-3.298,0.837
			c-0.722,0.569-2.756,1.629-4.795,2.862c-2.057,1.215-4.188,2.547-5.558,3.176c-2.752,1.247-5.42,2.698-7.646,4.175
			c-1.134,0.749-1.125,2.264-0.492,3.045c0.654,0.79,1.664,1.011,2.854-0.48C191.219,348.388,191.839,348.016,195.233,346.043z"/>
		<path style="fill:#231815;" d="M185.954,363.884c0.722,1.229,2.016,2.364,3.545,2.608c1.489,0.261,2.896-0.109,4.211-1.015
			c2.495-1.881,3.016-1.453,4.622-2.283c1.531-0.807,1.27-0.72,3.658-1.031c2.26-0.122,0.014-0.034,1.412-0.557
			c0.674-0.219,1.002-0.645,1.261-1.047c0.25-0.397,0.404-0.762,0.404-0.762c-0.487-0.995-1.322-1.883-2.256-2.659
			c-1.441,0.643-2.578,1.455-3.667,2.271c-0.02-0.025-3.546,1.054-4.721,1.658c-1.229,0.659-3.28,0.677-3.803,0.699
			c-0.306,0.041-0.582,0.44-0.95,0.684c-0.381,0.289-1.157,0.066-1.45-0.618c-0.27-0.634-1.055-0.783-1.741-0.453
			C185.83,361.698,185.208,362.612,185.954,363.884z"/>
		<path style="fill:#231815;" d="M198.646,366.714c-3.507,0.805-6.516,1.083-9.796,1.236c-3.279,0.106-6.87,0.216-11.555-0.343
			c-2.346-0.311-4.096-0.81-5.449-1.461c-1.405-0.672-2.553-1.261-3.557-1.804l-6.275-3.474c-2.664-1.446-3.683-2.084-4.913-2.943
			c-1.193-0.889-2.709-1.922-5.582-4.843c-2.749-3.014-2.601-3.124-2.504-2.829c0.158,0.244,0.377,0.841-1.486-1.407
			c-1.82-2.278-3.133-3.898-4.083-4.901c-0.939-1.01-1.482-1.412-1.486-1.407c0.273,2.15,0.67,4.32,1.254,6.507
			c2.848,3.703,6.365,6.898,10.236,9.379c-0.007,0.002,2.463,1.958,5.663,3.898c3.185,1.96,6.992,3.995,9.187,5.093
			c1.132,0.53,2.226,1.227,3.748,1.895c1.446,0.618,2.964,1.094,4.466,1.471c3,0.749,5.891,1.044,7.807,1.073
			c1.922,0.038,4.786-0.345,7.874-1.008c3.095-0.658,6.41-1.59,9.415-2.443c3.018-0.871,3.95-1.953,3.309-2.323
			C204.269,365.675,202.134,365.889,198.646,366.714z"/>
		<path style="fill:#231815;" d="M170.454,188.385c-5.513,8.763-11.483,15.177-17.605,22.783l-9.381,12.367
			c-3.376,4.473-7.076,9.414-11.104,15.232c-4.024,5.822-7.067,10.461-9.5,14.379l-1.717,2.813l-0.781,1.32l-0.127,0.198
			l-0.209,0.295l-0.413,0.582l-3.097,4.276c-1.933,2.706-3.76,5.165-5.244,8.364c-0.729,1.597-1.335,3.419-1.586,5.481
			c-0.248,2.057-0.122,4.324,0.431,6.645c1.107,4.629,2.838,7.477,3.733,9.67c0.979,2.276,1.68,4.114,2.44,6.167l2.722,7.572
			c1.184,3.225,2.679,7.418,5.26,13.168c2.618,5.743,4.29,8.497,5.03,9.778c0.765,1.275,0.67,1.063,0.467,0.65
			c-0.199-0.415-0.498-1.035-0.133-0.593c0.383,0.433,1.333,1.985,4.098,5.641c5.628,7.303,11.275,10.973,14.959,12.793
			c3.742,1.823,5.614,2.062,5.6,2.095c-4.926-3.667-8.871-8.163-11.909-13.025c-8.855-8.741-14.718-20.336-19.759-32.085
			l-1.98-5.355l-2.17-5.796c-0.422-1.089-0.877-2.229-1.378-3.408c-0.499-1.195-1.094-2.384-1.518-3.494
			c-0.909-2.341-1.654-4.827-1.803-7.242c-0.173-2.418,0.313-4.716,1.29-6.873c1.998-4.31,5.136-8.12,7.109-11.012l0.78-1.098
			l0.399-0.562l0.201-0.282l0.3-0.46l1.466-2.387c1.024-1.615,2.129-3.272,3.293-4.942c2.325-3.339,4.879-6.737,7.432-10.01
			c5.107-6.543,10.159-12.634,13.369-16.847c1.606-2.104,3.53-4.807,5.634-7.946c1.98-3.05,4.464-6.367,7.058-9.958
			c5.165-7.18,10.941-15.133,14.842-23.354c1.946-4.121,2.402-7.517,2.145-9.468c-0.27-1.971-0.877-2.423-1.238-1.737
			c-0.397,0.684-0.735,2.438-1.809,5.082C174.992,180.456,173.172,184.011,170.454,188.385z"/>
		<path style="fill:#231815;" d="M225.226,375.435c-1.606,0.183-3.002-0.05-4.499-0.325l-5.404-1.076
			c-2.265-0.458-3.467-1.021-4.41-1.543c-0.943-0.535-1.644-1.056-2.883-1.773c-1.23-0.731-1.701-1.058-2.247-1.518
			c-0.53-0.47-1.178-1.071-2.44-2.562c-2.305-3.065-0.056,0.034-1.908-1.919c-1.68-1.965-2.971-2.476-3.031-2.493
			c-0.365,1.15-0.505,2.472-0.481,3.814c1.604,1.789,3.444,3.174,5.35,4.371c0,0,1.126,1.051,2.619,2.14
			c1.484,1.103,3.343,2.213,4.471,2.715c2.206,1.056,5.578,2.792,7.479,3.169c1.89,0.435,5.839-0.13,8.934-0.852
			c1.608-0.374,1.935-1.274,1.484-1.701C227.801,375.417,226.795,375.245,225.226,375.435z"/>
		<path style="fill:#231815;" d="M220.521,387.844c-1.423,0.172-2.675-0.187-3.988-0.627c-1.324-0.465-2.754-1.055-4.757-1.881
			c-2.005-0.852-2.993-1.64-3.753-2.321c-0.753-0.701-1.284-1.337-2.274-2.266c-0.986-0.938-1.353-1.342-1.761-1.886
			c-0.393-0.551-0.86-1.249-1.733-2.901c-1.541-3.329-0.054,0.016-1.419-2.161c-1.211-2.14-2.33-2.765-2.38-2.815
			c-0.645,0.959-1.031,2.213-1.293,3.487c1.188,1.958,2.628,3.579,4.157,5.075c0.002-0.003,0.821,1.207,1.965,2.538
			c1.134,1.34,2.616,2.779,3.555,3.491c1.82,1.455,4.628,3.801,6.413,4.489c1.73,0.755,5.777,0.819,8.817-0.113
			c1.576-0.478,1.755-1.43,1.272-1.798C222.835,387.736,221.892,387.669,220.521,387.844z"/>
	</g>
	<path style="fill:#231815;" d="M344.873,234.982c-13.49,0-19.623-13.49-7.358-14.717c12.265-1.227,17.169-4.906,24.527-1.227
		c7.358,3.679,7.358,11.038,3.679,14.717C362.042,237.434,344.873,234.982,344.873,234.982z"/>
	<path style="fill:#231815;" d="M365.721,263.188c0,0-2.452,7.36-14.717,1.227c-12.263-6.133-12.263-13.492-1.225-13.492
		C360.817,250.924,365.721,263.188,365.721,263.188z"/>
	<path style="fill:#231815;" d="M416.004,242.34c-7.358,8.584-4.906,12.263,0,15.942c4.904,3.679,4.906,17.171,11.037,6.133
		c6.131-11.038-6.133-31.887-6.133-31.887L416.004,242.34z"/>
	<path style="fill:#231815;" d="M412.325,313.47c-5.853-8.778-3.679-18.394,1.225-23.3c4.906-4.906,7.358-2.452,11.038,0
		c3.679,2.452,2.454,15.944-1.225,22.075C419.684,318.376,414.777,317.149,412.325,313.47z"/>
	<path style="fill:#231815;" d="M413.55,341.678c-3.679-1.227,0.002-9.812,6.133-8.585
		C425.815,334.32,413.55,341.678,413.55,341.678z"/>
	<path style="fill:#231815;" d="M423.363,390.732c-9.812,6.133-24.529,22.075-12.265,18.396c12.265-3.679,19.623,0,24.527-2.452
		c4.906-2.452,1.227-7.358,1.227-11.038C436.852,391.959,423.363,390.732,423.363,390.732z"/>
	<path style="fill:#231815;" d="M449.117,433.657c-8.228,5.483-28.208,8.585-15.944-3.679
		c12.264-12.264,12.264-14.717,19.623-14.717C460.154,415.261,452.796,431.205,449.117,433.657z"/>
</g>
</svg>
