<?xml version="1.0" encoding="iso-8859-1"?>
<!-- Generator: Adobe Illustrator 21.1.0, SVG Export Plug-In . SVG Version: 6.00 Build 0)  -->
<svg version="1.1" id="_x31_1" xmlns="http://www.w3.org/2000/svg" xmlns:xlink="http://www.w3.org/1999/xlink" x="0px" y="0px"
	 viewBox="0 0 512 512" style="enable-background:new 0 0 512 512;" xml:space="preserve">
<g>
	<path style="fill:#231815;" d="M200.986,72.173c-8.353,4.609-18.323,9.079-28.042,9.008c-3.722-0.027-8.533-2.736-12.039-0.983
		c-1.78,0.89-2.635,2.619-1.927,4.493c1.089,2.882,5.727,3.229,8.222,3.032c18.102-1.43,33.432-12.549,48.967-20.84
		c17.369-9.269,36.33-19.501,55.632-24.014c3.009-0.704,5.889-1.016,8.963-0.752c0.713,0.061,3.8,0.473,4.144,0.204
		c1.34-1.048-0.041-3.243-0.931-4.052c-4.572-4.16-16.053,1.667-20.913,3.497C241.343,49.947,221.377,61.281,200.986,72.173z"/>
	<path style="fill:#231815;" d="M241.097,26.634c-1.492-0.02-16.888-0.152-15.674-3.282c0.716-1.845,8.416-0.465,9.64-0.39
		c4.369,0.269,8.749,0.245,13.12,0.464c7.908,0.396,16.156,1.7,23.418,4.984c3.417,1.545,6.587,3.528,9.362,6.061
		c0.513,0.468,4.965,5.542,4.353,5.78c-0.686,0.266-6.913-4.757-8.19-5.389c-3.415-1.69-7.061-2.878-10.709-3.954
		C258.168,28.477,249.643,27.383,241.097,26.634z"/>
	<path style="fill:#231815;" d="M260.537,53.367c1.261-1.227,14.315-12.697,15.893-9.272c0.805,1.748-6.73,6.053-7.659,6.751
		c-3.525,2.652-6.738,5.682-9.673,8.971c-5.885,6.597-10.895,14.048-13.577,22.532c-1.334,4.221-2.109,8.63-2.365,13.048
		c-0.056,0.971-0.744,7.693-0.431,8.045c-2.333-2.622-2.096-10.227-2.092-13.537c0.005-4.511,0.806-8.941,2.41-13.16
		C246.536,67.55,253.135,59.706,260.537,53.367z"/>
	<path style="fill:#231815;" d="M127.14,38.583c-1.676,2.321-3.876,8.288,1.112,7.245c3.487-0.729,6.252-6.072,7.81-8.788
		c3.664-6.387,5.723-14.505,11.796-19.175c14.523-11.166,23.55,16.421,38.996,11.49c2.451-0.782,5.371-3.139,1.981-4.912
		c-2.633-1.377-7.1-0.542-10.039-1.178c-8.056-1.742-12.609-9.657-20.54-10.837C143.215,10.191,134.527,28.351,127.14,38.583z"/>
	<path style="fill:#231815;" d="M205.343,12.924c-0.801,3.185-1.553,6.742-3.33,9.567c-1.393,2.214-4.102,4.742-3.667,0.563
		c0.367-3.535,2.79-7.982,3.797-11.43c0.886-3.035,1.793-6.313,4.007-8.681c5.514-5.897,13.091-2.057,16.621,3.817
		c1.744,2.902,2.791,6.226,3.366,9.545c0.276,1.59,1.433,6.661,0.053,7.799C227.162,23.354,214.022-11.651,205.343,12.924z"/>
	<path style="fill:#231815;" d="M261.946,128.865c-14.59,4.984-30.261,7.14-45.656,6.203c-7.175-0.437-13.461-2.562-20.446-3.749
		c-2.865-0.487-8.245-1.563-10.481,1.046c-2.679,3.126,0.852,5.823,3.556,7.083c5.705,2.657,12.032,1.792,18.109,1.88
		c8.723,0.126,17.406-0.25,26.038-1.564c15.294-2.327,30.974-6.912,44.91-13.693c15.919-7.745,30.965-18.076,37.277-35.295
		c5.87-16.011,5.185-35.823,17.522-48.864c5.098-5.389,11.813-8.891,19.049-10.414c2.457-0.517,17.086-1.931,12.865-6.742
		c-3.612-4.118-16.648,2.009-20.434,3.688c-6.383,2.831-12.08,6.879-16.391,12.416c-12.785,16.42-9.785,38.873-19.821,56.492
		C298.854,113.485,278.747,122.862,261.946,128.865z"/>
	<path style="fill:#231815;" d="M126.995,49.329c-6.239,5.694-13.209,14.425-14.235,23.127c-0.885,7.508-4.813,14.101-8.277,20.804
		c-4.594,8.891-8.503,18.226-13.46,26.909c-3.922,6.87-8.556,13.172-10.748,20.845c-4.494,15.728-8.072,31.579-12.246,47.375
		c-2.264,8.566-3.605,16.396-2.831,25.308c0.929,10.697,3.738,21.057,6.35,31.432c2.131,8.463,3.566,17.136,6.684,25.322
		c1.813,4.759,7.325,17.11,14.27,13.488c3.856-2.011-2.397-1.728-4.156-3.055c-3.632-2.742-5.441-8.073-6.837-12.194
		c-3.111-9.189-4.452-18.884-6.728-28.294c-3.941-16.296-6.828-32.469-1.79-48.821c4.118-13.366,5.96-27.314,9.705-40.812
		c5.143-18.535,17.013-34.742,25.312-51.906c3.924-8.116,7.81-16.352,11.105-24.745C122.338,65.899,126.301,58.252,126.995,49.329z"
		/>
	<path style="fill:#231815;" d="M267.058,215.395c-0.599-6.123-1.712-12.159-3.163-18.134c-0.455-1.872-4.127-10.711-2.529-12.272
		c1.271-1.243,5.297,9.625,5.518,10.404c1.816,6.418,3.025,13.084,3.606,19.726c1.036,11.832-0.148,23.753-4.465,34.869
		c-4.046,10.417-10.63,19.78-19.129,27.039c-3.975,3.395-8.335,6.335-12.945,8.798c-0.966,0.516-9.704,5.565-10.799,4.449
		c0.903,0.921,15.605-10.427,17.24-11.855c5.699-4.976,10.758-10.718,14.9-17.051C264.135,247.847,268.117,231.492,267.058,215.395z
		"/>
	<path style="fill:#231815;" d="M246.264,116.613c-1.179-1.616-2.531-7.277,1.165-5.094c0.894,0.528,2.922,4.89,3.582,5.983
		c1.335,2.213,2.537,4.765,3.092,7.306c0.722,3.308,0.899,6.745-2.122,2.8C249.398,124.236,247.848,120.535,246.264,116.613z"/>
	<path style="fill:#231815;" d="M246.463,193.225c-7.062,0.492-14.154,0.984-21.105,2.388c-3.161,0.639-6.27,1.47-9.317,2.524
		c-1.865,0.645-4.552,2.424-4.79-0.334c-0.429-4.98,9.665-7.312,12.896-7.87c6.585-1.138,13.295-1.328,19.877-2.475
		c12.858-2.24,25.863-7.826,37.436-13.684c10.029-5.076,19.163-11.044,27.004-19.139c9.907-10.228,17.976-22.503,23.67-35.539
		c2.296-5.256,4.32-10.738,5.29-16.409c0.308-1.803,1.552-14.821,4.811-13.481c3.555,1.462-0.142,14.781-0.78,17.208
		c-1.403,5.335-3.321,10.65-5.692,15.639c-5.009,10.538-12.196,20.331-19.841,29.095c-9.38,10.751-19.096,18.796-31.97,25.203
		c-5.488,2.732-11.095,5.174-16.548,7.982C261.389,187.427,253.404,192.955,246.463,193.225z"/>
	<path style="fill:#231815;" d="M345.05,44.289c-0.745,1.138-5.17,7.958-5.544,3.656c-0.194-2.232,4.887-7.542,6.511-8.851
		c3.054-2.463,7.171-3.482,11.046-3.462c0.528,0.003,7.026,0.714,6.656,1.437c-0.492,0.962-8.429,1.846-9.828,2.229
		C350.459,40.236,347.427,41.561,345.05,44.289z"/>
	<path style="fill:#231815;" d="M350.108,53.788c-0.752,0.971-3.308,4.707-5.068,4.088c-2.339-0.822,4.125-7.286,4.815-7.996
		c2.493-2.567,5.661-4.643,9.307-5.039c1.364-0.148,2.804-0.058,4.128,0.297c0.126,0.034,3.903,1.592,3.255,1.924
		c-1.152,0.59-3.652,0.075-5.04,0.382c-1.362,0.302-2.758,0.76-4.037,1.3C354.698,49.916,352.273,51.716,350.108,53.788z"/>
	<path style="fill:#231815;" d="M345.867,78.268c-0.499,1.351-2.414,9.553-4.893,8.684c-2.954-1.035,2.577-12.124,3.342-13.607
		c2.422-4.695,6.215-8.752,10.855-11.325c1.75-0.97,10.071-4.496,11.614-1.814c-0.752-1.308-11.241,6.47-12.34,7.411
		C350.965,70.593,347.944,74.169,345.867,78.268z"/>
	<path style="fill:#231815;" d="M357.05,28.579c-3.528,0.106-15.443-1.77-17.929,2.219c-1.209,1.939,1.4,4.491,0.356,6.288
		c-1.186,2.042-2.198-0.918-2.849-2.351c-5.224-11.504,14.839-9.465,20.023-9.588c16.42-0.389,32.801-0.525,49.197,0.692
		c7.771,0.577,15.559,1.401,23.184,3.051c2.514,0.544,4.839,0.837,5.996,3.508c0.811,1.874,0.752,5.97-0.845,7.411
		c1.014-0.719-0.192-6.659-1.211-7.56c-1.86-1.643-6.111-1.232-8.423-1.391c-7.578-0.524-15.188-0.717-22.776-1.043
		C386.867,29.174,371.967,28.808,357.05,28.579z"/>
	<path style="fill:#231815;" d="M368.191,90.942c-5.286-0.205-10.936-0.791-15.958-2.55c-3.354-1.175-7.152-5.225-4.733-9.179
		c0.668-1.092,1.848,3.21,1.806,3.121c0.884,1.862,1.098,2.282,3.104,3.103c4.33,1.773,9.737,2.165,14.358,2.468
		c9.324,0.612,18.689-0.411,27.995-0.918c9.466-0.516,18.942-0.444,28.41-0.84c3.756-0.157,8.869,0.065,12.162-2.041
		c1.702-1.089,2.417-2.383,2.622-4.371c0.13-1.265-0.882-3.501-0.45-4.657c0.024-0.104,1.208,2.512,1.24,2.632
		c0.359,1.357,0.53,2.988,0.134,4.366c-1.06,3.688-5.065,5.06-8.392,5.909c-6.197,1.58-12.828,1.782-19.183,2.049
		C397.028,90.632,382.467,92.034,368.191,90.942z"/>
	<path style="fill:#231815;" d="M273.04,192.624c-0.656-3.516,3.249-2.927,5.393-3.227c3.638-0.508,5.284-1.171,9.017-0.587
		c7.344,1.149,14.807-0.506,22.092-1.136c4.245-0.367,8.277-1.053,12.445-1.849c3.151-0.601,6.067-0.582,9.017-2
		c5.4-2.594,11.292-3.298,17.017-5.459c12.499-4.718,26.596-10.947,36.183-20.416c4.021-3.972,7.735-8.242,11.765-12.196
		c5.459-5.356,9.306-11.995,13.315-18.468c2.359-3.809,5.227-7.256,7.751-10.951c2.651-3.882,4.601-8.08,7.432-11.858
		c2.176-2.905,4.71-5.736,5.752-9.276c0.307-1.043,2.467-11.583,2.53-11.549c1.981,1.075,1.108,7.216,0.841,8.992
		c-0.577,3.838-1.903,7.729-3.592,11.22c-1.376,2.845-3.823,4.452-5.758,6.922c-2.453,3.132-4.074,6.964-6.457,10.217
		c-6.261,8.543-12.378,17.219-18.715,25.694c-5.126,6.856-10.758,13.8-17.469,19.185c-6.657,5.342-14.757,8.97-22.635,12.12
		c-6.874,2.748-13.903,4.897-20.929,7.21c-6.977,2.297-13.425,4.884-20.762,6.153c-8.496,1.47-17.217,1.006-25.669,2.365
		C287.425,194.404,275.099,199.104,273.04,192.624z"/>
	<path style="fill:#231815;" d="M437.779,36.384c1.023,0.375,6.968,4.446,3.985,5.977c-1.041,0.534-4.26-3.116-5.431-3.569
		c-3.163-1.223-7.113-1.226-10.413-0.734c-0.887,0.132-8.198,1.717-8.28,2.192c0.587-3.394,7.46-5.615,10.168-5.851
		C431.197,34.105,434.754,34.832,437.779,36.384z"/>
	<path style="fill:#231815;" d="M443.44,49.456c1.17,0.856,5.63,6.36,2.472,7.647c-1.331,0.542-3.018-4.524-3.996-5.358
		c-2.834-2.415-7.395-3.485-10.945-4.298c-1.813-0.415-9.429-0.526-10.571-1.934c-0.436-0.537,10.349-1.508,11.304-1.353
		C435.907,44.842,440.262,46.556,443.44,49.456z"/>
	<path style="fill:#231815;" d="M440.691,57.297c1.074,0.665,6.931,5.25,4.54,7.084c-1.103,0.846-5.421-4.386-6.465-5.03
		c-3.474-2.142-7.722-3.486-11.768-3.935c-2.01-0.223-4.046-0.225-6.062-0.098c-0.827,0.052-3.737,0.874-4.469,0.314
		c-0.283-0.216,4.639-2.504,5.025-2.63c1.952-0.64,3.937-0.997,5.997-0.904C432.278,52.314,436.919,54.427,440.691,57.297z"/>
	<path style="fill:#231815;" d="M444.316,74.307c0.63,1.93-0.981,8.979-4.335,7.481c-1.033-0.461,2.287-5.591,1.279-7.597
		c-1.584-3.153-6.309-5.113-9.306-6.431c-1.895-0.834-3.848-1.601-5.814-2.252c-0.873-0.289-3.681-0.551-4.305-1.261
		c-0.164-0.145,5.615-0.678,6.345-0.614c2.315,0.203,4.518,0.75,6.654,1.673C438.781,67.013,443.124,69.923,444.316,74.307z"/>
	<path style="fill:#231815;" d="M386.029,113.142c3.19-3.358,6.292-7.413,7.129-12.08c0.357-1.994-1.13-10.206,2.14-5.597
		c5.796,8.168-5.845,19.615-11.302,24.234c-8.409,7.117-18.391,12.278-28.657,16.162c-5.242,1.984-10.625,3.618-16.138,4.649
		c-3.017,0.564-11.42,2.772-14.207,0.666c0.079,0.064,4.985-1.05,5.404-1.133c2.682-0.529,5.308-1.258,7.903-2.108
		c4.97-1.628,9.837-3.598,14.661-5.61C364.81,127.382,376.346,121.696,386.029,113.142z"/>
	<path style="fill:#231815;" d="M270.804,119.584c1.228,0.365,6.111,1.685,5.919,3.763c-0.295,3.189-6.673-0.382-8.21-0.906
		c-3.538-1.207-6.911-2.571-10.256-4.261c-1.404-0.709-7.496-3.24-7.674-5.08c-0.083-0.854,9.47,1.366,10.112,1.606
		C264.186,116.014,267.481,117.903,270.804,119.584z"/>
	<path style="fill:#231815;" d="M96.138,298.51c-0.633-2.573-10.267-29.798-3.669-29.134c3.193,0.321,4.559,7.857,4.961,9.912
		c1.039,5.311,2.645,10.397,4.816,15.36c4.236,9.688,10.095,18.519,14.654,28.031c3.737,7.796,5.469,16.345,5.575,24.967
		c0.139,11.334-2.02,22.609-4.709,33.571c-1.176,4.796-2.543,9.544-3.723,14.338c-0.907,3.684-1.286,8.562-4.564,11.037
		c-4.265,3.221-3.935-1.237-3.138-4.183c1.452-5.363,3.163-10.656,4.632-16.016c2.539-9.266,5.725-18.32,7.123-27.866
		c1.549-10.583,0.098-22.092-3.878-32.019c-1.991-4.972-4.659-9.535-7.949-13.751C103.089,308.682,97.471,303.701,96.138,298.51z"/>
	<path style="fill:#231815;" d="M102.748,493.104c-23.957-10.691-13.335-35.59-4.297-53.228c2.414-4.711,4.488-9.87,4.887-15.2
		c0.234-3.118-1.428-12.904-5.177-6.419c-2.265,3.918-2.995,9.637-4.289,13.974c-1.216,4.078-2.286,8.15-3.679,12.175
		c-5.721,16.529-11.759,37.374,6.139,48.691c9.601,6.071,21.3,8.235,32.255,10.484c5.36,1.101,10.738,2.16,16.019,3.604
		c5.086,1.39,10.125,4.114,15.379,4.735c6.308,0.746,0.576-3.956-1.927-5.237c-5.376-2.752-11.709-3.639-17.596-4.685
		C127.826,499.753,114.622,498.267,102.748,493.104z"/>
	<path style="fill:#231815;" d="M143.263,492.74c-1.568-0.126-14.476-0.572-13.941-2.905c0.527-2.299,17.743,0.504,19.899,0.83
		c6.902,1.044,12.67,3.99,18.441,7.818c2.57,1.705,5.063,3.529,7.701,5.129c1.414,0.858,6.597,2.48,7.474,3.914
		c0.121,0.198-4.128-0.552-4.233-0.58c-1.995-0.531-3.932-1.281-5.82-2.108c-3.056-1.339-5.922-3.025-8.792-4.718
		C157.32,496.184,150.921,493.927,143.263,492.74z"/>
	<path style="fill:#231815;" d="M149.988,484.38c-3.209-0.612-6.431-1.135-9.649-1.692c-1.32-0.228-7.052-0.649-4.402-2.457
		c2.248-1.533,7.849,0.235,10.094,0.621c3.816,0.655,7.615,1.432,11.41,2.201c7.802,1.581,14.322,4.983,20.747,9.608
		c1.357,0.977,13.572,10.522,14.109,10.021c-1.1,1.026-8.374-3.228-9.592-3.853c-3.508-1.801-6.838-3.917-10.197-5.974
		C165.36,488.477,158.039,486.447,149.988,484.38z"/>
	<path style="fill:#231815;" d="M194.852,310.825c7.927,33.04-14.939,61.109-33.627,85.742c-2.758,3.635-7.705,5.79-8.576,10.058
		c-0.721,3.536-1.436,4.474-3.752,6.876c-2.184,2.266-2.325,5.518-4.048,8.191c-1.737,2.695-3.85,4.321-4.92,7.457
		c-1.113,3.263-1.914,6.749-2.558,10.128c-1.301,6.827-2.075,15.949,3.357,21.249c5.892,5.749,15.239,7.76,22.867,9.953
		c4.024,1.157,17.563,3.191,18.478,8.696c1.041,6.269-13.269-0.974-15.679-1.779c-8.136-2.715-16.677-5.008-24.018-9.583
		c-14.214-8.86-13.186-26.712-7.047-40.53c1.283-2.888,3.298-5.181,5.055-7.773c2.375-3.505,3.727-7.568,6.24-10.98
		c2.004-2.72,3.663-5.659,5.6-8.341c1.559-2.159,3.896-3.676,5.491-5.872c9.214-12.692,17.065-26.436,24.099-40.427
		c4.323-8.598,8.611-17.669,10.071-27.271c0.612-4.025,0.762-8.135,0.245-12.179c-0.123-0.964-1.405-4.322-0.814-5.189
		C192.318,307.781,194.541,309.585,194.852,310.825z"/>
	<path style="fill:#231815;" d="M280.715,316.098c-1.17-10.896-4.068-21.743-8.832-31.627c-1.02-2.115-12.457-21.637-12.997-21.346
		c2.855-1.543,11.606,11.846,12.787,13.802c4.158,6.889,7.193,14.559,9.341,22.297c4.371,15.754,5.145,32.956,0.747,48.798
		c-4.32,15.562-14.721,26.665-24.939,38.643c-5.279,6.189-9.847,12.704-13.272,20.104c-2.743,5.928-7.445,15.641-3.2,21.879
		c4.779,7.023,17.613,8.176,24.957,11.132c4.202,1.691,8.264,3.77,11.891,6.5c1.252,0.942,4.327,5.084,5.59,5.53
		c-2.331-0.823-4.517-3.53-6.687-4.9c-3.384-2.136-7.057-3.79-10.827-5.113c-7.173-2.518-15.12-3.333-21.956-6.73
		c-15.335-7.619-5.453-28.065,0.988-38.768c8.52-14.159,22.372-24.408,29.736-39.354
		C280.052,344.74,282.285,329.608,280.715,316.098z"/>
	<path style="fill:#231815;" d="M211.59,372.41c-0.081-8.903-1.286-18.307-5.281-26.377c-1.463-2.955-3.347-5.665-5.756-7.928
		c-1.555-1.462-3.253-2.64-5.125-3.649c-0.879-0.474-4.419-1.392-4.842-2.499c-0.359-0.942,6.256,0.523,6.577,0.645
		c2.85,1.082,5.337,2.844,7.441,5.035c4.953,5.157,7.469,12.356,8.876,19.234c2.953,14.439,2.211,31.102-3.171,44.894
		c-5.091,13.047-14.826,25.615-14.835,40.154c-0.008,13.626,16.066,17.627,26.703,20.725c6.9,2.01,13.874,3.774,20.706,6.013
		c4.753,1.557,12.91,3.527,16.107,7.678c-0.663-0.851-4.84-2.016-5.957-2.457c-3.422-1.352-6.949-2.422-10.506-3.353
		c-6.594-1.728-13.307-2.967-19.95-4.482c-11.201-2.554-28.244-6.268-30.983-19.56c-2.81-13.633,6.023-27.748,11.784-39.414
		C208.805,396.076,211.379,384.659,211.59,372.41z"/>
	<path style="fill:#231815;" d="M245.431,457.069c-1.448-0.45-13.982-2.228-14.504-4.071c-0.897-3.173,16.687,1.919,18.303,2.539
		c7.678,2.946,14.564,7.401,21.623,11.552c1.534,0.902,16.469,9.794,16.983,9.195c-0.947,1.105-8.873-2.217-10.127-2.664
		c-3.758-1.34-7.349-3.013-10.835-4.954C259.748,464.7,252.984,460.225,245.431,457.069z"/>
	<path style="fill:#231815;" d="M251.828,447.145c-3.149-1.083-6.424-1.848-9.761-1.948c-0.577-0.017-3.684,0.48-4.127,0.019
		c-1.641-1.708,4.098-2.625,5.093-2.649c4-0.094,8.182,1.348,11.867,2.786c7.492,2.924,14.242,7.326,20.957,11.689
		c3.109,2.021,6.18,4.11,9.336,6.058c1.598,0.987,6.244,2.493,7.035,3.994c0.075,0.104-3.03-0.454-3.358-0.549
		c-1.863-0.541-3.68-1.28-5.466-2.033c-3.601-1.518-7.044-3.322-10.4-5.321C266.031,455.04,259.36,450.267,251.828,447.145z"/>
	<path style="fill:#231815;" d="M165.861,97.405c1.95-0.174,6.338-1.744,3.111-3.4c-1.718-0.882-6.008,0.076-7.769,0.043
		c-5.696-0.107-12.922-1.253-14.675-7.622c-1.637-5.944,1.574-11.435,7.468-12.943c3.705-0.948,7.779-0.656,11.561-0.542
		c1.548,0.047,8.258,0.996,9.27-1.005c1.698-3.358-12.564-1.593-14.135-1.431c-5.973,0.616-12.906,1.206-15.524,7.589
		C139.65,91.546,154.702,98.556,165.861,97.405z"/>
	<path style="fill:#231815;" d="M161.66,41.942c-3.879-2.59-4.52-8.807-2.323-12.669c1.942-3.415,5.315-3.15,7.18,0.183
		C168.328,32.693,167.985,44.818,161.66,41.942"/>
	<path style="fill:#231815;" d="M214.303,30.213c-5.716,2.035-4.929-8.438-2.575-10.965c1.621-1.739,3.895-1.121,5.445,0.666
		C220.157,23.353,216.96,27.738,214.303,30.213"/>
	<path style="fill:#231815;" d="M239.101,40.595c-1.857,0.162-2.47,2.445-3.878,0.32c-0.679-1.024-0.243-3.965,0.786-4.748
		c2.773-2.111,5.302,2.418,5.745,4.544"/>
	<path style="fill:#231815;" d="M197.689,137.132c-3.131,6.068-3.143,15.459,1.073,21.068c2.794,3.717,10.894,6.586,14.489,2.399
		c2.934-3.417,1.781-9.622,1.231-13.632c-0.23-1.678-0.136-6.012-1.099-7.346C211.923,137.596,200.468,137.596,197.689,137.132z"/>
	<path style="fill:#231815;" d="M232.118,139.96c-2.255,19.319,22.106,16.696,18.24-3.022
		C243.711,135.859,237.553,137.352,232.118,139.96z"/>
	<path style="fill:#231815;" d="M145.604,326.23c3.793-13.496,30.852-10.845,38.036-1.988c4.589,5.658-2.093,9.244-6.831,10.499
		c-7.346,1.945-16.664,5.706-24.373,4.925c-4.73-0.479-9.356-3.561-10.935-8.185C140.374,328.181,141.522,324.639,145.604,326.23z"
		/>
	<path style="fill:#231815;" d="M171.035,352.586c-6.245-3.477-14.877,0.287-19.33,5.101c-3.434,3.713-3.935,9.803,2.543,10.024
		c5.229,0.179,11.735-1.105,16.882-2.098c1.967-0.379,5.508-1.624,5.803-4.205c0.407-3.556-7.69-7.445-9.877-8.995"/>
	<path style="fill:#231815;" d="M265.882,300.837c-6.262,4.025-13.967,5.921-20.806,8.73c-2.683,1.102-13.615,4.746-9.357,8.965
		c3.004,2.977,10.025,3.223,13.91,3.253c5.838,0.046,11.748-1.263,16.688-4.452c3.171-2.048,8.371-5.793,8.676-10.023
		C275.331,302.627,269.422,301.331,265.882,300.837z"/>
	<path style="fill:#231815;" d="M267.518,334.194c-8.835-1.138-21.875-0.585-24.046,10.275c-0.664,3.322-1.137,5.963,2.665,6.078
		c3.18,0.096,6.233-0.841,9.138-2.044c5.92-2.452,11.516-6.303,18.162-6.275c-2.908-2.243-4.552-5.645-7.246-8.093"/>
	<path style="fill:#231815;" d="M95.165,141.64c2.481-7.217,13.634-26.461,20.795-11.936c1.434,2.909,2.023,6.228,2.363,9.425
		c0.221,2.081,0.747,4.588-0.442,6.133c-1.239,1.61-4.622,2.903-6.549,3.544c-3.672,1.223-7.59,1.158-11.073-0.618
		c-1.657-0.845-4.807-2.729-4.822-4.609c-0.007-0.894,1.14-1.514,1.194-1.711C96.532,142.23,94.979,141.56,95.165,141.64z"/>
	<path style="fill:#231815;" d="M80.632,170.243c19.26,6.728,1.904,27.443-12.572,28.364
		C61.972,211.29,66.333,182.121,80.632,170.243z"/>
	<path style="fill:#231815;" d="M73.008,228.726c-2.549,3.75-5.019,11.706-0.149,14.879c4.974,3.241,13.837-4.046,14.986-8.749
		C89.744,227.081,75.831,229.369,73.008,228.726z"/>
	<path style="fill:#231815;" d="M106.352,189.968c8.175-7.957,13.487,23.907,3.911,26.399
		C96.604,221.84,100.882,197.166,106.352,189.968z"/>
	<path style="fill:#231815;" d="M113.2,71.815c11.284,1.991-3.319,37.175-4.647,27.881C100.482,91.618,109.217,81.772,113.2,71.815z
		"/>
</g>
</svg>
